<?xml version="1.0" standalone="no"?>
<!DOCTYPE svg PUBLIC "-//W3C//DTD SVG 20010904//EN"
 "http://www.w3.org/TR/2001/REC-SVG-20010904/DTD/svg10.dtd">
<svg version="1.0" xmlns="http://www.w3.org/2000/svg"
 width="1280.000000pt" height="986.000000pt" viewBox="0 0 1280.000000 986.000000"
 preserveAspectRatio="xMidYMid meet">
<metadata>
Created by potrace 1.15, written by Peter Selinger 2001-2017
</metadata>
<g transform="translate(0.000000,986.000000) scale(0.100000,-0.100000)"
fill="#F3983E" stroke="none">
<path d="M6010 9807 l0 -52 103 -34 c56 -18 108 -37 116 -41 9 -5 -29 -22
-102 -46 l-117 -38 0 -54 c0 -39 3 -53 13 -49 6 2 80 32 163 66 151 61 152 61
253 61 l101 0 0 49 0 50 -107 3 c-107 4 -109 4 -265 70 l-158 66 0 -51z"/>
<path d="M10345 9663 c-31 -8 -65 -43 -91 -95 -28 -55 -37 -62 -70 -54 -19 5
-24 13 -24 36 0 23 5 31 25 36 21 5 25 12 25 41 0 33 -1 35 -27 28 -49 -11
-76 -48 -76 -100 0 -129 138 -154 197 -36 38 73 78 97 110 65 25 -24 19 -53
-14 -72 -21 -12 -30 -25 -30 -43 0 -35 7 -39 41 -27 72 25 95 129 42 188 -28
30 -70 43 -108 33z"/>
<path d="M6010 9295 l0 -165 40 0 40 0 0 55 0 55 225 0 225 0 0 50 0 50 -225
0 -225 0 0 60 0 60 -40 0 -40 0 0 -165z"/>
<path d="M10194 9389 c-16 -5 -41 -20 -55 -35 -20 -22 -24 -37 -28 -105 l-3
-79 183 0 184 0 -5 79 c-6 91 -24 120 -89 140 -44 13 -142 13 -187 0z m205
-83 c12 -11 21 -31 21 -48 l0 -28 -125 0 c-136 0 -145 3 -126 54 15 37 43 46
132 43 59 -2 82 -6 98 -21z"/>
<path d="M10733 9230 c-43 -26 -63 -68 -63 -133 0 -75 27 -111 120 -164 102
-58 120 -80 120 -147 0 -70 -20 -96 -80 -103 -56 -6 -96 21 -106 72 -6 32 -9
35 -40 35 -39 0 -44 -18 -20 -73 19 -44 53 -73 104 -87 116 -30 212 41 212
158 0 96 -26 133 -138 194 -82 46 -107 75 -107 129 0 98 123 119 159 28 14
-33 20 -39 46 -39 24 0 30 4 30 21 0 36 -32 90 -64 110 -42 26 -130 25 -173
-1z"/>
<path d="M11165 9240 c-33 -13 -73 -62 -90 -110 -37 -102 -29 -334 15 -421 42
-82 125 -109 207 -68 87 43 120 149 111 347 -9 184 -61 263 -173 261 -27 0
-59 -4 -70 -9z m110 -56 c9 -4 26 -25 38 -48 20 -37 22 -56 22 -191 0 -140 -2
-153 -25 -200 -43 -87 -119 -86 -161 2 -27 56 -38 237 -20 326 21 96 75 138
146 111z"/>
<path d="M11590 9228 c-70 -46 -108 -185 -96 -348 11 -168 54 -241 150 -255
88 -14 185 64 186 148 0 23 -4 27 -30 27 -21 0 -32 -6 -36 -17 -24 -81 -69
-116 -123 -94 -39 17 -59 58 -72 147 -21 149 8 316 59 343 55 29 115 2 130
-59 7 -30 13 -35 40 -38 29 -3 32 0 32 23 0 37 -23 86 -54 115 -40 36 -137 41
-186 8z"/>
<path d="M11925 9241 c-3 -2 -5 -141 -5 -308 l0 -303 35 0 35 0 -2 307 -3 306
-28 1 c-15 1 -30 0 -32 -3z"/>
<path d="M12200 9211 c-8 -30 -118 -484 -135 -558 -5 -20 -2 -23 28 -23 l34 0
22 100 22 100 79 0 78 0 24 -97 c21 -86 27 -98 47 -101 50 -8 50 -6 -29 309
l-75 304 -43 1 c-40 2 -42 0 -52 -35z m60 -69 c0 -10 13 -70 29 -135 l28 -117
-65 0 -64 0 4 28 c19 106 54 250 60 246 4 -3 8 -13 8 -22z"/>
<path d="M12514 9236 c-2 -6 -3 -144 -2 -306 l3 -295 136 -3 c135 -3 137 -2
143 20 3 13 6 26 6 31 0 4 -49 7 -110 7 l-110 0 -2 278 -3 277 -28 1 c-16 1
-31 -4 -33 -10z"/>
<path d="M5780 9110 l0 -70 -177 -2 c-170 -3 -178 -4 -178 -23 0 -19 8 -20
193 -23 l192 -2 0 89 c0 70 -3 90 -15 95 -12 4 -15 -6 -15 -64z"/>
<path d="M10149 9097 c-29 -22 -39 -55 -39 -132 l0 -75 182 2 182 3 0 30 0 30
-77 3 c-77 3 -77 3 -77 30 0 41 17 52 80 52 65 0 75 6 75 43 l1 29 -72 -4
c-49 -2 -78 -9 -91 -20 -17 -15 -20 -15 -42 3 -27 22 -97 25 -122 6z m101 -67
c11 -11 20 -31 20 -45 0 -24 -3 -25 -55 -25 -52 0 -55 1 -55 25 0 28 32 65 55
65 8 0 24 -9 35 -20z"/>
<path d="M6010 9030 l0 -50 265 0 265 0 0 50 0 50 -265 0 -265 0 0 -50z"/>
<path d="M5610 8901 l-185 -47 0 -29 0 -29 193 -47 c191 -46 192 -46 192 -24
0 19 -9 24 -60 35 l-60 13 0 52 0 52 60 13 c53 11 60 16 60 36 0 13 -3 24 -7
23 -5 0 -91 -22 -193 -48z m40 -75 l0 -44 -82 19 c-46 10 -87 19 -93 19 -5 1
31 12 80 25 50 12 91 23 93 24 1 0 2 -19 2 -43z"/>
<path d="M6090 8897 c-19 -7 -44 -27 -57 -46 -21 -30 -23 -46 -23 -147 l0
-114 265 0 265 0 0 50 0 50 -116 0 -117 0 6 42 c7 51 27 68 81 68 23 0 65 3
94 6 l52 7 0 46 0 46 -104 -6 c-102 -5 -128 -14 -149 -47 -6 -10 -13 -7 -28
12 -19 25 -74 46 -114 45 -11 0 -36 -5 -55 -12z m124 -106 c10 -11 20 -38 23
-60 l6 -41 -82 0 -81 0 0 31 c0 32 15 69 34 81 22 15 83 8 100 -11z"/>
<path d="M10273 8808 l-163 -40 0 -44 c0 -37 3 -44 23 -49 198 -49 337 -81
340 -79 2 2 2 17 -1 34 -3 23 -11 32 -31 36 -63 14 -62 13 -59 57 3 41 5 42
47 53 40 9 44 13 45 42 1 41 3 41 -201 -10z m57 -89 c0 -24 -4 -29 -17 -25
-10 3 -36 8 -58 11 -79 13 -83 18 -25 31 92 20 100 18 100 -17z"/>
<path d="M2348 8748 l-3 -93 -227 -3 -228 -2 0 -25 0 -25 255 0 255 0 0 114
c0 115 -3 126 -40 126 -5 0 -11 -42 -12 -92z"/>
<path d="M5427 8653 c-4 -3 -7 -12 -7 -19 0 -11 36 -14 157 -16 l156 -3 -54
-22 c-263 -107 -259 -105 -259 -129 l0 -24 195 0 c192 0 195 0 195 21 0 21 -3
21 -160 18 -88 -2 -160 -3 -160 -3 0 1 72 30 160 64 154 61 160 64 160 92 l0
28 -188 0 c-104 0 -192 -3 -195 -7z"/>
<path d="M10185 8556 c-56 -25 -70 -50 -74 -137 l-3 -79 181 0 181 0 0 74 c0
65 -3 78 -26 105 -14 17 -42 35 -62 41 -51 14 -161 12 -197 -4z m214 -80 c12
-11 21 -30 21 -43 0 -23 0 -23 -130 -23 -74 0 -130 4 -130 9 0 26 22 63 42 71
13 5 57 9 99 7 59 -2 82 -6 98 -21z"/>
<path d="M2135 8476 l-240 -63 0 -38 0 -39 225 -56 c124 -31 237 -60 253 -63
25 -7 27 -5 27 22 0 29 -2 30 -80 48 l-81 18 3 69 3 70 50 12 c28 6 62 15 78
18 22 5 27 12 27 36 0 18 -5 30 -12 29 -7 0 -121 -29 -253 -63z m55 -101 c0
-30 -2 -55 -5 -55 -6 0 -179 37 -215 46 -19 5 1 13 85 34 61 15 116 28 123 29
8 1 12 -16 12 -54z"/>
<path d="M6122 8496 c-88 -29 -122 -72 -122 -158 0 -98 68 -153 205 -169 151
-17 285 18 325 84 27 44 27 131 0 175 -35 56 -94 76 -240 79 -86 2 -138 -2
-168 -11z m308 -105 c30 -14 35 -21 35 -51 0 -31 -5 -37 -40 -55 -59 -29 -255
-29 -305 1 -47 27 -54 74 -15 100 53 35 255 38 325 5z"/>
<path d="M11500 8458 c-39 -21 -67 -72 -75 -136 -8 -67 7 -160 30 -196 34 -51
131 -58 173 -13 32 35 42 72 42 163 0 127 -31 181 -107 190 -21 3 -49 -1 -63
-8z m84 -70 c20 -28 22 -181 3 -218 -18 -35 -52 -38 -73 -4 -25 38 -26 179 -1
217 21 33 50 35 71 5z"/>
<path d="M10660 8275 l0 -185 35 0 35 0 0 80 c0 77 1 80 23 80 43 0 56 -20 59
-90 l3 -65 33 -3 32 -3 0 69 c0 54 -4 75 -20 94 -19 25 -19 26 0 43 27 25 34
67 16 108 -20 48 -41 57 -135 57 l-81 0 0 -185z m144 113 c9 -12 16 -28 16
-35 0 -22 -39 -53 -65 -53 -24 0 -25 3 -25 55 0 54 0 55 29 55 20 0 35 -8 45
-22z"/>
<path d="M10940 8275 l0 -185 99 0 c97 0 99 0 103 25 3 13 3 27 0 30 -3 3 -34
5 -69 5 l-63 0 0 50 0 50 60 0 60 0 0 30 0 30 -60 0 -60 0 0 45 0 44 63 3 c59
3 62 4 65 31 l3 27 -100 0 -101 0 0 -185z"/>
<path d="M11190 8275 l0 -185 35 0 35 0 0 80 0 80 60 0 60 0 0 30 0 30 -60 0
-60 0 0 45 0 44 63 3 c59 3 62 4 65 31 l3 27 -100 0 -101 0 0 -185z"/>
<path d="M11730 8275 l0 -185 35 0 35 0 0 80 c0 74 2 80 21 80 45 0 59 -17 59
-75 0 -72 6 -85 41 -85 l29 0 0 69 c0 53 -4 74 -20 93 -19 25 -19 26 0 43 27
25 34 67 16 108 -20 48 -41 57 -135 57 l-81 0 0 -185z m142 118 c38 -34 7 -93
-49 -93 -21 0 -23 4 -23 55 0 53 1 55 27 55 14 0 35 -7 45 -17z"/>
<path d="M12010 8275 l0 -185 30 0 29 0 3 148 3 147 24 -147 25 -148 32 0 32
0 28 148 29 147 3 -147 3 -148 29 0 30 0 0 185 0 185 -49 0 -49 0 -12 -52 c-6
-29 -16 -83 -22 -120 -7 -38 -15 -68 -18 -68 -3 0 -14 54 -24 120 l-19 120
-54 0 -53 0 0 -185z"/>
<path d="M5424 8345 c-12 -32 7 -35 197 -35 l189 0 0 25 0 25 -190 0 c-157 0
-192 -3 -196 -15z"/>
<path d="M10110 8240 l0 -29 118 -3 117 -3 -117 -45 -118 -45 0 -37 0 -38 180
0 c173 0 180 1 180 20 0 11 0 23 0 28 0 4 -54 9 -121 12 l-121 5 94 34 c164
61 155 55 150 95 l-4 36 -179 0 -179 0 0 -30z"/>
<path d="M5427 8233 c-4 -3 -7 -19 -7 -34 0 -27 2 -28 156 -65 87 -21 152 -40
146 -42 -7 -2 -76 -18 -154 -35 l-143 -32 -3 -33 -3 -32 195 0 c191 0 196 0
196 21 0 20 -4 20 -164 17 -91 -2 -163 -1 -161 0 3 3 313 72 323 72 1 0 2 11
2 23 0 22 -9 26 -139 55 -77 18 -146 32 -155 32 -8 0 -17 3 -19 8 -3 4 66 5
154 4 l159 -4 0 26 0 26 -188 0 c-104 0 -192 -3 -195 -7z"/>
<path d="M1953 8145 c-48 -21 -63 -59 -63 -165 l0 -90 255 0 255 0 0 30 0 30
-120 0 -120 0 0 40 c0 46 16 86 39 95 9 4 58 9 109 12 l92 6 0 27 0 28 -87 -5
c-113 -5 -129 -9 -155 -35 l-21 -21 -16 21 c-32 41 -108 53 -168 27z m121 -56
c29 -14 33 -22 42 -89 l7 -50 -97 0 -96 0 0 34 c0 43 16 87 37 104 21 15 74
16 107 1z"/>
<path d="M6010 8040 l0 -50 105 0 105 0 0 -65 0 -65 -105 0 -105 0 0 -45 0
-45 265 0 265 0 0 45 0 45 -120 0 -120 0 0 65 0 65 120 0 120 0 0 50 0 50
-265 0 -265 0 0 -50z"/>
<path d="M10277 7957 l-168 -41 3 -45 3 -45 175 -42 c96 -23 177 -41 180 -39
3 2 5 16 5 32 -1 25 -7 29 -46 39 -44 11 -44 11 -44 54 0 43 0 43 44 54 41 10
44 14 45 44 1 22 -3 32 -14 31 -8 0 -91 -19 -183 -42z m53 -88 c0 -30 -1 -31
-32 -25 -18 4 -50 9 -70 13 -52 8 -47 18 15 30 86 17 87 17 87 -18z"/>
<path d="M11157 7903 c-4 -3 -7 -51 -7 -105 l0 -98 -250 0 -250 0 0 -55 0 -55
300 0 300 0 0 149 c0 83 -3 152 -7 154 -17 9 -80 17 -86 10z"/>
<path d="M5422 7859 c3 -19 10 -20 196 -22 l192 -2 0 23 0 22 -196 0 c-191 0
-195 0 -192 -21z"/>
<path d="M2693 7825 c-41 -17 -63 -61 -63 -124 0 -62 26 -95 110 -140 71 -38
95 -70 94 -125 -2 -46 -38 -86 -80 -86 -31 0 -84 50 -84 79 0 17 -6 21 -30 21
-34 0 -37 -13 -16 -64 22 -52 60 -76 123 -76 99 0 143 44 143 142 0 77 -20
104 -123 160 -84 45 -107 99 -66 152 37 47 105 31 123 -31 10 -31 56 -33 56
-3 0 82 -100 133 -187 95z"/>
<path d="M3006 7588 c-32 -134 -60 -251 -63 -261 -4 -15 0 -18 24 -15 26 3 29
8 48 83 l20 80 67 3 66 3 19 -83 c18 -82 19 -83 52 -86 28 -3 32 -1 27 15 -3
10 -28 110 -56 223 -28 113 -55 222 -61 243 -9 34 -12 37 -47 37 l-38 0 -58
-242z m125 57 l25 -115 -53 0 c-29 0 -53 3 -53 8 0 19 45 222 50 222 3 0 17
-52 31 -115z"/>
<path d="M3322 7573 l3 -258 28 -3 27 -3 0 125 0 126 85 0 c84 0 85 0 85 25 0
25 -1 25 -85 25 l-85 0 0 85 0 85 90 0 c89 0 90 0 90 25 l0 25 -120 0 -120 0
2 -257z"/>
<path d="M3630 7570 l0 -260 120 0 c66 0 120 4 120 9 0 5 3 16 6 25 5 14 -6
16 -90 16 l-96 0 0 100 0 100 85 0 c84 0 85 0 85 25 0 25 -1 25 -85 25 l-85 0
0 85 0 85 90 0 c89 0 90 0 90 25 l0 25 -120 0 -120 0 0 -260z"/>
<path d="M3910 7805 c0 -24 3 -25 60 -25 l60 0 0 -236 0 -235 28 3 27 3 3 233
2 232 55 0 c52 0 55 1 55 25 l0 25 -145 0 -145 0 0 -25z"/>
<path d="M4240 7822 c0 -4 29 -76 65 -159 l65 -151 0 -101 0 -101 25 0 c25 0
25 0 25 96 0 102 -2 96 104 342 l36 83 -32 -3 c-29 -3 -33 -8 -69 -98 -21 -52
-43 -108 -49 -125 -11 -29 -13 -26 -61 98 -49 122 -52 127 -80 127 -16 0 -29
-4 -29 -8z"/>
<path d="M1890 7701 l0 -121 255 0 255 0 0 120 0 120 -25 0 c-25 0 -25 0 -25
-95 l0 -96 -97 3 -98 3 -3 88 c-3 85 -4 88 -25 85 -21 -3 -22 -9 -25 -90 l-3
-88 -79 0 -79 0 -3 93 c-3 87 -4 92 -25 95 -23 3 -23 2 -23 -117z"/>
<path d="M7340 7555 l0 -255 30 0 30 0 0 110 0 110 53 0 c98 0 157 55 157 145
0 99 -60 145 -187 145 l-83 0 0 -255z m185 180 c33 -32 35 -100 4 -139 -18
-22 -28 -26 -75 -26 l-54 0 0 95 0 95 50 0 c41 0 56 -5 75 -25z"/>
<path d="M7680 7555 l0 -256 118 3 c113 3 117 4 120 26 3 21 1 22 -92 22 l-96
0 0 95 0 95 85 0 c84 0 85 0 85 25 0 25 -1 25 -85 25 l-85 0 0 85 0 85 90 0
c89 0 90 0 90 25 l0 25 -115 0 -115 0 0 -255z"/>
<path d="M7987 7804 c-4 -4 -7 -119 -7 -256 l0 -248 31 0 31 0 -4 210 c-2 116
-3 210 -2 210 1 0 39 -94 84 -210 l83 -210 34 0 33 0 0 255 0 255 -25 0 -25 0
0 -207 -1 -208 -82 205 c-80 199 -84 205 -113 208 -16 2 -33 0 -37 -4z"/>
<path d="M8391 7561 c-34 -138 -61 -253 -61 -256 0 -4 12 -5 27 -3 28 3 28 4
57 131 7 28 8 28 73 25 l67 -3 9 -40 c25 -113 26 -115 58 -115 27 0 29 2 22
28 -3 15 -32 128 -63 252 l-56 225 -36 3 -36 3 -61 -250z m123 65 c15 -59 26
-110 26 -112 0 -2 -25 -4 -56 -4 -48 0 -55 2 -50 18 7 22 46 200 46 209 0 23
12 -16 34 -111z"/>
<path d="M8710 7555 l0 -255 115 0 115 0 0 25 c0 25 -1 25 -90 25 l-90 0 0
230 0 230 -25 0 -25 0 0 -255z"/>
<path d="M8890 7785 c0 -24 3 -25 55 -25 l55 0 0 -230 0 -230 30 0 30 0 0 230
0 230 55 0 c52 0 55 1 55 25 l0 25 -140 0 -140 0 0 -25z"/>
<path d="M9230 7555 l0 -255 25 0 25 0 0 255 0 255 -25 0 -25 0 0 -255z"/>
<path d="M9390 7555 l0 -256 118 3 c113 3 117 4 120 26 3 21 1 22 -92 22 l-96
0 0 95 0 95 85 0 c84 0 85 0 85 25 0 25 -1 25 -85 25 l-85 0 0 85 0 85 90 0
c89 0 90 0 90 25 l0 25 -115 0 -115 0 0 -255z"/>
<path d="M9742 7794 c-49 -34 -67 -116 -37 -174 9 -17 42 -45 83 -69 91 -53
104 -69 104 -127 0 -38 -5 -52 -22 -66 -48 -39 -121 -13 -136 47 -5 19 -13 25
-34 25 -27 0 -28 -1 -20 -36 18 -78 102 -121 183 -95 55 18 80 52 85 118 6 70
-13 110 -70 144 -22 13 -58 38 -81 55 -39 28 -42 33 -42 79 0 42 4 51 26 64
38 21 76 8 96 -34 20 -41 63 -51 63 -14 0 30 -29 76 -57 88 -35 16 -115 13
-141 -5z"/>
<path d="M5453 7746 c-25 -21 -28 -31 -31 -100 l-4 -76 196 0 c189 0 196 1
196 20 0 19 -7 20 -90 20 l-90 0 0 33 c0 55 23 77 83 77 71 0 97 9 97 31 0 17
-8 19 -63 19 -41 0 -75 -6 -98 -18 -35 -18 -37 -18 -59 0 -33 27 -102 24 -137
-6z m122 -41 c17 -16 25 -35 25 -60 l0 -35 -70 0 -70 0 0 44 c0 35 5 48 22 60
32 23 65 20 93 -9z"/>
<path d="M10110 7644 l0 -115 28 3 c23 3 27 8 30 40 l3 37 151 3 151 3 1 33 1
32 -152 0 -153 0 0 40 c0 38 -2 40 -30 40 l-30 0 0 -116z"/>
<path d="M6010 7550 l0 -160 40 0 40 0 0 55 0 55 225 0 225 0 0 50 0 50 -225
0 -225 0 0 55 0 55 -40 0 -40 0 0 -160z"/>
<path d="M11175 7515 c-27 -7 -157 -39 -287 -71 l-238 -57 0 -74 c0 -40 2 -73
4 -73 2 0 136 -31 296 -70 160 -38 294 -70 296 -70 2 0 4 22 4 50 0 56 -8 63
-80 75 -70 11 -72 14 -72 91 l0 69 73 16 74 15 0 54 c0 29 -4 54 -10 56 -5 1
-32 -4 -60 -11z m-175 -206 c0 -43 -2 -50 -17 -45 -10 2 -56 12 -103 21 -134
26 -134 26 -25 50 150 33 145 34 145 -26z"/>
<path d="M5474 7500 c-59 -24 -73 -112 -26 -160 36 -36 122 -55 214 -47 105 9
158 47 158 114 0 39 -42 89 -82 99 -41 9 -39 -29 2 -46 31 -13 47 -47 36 -75
-12 -32 -75 -47 -178 -43 -112 4 -141 20 -136 72 2 24 11 34 36 45 58 26 35
65 -24 41z"/>
<path d="M10163 7495 c-40 -17 -56 -48 -55 -105 0 -37 6 -49 31 -72 46 -41 94
-39 137 8 19 19 34 41 34 48 0 7 9 25 21 40 23 29 69 35 89 11 19 -22 4 -64
-25 -71 -21 -5 -25 -12 -25 -40 0 -38 6 -40 54 -20 42 17 60 60 53 123 -7 62
-40 93 -100 93 -54 0 -81 -19 -111 -79 -30 -57 -48 -74 -78 -69 -33 4 -33 59
0 73 15 7 22 18 22 37 0 35 -8 39 -47 23z"/>
<path d="M2010 7479 c-91 -28 -120 -74 -120 -194 l0 -85 255 0 255 0 0 73 c0
96 -27 152 -90 186 -38 21 -60 25 -155 28 -60 1 -126 -2 -145 -8z m252 -59
c53 -15 88 -61 88 -116 l0 -44 -205 0 -205 0 0 49 c0 58 26 96 73 110 44 13
204 13 249 1z"/>
<path d="M6010 7291 l0 -51 208 0 c172 0 211 -3 230 -16 29 -20 30 -74 1 -100
-19 -17 -41 -19 -230 -22 l-209 -3 0 -45 0 -44 215 0 c242 0 271 6 305 62 28
45 28 150 0 195 -37 62 -61 68 -302 71 l-218 3 0 -50z"/>
<path d="M2350 7046 l0 -96 -100 0 -100 0 0 85 c0 84 0 85 -25 85 -25 0 -25
-1 -25 -85 l0 -85 -80 0 -80 0 0 90 c0 89 0 90 -25 90 l-25 0 0 -120 0 -120
255 0 255 0 0 120 c0 66 -4 120 -9 120 -5 0 -16 3 -25 6 -14 5 -16 -6 -16 -90z"/>
<path d="M8206 7130 c-72 -22 -114 -98 -123 -223 -10 -150 21 -259 88 -310 35
-26 138 -27 177 -1 71 46 86 91 86 259 1 131 -1 144 -24 190 -39 77 -119 110
-204 85z m85 -80 c4 0 16 -15 26 -32 15 -27 18 -57 18 -165 0 -118 -2 -134
-21 -160 -29 -39 -77 -43 -99 -9 -27 41 -40 163 -27 253 9 65 15 82 38 101 14
13 33 21 41 18 8 -3 19 -6 24 -6z"/>
<path d="M8583 7121 c-51 -24 -75 -67 -75 -133 0 -74 26 -107 123 -158 32 -16
66 -41 78 -56 60 -76 -26 -167 -94 -99 -14 13 -25 33 -25 45 0 17 -6 20 -51
20 l-52 0 6 -37 c13 -79 74 -125 167 -125 70 0 114 21 147 72 38 56 26 158
-24 202 -10 10 -50 35 -88 55 -82 45 -104 77 -83 121 11 22 20 27 48 27 30 0
37 -5 53 -37 17 -36 22 -38 64 -38 l45 0 -7 38 c-13 75 -54 111 -137 118 -39
4 -64 0 -95 -15z"/>
<path d="M9006 7130 c-91 -29 -139 -172 -117 -350 18 -143 71 -203 177 -202
73 1 113 25 144 87 23 46 25 60 25 195 0 136 -2 148 -25 189 -14 24 -36 53
-50 63 -29 21 -112 31 -154 18z m99 -94 c30 -30 39 -89 33 -220 -5 -117 -22
-156 -67 -156 -36 0 -48 10 -66 53 -20 48 -21 243 -1 291 24 58 63 70 101 32z"/>
<path d="M10650 6950 l0 -190 45 0 45 0 0 65 0 65 253 2 252 3 0 55 0 55 -250
2 -250 2 -3 65 -3 66 -44 0 -45 0 0 -190z"/>
<path d="M6760 6865 c0 -146 0 -268 0 -272 0 -5 20 -9 45 -11 l44 -3 3 113 3
113 70 6 c116 9 161 59 153 170 -8 113 -60 149 -215 149 l-103 0 0 -265z m200
165 c14 -14 20 -33 20 -63 0 -56 -24 -80 -83 -81 l-42 -1 -3 83 -3 82 46 0
c32 0 51 -6 65 -20z"/>
<path d="M7150 6854 l0 -275 48 3 47 3 3 123 3 122 64 0 65 0 0 -125 0 -125
50 0 50 0 0 275 0 275 -50 0 -50 0 0 -110 0 -110 -65 0 -65 0 0 110 0 110 -50
0 -50 0 0 -276z"/>
<path d="M7580 6854 l0 -275 48 3 47 3 3 273 2 272 -50 0 -50 0 0 -276z"/>
<path d="M7775 7117 c-3 -7 -4 -129 -3 -272 l3 -260 140 0 140 0 3 43 3 42
-95 0 -96 0 0 230 0 230 -45 0 c-28 0 -48 -5 -50 -13z"/>
<path d="M9322 6859 l3 -274 47 -3 47 -3 3 113 3 113 67 5 c76 6 113 27 140
81 36 70 12 174 -49 215 -22 15 -51 19 -146 22 l-117 4 2 -273z m207 165 c26
-33 27 -84 3 -114 -14 -17 -30 -23 -63 -24 l-44 -1 -3 83 -3 82 45 0 c36 0 48
-5 65 -26z"/>
<path d="M9712 6858 l3 -273 48 -3 47 -3 0 125 0 126 70 0 70 0 0 -126 0 -125
48 3 47 3 3 273 2 272 -50 0 -49 0 -3 -107 -3 -108 -65 0 -65 0 -3 108 -3 107
-49 0 -50 0 2 -272z"/>
<path d="M10090 7126 c0 -2 30 -73 67 -157 66 -154 66 -154 72 -269 l6 -115
48 -3 47 -3 0 102 0 101 70 167 c39 92 70 170 70 174 0 4 -22 7 -49 7 l-50 0
-19 -52 c-11 -29 -29 -83 -41 -120 -13 -38 -24 -68 -26 -68 -2 0 -9 17 -16 38
-6 20 -25 74 -41 120 l-30 82 -54 0 c-30 0 -54 -2 -54 -4z"/>
<path d="M2595 7088 c-3 -7 -4 -124 -3 -258 l3 -245 113 -3 c109 -3 113 -2
121 20 8 23 7 23 -83 28 l-91 5 -5 230 c-5 229 -5 230 -28 233 -12 2 -24 -3
-27 -10z"/>
<path d="M2995 7088 c-23 -67 -122 -495 -116 -501 5 -5 17 -7 27 -5 14 2 24
23 39 83 l20 80 67 3 c67 3 67 3 74 -25 29 -133 33 -143 58 -143 12 0 25 2 28
5 6 7 -108 469 -123 497 -11 21 -67 25 -74 6z m42 -286 c-27 -2 -51 -1 -54 2
-4 4 32 181 44 216 3 8 17 -37 32 -100 l27 -115 -49 -3z"/>
<path d="M3200 7078 c1 -13 22 -129 49 -258 47 -233 48 -235 74 -238 35 -4 35
-3 83 232 l38 190 38 -190 c50 -253 44 -234 73 -234 13 0 27 5 31 11 11 18
113 493 108 501 -7 11 -42 10 -48 -1 -7 -11 -76 -358 -76 -383 0 -10 -3 -18
-7 -18 -5 0 -26 91 -48 203 -40 201 -40 202 -67 205 -22 3 -28 -2 -33 -20 -3
-13 -23 -106 -44 -208 -21 -102 -41 -178 -44 -170 -3 8 -15 74 -27 145 -40
241 -42 250 -73 253 -23 3 -27 0 -27 -20z"/>
<path d="M3759 7096 c-2 -2 -3 -120 -1 -261 l3 -256 22 3 c22 3 22 4 22 220 0
119 2 214 5 211 3 -2 25 -100 50 -216 45 -210 45 -212 72 -215 32 -4 28 -15
90 258 l43 185 3 -222 2 -223 25 0 25 0 0 260 0 260 -40 0 c-37 0 -40 -2 -49
-37 -17 -61 -79 -315 -86 -353 -7 -30 -14 -7 -50 156 -56 252 -49 234 -94 234
-21 0 -40 -2 -42 -4z"/>
<path d="M4301 7063 c-52 -199 -117 -473 -113 -478 3 -3 15 -5 28 -5 20 0 25
9 42 83 l19 82 68 0 68 0 17 -70 c9 -39 19 -76 24 -83 8 -13 56 -17 56 -4 0 4
-29 120 -63 257 l-63 250 -37 3 c-34 3 -36 1 -46 -35z m92 -235 l7 -28 -56 0
c-54 0 -56 1 -50 23 3 12 16 65 28 117 l22 95 21 -90 c12 -49 25 -102 28 -117z"/>
<path d="M4570 6840 l0 -261 28 3 27 3 5 100 c4 84 9 105 27 129 l22 28 66
-131 c55 -112 69 -131 88 -131 13 0 26 3 30 6 3 4 -29 73 -71 153 l-76 148 68
93 c84 115 86 120 49 120 -26 0 -38 -13 -113 -122 l-85 -122 -5 120 -5 119
-27 3 -28 3 0 -261z"/>
<path d="M4915 7087 c-3 -7 -4 -123 -3 -257 l3 -245 120 0 c116 0 120 1 123
22 3 21 0 22 -90 25 l-93 3 -3 98 -3 97 91 0 c89 0 91 1 88 23 -3 21 -8 22
-91 25 l-88 3 3 82 3 82 88 3 c85 3 87 3 87 27 l0 25 -115 0 c-84 0 -117 -3
-120 -13z"/>
<path d="M5230 6841 l0 -262 28 3 27 3 3 118 3 117 49 0 c70 0 90 -22 91 -97
0 -32 3 -76 7 -98 6 -34 11 -40 32 -40 14 0 25 6 24 13 -1 6 -2 50 -2 96 -2
69 -6 89 -26 118 l-23 34 23 27 c31 37 40 91 23 141 -22 62 -50 76 -162 83
l-97 6 0 -262z m192 179 c25 -30 23 -90 -3 -124 -18 -22 -28 -26 -75 -26 l-54
0 0 91 0 91 57 -4 c43 -4 61 -10 75 -28z"/>
<path d="M5650 7093 c-54 -21 -87 -93 -70 -153 13 -45 43 -75 113 -113 70 -37
90 -63 89 -119 -1 -52 -28 -82 -76 -82 -41 0 -64 17 -83 62 -10 24 -19 32 -39
32 -24 0 -26 -3 -20 -32 14 -71 62 -108 140 -108 95 0 142 54 134 155 -6 67
-26 92 -116 142 -69 38 -92 65 -92 103 0 43 26 70 69 70 40 0 63 -18 75 -57 5
-16 15 -23 33 -23 24 0 25 2 20 37 -10 56 -45 86 -109 89 -29 2 -60 1 -68 -3z"/>
<path d="M703 6968 c-41 -20 -66 -91 -67 -187 0 -47 6 -103 13 -123 35 -104
171 -104 200 0 9 29 8 32 -12 32 -15 0 -27 -11 -37 -33 -20 -44 -71 -51 -95
-13 -36 54 -31 240 6 277 30 30 70 22 89 -18 10 -22 22 -33 37 -33 20 0 21 3
12 33 -18 64 -85 94 -146 65z"/>
<path d="M950 6952 c-36 -37 -55 -122 -46 -215 10 -109 46 -157 117 -157 46 0
84 29 100 78 16 49 16 197 0 244 -26 79 -116 105 -171 50z m123 -52 c15 -28
18 -53 15 -131 -4 -117 -21 -152 -71 -147 -51 5 -69 50 -65 168 4 117 21 153
71 148 25 -2 36 -11 50 -38z"/>
<path d="M1204 6971 c-2 -2 -4 -92 -4 -199 l0 -195 66 6 c110 8 144 49 152
177 5 90 -9 148 -44 181 -20 19 -40 25 -95 29 -39 3 -72 3 -75 1z m135 -59
c33 -33 46 -96 35 -180 -9 -72 -46 -115 -96 -110 l-33 3 -3 145 c-1 79 0 150
2 157 9 24 66 15 95 -15z"/>
<path d="M1490 6778 l0 -198 89 0 c80 0 89 2 94 20 5 19 0 20 -69 20 l-74 0 0
75 0 75 65 0 c58 0 65 2 65 20 0 18 -7 20 -65 20 l-65 0 0 65 0 65 71 0 c59 0
70 3 67 16 -2 13 -19 16 -91 17 l-87 2 0 -197z"/>
<path d="M6285 6904 c-126 -29 -240 -56 -252 -59 -21 -5 -23 -11 -23 -70 0
-36 3 -65 6 -65 5 0 284 -64 502 -115 21 -5 22 -2 22 45 0 37 -4 50 -15 50 -7
0 -37 5 -65 11 l-50 11 0 63 0 63 65 12 65 12 0 49 c0 33 -4 49 -12 48 -7 0
-116 -25 -243 -55z m45 -135 c0 -21 -3 -39 -7 -39 -5 0 -57 10 -118 22 l-110
22 110 22 c61 12 113 19 118 17 4 -2 7 -22 7 -44z"/>
<path d="M1890 6700 l0 -120 253 2 252 3 3 28 3 27 -120 0 -121 0 0 85 c0 84
0 85 -25 85 -25 0 -25 -1 -25 -85 l0 -85 -85 0 -85 0 0 90 c0 89 0 90 -25 90
l-25 0 0 -120z"/>
<path d="M10650 6649 l0 -51 199 3 c110 2 198 3 197 2 -3 -3 -389 -153 -393
-153 -2 0 -3 -29 -3 -65 l0 -65 298 2 297 3 3 47 3 48 -213 2 -213 3 200 74
c110 41 206 79 213 84 7 5 12 32 12 63 l0 54 -300 0 -300 0 0 -51z"/>
<path d="M9230 6439 c-213 -36 -347 -216 -326 -441 10 -115 38 -173 120 -253
60 -58 97 -83 223 -149 222 -115 267 -165 267 -296 1 -127 -47 -182 -164 -188
-56 -3 -75 0 -107 17 -50 29 -81 76 -100 151 l-15 60 -134 0 c-153 0 -143 9
-119 -103 31 -147 94 -236 208 -292 87 -42 191 -60 295 -51 267 25 415 180
416 436 0 226 -88 340 -370 481 -212 106 -247 142 -247 254 0 126 82 195 195
165 69 -19 105 -70 123 -172 l6 -38 128 0 c70 0 130 2 133 5 9 9 -13 137 -33
191 -64 171 -265 261 -499 223z"/>
<path d="M4160 6295 l0 -135 -312 -2 -313 -3 0 -70 0 -70 368 -3 367 -2 0 204
0 204 -31 6 c-17 3 -42 6 -55 6 l-24 0 0 -135z"/>
<path d="M4507 6423 c-4 -3 -7 -343 -7 -755 l0 -748 135 0 135 0 0 320 0 320
98 0 c128 0 175 -21 212 -94 23 -47 24 -64 31 -275 4 -125 10 -236 14 -248 7
-22 11 -23 137 -23 l129 0 -5 108 c-3 59 -8 173 -11 253 -6 147 -18 218 -48
275 -17 32 -90 104 -107 104 -21 0 -9 16 27 35 48 26 107 102 130 167 13 40
18 80 17 163 -1 144 -23 206 -103 286 -68 68 -134 95 -264 109 -104 11 -510
14 -520 3z m483 -224 c99 -21 151 -112 136 -237 -9 -73 -39 -124 -90 -153 -35
-20 -58 -24 -153 -27 l-113 -4 0 216 0 216 85 0 c46 0 107 -5 135 -11z"/>
<path d="M5650 5866 c0 -626 3 -668 61 -777 39 -72 83 -112 165 -151 121 -57
327 -60 467 -8 74 28 155 102 191 175 53 108 56 155 56 766 l0 559 -135 0
-134 0 -3 -577 c-3 -531 -4 -581 -21 -618 -36 -80 -90 -115 -175 -115 -78 0
-131 33 -167 105 l-30 60 -3 573 -3 572 -134 0 -135 0 0 -564z"/>
<path d="M6890 5675 l0 -755 384 0 383 0 12 100 c6 56 11 107 11 115 0 13 -38
15 -260 15 l-260 0 0 640 0 640 -135 0 -135 0 0 -755z"/>
<path d="M7880 5675 l0 -755 390 0 c215 0 390 3 390 8 0 4 7 50 15 102 8 52
15 101 15 108 0 9 -62 12 -275 12 l-275 0 2 218 3 217 243 3 242 2 0 115 0
115 -242 2 -243 3 -3 183 -2 182 260 0 261 0 -3 118 -3 117 -387 3 -388 2 0
-755z"/>
<path d="M10450 6341 l0 -91 -200 0 -200 0 0 -25 0 -25 220 0 221 0 -3 112
c-3 98 -5 113 -20 116 -16 3 -18 -6 -18 -87z"/>
<path d="M0 6025 l0 -395 70 0 70 0 0 395 0 395 -70 0 -70 0 0 -395z"/>
<path d="M290 6025 l0 -395 60 0 60 0 2 326 3 325 48 -303 c27 -167 51 -313
54 -325 5 -21 11 -23 68 -23 l63 0 12 52 c11 55 83 450 95 528 16 103 20 52
17 -256 l-3 -324 71 0 70 0 0 395 0 395 -104 0 c-91 0 -105 -2 -110 -17 -6
-22 -83 -422 -92 -481 -4 -23 -9 -41 -11 -38 -3 3 -93 517 -93 533 0 1 -47 3
-105 3 l-105 0 0 -395z"/>
<path d="M1047 6413 c-4 -3 -7 -181 -7 -395 l0 -388 75 0 75 0 0 159 0 159 88
4 c121 6 172 36 213 123 22 47 25 138 7 199 -18 58 -82 120 -140 134 -49 13
-300 17 -311 5z m288 -137 c45 -45 45 -144 0 -186 -19 -18 -40 -25 -85 -28
l-60 -4 0 121 0 121 60 0 c51 0 65 -4 85 -24z"/>
<path d="M1600 6025 l0 -395 199 0 c110 0 202 3 205 8 2 4 6 30 7 57 l3 50
-132 3 -132 3 -2 332 -3 332 -72 3 -73 3 0 -396z"/>
<path d="M2090 6025 l0 -395 70 0 70 0 0 395 0 395 -70 0 -70 0 0 -395z"/>
<path d="M2370 6025 l0 -395 205 0 204 0 5 33 c3 17 7 43 8 57 l3 25 -142 3
-143 3 0 114 0 115 130 0 130 0 0 60 0 60 -130 0 -131 0 3 98 3 97 130 2 130
2 3 60 3 61 -206 0 -205 0 0 -395z"/>
<path d="M2887 6413 c-4 -3 -7 -181 -7 -395 l0 -388 143 0 c129 0 147 2 194
24 60 28 102 81 130 159 26 76 26 359 -1 436 -26 74 -86 134 -155 155 -55 16
-290 23 -304 9z m264 -129 c19 -10 38 -32 50 -60 39 -87 35 -335 -7 -415 -21
-41 -70 -69 -121 -69 l-43 0 0 280 0 280 45 0 c26 0 60 -7 76 -16z"/>
<path d="M11150 6140 l0 -110 -85 0 -85 0 0 100 0 100 -45 0 -45 0 0 -100 0
-100 -75 0 -75 0 0 105 0 105 -45 0 -45 0 0 -160 0 -160 298 2 297 3 3 153 3
152 -26 10 c-15 6 -37 10 -51 10 -24 0 -24 0 -24 -110z"/>
<path d="M10258 6078 l-208 -61 0 -36 0 -36 220 -61 220 -61 0 28 c0 26 -5 29
-70 45 l-70 18 0 67 0 67 70 17 c67 16 70 19 70 46 0 17 -5 29 -12 28 -7 -1
-106 -28 -220 -61z m52 -98 c0 -34 -4 -50 -12 -50 -33 1 -191 48 -178 53 34
13 156 45 173 46 14 1 17 -8 17 -49z"/>
<path d="M3945 5858 c-170 -44 -334 -86 -362 -95 l-53 -14 0 -89 c0 -49 3 -91
8 -94 7 -4 715 -186 726 -186 12 0 6 141 -6 145 -7 2 -48 11 -90 20 l-78 16 0
94 c0 107 -12 94 110 118 l65 13 3 77 c2 42 -1 77 -5 76 -4 0 -147 -37 -318
-81z m25 -204 c0 -64 -1 -66 -22 -61 -13 3 -84 18 -157 34 l-135 27 145 32
c79 18 150 33 157 33 8 1 12 -18 12 -65z"/>
<path d="M10650 5730 c0 -44 2 -80 3 -80 2 0 91 -18 198 -40 107 -22 196 -40
199 -41 3 0 -80 -16 -185 -35 -104 -19 -196 -36 -202 -39 -9 -3 -13 -30 -13
-85 l0 -80 301 0 300 0 -3 48 -3 47 -247 0 c-136 0 -246 1 -244 2 1 2 109 21
240 43 130 22 241 42 247 45 14 9 11 92 -4 98 -7 2 -118 24 -247 48 l-235 44
248 3 247 2 0 50 0 50 -300 0 -300 0 0 -80z"/>
<path d="M10370 5759 c0 -18 5 -29 14 -29 7 0 25 -9 40 -21 32 -25 36 -79 7
-108 -36 -36 -156 -50 -249 -30 -63 13 -92 39 -92 84 0 37 19 62 56 71 33 8
35 54 2 54 -42 0 -86 -36 -98 -80 -23 -84 20 -158 103 -181 51 -14 200 -13
246 0 128 38 129 224 3 261 -31 8 -32 7 -32 -21z"/>
<path d="M10157 5426 c-88 -25 -132 -96 -108 -176 23 -78 119 -118 258 -107
128 10 187 56 187 147 0 60 -23 96 -77 123 -48 24 -195 32 -260 13z m224 -57
c55 -19 70 -38 67 -83 -4 -58 -44 -79 -159 -84 -136 -7 -199 21 -199 88 0 41
21 66 66 80 43 12 186 12 225 -1z"/>
<path d="M806 5373 c7 -30 94 -435 94 -439 0 -8 89 -4 93 4 3 4 17 63 32 132
15 69 30 136 34 149 5 17 16 -21 40 -133 l34 -156 46 0 47 0 49 212 c26 117
50 221 53 230 4 15 -3 18 -42 18 -25 0 -46 -1 -47 -2 0 -2 -13 -75 -28 -163
-16 -88 -31 -153 -34 -145 -3 8 -15 65 -27 125 -39 195 -35 187 -83 183 l-41
-3 -35 -165 -36 -165 -23 155 c-13 85 -25 161 -27 168 -3 7 -23 12 -54 12 -42
0 -48 -3 -45 -17z"/>
<path d="M1390 5160 l0 -230 45 0 44 0 3 98 3 97 38 -1 c58 -2 71 -22 75 -114
l4 -80 45 0 45 0 -4 89 c-3 77 -6 93 -26 114 l-23 25 25 25 c35 35 43 87 20
134 -29 58 -69 73 -191 73 l-103 0 0 -230z m198 148 c17 -17 15 -83 -3 -98 -8
-7 -35 -15 -60 -18 l-45 -5 0 67 0 66 48 0 c26 0 53 -5 60 -12z"/>
<path d="M1780 5160 l0 -230 45 0 45 0 0 230 0 230 -45 0 -45 0 0 -230z"/>
<path d="M1930 5355 l0 -35 55 0 55 0 0 -195 0 -195 45 0 45 0 0 195 0 195 55
0 55 0 0 35 0 35 -155 0 -155 0 0 -35z"/>
<path d="M2280 5355 l0 -35 55 0 55 0 0 -195 0 -195 50 0 50 0 0 195 0 195 55
0 55 0 0 35 0 35 -160 0 -160 0 0 -35z"/>
<path d="M2660 5160 l0 -230 135 0 135 0 0 35 0 35 -90 0 -90 0 0 65 0 65 70
1 c39 1 76 2 83 3 7 0 12 15 12 36 l0 35 -82 3 -83 3 0 54 0 55 85 0 85 0 0
35 0 35 -130 0 -130 0 0 -230z"/>
<path d="M3000 5159 l0 -230 43 3 42 3 -2 165 c-2 113 0 159 7 145 6 -11 36
-85 69 -165 l58 -145 52 -3 51 -3 0 230 0 231 -40 0 -40 0 0 -157 -1 -158 -66
158 -66 157 -53 0 -54 0 0 -231z"/>
<path d="M3530 5235 l0 -66 254 3 c140 2 253 1 251 -1 -2 -2 -107 -45 -232
-95 -125 -51 -238 -98 -251 -105 -21 -11 -23 -18 -20 -89 l3 -77 368 -3 367
-2 0 65 0 65 -260 2 -261 3 258 102 258 102 3 80 3 81 -371 0 -370 0 0 -65z"/>
<path d="M10650 5170 l0 -50 203 0 202 -1 -200 -77 -200 -77 -3 -62 -3 -63
301 0 301 0 -3 48 -3 47 -215 -1 c-127 0 -207 3 -195 8 11 4 108 41 215 81
l195 74 0 59 0 59 -297 3 -298 2 0 -50z"/>
<path d="M10448 5033 l-3 -88 -197 -3 -198 -2 0 -25 0 -25 220 0 220 0 0 115
c0 108 -1 115 -20 115 -17 0 -19 -8 -22 -87z"/>
<path d="M10820 4740 c-25 -6 -65 -20 -89 -33 -82 -42 -114 -150 -72 -243 39
-87 124 -118 308 -112 112 3 135 6 184 29 75 36 102 78 102 164 0 97 -46 157
-142 186 -50 14 -236 20 -291 9z m286 -126 c76 -27 79 -99 7 -132 -56 -25
-294 -24 -340 1 -53 28 -58 85 -11 120 48 36 256 42 344 11z"/>
<path d="M6335 4666 c-46 -20 -102 -89 -121 -148 -22 -70 -30 -275 -15 -364
21 -118 70 -186 148 -202 68 -15 150 7 172 45 8 15 10 14 16 -10 7 -25 11 -27
56 -27 l49 0 0 200 0 200 -115 0 -115 0 0 -55 0 -55 51 0 52 0 -5 -70 c-6 -81
-25 -116 -68 -125 -38 -8 -72 12 -97 58 -15 27 -18 58 -18 187 0 186 15 243
71 266 52 22 95 -1 109 -59 7 -26 10 -27 70 -27 l62 0 -7 38 c-13 72 -57 130
-113 151 -39 15 -145 13 -182 -3z"/>
<path d="M9083 4659 c-81 -40 -121 -131 -130 -294 -10 -180 28 -324 99 -379
64 -49 178 -52 250 -8 65 41 94 108 108 250 20 213 -26 380 -119 429 -58 30
-149 32 -208 2z m124 -89 c57 -20 67 -56 70 -235 4 -188 -10 -250 -61 -274
-66 -31 -109 18 -127 145 -23 164 7 341 63 364 13 5 23 9 24 9 1 1 14 -4 31
-9z"/>
<path d="M10175 4661 c-49 -22 -73 -48 -91 -98 -28 -79 -11 -160 45 -213 20
-20 69 -52 108 -73 86 -45 123 -85 123 -133 0 -36 -15 -73 -34 -86 -19 -13
-81 -9 -103 7 -13 9 -28 34 -34 56 l-12 40 -61 -3 -61 -3 4 -35 c4 -49 35
-105 75 -135 78 -59 245 -48 308 22 29 32 48 90 48 148 0 103 -41 157 -171
225 -97 51 -123 80 -116 135 7 46 28 65 73 65 37 0 74 -38 74 -76 0 -23 3 -24
65 -24 73 0 73 0 50 76 -25 83 -86 124 -187 124 -40 0 -78 -7 -103 -19z"/>
<path d="M4790 4652 c-23 -11 -46 -36 -67 -72 -66 -115 -66 -115 -105 -118
-29 -2 -39 1 -48 18 -18 33 -4 70 30 82 27 9 30 14 30 55 l0 46 -32 -7 c-75
-15 -114 -73 -105 -159 8 -87 78 -145 157 -132 49 8 84 42 124 116 42 78 54
89 97 89 76 0 93 -84 24 -117 -32 -15 -35 -20 -35 -61 l0 -44 33 6 c70 14 117
76 117 156 0 123 -113 196 -220 142z"/>
<path d="M5210 4315 l0 -355 63 0 62 0 -3 150 -3 150 56 0 c46 0 60 -4 80 -25
22 -21 25 -33 25 -97 0 -40 3 -97 6 -125 l7 -53 61 0 61 0 -3 113 c-4 136 -15
183 -51 216 l-27 26 29 24 c38 32 57 78 57 140 0 63 -13 98 -53 139 -42 44
-79 52 -234 52 l-133 0 0 -355z m271 226 c29 -36 26 -115 -6 -146 -20 -21 -34
-25 -85 -25 l-60 0 0 93 c0 52 3 97 8 101 4 4 34 6 66 4 46 -4 63 -9 77 -27z"/>
<path d="M5740 4315 l0 -355 185 0 185 0 0 33 c0 17 3 42 6 55 6 22 6 22 -125
22 l-132 0 3 103 3 102 113 3 112 3 0 54 0 55 -115 0 -115 0 0 85 0 85 120 0
120 0 0 55 0 55 -180 0 -180 0 0 -355z"/>
<path d="M6752 4382 c3 -285 3 -288 28 -337 36 -69 92 -97 193 -97 108 0 168
34 202 115 12 30 15 88 15 322 l0 285 -59 0 -60 0 -3 -278 c-3 -244 -5 -281
-20 -304 -37 -56 -134 -42 -157 23 -7 20 -11 128 -11 295 l0 264 -66 0 -65 0
3 -288z"/>
<path d="M7320 4315 l0 -355 180 0 c165 0 180 1 180 18 0 9 3 34 6 55 l7 37
-127 0 -126 0 0 300 0 300 -60 0 -60 0 0 -355z"/>
<path d="M7905 4658 c-3 -7 -40 -166 -84 -353 l-78 -340 59 -3 c33 -2 62 -1
64 1 2 1 11 41 21 88 l18 84 82 3 81 3 11 -50 c6 -28 14 -69 17 -91 l7 -40 68
0 69 0 -7 28 c-3 15 -41 173 -82 352 l-76 325 -83 3 c-60 2 -84 -1 -87 -10z
m115 -268 l27 -140 -60 0 -59 0 5 28 c3 15 16 80 28 144 13 65 25 115 27 113
3 -2 17 -67 32 -145z"/>
<path d="M8200 4615 l0 -55 75 0 75 0 0 -300 0 -300 65 0 65 0 0 300 0 300 75
0 75 0 0 55 0 55 -215 0 -215 0 0 -55z"/>
<path d="M8710 4315 l0 -355 65 0 65 0 0 355 0 355 -65 0 -65 0 0 -355z"/>
<path d="M9520 4315 l0 -355 61 0 60 0 -3 254 c-2 140 0 252 5 249 4 -2 7 -8
7 -14 0 -5 39 -117 86 -249 l87 -240 68 0 69 0 0 355 0 355 -55 0 -55 0 0
-242 -1 -243 -55 150 c-31 83 -70 191 -88 240 l-33 90 -77 3 -76 3 0 -356z"/>
<path d="M3534 4646 c-3 -7 -4 -40 -2 -72 l3 -59 368 -3 367 -2 0 75 0 75
-365 0 c-299 0 -367 -2 -371 -14z"/>
<path d="M3530 4271 c0 -59 4 -102 10 -106 6 -4 122 -30 258 -59 183 -39 239
-55 217 -59 -16 -4 -59 -11 -95 -17 -143 -24 -375 -72 -383 -79 -4 -4 -6 -52
-5 -107 l3 -99 368 -3 367 -2 0 66 0 65 -309 -3 c-170 -2 -308 -2 -307 0 3 2
603 112 614 112 1 0 2 30 0 67 l-3 68 -265 52 c-146 29 -283 56 -305 61 -27 7
58 10 268 11 l307 1 0 65 0 65 -370 0 -370 0 0 -99z"/>
<path d="M4500 4171 l0 -161 40 0 40 0 0 55 0 55 210 0 210 0 0 45 0 45 -210
0 -209 0 -3 58 -3 57 -37 3 -38 3 0 -160z"/>
<path d="M10732 4260 c-66 -30 -82 -74 -82 -228 l0 -122 298 2 297 3 3 53 3
52 -130 0 -131 0 0 44 c0 28 7 52 19 67 17 21 29 24 108 27 136 4 135 3 131
64 l-3 51 -94 -2 c-104 -3 -169 -20 -190 -50 -13 -21 -14 -20 -34 5 -42 54
-121 68 -195 34z m149 -116 c14 -13 19 -31 19 -71 l0 -54 -82 3 c-80 3 -83 4
-86 28 -6 38 16 96 40 108 30 15 85 8 109 -14z"/>
<path d="M4500 3910 l0 -50 250 0 250 0 0 50 0 50 -250 0 -250 0 0 -50z"/>
<path d="M10650 3745 l0 -55 298 2 297 3 3 53 3 52 -300 0 -301 0 0 -55z"/>
<path d="M4502 3703 l3 -67 115 -23 c63 -13 140 -28 170 -35 l55 -11 -45 -8
c-25 -5 -102 -18 -172 -30 l-128 -22 0 -68 0 -69 250 0 250 0 0 40 0 40 -197
1 -198 1 165 29 c91 15 180 31 198 34 30 6 32 8 32 49 l0 42 -177 33 c-98 18
-189 36 -203 40 -14 4 66 6 178 3 l202 -5 0 47 0 46 -250 0 -251 0 3 -67z"/>
<path d="M7586 3760 c-59 -18 -96 -76 -96 -150 0 -74 32 -113 140 -173 76 -41
97 -62 110 -108 13 -43 -3 -103 -33 -124 -54 -38 -148 0 -162 65 -6 26 -11 30
-41 30 -42 0 -44 -16 -11 -80 30 -61 91 -93 163 -87 95 9 144 53 158 138 15
94 -32 167 -145 225 -81 40 -109 73 -109 126 0 53 35 88 88 88 44 0 69 -21 81
-66 6 -23 14 -30 39 -32 29 -3 32 -1 32 23 0 97 -104 157 -214 125z"/>
<path d="M10245 3756 c-70 -30 -106 -109 -85 -188 14 -52 52 -87 142 -135 79
-41 108 -78 108 -135 0 -73 -34 -108 -104 -108 -44 0 -84 32 -92 75 -6 32 -9
35 -40 35 -30 0 -34 -3 -34 -26 0 -38 37 -98 73 -120 46 -27 155 -27 193 2 56
41 69 70 69 148 0 64 -3 77 -28 109 -16 22 -60 54 -103 78 -112 62 -133 92
-112 165 10 39 33 54 82 54 42 0 74 -27 83 -70 5 -26 10 -30 41 -30 34 0 35 0
29 37 -16 97 -126 151 -222 109z"/>
<path d="M5245 3727 c-24 -24 -36 -48 -45 -92 -15 -72 -7 -192 16 -241 40 -84
164 -83 200 1 19 47 18 55 -11 55 -15 0 -25 -6 -25 -14 0 -8 -11 -27 -24 -43
-21 -24 -27 -26 -52 -18 -37 13 -54 49 -61 133 -8 92 11 178 44 199 35 23 75
8 88 -35 7 -25 15 -32 33 -32 22 0 24 3 18 33 -9 48 -57 87 -107 87 -33 0 -47
-6 -74 -33z"/>
<path d="M5549 3745 c-48 -26 -64 -77 -64 -200 0 -125 17 -175 66 -200 60 -31
125 -9 155 52 29 57 28 253 -2 303 -33 57 -98 76 -155 45z m99 -46 c25 -26 32
-62 32 -153 0 -123 -31 -186 -84 -172 -42 10 -59 49 -64 141 -5 101 2 144 29
179 25 32 61 34 87 5z"/>
<path d="M7850 3730 l0 -30 70 0 70 0 0 -280 0 -280 35 0 35 0 0 280 0 280 70
0 70 0 0 30 0 30 -175 0 -175 0 0 -30z"/>
<path d="M8316 3743 c-7 -25 -146 -594 -146 -599 0 -2 15 -4 33 -4 l34 0 24
98 24 97 82 3 81 3 23 -101 22 -100 39 0 c21 0 38 1 38 3 -1 1 -36 139 -79
307 l-78 305 -46 3 c-37 2 -46 0 -51 -15z m114 -330 c0 -9 -19 -13 -65 -13
-36 0 -65 2 -65 5 0 3 14 66 30 140 17 74 30 138 31 142 1 10 68 -258 69 -274z"/>
<path d="M8530 3730 l0 -30 70 0 70 0 0 -280 0 -280 35 0 35 0 0 280 0 280 70
0 70 0 0 30 0 30 -175 0 -175 0 0 -30z"/>
<path d="M8942 3503 c3 -237 5 -261 23 -292 35 -60 67 -76 150 -76 80 0 108
13 149 69 20 26 21 43 24 292 l3 264 -35 0 -35 0 -3 -261 -3 -261 -28 -24
c-60 -52 -149 -20 -167 61 -5 22 -10 140 -10 263 l0 222 -36 0 -35 0 3 -257z"/>
<path d="M9360 3730 l0 -30 70 0 70 0 0 -280 0 -280 35 0 35 0 0 280 0 280 70
0 70 0 0 30 0 30 -175 0 -175 0 0 -30z"/>
<path d="M9780 3450 l0 -311 148 3 147 3 3 28 3 27 -115 0 -116 0 0 120 0 120
105 0 105 0 0 30 0 30 -105 0 -105 0 0 100 0 100 110 0 110 0 0 30 0 30 -145
0 -145 0 0 -310z"/>
<path d="M5800 3580 c0 -199 7 -222 69 -241 55 -16 105 -5 135 32 26 30 26 32
26 205 0 165 -1 174 -19 174 -18 0 -20 -10 -23 -171 -3 -166 -4 -171 -27 -190
-30 -25 -66 -24 -91 1 -18 18 -20 33 -20 190 l0 170 -25 0 -25 0 0 -170z"/>
<path d="M6110 3545 l0 -205 25 0 c25 0 25 0 25 95 l0 95 40 0 c60 0 80 -25
80 -99 0 -73 6 -91 32 -91 19 0 20 6 17 84 -3 64 -8 89 -23 104 -18 21 -18 22
3 48 31 39 29 117 -4 149 -22 23 -32 25 -110 25 l-85 0 0 -205z m135 165 c34
-13 49 -53 35 -96 -12 -37 -26 -44 -81 -44 l-39 0 0 75 0 75 29 0 c16 0 41 -4
56 -10z"/>
<path d="M6370 3730 c0 -17 7 -20 45 -20 l45 0 0 -185 0 -185 25 0 25 0 0 185
0 185 45 0 c38 0 45 3 45 20 0 19 -7 20 -115 20 -108 0 -115 -1 -115 -20z"/>
<path d="M6800 3585 l0 -155 40 0 40 0 0 55 0 55 205 0 205 0 0 45 0 45 -205
0 -205 0 0 55 0 55 -40 0 -40 0 0 -155z"/>
<path d="M10650 3578 c0 -52 2 -58 23 -63 12 -2 117 -25 232 -51 116 -25 211
-47 213 -49 1 -1 -21 -5 -50 -9 -29 -4 -133 -25 -230 -47 -98 -21 -180 -39
-183 -39 -3 0 -5 -27 -5 -60 0 -33 2 -60 5 -60 13 0 553 141 573 150 19 8 22
17 22 69 l0 60 -41 11 c-22 6 -157 42 -300 79 l-259 68 0 -59z"/>
<path d="M3530 3520 l0 -70 370 0 370 0 0 70 0 70 -370 0 -370 0 0 -70z"/>
<path d="M6800 3340 l0 -40 163 -1 162 0 -160 -63 -160 -63 -3 -52 -3 -51 245
0 246 0 0 40 0 40 -172 1 -173 0 173 66 172 66 0 48 0 49 -245 0 -245 0 0 -40z"/>
<path d="M3644 3321 c-88 -40 -108 -95 -109 -301 l0 -155 368 -3 367 -2 0 72
0 73 -152 0 -153 0 0 68 c0 96 9 102 165 110 67 4 126 9 131 13 5 3 9 35 9 72
l0 67 -133 -6 c-143 -7 -183 -19 -213 -64 l-16 -24 -31 36 c-17 20 -46 42 -64
49 -45 19 -121 17 -169 -5z m176 -151 c25 -25 32 -54 28 -116 l-3 -49 -100 0
-100 0 -3 40 c-5 56 6 103 29 126 27 27 121 27 149 -1z"/>
<path d="M4558 3273 c-46 -29 -58 -69 -58 -187 l0 -106 250 0 250 0 0 50 0 50
-105 0 -105 0 0 39 c0 58 19 71 98 71 104 0 112 4 112 57 l0 44 -77 -6 c-120
-9 -141 -14 -157 -37 -15 -21 -15 -21 -39 7 -20 24 -33 29 -83 32 -44 3 -66
-1 -86 -14z m130 -89 c17 -12 22 -25 22 -60 l0 -44 -70 0 -70 0 0 40 c0 69 62
103 118 64z"/>
<path d="M10650 3089 l0 -51 199 4 c110 1 198 2 197 1 -2 -2 -253 -101 -343
-135 l-53 -19 0 -65 0 -64 298 2 297 3 3 48 3 47 -218 0 -218 1 205 77 c113
42 211 81 218 85 7 5 12 30 12 63 l0 54 -300 0 -300 0 0 -51z"/>
<path d="M7220 2920 l0 -90 -75 0 -75 0 0 80 0 80 -35 0 -35 0 0 -80 0 -80
-60 0 -60 0 0 85 0 85 -40 0 -40 0 0 -130 0 -130 245 0 245 0 0 129 c0 137 -2
141 -51 141 -17 0 -19 -8 -19 -90z"/>
<path d="M4920 2830 l0 -90 -70 0 -69 0 -3 83 -3 82 -37 3 -38 3 0 -85 0 -86
-60 0 -60 0 0 85 0 85 -40 0 -40 0 0 -130 0 -130 250 0 250 0 0 135 0 135 -40
0 -40 0 0 -90z"/>
<path d="M3666 2755 c-95 -34 -141 -105 -140 -220 0 -124 62 -202 194 -243 78
-24 313 -24 391 0 123 39 174 108 173 237 0 132 -65 213 -187 236 l-37 7 0
-70 0 -70 38 -13 c46 -15 62 -27 73 -58 17 -43 -6 -87 -59 -113 -43 -21 -60
-23 -202 -23 -167 0 -211 9 -250 49 -27 30 -30 89 -4 117 9 10 34 24 56 29
l38 11 0 69 c0 66 -1 70 -22 70 -13 -1 -41 -7 -62 -15z"/>
<path d="M11150 2580 l0 -110 -85 0 -85 0 0 100 0 100 -45 0 -45 0 0 -100 0
-100 -75 0 -75 0 0 105 0 105 -45 0 -45 0 0 -160 0 -160 298 2 297 3 3 153 3
152 -26 10 c-15 6 -37 10 -51 10 -24 0 -24 0 -24 -110z"/>
<path d="M6800 2586 c0 -53 3 -66 18 -70 9 -2 78 -17 152 -31 74 -15 142 -29
150 -32 10 -4 -258 -57 -317 -63 -2 0 -3 -31 -3 -70 l0 -70 246 0 245 0 -3 43
-3 42 -200 -4 c-110 -2 -198 -1 -195 2 3 3 94 20 203 37 l197 33 0 42 0 42
-172 32 c-95 18 -184 36 -198 40 -13 4 64 5 173 3 l197 -5 0 47 0 46 -245 0
-245 0 0 -64z"/>
<path d="M4596 2580 c-73 -23 -96 -71 -96 -200 l0 -100 250 0 250 0 0 45 0 45
-99 0 -98 0 -6 60 c-8 74 -28 115 -66 135 -38 19 -99 26 -135 15z m106 -107
c12 -11 18 -30 18 -60 l0 -43 -75 0 -75 0 0 40 c0 52 27 80 77 80 20 0 45 -7
55 -17z"/>
<path d="M6800 2120 l0 -40 163 -1 162 0 -160 -63 -160 -63 -3 -52 -3 -51 245
0 246 0 0 40 0 40 -172 1 -173 0 173 66 172 66 0 48 0 49 -245 0 -245 0 0 -40z"/>
<path d="M9910 1890 l0 -231 122 3 c108 3 123 5 126 21 3 15 -6 17 -92 17
l-96 0 0 90 0 90 85 0 c78 0 85 2 85 20 0 18 -7 20 -85 20 l-85 0 0 75 0 75
90 0 c89 0 90 0 90 25 l0 25 -120 0 -120 0 0 -230z"/>
<path d="M10230 1890 l0 -230 32 0 31 0 -7 190 c-4 105 -5 190 -3 190 2 0 41
-85 87 -190 l84 -190 33 0 33 0 0 230 0 230 -25 0 -25 0 0 -187 0 -188 -61
135 c-33 74 -71 159 -84 188 -22 49 -26 52 -59 52 l-36 0 0 -230z"/>
<path d="M10637 2114 c-8 -8 -10 -448 -2 -456 3 -3 17 -3 30 0 25 4 25 6 25
108 l0 104 85 0 c84 0 85 0 85 25 0 25 -1 25 -85 25 l-85 0 0 75 0 74 93 3
c84 3 92 5 92 23 0 19 -8 20 -116 23 -63 1 -118 -1 -122 -4z"/>
<path d="M10990 2082 c-47 -47 -65 -121 -57 -234 7 -89 23 -133 62 -168 22
-21 36 -25 90 -25 57 0 67 3 94 29 45 43 56 86 56 211 -1 94 -4 116 -23 152
-27 52 -65 73 -133 73 -46 0 -55 -4 -89 -38z m150 -30 c22 -22 30 -42 35 -87
11 -81 0 -190 -23 -228 -36 -63 -109 -58 -140 10 -24 55 -23 236 1 280 32 60
82 69 127 25z"/>
<path d="M11330 1890 l0 -230 30 0 30 0 0 105 0 105 49 0 c78 0 93 -19 99
-123 l5 -87 30 0 c30 0 30 0 23 46 -3 26 -6 67 -6 91 0 34 -6 50 -25 69 l-25
25 26 23 c36 31 44 107 15 153 -25 39 -69 53 -173 53 l-78 0 0 -230z m193 159
c9 -12 17 -38 17 -59 0 -53 -35 -80 -101 -80 l-49 0 0 78 c0 43 3 81 6 85 3 3
29 4 58 1 36 -3 56 -10 69 -25z"/>
<path d="M11754 2101 c-50 -30 -68 -81 -72 -204 -7 -170 29 -236 131 -245 83
-7 126 23 151 106 6 19 4 22 -22 22 -22 0 -31 -7 -43 -32 -8 -18 -27 -39 -43
-47 -26 -12 -33 -12 -55 0 -45 25 -61 73 -61 184 0 75 4 109 18 135 37 74 111
79 140 10 14 -33 22 -40 45 -40 25 0 28 3 22 23 -4 12 -9 30 -11 39 -3 9 -19
29 -35 43 -39 32 -118 35 -165 6z"/>
<path d="M12050 1890 l0 -231 122 3 c108 3 123 5 126 21 3 15 -6 17 -92 17
l-96 0 0 90 0 90 85 0 c78 0 85 2 85 20 0 18 -7 20 -85 20 l-85 0 0 75 0 75
90 0 c89 0 90 0 90 25 l0 25 -120 0 -120 0 0 -230z"/>
<path d="M2458 2094 c-5 -4 -8 -126 -8 -271 l0 -263 50 0 50 0 0 110 0 110 58
0 c70 0 119 24 144 71 24 44 24 124 -1 169 -30 56 -69 73 -185 78 -55 2 -104
1 -108 -4z m199 -100 c14 -19 18 -92 5 -110 -12 -19 -49 -34 -81 -34 l-31 0 0
86 0 87 47 -6 c29 -3 52 -12 60 -23z"/>
<path d="M2910 2078 c-69 -47 -102 -177 -83 -327 18 -140 69 -201 167 -201 71
0 115 26 146 86 23 45 25 59 25 189 0 127 -2 144 -24 188 -31 63 -69 87 -142
87 -42 0 -65 -6 -89 -22z m142 -98 c23 -46 26 -253 4 -305 -15 -35 -50 -53
-80 -42 -62 24 -76 307 -19 370 28 30 75 19 95 -23z"/>
<path d="M3250 1831 l0 -271 134 0 c130 0 134 1 140 23 15 56 13 57 -84 57
l-90 0 -2 228 -3 227 -47 3 -48 3 0 -270z"/>
<path d="M3580 1831 l0 -271 50 0 50 0 -3 268 -2 267 -47 3 -48 3 0 -270z"/>
<path d="M3843 2080 c-69 -41 -106 -189 -86 -338 18 -138 65 -192 166 -192 81
0 129 36 152 114 l14 46 -47 0 c-46 0 -49 -2 -61 -35 -21 -59 -80 -60 -109 -1
-19 39 -27 191 -13 256 14 64 34 90 71 90 31 0 45 -13 55 -53 7 -25 11 -27 55
-27 l48 0 -9 41 c-19 84 -63 119 -151 119 -35 0 -64 -7 -85 -20z"/>
<path d="M4150 1830 l0 -270 45 0 45 0 0 270 0 270 -45 0 -45 0 0 -270z"/>
<path d="M4340 1830 l0 -270 140 0 140 0 0 24 c0 13 3 31 6 40 5 14 -7 16 -95
16 l-102 0 3 78 3 77 88 3 87 3 0 39 0 40 -90 0 -90 0 0 65 0 65 90 0 90 0 0
45 0 45 -135 0 -135 0 0 -270z"/>
<path d="M4747 2081 c-46 -30 -61 -60 -62 -123 0 -70 20 -101 96 -144 79 -45
119 -86 119 -121 0 -36 -18 -60 -50 -68 -32 -7 -77 25 -82 58 -3 19 -10 22
-50 25 -47 3 -48 2 -48 -25 0 -38 33 -89 72 -113 42 -26 130 -27 177 -2 56 28
76 64 76 136 0 80 -27 119 -117 166 -84 44 -98 57 -98 95 0 73 84 87 105 17 9
-30 12 -32 58 -32 49 0 49 0 43 28 -13 56 -29 82 -61 102 -43 27 -138 28 -178
1z"/>
<path d="M6875 1766 c-54 -23 -68 -58 -73 -178 l-5 -108 247 0 246 0 0 45 0
45 -106 0 -107 0 6 42 c8 56 27 68 108 68 93 0 99 3 99 57 0 37 -3 44 -16 39
-9 -3 -48 -6 -88 -6 -61 0 -79 -4 -109 -25 -35 -23 -37 -23 -47 -6 -19 37
-100 51 -155 27z m115 -96 c13 -13 20 -33 20 -60 l0 -40 -70 0 -70 0 0 35 c0
69 75 110 120 65z"/>
<path d="M7220 1330 l0 -90 -75 0 -75 0 0 80 0 80 -35 0 -35 0 0 -80 0 -80
-60 0 -60 0 0 85 0 85 -40 0 -40 0 0 -130 0 -130 245 0 245 0 0 129 c0 137 -2
141 -51 141 -17 0 -19 -8 -19 -90z"/>
<path d="M3560 1190 c0 -163 1 -170 20 -170 18 0 20 7 20 80 l0 80 55 0 c42 0
55 3 55 15 0 12 -13 15 -55 15 l-55 0 0 55 0 55 60 0 c53 0 60 2 60 20 0 18
-7 20 -80 20 l-80 0 0 -170z"/>
<path d="M3797 1334 c-15 -14 -30 -43 -34 -63 -13 -59 -7 -165 11 -203 38 -80
137 -76 172 8 18 44 18 184 0 229 -26 61 -102 76 -149 29z m99 -25 c16 -18 19
-37 19 -126 0 -98 -2 -106 -24 -124 -29 -23 -33 -23 -60 -1 -13 10 -25 37 -31
71 -25 135 35 247 96 180z"/>
<path d="M4020 1190 l0 -171 82 3 c54 2 83 7 86 16 3 9 -14 12 -62 12 l-66 0
0 155 c0 148 -1 155 -20 155 -19 0 -20 -7 -20 -170z"/>
<path d="M4230 1190 l0 -170 80 0 c64 0 80 3 80 15 0 12 -14 15 -65 15 l-65 0
0 155 c0 131 -2 155 -15 155 -13 0 -15 -26 -15 -170z"/>
<path d="M4463 1348 c-37 -18 -53 -67 -53 -163 0 -98 16 -146 56 -164 40 -18
72 -13 106 18 32 28 33 33 37 116 4 108 -4 151 -34 181 -26 26 -73 31 -112 12z
m73 -26 c25 -16 34 -55 34 -142 0 -83 -2 -93 -25 -115 -29 -30 -36 -31 -66 -6
-22 17 -24 28 -27 118 -3 88 -2 101 18 126 21 27 45 34 66 19z"/>
<path d="M4650 1348 c0 -7 15 -84 32 -170 30 -145 35 -158 54 -158 23 0 28 14
67 210 15 72 12 79 48 -97 21 -105 24 -113 46 -113 12 0 23 2 23 5 0 3 16 76
35 162 40 181 40 173 20 173 -20 0 -27 -22 -55 -165 l-23 -120 -28 133 c-31
144 -33 152 -54 152 -16 0 -17 -3 -46 -145 -22 -108 -39 -154 -39 -105 0 29
-38 228 -46 241 -8 14 -34 11 -34 -3z"/>
<path d="M6800 1056 c0 -34 4 -46 18 -50 9 -2 95 -21 189 -42 95 -21 172 -39
170 -40 -1 -1 -69 -16 -152 -33 -236 -49 -225 -44 -225 -96 0 -34 4 -45 15
-45 15 0 307 74 423 107 l52 14 0 53 0 53 -234 61 c-129 34 -239 62 -245 62
-6 0 -11 -19 -11 -44z"/>
<path d="M6943 710 c-52 -11 -92 -31 -118 -60 -16 -18 -20 -36 -20 -95 0 -68
2 -76 30 -105 44 -45 115 -63 239 -58 163 6 221 48 221 161 -1 76 -20 108 -81
137 -50 25 -199 36 -271 20z m235 -102 c42 -13 59 -50 38 -84 -38 -57 -300
-58 -338 0 -14 20 -8 53 12 71 35 31 202 39 288 13z"/>
<path d="M6875 306 c-52 -23 -69 -51 -73 -121 -4 -53 0 -70 17 -99 32 -51 95
-78 199 -84 118 -6 194 10 241 53 33 31 36 38 36 88 0 38 -5 61 -17 74 -22 24
-23 33 -3 33 10 0 15 11 15 35 l0 35 -135 0 -135 0 0 -80 0 -80 35 0 c33 0 35
2 35 35 0 33 2 35 34 35 100 0 141 -76 63 -117 -48 -25 -218 -24 -272 2 -35
18 -40 24 -40 55 0 30 5 37 32 50 29 13 33 19 33 58 0 47 -11 52 -65 28z"/>
</g>
</svg>
