<?xml version="1.0" standalone="no"?>
<!DOCTYPE svg PUBLIC "-//W3C//DTD SVG 20010904//EN"
 "http://www.w3.org/TR/2001/REC-SVG-20010904/DTD/svg10.dtd">
<svg version="1.0" xmlns="http://www.w3.org/2000/svg"
 width="640.000000pt" height="1280.000000pt" viewBox="0 0 640.000000 1280.000000"
 preserveAspectRatio="xMidYMid meet">
<metadata>
Created by potrace 1.15, written by Peter Selinger 2001-2017
</metadata>
<g transform="translate(0.000000,1280.000000) scale(0.100000,-0.100000)"
fill="#F3983E" stroke="none">
<path d="M4937 12775 c-19 -17 -35 -23 -51 -19 -17 4 -27 -1 -40 -20 -15 -24
-23 -26 -82 -26 -38 0 -77 6 -94 15 -26 13 -30 13 -38 -1 -5 -8 -28 -20 -52
-25 -26 -6 -59 -24 -82 -45 -52 -47 -83 -61 -102 -45 -11 9 -15 9 -19 -1 -4
-10 -8 -10 -16 2 -7 10 -11 11 -11 2 0 -8 -8 -10 -25 -6 -20 5 -31 -1 -55 -26
-16 -18 -30 -37 -30 -42 0 -5 -9 -21 -19 -34 -21 -27 -46 -152 -36 -183 3 -10
19 -36 35 -56 17 -21 30 -46 30 -56 0 -10 -25 -68 -55 -130 -58 -119 -66 -158
-45 -244 9 -38 6 -47 -51 -162 -55 -107 -61 -125 -55 -159 8 -40 63 -104 90
-104 21 0 36 -31 36 -75 0 -26 7 -43 27 -61 24 -22 25 -27 15 -61 -10 -34 -9
-42 19 -90 26 -46 30 -61 25 -97 -5 -34 -3 -48 13 -68 53 -66 214 -137 314
-138 31 0 57 -2 57 -4 0 -2 -12 -25 -26 -51 -26 -45 -27 -51 -19 -139 12 -131
10 -159 -25 -306 -41 -175 -84 -324 -180 -620 -43 -135 -88 -279 -100 -320
-34 -120 -92 -294 -101 -304 -11 -13 -69 27 -120 81 -25 27 -80 109 -124 183
-60 102 -96 150 -144 195 -35 33 -85 83 -110 110 -110 120 -194 195 -216 195
-76 0 -71 -174 7 -257 12 -13 18 -26 14 -30 -13 -13 -115 16 -223 63 -205 89
-365 129 -425 105 -57 -22 -15 -107 72 -146 73 -33 33 -28 -65 9 -110 41 -137
44 -165 16 -50 -50 -20 -89 150 -203 136 -90 174 -127 216 -210 19 -37 51 -86
72 -108 75 -84 305 -218 460 -268 97 -32 127 -47 282 -144 110 -69 150 -103
150 -129 0 -10 21 -38 46 -63 l46 -44 -26 -183 c-58 -407 -72 -641 -40 -672
20 -20 23 -20 49 4 l21 19 43 -128 c31 -95 45 -154 51 -227 5 -55 16 -119 24
-143 25 -69 20 -105 -28 -205 -67 -137 -136 -390 -136 -501 0 -29 9 -81 19
-116 11 -35 27 -105 36 -155 14 -85 28 -143 76 -314 10 -36 18 -81 18 -100 1
-19 5 -51 11 -70 5 -19 19 -109 30 -200 12 -91 45 -291 75 -445 76 -393 112
-593 130 -715 9 -58 56 -305 105 -550 49 -245 96 -487 105 -539 9 -51 28 -130
42 -175 25 -78 25 -87 20 -271 -3 -104 -13 -382 -23 -616 l-18 -426 22 -87
c26 -102 27 -128 8 -164 -16 -31 -149 -162 -214 -211 -56 -44 -96 -54 -297
-81 -340 -44 -435 -90 -435 -209 0 -75 81 -139 229 -180 216 -60 507 -52 989
25 56 10 106 14 110 10 18 -19 -232 -203 -392 -289 -67 -36 -164 -81 -216
-102 -255 -100 -332 -185 -250 -278 16 -19 30 -40 30 -46 0 -6 5 -11 10 -11 6
0 10 5 10 10 0 21 20 9 35 -21 12 -23 21 -29 36 -24 11 4 39 -3 67 -17 47 -23
50 -23 397 -22 389 0 460 9 630 75 222 85 245 92 375 100 131 8 229 28 289 59
83 42 98 83 111 301 5 96 15 249 21 341 10 156 10 169 -7 200 -17 30 -19 66
-22 398 -4 382 4 547 39 808 18 133 21 211 21 512 0 384 -8 502 -74 1015 l-30
240 11 315 c26 734 33 876 47 1085 15 233 29 367 44 425 38 152 39 684 0 875
-24 122 -86 290 -128 348 -15 20 -52 72 -84 115 -51 69 -178 286 -178 303 0 4
30 10 68 14 90 9 133 21 173 48 46 31 60 89 98 424 29 255 35 336 61 803 12
203 28 349 55 485 27 138 39 420 27 632 -12 200 -24 263 -68 346 -70 136 -287
357 -489 500 -195 138 -265 210 -265 275 0 44 -27 150 -46 179 -8 12 -14 29
-14 38 0 9 33 80 74 159 41 78 77 160 81 182 3 21 17 75 30 120 22 73 24 94
21 236 -3 117 -8 163 -20 186 -9 17 -16 40 -16 51 0 11 -13 35 -28 53 -61 70
-93 124 -112 189 -13 43 -28 73 -40 79 -11 6 -20 21 -20 34 0 30 -21 48 -40
36 -26 -17 -32 -11 -26 24 11 59 -10 82 -45 50 -15 -14 -19 -12 -47 22 -29 35
-30 36 -41 15 -13 -24 -46 -28 -55 -6 -7 19 -136 22 -136 3 0 -16 -59 41 -76
75 -18 33 -31 34 -67 2z m-1776 -3316 c34 -17 59 -32 56 -35 -5 -5 -137 53
-137 61 0 11 23 4 81 -26z"/>
<path d="M950 11590 c-143 -10 -222 -32 -300 -84 -36 -24 -82 -53 -102 -65
-21 -12 -65 -52 -98 -88 l-60 -66 -56 12 c-75 17 -170 16 -199 -3 -54 -35
-105 -217 -86 -306 13 -58 69 -174 102 -209 12 -13 45 -34 74 -46 28 -13 64
-38 78 -55 42 -50 104 -161 117 -208 6 -24 26 -59 45 -79 27 -29 32 -40 24
-55 -5 -10 -58 -71 -116 -136 -132 -147 -187 -225 -270 -381 -76 -143 -92
-203 -93 -347 0 -172 33 -304 127 -504 60 -127 122 -283 160 -405 l28 -90 0
-650 c0 -572 -2 -666 -18 -785 -20 -149 -64 -352 -77 -360 -5 -3 -10 -26 -12
-50 -2 -29 -7 -44 -16 -43 -7 2 -12 -8 -12 -26 0 -15 -4 -41 -10 -57 -12 -34
-40 -205 -46 -284 -9 -100 27 -483 48 -515 3 -5 9 -36 13 -67 4 -32 11 -58 16
-58 5 0 9 -9 9 -20 0 -12 6 -33 14 -48 8 -15 17 -53 21 -85 4 -31 11 -60 16
-63 5 -3 9 -25 9 -49 0 -24 5 -47 10 -50 6 -3 10 -34 10 -68 0 -34 7 -129 15
-212 8 -82 19 -226 25 -320 6 -93 15 -195 21 -225 19 -110 40 -257 49 -350 6
-52 14 -104 18 -115 19 -44 35 -92 43 -135 25 -130 33 -563 34 -1825 0 -720 3
-1315 7 -1321 4 -6 17 -55 29 -110 21 -101 74 -229 103 -253 26 -22 133 -25
204 -7 62 17 63 16 133 -9 112 -40 235 -58 409 -57 303 0 489 48 543 140 10
18 21 58 24 90 5 52 3 61 -21 88 -31 38 -46 75 -46 115 0 23 -10 40 -40 66
-34 31 -38 38 -28 57 19 35 27 362 38 1561 19 2137 14 2824 -26 3345 -12 148
-18 379 -21 740 -5 830 -4 804 -32 886 l-24 72 67 63 c80 75 96 102 106 187 5
35 10 66 13 68 2 2 28 -1 58 -7 69 -15 177 -6 256 21 77 27 126 77 148 153 33
114 45 474 19 572 -8 33 -20 115 -25 181 -5 67 -15 137 -23 155 -8 19 -17 56
-21 82 -6 36 -18 61 -45 92 -79 91 -109 216 -119 495 -13 336 -44 417 -176
465 -36 13 -69 37 -118 86 -57 58 -72 69 -101 69 -40 0 -40 1 -61 122 -19 108
-35 142 -76 163 -24 13 -29 20 -24 38 10 34 85 157 106 175 29 25 24 86 -12
162 -28 59 -30 68 -19 99 15 42 6 130 -26 260 -13 53 -24 104 -24 114 0 34
-52 120 -101 168 -66 64 -151 110 -279 152 -120 40 -181 46 -330 37z m611
-1460 c16 -9 59 -78 59 -95 0 -4 -12 3 -26 14 -30 24 -60 27 -67 9 -8 -21 4
-360 14 -399 11 -44 88 -163 154 -239 54 -62 104 -164 130 -260 28 -108 33
-360 7 -360 -13 1 -142 206 -213 340 -96 182 -148 258 -226 330 -60 54 -67 65
-74 111 -5 28 -16 63 -26 77 -10 14 -26 38 -36 55 -10 16 -43 59 -73 94 -30
35 -54 69 -54 74 0 19 39 86 80 138 49 62 92 84 205 104 101 19 122 19 146 7z"/>
</g>
</svg>
