<?xml version="1.0" standalone="no"?>
<!DOCTYPE svg PUBLIC "-//W3C//DTD SVG 20010904//EN"
 "http://www.w3.org/TR/2001/REC-SVG-20010904/DTD/svg10.dtd">
<svg version="1.0" xmlns="http://www.w3.org/2000/svg"
 width="1280.000000pt" height="951.000000pt" viewBox="0 0 1280.000000 951.000000"
 preserveAspectRatio="xMidYMid meet">
<metadata>
Created by potrace 1.15, written by Peter Selinger 2001-2017
</metadata>
<g transform="translate(0.000000,951.000000) scale(0.100000,-0.100000)"
fill="#F3983E" stroke="none">
<path d="M5090 9431 l0 -81 -80 0 -80 0 0 70 c0 68 -1 70 -25 70 -24 0 -25 -2
-25 -70 l0 -70 -70 0 -70 0 0 75 c0 68 -2 75 -20 75 -19 0 -20 -7 -20 -100 l0
-100 220 0 221 0 -3 103 c-3 97 -4 102 -25 105 -22 3 -23 1 -23 -77z"/>
<path d="M4700 9130 c0 -113 1 -120 20 -120 17 0 20 7 20 50 l0 50 201 0 200
0 -3 23 c-3 22 -4 22 -200 25 l-198 2 0 45 c0 38 -3 45 -20 45 -19 0 -20 -7
-20 -120z"/>
<path d="M7040 8940 l0 -130 35 0 c35 0 35 0 35 45 l0 45 181 0 180 0 -3 38
-3 37 -177 3 -178 2 0 45 c0 45 0 45 -35 45 l-35 0 0 -130z"/>
<path d="M4940 8990 c-102 -25 -197 -50 -212 -53 -23 -6 -28 -13 -28 -40 l0
-32 208 -49 c114 -27 213 -51 220 -53 7 -3 12 4 12 20 0 22 -6 26 -52 37 -94
21 -88 15 -88 79 l0 58 67 15 c51 10 69 19 71 32 2 10 0 22 -5 26 -4 4 -91
-14 -193 -40z m12 -94 l-4 -43 -81 18 c-45 10 -88 19 -96 19 -29 0 -1 12 70
30 114 28 115 28 111 -24z"/>
<path d="M2335 8766 c-81 -35 -70 -162 15 -187 59 -18 100 4 141 76 34 61 62
85 97 85 78 0 96 -103 23 -128 -21 -8 -31 -18 -31 -31 0 -25 20 -27 60 -6 38
20 50 43 50 100 0 38 -5 52 -29 76 -25 24 -38 29 -78 29 -59 0 -86 -18 -114
-73 -32 -63 -58 -87 -94 -87 -17 0 -36 5 -43 12 -28 28 -4 98 34 98 8 0 14 10
14 25 0 28 -3 29 -45 11z"/>
<path d="M7040 8734 l0 -35 140 3 c76 2 136 0 132 -3 -4 -3 -59 -25 -122 -49
-155 -57 -150 -54 -150 -100 l0 -40 215 0 215 0 0 35 0 34 -145 3 -145 3 142
51 143 51 3 41 3 42 -215 0 -216 0 0 -36z"/>
<path d="M4775 8712 c-60 -20 -75 -49 -75 -146 l0 -76 220 0 220 0 0 25 0 25
-106 0 -107 0 7 48 c3 26 14 52 23 60 9 6 44 12 77 12 84 0 108 8 104 33 -3
19 -9 20 -82 18 -87 -3 -120 -12 -134 -37 -8 -15 -9 -15 -15 0 -7 19 -66 47
-94 45 -10 -1 -27 -4 -38 -7z m101 -63 c9 -7 14 -30 14 -60 l0 -49 -75 0 -75
0 0 43 c0 44 13 70 40 81 21 8 79 -1 96 -15z"/>
<path d="M7652 8388 l3 -213 45 -3 c132 -10 203 61 171 169 -6 21 -21 43 -32
49 -20 11 -20 11 1 37 14 18 20 41 20 73 0 42 -4 52 -31 74 -27 23 -39 26
-105 26 l-74 0 2 -212z m148 152 c23 -23 26 -68 7 -94 -8 -11 -31 -20 -60 -23
l-47 -6 0 72 0 71 40 0 c27 0 47 -7 60 -20z m10 -180 c29 -29 27 -94 -5 -125
-18 -18 -35 -25 -65 -25 l-40 0 0 85 0 85 45 0 c32 0 51 -6 65 -20z"/>
<path d="M7940 8385 l0 -216 98 3 c92 3 97 4 100 26 3 21 0 22 -72 22 l-76 0
0 80 0 80 70 0 c63 0 70 2 70 20 0 18 -7 20 -70 20 l-70 0 0 70 0 70 70 0 c63
0 70 2 70 20 0 19 -7 20 -95 20 l-95 0 0 -215z"/>
<path d="M8200 8386 c0 -209 1 -216 20 -216 19 0 20 7 20 178 l1 177 68 -175
c63 -160 71 -175 95 -178 l26 -3 0 215 c0 209 -1 216 -20 216 -19 0 -20 -7
-20 -167 l-1 -168 -67 165 c-62 153 -69 165 -94 168 l-28 3 0 -215z"/>
<path d="M8520 8385 l0 -216 98 3 c92 3 97 4 100 26 3 21 1 22 -75 22 l-78 0
2 77 1 78 71 3 c62 3 71 5 71 22 0 17 -9 19 -71 22 l-71 3 0 65 0 65 71 3 c63
3 71 5 71 22 0 18 -7 20 -95 20 l-95 0 0 -215z"/>
<path d="M8780 8595 c0 -3 -1 -98 -1 -212 0 -202 1 -208 20 -211 20 -3 21 1
21 97 l0 101 70 0 c68 0 70 1 70 25 0 24 -2 25 -70 25 l-70 0 0 70 0 70 75 0
c68 0 75 2 75 20 0 19 -7 20 -95 20 -52 0 -95 -2 -95 -5z"/>
<path d="M9024 8587 c-2 -7 -3 -102 -2 -212 3 -199 3 -200 26 -203 l22 -3 0
215 c0 210 -1 216 -20 216 -11 0 -23 -6 -26 -13z"/>
<path d="M9110 8580 c0 -17 7 -20 50 -20 l50 0 0 -196 0 -195 23 3 c22 3 22 4
25 196 l2 192 45 0 c38 0 45 3 45 20 0 19 -7 20 -120 20 -113 0 -120 -1 -120
-20z"/>
<path d="M2290 8480 c0 -19 7 -20 158 -20 l157 0 -155 -63 c-152 -62 -155 -63
-158 -95 l-3 -32 198 2 198 3 3 24 4 23 -166 -3 c-91 -2 -162 -1 -158 2 4 3
78 34 165 69 142 56 157 64 157 86 l0 24 -200 0 c-193 0 -200 -1 -200 -20z"/>
<path d="M7400 8386 l0 -76 -60 0 -60 0 0 70 0 70 -35 0 -35 0 0 -70 0 -70
-50 0 -50 0 0 70 0 70 -35 0 -35 0 0 -105 0 -105 215 0 216 0 -3 108 -3 107
-32 3 -33 3 0 -75z"/>
<path d="M4825 8415 c-5 -2 -22 -6 -37 -9 -41 -9 -87 -53 -93 -90 -11 -55 16
-103 72 -129 40 -18 66 -22 153 -22 161 0 220 37 220 136 0 80 -80 120 -233
118 -40 0 -76 -2 -82 -4z m240 -69 c32 -21 39 -38 31 -71 -9 -34 -53 -54 -138
-61 -138 -12 -240 30 -222 90 9 29 16 35 60 52 55 20 232 14 269 -10z"/>
<path d="M2377 8196 c-62 -17 -87 -42 -94 -94 -12 -86 56 -131 197 -132 150 0
210 32 210 112 0 84 -48 117 -178 124 -56 2 -104 -1 -135 -10z m216 -47 c49
-13 72 -47 56 -82 -20 -44 -132 -67 -233 -48 -69 13 -96 33 -96 71 0 49 43 68
160 69 41 1 92 -4 113 -10z"/>
<path d="M7040 8106 l0 -53 148 -30 147 -29 -145 -24 -145 -25 -3 -57 -3 -58
216 0 215 0 0 35 0 35 -162 1 -163 2 160 26 160 27 0 34 c0 39 13 35 -234 79
l-106 19 173 1 172 1 0 35 0 35 -215 0 -215 0 0 -54z"/>
<path d="M4751 8096 c-38 -21 -50 -55 -51 -139 l0 -77 218 2 c217 3 217 3 220
26 3 21 1 22 -92 22 l-96 0 0 40 c0 52 -21 103 -51 124 -28 20 -114 21 -148 2z
m139 -63 c14 -19 20 -38 18 -62 l-3 -36 -82 -3 -83 -3 0 43 c0 65 21 88 80 88
41 0 52 -4 70 -27z"/>
<path d="M9056 8000 c-68 -21 -103 -87 -112 -211 -15 -206 48 -329 160 -315
81 10 120 63 138 184 13 96 -1 226 -29 275 -34 57 -98 85 -157 67z m68 -51
c36 -17 56 -66 63 -156 8 -104 -11 -214 -42 -247 -31 -34 -69 -33 -100 0 -32
35 -40 76 -40 209 1 120 16 173 58 193 29 14 32 14 61 1z"/>
<path d="M10693 7999 c-40 -12 -79 -58 -95 -112 -7 -23 -12 -94 -12 -157 0
-106 2 -121 27 -171 32 -65 61 -84 130 -83 44 0 54 5 83 36 38 42 52 86 60
188 7 85 -7 182 -32 235 -26 54 -97 83 -161 64z m77 -54 c42 -22 55 -70 55
-210 -1 -134 -16 -187 -59 -206 -40 -19 -73 -4 -98 44 -19 36 -22 58 -22 162
-1 132 16 193 58 213 29 14 33 14 66 -3z"/>
<path d="M8270 7740 l0 -260 25 0 25 0 0 109 0 108 59 6 c112 10 156 51 156
147 0 105 -56 150 -187 150 l-78 0 0 -260z m164 199 c32 -15 50 -60 43 -106
-9 -56 -37 -77 -99 -78 l-53 0 -3 98 -3 97 45 0 c25 0 56 -5 70 -11z"/>
<path d="M8610 7740 l0 -260 25 0 25 0 0 120 0 120 50 0 c41 0 56 -5 75 -25
22 -21 25 -33 25 -104 0 -96 5 -111 36 -111 23 0 24 2 24 79 0 103 -7 136 -38
166 -13 14 -20 25 -13 25 22 0 51 64 51 113 0 102 -46 137 -180 137 l-80 0 0
-260z m170 200 c28 -15 42 -66 30 -111 -13 -47 -33 -59 -99 -59 l-51 0 0 90 0
90 51 0 c28 0 59 -4 69 -10z"/>
<path d="M9330 7740 l0 -260 30 0 30 0 0 120 0 119 83 3 c76 3 82 5 85 26 3
21 1 22 -82 22 l-86 0 0 90 0 90 90 0 c89 0 90 0 90 25 l0 25 -120 0 -120 0 0
-260z"/>
<path d="M9630 7740 l0 -260 30 0 30 0 0 260 0 260 -30 0 -30 0 0 -260z"/>
<path d="M9740 7975 c0 -24 3 -25 60 -25 l60 0 0 -235 0 -235 25 0 25 0 2 233
3 232 58 3 c53 3 57 5 57 27 l0 25 -145 0 -145 0 0 -25z"/>
<path d="M10199 7998 c0 -2 -33 -122 -73 -266 -59 -213 -70 -265 -59 -269 8
-3 20 1 27 8 10 11 146 496 146 522 0 6 -39 11 -41 5z"/>
<path d="M10320 7740 l0 -260 120 0 120 0 0 25 c0 25 -1 25 -90 25 l-90 0 0
235 0 235 -30 0 -30 0 0 -260z"/>
<path d="M10999 7972 c-52 -47 -56 -137 -7 -189 12 -14 45 -36 72 -50 77 -39
96 -63 96 -123 0 -60 -24 -90 -71 -90 -44 0 -65 14 -83 60 -13 32 -21 40 -41
40 -30 0 -31 -14 -9 -70 18 -45 50 -66 110 -75 90 -12 154 46 154 140 0 67
-28 110 -100 152 -88 51 -99 61 -106 98 -18 96 106 132 136 41 9 -28 17 -36
36 -36 39 0 33 53 -10 96 -31 31 -40 34 -90 34 -47 0 -61 -4 -87 -28z"/>
<path d="M11349 7985 c-15 -8 -34 -30 -43 -49 -37 -78 -10 -141 85 -198 85
-51 109 -79 109 -129 0 -104 -127 -123 -160 -24 -9 27 -17 35 -36 35 -28 0
-31 -23 -10 -75 28 -66 111 -91 188 -57 56 25 82 73 76 141 -6 65 -30 95 -109
142 -78 45 -99 70 -99 115 0 35 37 74 70 74 26 0 68 -37 72 -63 4 -31 58 -38
58 -7 0 29 -26 76 -52 94 -28 20 -114 20 -149 1z"/>
<path d="M8040 7914 l0 -74 -185 0 c-178 0 -185 -1 -185 -20 0 -19 7 -20 205
-20 l205 0 0 89 c0 80 -2 89 -20 94 -19 5 -20 0 -20 -69z"/>
<path d="M2290 7880 c0 -19 7 -20 200 -20 193 0 200 1 200 20 0 19 -7 20 -200
20 -193 0 -200 -1 -200 -20z"/>
<path d="M2290 7694 c0 -105 2 -115 18 -112 12 2 18 15 20 45 l3 43 177 2
c175 3 177 3 180 26 l3 22 -180 0 -181 0 0 45 c0 38 -3 45 -20 45 -19 0 -20
-7 -20 -116z"/>
<path d="M4729 7781 c-27 -28 -29 -34 -29 -110 l0 -81 221 0 220 0 -3 23 c-3
21 -8 22 -107 25 l-103 3 6 42 c11 66 26 76 120 79 75 3 81 5 84 26 3 21 0 22
-73 22 -77 0 -145 -19 -145 -41 0 -6 -12 0 -26 15 -22 22 -36 26 -81 26 -47 0
-59 -4 -84 -29z m153 -43 c4 -7 8 -32 8 -55 l0 -43 -75 0 -75 0 0 43 c0 46 18
71 55 79 27 6 77 -8 87 -24z"/>
<path d="M7040 7660 l0 -130 35 0 c35 0 35 0 35 45 l0 45 178 2 177 3 3 38 3
37 -180 0 -181 0 0 45 c0 45 0 45 -35 45 l-35 0 0 -130z"/>
<path d="M8020 7739 c-19 -6 -106 -29 -192 -51 -156 -40 -158 -41 -158 -68 0
-28 1 -28 193 -75 105 -26 197 -48 202 -49 6 0 10 8 10 19 0 16 -12 23 -60 36
l-60 16 0 53 0 53 60 16 c49 13 61 20 63 39 4 24 -3 26 -58 11z m-110 -119 c0
-26 -4 -40 -12 -39 -19 0 -174 37 -168 39 24 8 149 38 163 39 13 1 17 -7 17
-39z"/>
<path d="M724 7627 c-2 -7 -3 -82 -2 -167 l3 -155 27 -3 c27 -3 27 -3 30 65
l3 68 273 3 272 2 0 30 0 30 -272 2 -273 3 -3 68 c-3 64 -4 67 -28 67 -13 0
-27 -6 -30 -13z"/>
<path d="M2344 7546 c-86 -38 -85 -149 3 -192 48 -22 191 -31 252 -14 65 17
91 48 91 109 0 43 -4 53 -31 75 -17 14 -34 26 -39 26 -5 0 -15 3 -24 6 -12 5
-16 0 -16 -17 0 -17 10 -28 33 -39 41 -19 49 -66 16 -96 -17 -16 -39 -20 -123
-22 -120 -4 -171 11 -182 52 -9 37 1 55 42 72 23 10 34 20 32 31 -4 22 -18 25
-54 9z"/>
<path d="M4830 7514 c-89 -18 -129 -50 -137 -111 -11 -87 71 -142 214 -143
154 0 233 39 233 119 0 93 -54 130 -197 136 -48 2 -99 1 -113 -1z m233 -71
c38 -22 48 -65 22 -93 -25 -27 -111 -43 -201 -38 -90 6 -127 20 -143 54 -21
46 13 83 89 98 56 11 201 -3 233 -21z"/>
<path d="M7293 7500 c-25 -10 -74 -73 -93 -120 -13 -30 -42 -45 -77 -38 -12 2
-19 14 -21 36 -3 29 0 34 27 43 26 9 31 16 31 45 0 28 -4 34 -20 34 -34 0 -80
-29 -90 -56 -20 -51 -12 -111 18 -144 58 -66 149 -46 197 42 36 67 59 88 93
88 36 0 52 -16 52 -53 0 -23 -6 -31 -30 -40 -26 -10 -30 -16 -30 -49 0 -42 5
-44 54 -24 49 20 66 51 66 118 0 49 -4 62 -28 89 -23 26 -37 32 -78 35 -27 2
-59 0 -71 -6z"/>
<path d="M7718 7435 c-32 -18 -48 -65 -48 -142 l0 -53 205 0 c198 0 205 1 205
20 0 19 -7 20 -95 20 l-95 0 0 38 c0 63 17 76 107 82 72 5 78 7 81 28 3 20 0
22 -50 22 -68 -1 -129 -15 -143 -33 -9 -13 -15 -11 -38 9 -33 28 -87 31 -129
9z m116 -51 c10 -9 16 -33 16 -60 l0 -45 -67 3 -68 3 -3 38 c-4 52 19 77 69
77 21 0 45 -7 53 -16z"/>
<path d="M2867 7373 c-4 -3 -7 -89 -7 -190 l0 -183 105 0 c97 0 105 1 105 19
0 11 3 26 6 35 5 14 -4 16 -60 16 l-66 0 0 155 0 155 -38 0 c-21 0 -42 -3 -45
-7z"/>
<path d="M3102 7215 c3 -163 3 -165 29 -191 52 -51 174 -41 204 16 11 22 15
67 15 185 l0 155 -45 0 -45 0 0 -155 c0 -135 -2 -156 -16 -162 -9 -3 -24 -2
-33 4 -13 8 -16 35 -19 162 l-3 151 -45 0 -45 0 3 -165z"/>
<path d="M3380 7377 c0 -1 16 -40 35 -86 19 -45 35 -91 35 -101 0 -10 -16 -55
-35 -100 -19 -45 -35 -84 -35 -86 0 -2 20 -4 44 -4 l44 0 17 53 c10 28 21 56
25 60 3 4 15 -20 25 -53 l18 -60 48 0 49 0 -20 50 c-11 28 -29 72 -40 100
l-20 50 35 82 c19 45 35 86 35 90 0 4 -19 8 -43 8 l-43 0 -19 -57 -18 -58 -21
58 -21 57 -47 0 c-27 0 -48 -1 -48 -3z"/>
<path d="M3670 7225 c0 -174 8 -203 60 -225 18 -7 51 -10 82 -8 42 4 57 11 80
37 l28 31 0 160 0 160 -45 0 -44 0 -3 -157 -3 -158 -24 -3 c-13 -2 -28 2 -32
10 -5 7 -9 79 -9 161 l0 147 -45 0 -45 0 0 -155z"/>
<path d="M3980 7190 l0 -190 40 0 40 0 0 75 c0 73 1 75 25 75 32 0 45 -26 45
-94 l0 -56 46 0 47 0 -5 70 c-3 38 -12 80 -20 93 -14 21 -14 25 3 46 21 26 25
90 8 123 -17 31 -71 48 -154 48 l-75 0 0 -190z m148 81 c4 -37 -9 -51 -45 -51
-21 0 -23 5 -23 46 0 45 0 45 33 42 28 -3 32 -7 35 -37z"/>
<path d="M4240 7373 c0 -4 20 -61 45 -125 37 -96 45 -129 45 -183 l0 -65 45 0
45 0 0 65 c0 54 8 87 45 183 25 64 45 120 45 124 0 5 -20 8 -44 8 l-44 0 -17
-72 c-10 -40 -20 -77 -23 -82 -3 -6 -15 26 -26 70 l-21 79 -47 3 c-27 2 -48
-1 -48 -5z"/>
<path d="M1107 7256 c-51 -19 -78 -46 -112 -109 -15 -29 -39 -66 -52 -84 -54
-74 -173 -42 -173 46 0 29 37 69 70 76 26 6 30 11 30 42 0 28 -3 34 -16 29 -9
-3 -24 -6 -35 -6 -11 0 -36 -15 -56 -34 -33 -30 -37 -39 -41 -93 -7 -105 44
-163 146 -163 85 0 119 26 175 135 32 64 65 94 110 102 75 12 127 -24 127 -88
0 -45 -29 -84 -75 -99 -29 -10 -35 -16 -35 -41 0 -23 4 -29 22 -29 38 0 103
38 123 72 27 45 26 132 -1 178 -37 65 -131 94 -207 66z"/>
<path d="M2290 7245 l0 -25 163 0 c175 0 191 -4 202 -50 4 -18 0 -34 -15 -53
l-21 -27 -165 0 -164 0 0 -25 0 -25 155 0 c215 0 245 14 245 117 0 97 -35 113
-252 113 l-148 0 0 -25z"/>
<path d="M7400 7145 l0 -75 -60 0 -60 0 0 65 0 65 -35 0 -35 0 0 -65 0 -65
-50 0 -50 0 0 70 0 70 -35 0 -35 0 0 -110 0 -110 215 0 215 0 0 109 c0 104 -1
109 -22 115 -46 12 -48 10 -48 -69z"/>
<path d="M4753 7195 c-70 -30 -82 -129 -22 -179 44 -37 100 -49 219 -44 147 5
190 34 190 126 0 47 -22 80 -66 98 -45 19 -54 18 -54 -8 0 -16 11 -28 32 -38
39 -19 53 -40 45 -71 -11 -42 -43 -53 -167 -57 -96 -2 -121 0 -150 15 -29 15
-36 24 -38 55 -2 28 2 40 20 52 12 9 30 16 40 16 13 0 18 8 18 25 0 29 -18 32
-67 10z"/>
<path d="M8040 7115 l0 -75 -80 0 -80 0 0 65 c0 58 -2 65 -20 65 -18 0 -20 -7
-20 -65 l0 -65 -65 0 -65 0 0 70 c0 63 -2 70 -20 70 -19 0 -20 -7 -20 -95 l0
-95 205 0 205 0 0 94 c0 91 -5 106 -36 106 -2 0 -4 -34 -4 -75z"/>
<path d="M2401 6971 c-86 -22 -111 -57 -111 -156 l0 -65 200 0 200 0 0 58 c0
72 -24 120 -71 144 -40 21 -167 32 -218 19z m168 -47 c17 -4 42 -17 56 -30 21
-19 26 -32 23 -62 l-3 -37 -160 0 -160 0 1 38 c1 42 32 83 68 90 35 7 141 7
175 1z"/>
<path d="M7042 6913 l3 -38 164 -34 c91 -19 160 -36 155 -37 -5 -2 -80 -17
-166 -35 l-158 -32 0 -38 c0 -22 5 -39 10 -39 10 0 293 67 383 91 36 9 37 11
37 54 0 25 -3 45 -6 45 -3 0 -94 23 -202 50 -108 28 -202 50 -210 50 -9 0 -12
-11 -10 -37z"/>
<path d="M7743 6902 c-49 -26 -65 -56 -71 -133 l-5 -69 208 0 207 0 -4 65 c-5
74 -25 110 -79 137 -48 25 -210 25 -256 0z m212 -32 c51 -11 85 -50 85 -96 l0
-34 -165 0 -165 0 0 34 c0 42 31 83 73 95 42 12 122 13 172 1z"/>
<path d="M1270 6770 l0 -110 -115 0 -115 0 0 100 0 100 -30 0 -30 0 0 -100 0
-101 -97 3 -98 3 -3 103 -3 102 -29 0 -30 0 0 -135 0 -135 305 0 305 0 0 140
0 140 -30 0 -30 0 0 -110z"/>
<path d="M3405 6828 c-52 -11 -100 -59 -122 -122 -14 -40 -18 -83 -18 -196 0
-163 13 -215 66 -265 25 -25 39 -30 97 -33 57 -3 72 0 101 20 35 23 64 70 75
121 6 25 4 27 -27 27 -31 0 -36 -4 -52 -46 -13 -35 -25 -49 -50 -60 -51 -21
-89 -3 -117 54 -20 42 -23 62 -23 177 0 154 7 194 41 235 21 25 33 30 68 30
50 0 75 -21 85 -72 6 -29 11 -33 43 -36 l36 -3 -8 39 c-18 102 -92 151 -195
130z"/>
<path d="M3825 6828 c-52 -11 -100 -59 -122 -122 -14 -40 -18 -83 -18 -196 0
-167 14 -219 71 -270 31 -27 42 -30 98 -30 94 0 148 45 170 143 6 26 4 27 -29
27 -25 0 -37 -5 -41 -17 -20 -62 -30 -77 -61 -89 -28 -12 -38 -12 -66 0 -50
20 -69 75 -75 211 -8 196 27 285 112 285 50 0 75 -21 85 -72 6 -28 11 -33 39
-36 29 -3 32 -1 32 24 0 38 -34 106 -62 123 -33 21 -87 28 -133 19z"/>
<path d="M4250 6830 c-54 -9 -87 -37 -117 -98 -27 -55 -28 -63 -28 -212 0
-147 1 -158 27 -212 34 -73 72 -98 148 -98 132 0 182 89 182 321 -1 224 -71
323 -212 299z m92 -77 c32 -28 48 -108 48 -233 0 -182 -30 -254 -107 -254 -81
0 -118 96 -111 288 5 126 25 188 67 211 30 17 77 12 103 -12z"/>
<path d="M6648 6830 c-20 -4 -47 -14 -61 -23 -78 -51 -116 -235 -87 -416 21
-127 71 -181 167 -181 44 0 58 5 87 30 l35 31 3 -28 c2 -22 8 -28 28 -28 l25
0 0 165 0 165 -87 3 -88 3 0 -31 c0 -30 0 -30 56 -30 l57 0 -6 -75 c-8 -93
-26 -130 -70 -144 -57 -19 -103 9 -125 76 -17 52 -24 192 -13 266 13 91 38
138 84 155 49 19 86 1 112 -55 17 -37 24 -43 51 -43 l32 0 -9 41 c-21 94 -89
136 -191 119z"/>
<path d="M2965 6818 c-8 -26 -145 -590 -145 -599 0 -6 14 -9 32 -7 32 3 32 4
56 101 l24 98 82 -3 81 -3 13 -60 c29 -135 29 -135 67 -135 19 0 35 3 35 7 0
12 -151 596 -156 605 -8 13 -84 9 -89 -4z m81 -211 l31 -132 -60 -3 c-32 -2
-62 -1 -64 2 -3 3 7 66 23 140 16 74 31 132 34 130 2 -3 19 -64 36 -137z"/>
<path d="M4564 6816 c-3 -8 -4 -124 -2 -258 3 -223 5 -246 23 -278 29 -49 76
-73 144 -74 74 -1 128 27 155 80 20 36 21 56 21 289 l0 250 -32 3 -32 3 -3
-248 c-3 -220 -5 -252 -21 -276 -37 -57 -120 -58 -161 -4 -20 27 -21 43 -24
278 l-3 249 -30 0 c-16 0 -32 -6 -35 -14z"/>
<path d="M5025 6817 c-3 -7 -4 -145 -3 -307 l3 -295 30 0 30 0 0 252 c0 139 3
249 6 245 3 -4 48 -113 99 -242 51 -129 97 -241 103 -247 5 -7 25 -13 43 -13
l34 0 0 310 0 310 -30 0 -30 0 0 -247 0 -248 -66 160 c-36 88 -81 199 -101
248 l-35 87 -39 0 c-23 0 -42 -5 -44 -13z"/>
<path d="M5437 6823 c-4 -3 -7 -17 -7 -30 0 -22 3 -23 70 -23 l70 0 2 -277 3
-278 32 -3 33 -3 2 278 3 278 68 3 c67 3 67 3 67 32 l0 30 -168 0 c-93 0 -172
-3 -175 -7z"/>
<path d="M5850 6520 l0 -311 33 3 32 3 0 305 0 305 -32 3 -33 3 0 -311z"/>
<path d="M6045 6817 c-3 -7 -4 -145 -3 -307 l3 -295 30 0 30 0 -1 258 0 258
104 -261 104 -260 39 0 39 0 0 310 0 310 -30 0 -30 0 -2 -246 -3 -246 -94 234
c-52 128 -99 239 -104 246 -12 16 -76 16 -82 -1z"/>
<path d="M2650 6626 l0 -76 -75 0 -75 0 0 65 c0 58 -2 65 -20 65 -18 0 -20 -7
-20 -65 l0 -65 -65 0 -65 0 0 70 c0 63 -2 70 -20 70 -19 0 -20 -7 -20 -95 l0
-95 200 0 201 0 -3 97 c-3 84 -6 98 -20 101 -16 3 -18 -6 -18 -72z"/>
<path d="M8038 6571 l-3 -76 -75 0 -75 0 -3 68 c-3 59 -5 67 -22 67 -18 0 -20
-7 -20 -70 l0 -71 -62 3 -63 3 -3 73 c-2 63 -5 73 -20 70 -14 -3 -17 -18 -20
-96 l-3 -92 206 0 205 0 0 94 c0 85 -2 94 -20 99 -18 5 -19 -1 -22 -72z"/>
<path d="M7040 6585 l0 -35 143 0 142 -1 -140 -52 -140 -53 -3 -42 -3 -42 216
0 216 0 -3 33 -3 32 -150 -4 c-82 -2 -147 0 -144 3 3 4 71 30 150 59 l144 53
3 42 3 42 -215 0 -216 0 0 -35z"/>
<path d="M8311 6554 c-37 -26 -51 -74 -51 -171 0 -70 4 -95 20 -121 51 -83
187 -60 206 36 6 32 6 32 -35 32 -27 0 -41 -4 -41 -13 0 -7 -6 -22 -14 -33
-24 -32 -47 1 -53 77 -6 86 7 144 32 144 11 0 24 -10 30 -22 8 -18 18 -23 49
-23 38 0 38 0 32 33 -9 49 -48 77 -104 77 -28 0 -57 -7 -71 -16z"/>
<path d="M8580 6566 c0 -3 -16 -80 -35 -173 -19 -92 -35 -169 -35 -170 0 -2
18 -3 39 -3 40 0 51 11 51 51 0 15 7 19 35 19 31 0 35 -3 41 -35 6 -34 8 -35
51 -35 38 0 44 3 39 18 -3 9 -19 84 -36 165 -16 82 -32 153 -35 158 -6 9 -115
13 -115 5z m73 -158 c6 -44 5 -48 -15 -48 -19 0 -20 4 -14 46 3 26 6 56 7 68
0 20 0 21 8 1 4 -11 11 -41 14 -67z"/>
<path d="M8800 6395 l0 -175 95 0 95 0 0 30 c0 30 -1 30 -55 30 l-55 0 0 145
0 145 -40 0 -40 0 0 -175z"/>
<path d="M9061 6554 c-37 -26 -51 -74 -51 -171 0 -70 4 -95 20 -121 51 -83
187 -60 206 36 6 32 6 32 -33 32 -34 0 -40 -4 -50 -31 -14 -35 -32 -34 -50 2
-13 25 -16 137 -4 179 9 32 42 33 56 3 8 -18 18 -23 49 -23 38 0 38 0 32 33
-9 49 -48 77 -104 77 -28 0 -57 -7 -71 -16z"/>
<path d="M9280 6421 c0 -141 1 -151 23 -176 44 -52 162 -42 192 15 11 22 15
65 15 170 l0 140 -40 0 -40 0 0 -140 c0 -127 -2 -140 -19 -150 -15 -7 -23 -6
-35 6 -13 12 -16 41 -16 150 l0 134 -40 0 -40 0 0 -149z"/>
<path d="M9560 6396 l0 -176 94 0 c89 0 94 1 100 23 3 12 6 25 6 29 0 4 -26 8
-57 10 l-58 3 -2 140 -2 140 -40 3 -41 3 0 -175z"/>
<path d="M9850 6564 c0 -6 -55 -278 -65 -322 -5 -22 -3 -23 37 -20 40 3 43 5
46 36 3 29 6 32 37 32 34 0 45 -13 45 -51 0 -16 7 -19 45 -19 42 0 45 2 40 23
-10 43 -65 315 -65 321 0 3 -27 6 -60 6 -33 0 -60 -3 -60 -6z m74 -156 c7 -45
6 -48 -15 -48 -20 0 -21 3 -15 46 3 26 6 54 6 63 1 30 17 -11 24 -61z"/>
<path d="M10020 6535 c0 -33 2 -35 35 -35 l35 0 0 -140 0 -140 45 0 45 0 0
140 0 140 36 0 c34 0 35 1 32 33 l-3 32 -112 3 -113 3 0 -36z"/>
<path d="M10280 6395 l0 -175 40 0 40 0 0 175 0 175 -40 0 -40 0 0 -175z"/>
<path d="M10461 6554 c-35 -25 -51 -75 -51 -158 0 -127 38 -186 120 -186 83 0
120 55 120 179 0 132 -33 181 -120 181 -26 0 -56 -7 -69 -16z m100 -86 c15
-56 6 -165 -15 -186 -15 -15 -17 -15 -33 1 -23 23 -26 184 -4 210 22 28 40 19
52 -25z"/>
<path d="M10700 6395 l0 -175 35 0 35 0 1 108 0 107 35 -107 35 -108 44 0 45
0 0 175 0 175 -35 0 -35 0 -1 -102 -1 -103 -35 103 -35 102 -44 0 -44 0 0
-175z"/>
<path d="M11006 6545 c-20 -18 -26 -34 -26 -65 0 -57 11 -74 74 -110 57 -32
76 -61 56 -85 -18 -22 -39 -18 -52 10 -9 20 -18 25 -50 25 -42 0 -47 -10 -26
-55 23 -51 95 -69 163 -41 40 17 55 42 55 93 0 51 -18 74 -85 112 -45 26 -56
36 -53 54 4 30 43 36 51 8 4 -16 13 -21 41 -21 32 0 36 3 36 25 0 14 -11 37
-25 50 -35 36 -120 36 -159 0z"/>
<path d="M800 6482 c-56 -28 -73 -69 -78 -188 l-5 -104 307 0 306 0 0 30 0 30
-140 0 -140 0 0 59 c0 99 35 120 203 121 l77 0 0 34 0 34 -97 -4 c-138 -7
-157 -11 -187 -41 l-27 -26 -16 22 c-34 49 -137 66 -203 33z m172 -82 c13 -16
18 -39 18 -86 l0 -64 -105 0 -105 0 0 55 c0 98 28 127 119 121 42 -2 59 -8 73
-26z"/>
<path d="M2425 6434 c-52 -8 -106 -37 -121 -65 -8 -16 -14 -56 -14 -94 l0 -65
200 0 200 0 0 56 c0 77 -23 122 -74 144 -43 19 -140 31 -191 24z m148 -55 c51
-14 77 -44 77 -91 l0 -38 -162 2 -163 3 1 38 c2 66 47 94 154 96 30 1 72 -4
93 -10z"/>
<path d="M7677 6393 c-4 -3 -7 -46 -7 -95 l0 -88 205 0 c198 0 205 1 205 20 0
19 -7 20 -95 20 l-95 0 0 70 c0 63 -2 70 -20 70 -17 0 -19 -8 -22 -67 l-3 -68
-65 0 -65 0 -3 73 c-2 50 -7 72 -16 72 -7 0 -16 -3 -19 -7z"/>
<path d="M7040 6245 l0 -35 215 0 215 0 0 35 0 35 -215 0 -215 0 0 -35z"/>
<path d="M1270 6001 l0 -111 -115 0 -115 0 0 100 0 100 -30 0 -30 0 0 -100 0
-100 -100 0 -100 0 0 106 0 105 -27 -3 -28 -3 0 -135 0 -135 303 -3 303 -2 -3
142 -3 143 -27 3 -28 3 0 -110z"/>
<path d="M8079 6061 c-122 -23 -221 -100 -254 -200 -26 -81 -18 -212 18 -273
41 -71 109 -123 245 -189 190 -93 244 -155 227 -265 -26 -175 -280 -162 -310
16 l-7 40 -114 0 c-65 0 -114 -4 -114 -10 0 -30 26 -122 46 -161 63 -127 208
-191 391 -175 152 14 251 73 305 183 30 62 33 75 33 163 0 84 -3 102 -28 152
-41 83 -106 136 -270 219 -78 39 -154 83 -169 97 -80 75 -51 219 48 238 85 16
146 -26 165 -113 l12 -53 110 0 110 0 -6 54 c-12 122 -91 225 -198 259 -64 21
-177 29 -240 18z"/>
<path d="M3532 6003 l3 -58 123 -46 c67 -25 124 -48 127 -51 3 -2 -48 -24
-113 -48 -64 -23 -123 -47 -129 -53 -8 -6 -13 -33 -13 -69 0 -44 3 -59 13 -55
6 3 87 39 178 81 l167 75 113 3 114 3 3 58 3 57 -110 0 -109 0 -178 80 c-97
44 -181 80 -186 80 -5 0 -8 -26 -6 -57z"/>
<path d="M4270 5955 l0 -95 135 0 135 0 0 -500 0 -500 115 0 115 0 0 500 0
499 133 3 132 3 3 93 3 92 -386 0 -385 0 0 -95z"/>
<path d="M5295 6038 c-3 -7 -29 -114 -59 -238 -30 -124 -93 -379 -140 -568
-47 -189 -86 -350 -86 -358 0 -11 22 -14 109 -14 96 0 110 2 115 18 2 9 17 77
32 150 l27 132 149 0 c81 0 148 -3 148 -7 0 -7 43 -216 55 -270 5 -22 9 -23
120 -23 95 0 115 3 115 15 0 13 -254 1045 -280 1138 l-11 37 -145 0 c-107 0
-146 -3 -149 -12z m184 -368 c18 -91 41 -200 51 -242 9 -43 15 -80 12 -83 -7
-6 -197 -7 -204 0 -2 3 13 83 34 177 21 95 43 208 50 250 7 43 15 74 18 70 4
-4 21 -81 39 -172z"/>
<path d="M6098 5761 l147 -290 -147 -295 c-82 -163 -148 -301 -148 -306 0 -7
41 -10 115 -8 l116 3 92 212 c51 117 95 213 98 213 3 0 47 -96 97 -212 l90
-213 126 -3 c70 -1 126 1 126 6 0 5 -67 147 -150 316 l-150 307 136 262 c75
144 141 270 146 280 8 16 1 17 -112 15 l-121 -3 -84 -188 c-45 -103 -85 -190
-87 -193 -3 -2 -43 82 -90 188 l-86 193 -130 3 -131 3 147 -290z"/>
<path d="M6952 5458 l3 -593 325 0 324 0 12 75 c7 41 13 81 13 88 1 9 -50 12
-224 12 l-225 0 0 175 0 175 200 0 200 0 0 90 0 90 -200 0 -200 0 0 145 0 145
210 0 210 0 0 95 0 95 -325 0 -325 0 2 -592z"/>
<path d="M9850 5860 l0 -190 30 0 30 0 0 80 0 79 63 3 c59 3 62 4 65 30 3 27
2 27 -60 30 l-63 3 0 45 0 45 63 3 c61 3 62 3 62 32 l0 30 -95 0 -95 0 0 -190z"/>
<path d="M10090 5860 l0 -190 30 0 30 0 0 190 0 190 -30 0 -30 0 0 -190z"/>
<path d="M10239 6021 c-52 -53 -36 -125 38 -167 26 -15 56 -34 66 -42 21 -18
22 -65 2 -82 -22 -19 -64 -4 -71 25 -5 21 -12 25 -40 25 -39 0 -43 -14 -19
-60 20 -39 43 -50 105 -50 44 0 56 5 81 29 23 24 29 38 29 75 0 55 -24 86 -95
124 -34 19 -51 34 -53 50 -7 50 49 72 70 27 9 -19 19 -25 44 -25 32 0 32 1 23
33 -13 47 -43 67 -101 67 -41 0 -54 -5 -79 -29z"/>
<path d="M10520 6022 c-34 -35 -50 -87 -50 -167 0 -129 36 -185 119 -185 59 0
96 26 110 78 9 31 9 32 -22 32 -25 0 -36 -7 -49 -30 -31 -54 -72 -31 -84 46
-21 142 36 259 84 174 13 -23 24 -30 49 -30 31 0 31 1 22 33 -22 78 -122 106
-179 49z"/>
<path d="M10815 6038 c-7 -21 -85 -348 -85 -359 0 -6 14 -9 32 -7 29 3 33 7
43 48 11 45 11 45 55 45 l45 0 8 -47 c9 -46 11 -48 43 -48 21 0 34 5 34 13 -1
6 -20 91 -43 187 l-42 175 -43 3 c-28 2 -44 -1 -47 -10z m61 -135 c4 -32 8
-62 9 -67 0 -6 -12 -11 -27 -11 -16 -1 -28 2 -28 7 0 27 25 136 31 132 4 -2
10 -30 15 -61z"/>
<path d="M11030 5860 l0 -190 95 0 95 0 0 30 c0 29 -1 29 -62 32 l-63 3 -3
158 -3 157 -29 0 -30 0 0 -190z"/>
<path d="M11367 6043 c-4 -6 -5 -90 -4 -189 l2 -179 33 -3 32 -3 0 74 0 75 51
7 c30 4 61 16 77 30 23 20 27 31 27 79 0 47 -4 60 -28 83 -24 25 -36 28 -106
31 -43 2 -81 0 -84 -5z m141 -65 c15 -15 16 -53 2 -79 -8 -13 -21 -19 -45 -19
l-35 0 0 55 0 55 33 0 c18 0 38 -5 45 -12z"/>
<path d="M11683 6032 c-75 -58 -71 -310 5 -351 12 -6 39 -11 62 -11 56 0 78
14 101 63 41 91 17 276 -39 306 -32 17 -104 13 -129 -7z m93 -46 c17 -13 19
-27 19 -126 0 -99 -2 -113 -19 -126 -11 -8 -23 -14 -26 -14 -3 0 -15 6 -26 14
-17 13 -19 27 -19 126 0 99 2 113 19 126 11 8 23 14 26 14 3 0 15 -6 26 -14z"/>
<path d="M11930 5861 l0 -191 94 0 94 0 4 30 5 30 -63 0 -63 0 -3 158 -3 157
-32 3 -33 3 0 -190z"/>
<path d="M12160 5860 l0 -190 35 0 35 0 0 190 0 190 -35 0 -35 0 0 -190z"/>
<path d="M12337 6030 c-36 -28 -51 -81 -51 -180 1 -134 33 -180 124 -180 46 0
94 38 104 83 6 25 4 27 -28 27 -28 0 -35 -5 -40 -24 -9 -35 -45 -44 -67 -18
-48 61 -26 262 30 262 15 0 41 -30 41 -46 0 -9 11 -14 35 -14 19 0 35 5 35 10
0 24 -30 79 -48 89 -34 18 -106 13 -135 -9z"/>
<path d="M12540 6041 c0 -4 20 -56 45 -115 40 -95 45 -117 45 -182 l0 -74 35
0 35 0 0 70 c0 62 6 85 50 188 l49 117 -25 3 c-42 6 -49 -2 -74 -82 -13 -42
-27 -76 -31 -76 -4 0 -10 11 -13 25 -4 14 -16 50 -27 80 -19 52 -22 55 -55 55
-19 0 -34 -4 -34 -9z"/>
<path d="M1550 6022 c-54 -27 -80 -74 -80 -144 0 -94 31 -134 146 -191 28 -14
64 -41 79 -59 23 -27 26 -39 22 -72 -6 -46 -28 -66 -70 -66 -42 0 -64 16 -77
55 -11 34 -12 35 -67 35 l-56 0 6 -35 c9 -55 45 -105 91 -126 86 -39 211 -14
260 53 24 34 33 131 17 181 -15 44 -63 88 -142 127 -76 39 -99 62 -99 101 0
42 15 65 46 73 35 9 70 -15 79 -54 6 -29 9 -30 61 -30 50 0 54 2 54 23 0 40
-43 108 -80 128 -45 25 -142 25 -190 1z"/>
<path d="M1864 6031 c-2 -2 -4 -24 -4 -48 l0 -43 70 0 70 0 0 -265 0 -265 55
0 55 0 0 265 0 265 65 0 65 0 0 45 0 44 -186 3 c-102 2 -188 1 -190 -1z"/>
<path d="M2345 6018 c-72 -307 -135 -583 -135 -594 0 -10 15 -14 54 -14 l54 0
7 43 c4 23 11 59 16 80 l10 37 69 0 c77 0 71 7 91 -97 l12 -63 58 0 59 0 -6
28 c-3 15 -36 155 -73 312 l-67 285 -72 3 c-67 3 -72 2 -77 -20z m102 -221
c12 -62 22 -118 22 -124 1 -9 -15 -13 -49 -13 -34 0 -50 4 -50 13 0 7 9 53 20
103 11 49 20 102 20 118 0 53 14 16 37 -97z"/>
<path d="M3047 6033 c-4 -3 -7 -145 -7 -315 l0 -308 159 0 c175 0 171 -2 171
66 l0 34 -110 0 -110 0 0 90 0 90 100 0 100 0 0 45 0 44 -97 3 -98 3 -3 78 -3
77 106 0 105 0 0 50 0 50 -153 0 c-85 0 -157 -3 -160 -7z"/>
<path d="M9050 5971 l0 -71 -155 0 c-149 0 -155 -1 -155 -20 0 -20 5 -20 171
-18 l171 3 0 85 c0 70 -3 86 -16 88 -13 3 -16 -8 -16 -67z"/>
<path d="M2600 5985 l0 -45 65 0 65 0 0 -265 0 -265 55 0 55 0 2 263 3 262 68
3 67 3 0 44 0 45 -190 0 -190 0 0 -45z"/>
<path d="M9615 6022 c-3 -3 -5 -43 -5 -89 l0 -83 -65 0 -65 0 0 81 0 80 -37
-3 -38 -3 -3 -77 -3 -78 -54 0 -55 0 0 86 0 85 -36 -3 -35 -3 -2 -123 -2 -122
238 0 238 0 -3 122 -3 122 -32 7 c-18 3 -35 4 -38 1z"/>
<path d="M8930 5774 c-63 -19 -132 -39 -152 -45 -33 -8 -38 -14 -38 -39 0 -19
6 -30 18 -34 75 -23 309 -86 319 -86 6 0 10 8 9 18 -2 11 -22 23 -59 35 l-57
18 0 49 0 49 43 11 c55 14 70 22 73 43 3 24 -21 21 -156 -19z m10 -84 c0 -22
-3 -40 -7 -40 -5 1 -42 9 -83 19 l-75 18 40 11 c22 6 56 15 75 20 19 6 38 11
43 11 4 1 7 -17 7 -39z"/>
<path d="M724 5747 c-2 -7 -3 -82 -2 -167 l3 -155 27 -3 c27 -3 27 -3 30 65
l3 68 273 3 272 2 0 30 0 30 -272 2 -273 3 -3 68 c-3 64 -4 67 -28 67 -13 0
-27 -6 -30 -13z"/>
<path d="M9218 5619 c-1 -34 0 -63 4 -65 4 -2 73 -18 154 -34 81 -17 149 -31
150 -33 2 -1 -45 -11 -104 -21 -59 -10 -128 -22 -154 -27 l-46 -10 -4 -65 -3
-64 238 0 238 0 -3 38 -3 37 -192 0 c-106 -1 -191 0 -190 1 2 2 85 17 186 34
102 17 188 33 193 36 4 3 8 20 8 39 0 40 13 35 -205 76 -93 17 -172 33 -174
35 -2 2 82 4 187 4 l192 0 0 40 0 40 -234 0 -234 0 -4 -61z"/>
<path d="M3534 5571 c-2 -2 -4 -39 -4 -82 0 -77 0 -79 28 -86 15 -3 106 -23
202 -43 l175 -37 -55 -11 c-30 -6 -120 -24 -200 -39 l-145 -28 -3 -82 -3 -83
296 0 295 0 0 51 0 51 -247 -3 c-277 -4 -279 -6 57 53 l185 33 3 48 c3 41 0
48 -20 56 -13 4 -122 28 -243 52 l-220 44 243 3 243 2 -3 51 -3 50 -288 2
c-159 1 -291 0 -293 -2z"/>
<path d="M8990 5516 c0 -17 7 -26 25 -30 38 -10 51 -53 27 -85 -23 -31 -48
-39 -132 -40 -72 -1 -133 22 -138 52 -7 35 8 67 33 73 16 4 25 13 25 25 0 46
-84 1 -95 -51 -9 -41 11 -95 42 -115 35 -23 126 -34 198 -24 49 6 65 14 88 39
50 56 28 144 -43 168 -28 10 -30 9 -30 -12z"/>
<path d="M10665 5491 c-55 -23 -77 -79 -77 -198 0 -106 13 -154 49 -183 31
-24 90 -26 121 -4 44 31 56 71 56 189 0 124 -13 164 -64 190 -32 16 -55 18
-85 6z m74 -50 c26 -26 34 -72 30 -179 -5 -105 -21 -135 -73 -130 -40 4 -59
41 -64 125 -10 154 44 247 107 184z"/>
<path d="M9852 5293 c3 -190 4 -198 23 -198 18 0 20 8 23 94 l3 94 41 -6 c22
-3 46 -10 52 -17 6 -6 13 -46 16 -88 5 -71 7 -77 28 -80 23 -4 23 -3 17 80 -5
60 -13 89 -26 103 -18 20 -18 21 1 38 41 35 38 122 -7 157 -21 16 -40 20 -100
20 l-73 0 2 -197z m146 145 c17 -17 15 -93 -3 -108 -8 -6 -32 -14 -55 -17
l-40 -6 0 72 0 71 43 0 c24 0 48 -5 55 -12z"/>
<path d="M10122 5293 l3 -198 93 -3 c87 -3 92 -2 92 18 0 18 -6 20 -70 20
l-70 0 0 75 0 75 65 0 c58 0 65 2 65 20 0 18 -7 20 -65 20 l-65 0 0 65 0 64
67 3 c55 2 68 6 71 21 3 15 -6 17 -92 17 l-96 0 2 -197z"/>
<path d="M10362 5293 c3 -197 3 -198 26 -201 21 -3 22 -1 22 92 l0 96 65 0
c58 0 65 2 65 20 0 18 -7 20 -65 20 l-65 0 0 65 0 65 70 0 c63 0 70 2 70 20 0
19 -7 20 -95 20 l-95 0 2 -197z"/>
<path d="M10882 5293 c3 -190 4 -198 23 -198 18 0 20 8 23 94 l3 94 41 -6 c22
-3 46 -10 52 -17 6 -6 13 -46 16 -88 5 -71 7 -77 28 -80 23 -4 23 -3 17 80 -5
59 -13 89 -25 103 -18 19 -18 21 7 49 21 25 24 37 20 75 -8 70 -39 91 -133 91
l-74 0 2 -197z m146 145 c17 -17 15 -93 -3 -108 -8 -6 -32 -14 -55 -17 l-40
-6 0 72 0 71 43 0 c24 0 48 -5 55 -12z"/>
<path d="M11152 5293 c3 -179 5 -198 21 -201 16 -3 17 10 18 170 1 190 3 190
44 -7 35 -169 33 -165 55 -165 22 0 26 13 70 210 l28 125 1 -167 c1 -161 2
-168 21 -168 19 0 20 7 20 200 l0 200 -30 0 c-33 0 -29 10 -78 -195 -19 -78
-31 -113 -35 -100 -3 11 -18 74 -32 140 -36 166 -31 155 -71 155 l-34 0 2
-197z"/>
<path d="M722 5333 l3 -28 242 0 c133 0 239 -2 235 -6 -4 -3 -108 -45 -232
-94 -124 -48 -231 -92 -237 -98 -7 -5 -13 -25 -13 -43 l0 -34 305 0 305 0 0
31 0 30 -250 -3 c-137 -2 -246 0 -242 3 4 4 108 46 232 93 123 48 232 92 242
97 12 6 18 21 18 44 l0 35 -306 0 -305 0 3 -27z"/>
<path d="M8794 5241 c-95 -43 -79 -171 27 -201 52 -15 154 -12 199 6 25 10 47
28 55 45 32 62 9 127 -55 153 -56 22 -173 21 -226 -3z m233 -46 c59 -39 32
-98 -54 -115 -62 -13 -161 -2 -189 21 -19 15 -18 73 2 89 37 31 196 34 241 5z"/>
<path d="M9353 5220 c-96 -20 -143 -70 -143 -151 0 -58 30 -104 85 -133 34
-18 58 -21 155 -21 99 0 121 3 160 22 59 29 80 66 80 137 0 100 -64 145 -220
152 -41 2 -94 -1 -117 -6z m233 -101 c22 -11 30 -22 32 -46 5 -49 -28 -65
-146 -70 -147 -7 -208 21 -186 84 7 22 19 31 54 40 56 16 207 11 246 -8z"/>
<path d="M1490 5035 l0 -185 91 0 c67 0 98 4 119 17 56 33 68 116 24 160 -14
14 -22 28 -16 32 16 10 32 49 32 76 0 16 -12 38 -29 56 -28 28 -33 29 -125 29
l-96 0 0 -185z m164 113 c9 -12 16 -26 16 -30 0 -19 -43 -48 -70 -48 -29 0
-30 1 -30 50 l0 50 34 0 c25 0 39 -7 50 -22z m-3 -138 c14 -8 19 -21 19 -48 0
-48 -14 -62 -62 -62 l-38 0 0 60 0 60 31 0 c17 0 39 -5 50 -10z"/>
<path d="M1810 5035 l0 -185 109 0 c104 0 109 1 114 22 4 12 5 23 4 24 -1 2
-35 4 -75 5 l-72 2 0 54 0 53 65 0 65 0 0 30 0 30 -65 0 -65 0 0 45 0 44 68 3
c65 3 67 4 70 31 l3 27 -110 0 -111 0 0 -185z"/>
<path d="M2090 5036 l0 -186 35 0 35 0 0 133 1 132 52 -130 53 -130 42 -3 42
-3 0 185 0 186 -32 0 -33 0 2 -127 c2 -87 -1 -122 -7 -108 -5 11 -30 67 -54
125 l-44 105 -46 3 -46 3 0 -185z"/>
<path d="M2430 5035 l0 -186 113 3 c107 3 112 4 115 25 3 21 -1 22 -70 25
l-73 3 -3 52 -3 52 68 3 c66 3 68 4 71 31 l3 27 -70 0 -71 0 0 45 0 45 70 0
70 0 0 30 0 30 -110 0 -110 0 0 -185z"/>
<path d="M2710 5035 l0 -185 40 0 40 0 0 80 0 80 71 0 70 0 -3 28 c-3 26 -5
27 -70 30 l-68 3 0 44 0 45 70 0 70 0 0 30 0 30 -110 0 -110 0 0 -185z"/>
<path d="M2990 5035 l0 -185 35 0 35 0 0 185 0 185 -35 0 -35 0 0 -185z"/>
<path d="M3112 5193 c3 -25 7 -28 46 -31 l42 -3 0 -155 0 -154 40 0 40 0 0
154 0 155 43 3 c38 3 42 6 45 31 l3 27 -131 0 -131 0 3 -27z"/>
<path d="M9050 4941 l0 -71 -155 0 c-149 0 -155 -1 -155 -20 0 -20 5 -20 171
-18 l171 3 0 85 c0 70 -3 86 -16 88 -13 3 -16 -8 -16 -67z"/>
<path d="M3662 4962 c-59 -21 -104 -60 -122 -103 -7 -16 -11 -58 -8 -97 4 -86
30 -125 107 -161 51 -24 67 -26 181 -26 149 0 212 17 259 71 58 66 63 180 12
253 -39 55 -100 74 -246 78 -108 3 -139 0 -183 -15z m327 -119 c40 -20 62 -63
45 -91 -6 -9 -23 -25 -38 -36 -23 -18 -45 -21 -149 -24 -137 -4 -189 8 -219
49 -24 31 -16 73 18 95 56 37 273 41 343 7z"/>
<path d="M727 4903 c-4 -3 -7 -19 -7 -35 l0 -28 306 0 305 0 -3 33 -3 32 -296
3 c-162 1 -298 -1 -302 -5z"/>
<path d="M9315 4861 c-73 -18 -105 -58 -105 -133 0 -57 28 -108 73 -131 79
-41 283 -40 351 2 42 26 56 58 56 126 0 46 -5 60 -30 88 -18 21 -45 38 -70 45
l-40 10 0 -42 c0 -36 4 -43 33 -56 25 -12 33 -22 35 -48 3 -29 0 -34 -34 -48
-57 -24 -254 -16 -283 10 -32 29 -24 67 16 86 29 13 33 19 33 58 0 23 -1 42
-2 41 -2 -1 -16 -4 -33 -8z"/>
<path d="M110 4693 c-73 -23 -100 -72 -108 -189 -9 -149 30 -229 115 -241 71
-9 143 45 143 106 0 17 -6 21 -34 21 -28 0 -36 -5 -46 -29 -21 -52 -68 -46
-90 12 -15 42 -12 182 4 222 13 29 20 35 46 35 25 0 33 -5 41 -30 9 -25 16
-30 45 -30 29 0 34 4 34 23 0 66 -84 122 -150 100z"/>
<path d="M2071 4683 c-66 -34 -90 -93 -91 -214 0 -141 48 -216 133 -205 21 2
47 12 58 22 17 16 19 16 19 1 0 -12 9 -17 30 -17 l31 0 -3 118 -3 117 -65 0
-65 0 0 -30 c0 -25 4 -30 28 -33 24 -3 27 -8 27 -38 0 -51 -16 -74 -49 -74
-48 0 -56 21 -56 145 0 98 3 116 19 134 27 30 67 24 84 -11 10 -21 20 -28 42
-28 38 0 44 12 26 54 -26 63 -104 91 -165 59z"/>
<path d="M3172 4689 c-65 -19 -94 -118 -51 -173 11 -14 42 -38 67 -53 71 -40
82 -52 82 -90 0 -26 -6 -36 -26 -45 -31 -14 -53 -3 -72 35 -10 22 -20 27 -48
27 -29 0 -34 -4 -34 -22 0 -67 73 -116 152 -104 74 12 108 51 108 126 0 47
-34 92 -94 122 -58 29 -76 47 -76 78 0 54 61 65 80 14 8 -19 17 -24 45 -24 38
0 42 10 25 54 -18 48 -93 74 -158 55z"/>
<path d="M385 4678 c-4 -14 -95 -399 -95 -404 0 -2 17 -4 39 -4 l38 0 9 51 9
52 50 0 50 0 10 -49 c11 -48 12 -49 52 -52 l41 -3 -18 73 c-10 40 -33 135 -50
211 l-32 137 -49 0 c-31 0 -51 -5 -54 -12z m70 -147 c20 -95 21 -91 -21 -91
-25 0 -35 4 -31 13 2 6 10 45 17 85 7 39 15 71 16 69 2 -2 10 -36 19 -76z"/>
<path d="M624 4677 c-2 -7 -3 -100 -2 -207 l3 -195 38 -3 37 -3 0 85 0 86 41
0 c85 0 134 45 134 125 0 90 -47 125 -169 125 -53 0 -78 -4 -82 -13z m158 -64
c22 -20 23 -70 1 -95 -9 -10 -30 -18 -50 -18 l-33 0 0 65 0 65 32 0 c17 0 40
-7 50 -17z"/>
<path d="M930 4480 l0 -210 35 0 35 0 0 210 0 210 -35 0 -35 0 0 -210z"/>
<path d="M1048 4660 c-6 -38 -4 -40 49 -40 l43 0 0 -175 0 -175 35 0 35 0 0
174 0 175 48 3 c45 3 47 4 47 33 l0 30 -126 3 -127 3 -4 -31z"/>
<path d="M1375 4678 c-5 -14 -95 -397 -95 -404 0 -2 18 -4 39 -4 l39 0 7 50 7
50 44 0 c24 0 47 0 52 1 4 0 12 -21 17 -48 11 -46 13 -48 48 -51 27 -2 37 1
37 11 0 8 -20 99 -45 203 -25 104 -45 192 -45 197 0 13 -100 8 -105 -5z m79
-202 l7 -36 -37 0 c-32 0 -36 2 -31 23 3 12 11 51 18 87 l13 65 12 -51 c6 -29
14 -68 18 -88z"/>
<path d="M1610 4480 l0 -210 110 0 c88 0 110 3 110 14 0 8 3 21 6 30 5 14 -5
16 -70 16 l-76 0 0 180 0 180 -40 0 -40 0 0 -210z"/>
<path d="M2341 4503 c-24 -104 -46 -198 -49 -211 -4 -22 -2 -23 34 -20 37 3
38 4 49 53 5 28 13 49 18 48 4 -2 27 -3 51 -3 l44 0 7 -50 7 -50 39 0 c21 0
39 3 39 8 0 4 -21 98 -47 210 l-47 202 -51 0 -50 0 -44 -187z m108 45 c6 -35
14 -73 17 -85 6 -21 3 -23 -31 -23 -36 0 -36 1 -30 33 16 80 28 137 31 137 1
0 7 -28 13 -62z"/>
<path d="M2620 4480 l0 -210 40 0 40 0 0 210 0 210 -40 0 -40 0 0 -210z"/>
<path d="M2775 4678 c-3 -8 -4 -101 -3 -208 l3 -195 33 -3 32 -3 1 153 0 153
57 -152 57 -153 42 0 43 0 0 210 0 210 -35 0 -34 0 -3 -137 -3 -137 -51 135
-50 134 -42 3 c-28 2 -44 -1 -47 -10z"/>
<path d="M4880 4580 l0 -60 85 0 85 0 0 -320 0 -320 70 0 70 0 0 320 0 320 85
0 85 0 0 60 0 60 -240 0 -240 0 0 -60z"/>
<path d="M5500 4632 c0 -4 -38 -165 -85 -357 -47 -193 -87 -360 -90 -372 -5
-22 -3 -23 64 -23 58 0 71 3 75 18 2 9 12 52 21 95 l17 77 92 0 93 0 19 -92
19 -93 73 -3 c43 -2 72 1 72 7 0 9 -163 688 -176 734 -5 15 -18 17 -100 17
-52 0 -94 -3 -94 -8z m159 -434 c1 -5 -28 -8 -64 -8 -37 0 -65 4 -65 10 0 6 9
52 19 103 11 50 25 119 32 152 l12 60 33 -155 c18 -85 33 -158 33 -162z"/>
<path d="M5900 4635 c0 -3 41 -86 90 -185 l90 -180 -95 -190 c-52 -104 -95
-192 -95 -195 0 -3 33 -5 73 -5 l74 0 61 143 c59 138 61 141 72 112 6 -16 32
-79 58 -140 l48 -110 77 -3 c44 -2 77 1 77 7 0 5 -41 95 -92 201 l-92 192 87
174 c48 96 87 176 87 179 0 3 -33 5 -73 5 l-73 0 -49 -116 c-27 -64 -53 -117
-56 -120 -3 -2 -30 50 -59 116 l-53 120 -78 0 c-44 0 -79 -2 -79 -5z"/>
<path d="M6500 4260 l0 -380 70 0 70 0 0 155 0 155 66 0 c98 0 150 17 199 64
69 66 86 176 41 272 -44 94 -95 114 -297 114 l-149 0 0 -380z m282 259 c23
-12 48 -67 48 -105 0 -41 -29 -91 -59 -104 -16 -6 -50 -10 -77 -8 l-49 3 -3
113 -3 112 61 0 c34 0 70 -5 82 -11z"/>
<path d="M7136 4623 c-11 -37 -176 -726 -176 -734 0 -5 31 -9 69 -9 l70 0 11
58 c7 31 15 73 19 92 l7 35 94 0 93 0 13 -55 c6 -30 15 -72 18 -92 l7 -38 76
0 c71 0 75 1 70 21 -3 11 -45 182 -93 380 l-88 359 -92 0 c-80 0 -93 -2 -98
-17z m130 -278 l31 -155 -64 0 c-44 0 -63 4 -63 13 0 24 55 297 60 297 3 0 19
-70 36 -155z"/>
<path d="M7450 4634 c0 -3 45 -110 100 -239 l100 -233 0 -141 0 -141 70 0 70
0 0 139 0 139 104 242 105 241 -77 -3 -77 -3 -59 -168 -59 -169 -45 124 c-24
67 -51 144 -60 171 l-16 47 -78 0 c-43 0 -78 -3 -78 -6z"/>
<path d="M8050 4260 l0 -380 205 0 204 0 6 38 c3 20 8 47 11 60 l4 22 -145 0
-145 0 0 110 0 110 130 0 130 0 0 60 0 60 -130 0 -131 0 3 91 3 91 130 1 130
2 3 58 3 57 -206 0 -205 0 0 -380z"/>
<path d="M8570 4260 l0 -380 70 0 70 0 2 163 3 162 35 3 c19 2 52 -1 72 -8 54
-15 68 -49 68 -157 0 -48 3 -105 6 -125 l7 -38 67 0 67 0 -4 123 c-6 148 -16
191 -54 229 l-29 29 35 33 c19 18 39 45 45 60 16 43 12 136 -9 181 -40 88 -85
104 -293 105 l-158 0 0 -380z m291 257 c26 -20 39 -53 39 -97 0 -33 -6 -48
-29 -71 -27 -26 -36 -29 -95 -29 l-66 0 0 105 0 105 68 0 c37 0 74 -6 83 -13z"/>
<path d="M4282 4593 c3 -24 14 -31 97 -65 52 -21 96 -39 98 -41 2 -2 -41 -22
-94 -44 -86 -36 -98 -44 -101 -67 -2 -14 -2 -26 0 -26 2 0 62 25 132 55 119
51 132 55 207 55 78 0 79 0 79 25 0 25 -1 25 -86 25 -77 0 -94 4 -167 36 -45
20 -101 45 -125 55 l-43 19 3 -27z"/>
<path d="M9219 4498 c0 -2 -1 -20 -2 -40 l-2 -38 157 -2 157 -3 -156 -60 -156
-60 -1 -48 -1 -47 238 0 237 0 0 35 0 35 -172 2 -172 3 173 64 172 63 -3 47
-3 46 -232 3 c-128 1 -233 1 -234 0z"/>
<path d="M3530 4430 l0 -50 196 -2 196 -3 -184 -74 c-100 -41 -189 -78 -195
-84 -8 -5 -13 -33 -13 -68 l0 -59 295 0 295 0 0 50 0 50 -205 2 -206 3 203 80
203 80 3 63 3 62 -296 0 -295 0 0 -50z"/>
<path d="M4335 4307 c-41 -19 -55 -54 -55 -142 l0 -75 210 0 210 0 0 25 c0 25
0 25 -95 25 l-95 0 0 44 c0 57 19 76 73 76 82 0 117 11 117 34 0 21 -4 22 -62
19 -97 -6 -127 -12 -137 -31 -9 -15 -12 -15 -34 6 -31 29 -91 37 -132 19z
m110 -62 c18 -18 25 -35 25 -65 l0 -40 -75 0 -75 0 0 49 c0 40 4 53 22 65 33
23 75 20 103 -9z"/>
<path d="M9219 4105 c0 -3 -1 -22 -1 -42 l-1 -38 234 0 234 0 0 40 0 40 -232
3 c-128 1 -233 0 -234 -3z"/>
<path d="M4660 3961 l0 -81 -80 0 -80 0 0 70 c0 63 -2 70 -20 70 -18 0 -20 -7
-20 -70 l0 -70 -70 0 -70 0 0 75 c0 68 -2 75 -20 75 -19 0 -20 -7 -20 -100 l0
-100 210 0 211 0 -3 102 c-3 89 -5 103 -20 106 -16 3 -18 -6 -18 -77z"/>
<path d="M3700 3987 c-124 -29 -163 -73 -168 -187 -3 -66 -1 -79 20 -110 51
-76 124 -103 273 -103 175 0 269 46 295 143 31 115 -26 217 -139 250 -58 17
-220 21 -281 7z m297 -130 c61 -32 53 -105 -15 -135 -55 -24 -274 -24 -319 1
-33 18 -53 44 -53 71 0 26 44 67 80 76 61 16 270 6 307 -13z"/>
<path d="M9470 3794 c-17 -15 -44 -53 -61 -85 -35 -70 -65 -94 -101 -80 -14 5
-28 17 -31 25 -10 26 10 63 37 70 23 6 26 12 26 46 0 34 -3 40 -20 40 -34 0
-79 -28 -95 -60 -8 -16 -15 -50 -15 -75 0 -87 47 -135 133 -135 56 0 89 25
123 93 15 29 35 62 47 75 38 41 117 22 117 -29 0 -24 -43 -69 -65 -69 -13 0
-16 -9 -13 -42 3 -39 5 -43 28 -39 75 10 110 58 110 148 0 97 -43 142 -137
143 -41 0 -58 -5 -83 -26z"/>
<path d="M4280 3757 c0 -21 12 -26 181 -67 130 -32 174 -46 157 -51 -13 -4
-94 -24 -180 -44 -150 -35 -158 -38 -158 -61 0 -13 2 -24 5 -24 3 0 98 23 211
51 l205 52 -3 30 -3 31 -200 53 c-110 29 -203 53 -207 53 -5 0 -8 -10 -8 -23z"/>
<path d="M6190 3605 l0 -125 34 0 c33 0 35 2 38 38 l3 37 155 3 155 2 -1 43
-1 42 -157 3 -156 3 0 39 c0 39 -1 40 -35 40 l-35 0 0 -125z"/>
<path d="M6710 3705 c0 -24 2 -25 65 -25 l65 0 0 -250 0 -250 30 0 30 0 0 250
0 250 60 0 c57 0 60 1 60 25 l0 25 -155 0 -155 0 0 -25z"/>
<path d="M7115 3708 c-3 -13 -32 -134 -65 -270 -33 -136 -60 -250 -60 -253 0
-3 13 -5 29 -5 27 0 30 4 41 53 7 28 16 69 21 90 l10 38 71 -3 72 -3 19 -87
c19 -84 22 -88 47 -88 15 0 29 2 32 5 3 3 -25 126 -62 273 l-66 267 -42 3
c-36 3 -42 0 -47 -20z m74 -161 c13 -61 26 -118 29 -124 3 -10 -13 -13 -58
-13 -45 0 -61 3 -58 13 3 6 16 63 29 124 13 62 26 113 29 113 3 0 16 -51 29
-113z"/>
<path d="M7366 3708 c4 -13 31 -71 60 -130 l54 -108 -65 -139 c-36 -77 -65
-142 -65 -145 0 -3 13 -6 29 -6 27 0 31 7 76 108 26 59 51 111 55 115 4 4 29
-43 57 -105 47 -107 51 -113 81 -116 18 -2 32 1 32 6 0 6 -29 72 -65 147 l-65
136 63 130 63 129 -32 0 c-30 0 -33 -4 -79 -102 l-48 -103 -48 103 c-46 97
-49 102 -79 102 -28 0 -31 -2 -24 -22z"/>
<path d="M7762 3467 c-34 -144 -62 -268 -62 -275 0 -9 10 -12 27 -10 25 3 28
9 47 88 l21 85 71 3 72 3 16 -78 c10 -43 19 -84 21 -90 4 -13 65 -19 65 -7 0
4 -30 128 -66 275 l-66 269 -42 0 -41 0 -63 -263z m153 -19 l7 -38 -56 0 c-31
0 -56 3 -56 8 0 4 12 63 27 132 l27 124 22 -94 c13 -52 26 -112 29 -132z"/>
<path d="M8100 3455 l0 -275 85 0 c98 0 139 14 177 59 53 63 43 186 -19 226
-24 16 -24 18 -9 27 41 23 57 112 32 173 -22 51 -59 65 -171 65 l-95 0 0 -275z
m199 199 c27 -35 28 -97 2 -123 -20 -20 -100 -37 -126 -27 -12 4 -15 24 -15
91 l0 85 59 0 c52 0 62 -3 80 -26z m-7 -215 c29 -15 51 -74 43 -118 -11 -66
-45 -91 -124 -91 l-51 0 0 110 0 110 56 0 c30 0 64 -5 76 -11z"/>
<path d="M8480 3455 l0 -275 125 0 125 0 0 30 0 30 -95 0 -95 0 0 245 0 245
-30 0 -30 0 0 -275z"/>
<path d="M8790 3455 l0 -275 130 0 130 0 0 30 0 30 -100 0 -100 0 0 105 0 105
95 0 c95 0 95 0 95 25 0 25 0 25 -95 25 l-95 0 0 90 0 89 98 3 c92 3 97 4 100
26 3 22 3 22 -127 22 l-131 0 0 -275z"/>
<path d="M4965 3696 c-17 -7 -36 -26 -44 -42 -17 -38 -25 -130 -16 -189 12
-81 76 -119 133 -79 20 14 22 14 22 -1 0 -9 6 -15 13 -13 8 3 13 33 15 91 l3
87 -51 0 c-38 0 -50 -4 -50 -15 0 -10 10 -15 30 -15 28 0 30 -2 30 -38 0 -47
-24 -82 -55 -82 -37 0 -55 44 -55 135 0 96 17 135 60 135 23 0 33 -6 42 -25 6
-14 19 -25 29 -25 16 0 17 4 8 29 -18 52 -63 70 -114 47z"/>
<path d="M5205 3701 c-55 -23 -83 -117 -65 -225 12 -74 39 -106 90 -106 48 0
76 30 91 99 21 101 -6 212 -57 231 -29 12 -32 12 -59 1z m71 -66 c16 -40 18
-134 3 -187 -13 -49 -53 -63 -80 -29 -22 27 -33 98 -26 162 8 68 22 89 58 89
25 0 33 -6 45 -35z"/>
<path d="M5435 3696 c-51 -22 -74 -103 -61 -210 9 -70 44 -116 88 -116 70 0
98 47 98 168 0 103 -13 140 -56 158 -39 16 -32 16 -69 0z m77 -48 c20 -37 17
-188 -5 -221 -21 -32 -47 -35 -73 -6 -27 30 -33 172 -10 218 21 39 68 44 88 9z"/>
<path d="M5905 3703 c-49 -12 -75 -66 -54 -115 7 -17 30 -38 60 -54 55 -30 74
-67 55 -105 -6 -13 -22 -25 -35 -27 -25 -4 -61 23 -61 45 0 7 -9 13 -21 13
-16 0 -19 -4 -14 -22 13 -43 46 -68 87 -68 52 0 88 35 88 85 0 50 -12 68 -70
104 -28 17 -53 38 -56 46 -10 25 4 62 25 68 24 6 61 -18 61 -39 0 -9 7 -14 18
-12 35 7 2 70 -43 81 -11 2 -29 2 -40 0z"/>
<path d="M5620 3534 l0 -166 55 4 c90 8 125 57 125 176 0 105 -39 152 -127
152 l-53 0 0 -166z m116 115 c13 -15 20 -40 22 -89 5 -88 -10 -134 -48 -150
-56 -23 -60 -14 -60 130 l0 130 33 0 c22 0 41 -8 53 -21z"/>
<path d="M3642 3515 c-81 -25 -112 -74 -112 -175 0 -122 64 -180 221 -201 169
-23 316 17 355 98 24 51 24 145 0 196 -19 39 -76 79 -128 91 l-28 6 0 -60 c0
-52 3 -60 19 -60 31 0 71 -39 71 -69 0 -65 -94 -97 -258 -88 -104 6 -151 26
-166 69 -12 35 14 77 54 85 29 5 30 7 30 64 0 33 -3 59 -7 58 -5 0 -27 -6 -51
-14z"/>
<path d="M9481 3458 c-21 -14 -49 -51 -72 -92 -41 -76 -58 -91 -94 -82 -53 13
-52 76 1 96 20 8 24 16 24 50 0 45 -9 49 -65 26 -98 -41 -85 -219 19 -254 74
-24 131 8 176 98 33 66 58 90 96 90 34 0 64 -28 64 -60 0 -18 -35 -54 -62 -63
-22 -8 -25 -75 -4 -83 24 -9 85 24 106 58 17 27 20 46 18 101 -3 60 -7 71 -35
99 -26 25 -42 32 -85 36 -44 3 -59 0 -87 -20z"/>
<path d="M4353 3457 c-55 -20 -78 -51 -78 -106 0 -54 17 -81 70 -109 46 -25
246 -24 298 2 48 24 71 66 64 118 -11 80 -66 108 -217 107 -58 0 -120 -6 -137
-12z m274 -52 c20 -9 35 -23 39 -39 15 -62 -28 -89 -150 -94 -108 -5 -170 9
-192 43 -20 31 -12 70 18 86 55 29 218 32 285 4z"/>
<path d="M6190 3399 l0 -42 115 5 c63 2 114 3 112 2 -1 -1 -53 -19 -114 -39
l-113 -36 0 -50 0 -49 193 0 192 0 -1 37 -1 38 -116 0 c-63 0 -114 2 -111 4 2
2 54 20 115 40 l112 36 1 48 1 47 -192 0 -193 0 0 -41z"/>
<path d="M1027 3194 c-4 -4 -7 -110 -7 -236 l0 -228 109 0 c100 0 109 2 114
20 5 18 -1 19 -82 22 l-86 3 -3 88 -3 87 81 0 c79 0 80 0 80 25 0 25 -1 25
-80 25 l-80 0 0 75 0 75 86 0 c83 0 85 1 82 23 -3 21 -8 22 -104 25 -55 1
-103 0 -107 -4z"/>
<path d="M1298 3195 c-3 -4 16 -52 43 -108 27 -56 49 -110 49 -120 0 -9 -22
-62 -50 -117 -27 -55 -50 -104 -50 -110 0 -5 11 -10 24 -10 20 0 29 14 67 97
l44 97 44 -97 c41 -89 47 -97 72 -97 l28 0 -36 78 c-19 42 -44 97 -55 122
l-20 46 45 89 c24 50 48 100 52 113 6 21 4 23 -17 20 -18 -2 -33 -22 -67 -92
l-44 -88 -33 73 c-19 41 -38 81 -42 89 -10 16 -44 25 -54 15z"/>
<path d="M1620 2965 l0 -235 25 0 25 0 0 100 0 100 46 0 c98 0 151 56 142 152
-8 83 -62 117 -185 118 l-53 0 0 -235z m165 160 c44 -43 27 -125 -28 -145 -16
-5 -43 -10 -58 -10 l-29 0 0 90 0 90 45 0 c35 0 52 -6 70 -25z"/>
<path d="M1927 3194 c-4 -4 -7 -110 -7 -236 l0 -228 109 0 c100 0 109 2 114
20 5 18 -1 19 -82 22 l-86 3 -3 88 -3 87 81 0 c79 0 80 0 80 25 0 25 -1 25
-80 25 l-80 0 0 75 0 75 86 0 c83 0 85 1 82 23 -3 21 -8 22 -104 25 -55 1
-103 0 -107 -4z"/>
<path d="M2204 3187 c-2 -7 -3 -111 -2 -232 3 -219 3 -220 25 -223 l23 -3 2
192 3 191 75 -191 74 -191 33 0 33 0 -2 233 c-3 231 -3 232 -25 235 -23 3 -23
3 -25 -184 l-3 -188 -69 175 c-38 96 -73 180 -79 187 -12 16 -56 16 -63 -1z"/>
<path d="M2593 3180 c-64 -38 -64 -146 0 -194 18 -13 46 -31 64 -40 53 -26 73
-55 73 -101 0 -51 -23 -75 -72 -75 -37 0 -61 19 -72 58 -5 15 -15 22 -32 22
-37 0 -29 -45 19 -97 43 -48 155 -36 192 21 23 34 23 118 1 152 -10 14 -38 38
-64 54 -94 57 -103 68 -100 113 2 33 9 44 31 57 24 13 30 13 54 0 15 -8 30
-26 33 -40 4 -18 13 -25 30 -25 21 0 24 4 22 25 -11 80 -104 116 -179 70z"/>
<path d="M2857 3194 c-4 -4 -7 -110 -7 -236 l0 -228 109 0 c100 0 109 2 114
20 5 18 -1 19 -82 22 l-86 3 -3 88 -3 87 81 0 c79 0 80 0 80 25 0 25 -1 25
-80 25 l-80 0 0 75 0 75 86 0 c83 0 85 1 82 23 -3 21 -8 22 -104 25 -55 1
-103 0 -107 -4z"/>
<path d="M3164 3166 c-29 -29 -34 -41 -34 -81 0 -42 4 -51 39 -84 21 -20 60
-49 87 -66 58 -36 76 -81 53 -131 -28 -57 -139 -37 -139 26 0 15 -7 20 -25 20
-30 0 -33 -25 -9 -71 43 -83 191 -71 225 18 29 77 -1 140 -92 194 -38 22 -73
48 -79 59 -39 73 45 147 100 88 11 -12 20 -30 20 -40 0 -13 8 -18 25 -18 28 0
33 22 13 65 -15 34 -57 55 -109 55 -33 0 -47 -6 -75 -34z"/>
<path d="M4333 3155 c-69 -30 -82 -129 -22 -179 40 -34 88 -46 188 -46 103 0
155 15 187 53 45 53 25 140 -40 171 -46 22 -56 20 -56 -9 0 -14 6 -25 14 -25
28 0 67 -41 64 -68 -6 -48 -48 -67 -162 -70 -116 -4 -168 10 -187 52 -15 32 9
72 46 82 18 4 25 13 25 30 0 27 -11 29 -57 9z"/>
<path d="M6505 3142 c-3 -3 -5 -34 -5 -69 l0 -63 -45 0 -45 0 0 60 0 60 -35 0
-35 0 0 -60 0 -60 -40 0 -40 0 0 66 0 65 -32 -3 -33 -3 -3 -107 -3 -108 191 0
190 0 0 100 c0 55 0 103 0 108 1 9 -57 22 -65 14z"/>
<path d="M9360 3134 c-56 -11 -88 -26 -115 -54 -39 -41 -47 -128 -15 -178 34
-56 96 -77 220 -76 124 0 168 13 210 60 26 30 30 43 30 90 0 111 -59 155 -214
160 -50 1 -102 0 -116 -2z m233 -107 c19 -12 27 -26 27 -47 0 -42 -43 -62
-150 -67 -109 -6 -171 11 -185 50 -21 62 34 88 181 84 76 -2 107 -7 127 -20z"/>
<path d="M4030 2965 l0 -115 -85 0 -84 0 -3 103 -3 102 -42 3 -43 3 0 -105 0
-106 -70 0 -69 0 -3 108 -3 107 -45 0 -45 0 -3 -162 -2 -163 295 0 295 0 0
159 c0 88 -3 162 -7 164 -5 2 -25 7 -45 11 l-38 7 0 -116z"/>
<path d="M6755 2967 c-3 -7 -4 -60 -3 -118 l3 -104 238 -3 238 -2 -3 117 -3
118 -32 3 -33 3 0 -86 0 -86 -72 3 -73 3 -3 78 -3 77 -29 0 -29 0 -3 -77 -3
-78 -62 -3 -62 -3 -3 83 c-3 82 -3 83 -31 86 -16 2 -29 -2 -32 -11z"/>
<path d="M4666 2883 c-3 -4 -6 -39 -6 -80 l0 -73 -80 0 -80 0 0 70 c0 63 -2
70 -20 70 -18 0 -20 -7 -20 -70 l0 -70 -70 0 -70 0 0 75 c0 68 -2 75 -20 75
-19 0 -20 -7 -20 -100 l0 -100 210 0 210 0 0 99 c0 76 -3 100 -14 104 -8 3
-17 3 -20 0z"/>
<path d="M6190 2796 c0 -73 -10 -66 128 -87 91 -14 90 -23 -3 -33 -33 -4 -75
-10 -92 -13 l-33 -5 0 -64 0 -64 189 0 189 0 4 35 c2 20 2 38 -1 40 -2 3 -63
6 -135 6 l-131 1 122 18 c67 10 128 20 135 22 7 3 13 20 12 39 l-1 34 -134 21
-134 22 134 3 134 4 0 40 0 40 -191 3 -192 2 0 -64z"/>
<path d="M9283 2755 c-49 -21 -63 -59 -63 -175 l0 -100 236 0 235 0 -3 43 -3
42 -98 3 -98 3 3 41 c2 24 9 44 18 49 8 4 51 11 95 16 l80 8 0 39 0 39 -84 -2
c-84 -2 -141 -20 -141 -43 0 -6 -10 -2 -22 9 -50 45 -96 54 -155 28z m111 -88
c9 -7 20 -32 23 -55 l6 -42 -73 0 -73 0 6 42 c6 47 27 68 67 68 14 0 34 -6 44
-13z"/>
<path d="M6813 2665 c-64 -28 -86 -136 -38 -194 41 -48 103 -66 225 -66 121 1
169 14 205 56 29 36 35 112 10 158 -15 30 -68 61 -104 61 -17 0 -21 -6 -21
-35 0 -27 4 -35 18 -35 60 0 84 -75 35 -107 -36 -24 -219 -31 -278 -11 -70 23
-75 92 -7 113 28 8 32 14 32 42 0 28 -4 33 -22 33 -13 -1 -37 -7 -55 -15z"/>
<path d="M4327 2595 c-37 -21 -47 -51 -47 -141 l0 -74 210 0 210 0 0 25 c0 25
0 25 -95 25 l-95 0 0 43 c0 23 4 48 9 55 10 17 72 31 134 32 43 0 47 2 47 23
0 23 -2 24 -82 19 -59 -2 -91 -9 -109 -22 -25 -18 -27 -18 -46 2 -27 27 -99
34 -136 13z m118 -60 c18 -18 25 -35 25 -65 l0 -40 -75 0 -75 0 0 49 c0 40 4
53 22 65 33 23 75 20 103 -9z"/>
<path d="M1755 2553 c-31 -8 -65 -43 -91 -96 -25 -48 -53 -68 -86 -59 -39 10
-30 64 13 77 14 5 19 16 19 41 0 38 -6 40 -55 20 -41 -17 -55 -42 -55 -95 0
-78 37 -117 111 -115 48 2 70 20 113 94 28 48 36 55 67 58 23 2 40 -3 48 -12
19 -23 5 -65 -24 -76 -20 -8 -25 -16 -25 -45 0 -33 2 -36 23 -30 92 27 124
148 55 212 -24 22 -79 35 -113 26z"/>
<path d="M2040 2355 c0 -178 1 -185 20 -185 18 0 20 7 20 86 l0 85 42 -3 c53
-4 68 -28 68 -110 0 -52 2 -58 21 -58 20 0 21 4 17 74 -2 51 -9 80 -20 93 -15
17 -15 20 3 42 10 13 19 38 19 57 0 76 -37 104 -136 104 l-54 0 0 -185z m140
126 c28 -54 2 -103 -56 -105 l-39 -1 -3 63 -3 62 45 0 c35 0 48 -5 56 -19z"/>
<path d="M2290 2355 l0 -185 84 0 c63 0 85 4 89 14 9 22 -2 26 -70 26 l-63 0
0 70 0 70 60 0 c47 0 60 3 60 15 0 12 -13 15 -60 15 l-60 0 0 60 0 60 65 0
c58 0 65 2 65 20 0 18 -7 20 -85 20 l-85 0 0 -185z"/>
<path d="M2510 2354 l0 -186 64 4 c104 6 137 50 137 182 1 142 -35 186 -151
186 l-50 0 0 -186z m136 125 c30 -33 33 -192 5 -236 -18 -28 -26 -33 -61 -33
l-40 0 0 145 0 145 38 0 c27 0 45 -7 58 -21z"/>
<path d="M2772 2381 c3 -153 4 -161 27 -185 34 -36 111 -37 146 -1 24 24 25
27 25 185 0 148 -1 161 -17 158 -16 -3 -19 -21 -23 -161 -5 -166 -8 -177 -55
-177 -53 0 -65 39 -65 206 0 129 -1 134 -21 134 -20 0 -21 -3 -17 -159z"/>
<path d="M3087 2529 c-64 -37 -78 -260 -20 -329 49 -59 151 -31 165 45 4 21 1
25 -18 25 -17 0 -24 -6 -24 -18 0 -29 -35 -55 -63 -48 -36 9 -52 57 -52 158 0
72 4 91 21 115 12 15 29 30 38 31 22 5 56 -26 56 -50 0 -11 7 -18 20 -18 29 0
26 45 -5 75 -26 27 -84 34 -118 14z"/>
<path d="M3260 2520 c0 -17 7 -20 40 -20 l40 0 0 -165 c0 -158 1 -165 20 -165
19 0 20 7 20 165 l0 165 40 0 c33 0 40 3 40 20 0 19 -7 20 -100 20 -93 0 -100
-1 -100 -20z"/>
<path d="M3500 2355 c0 -178 1 -185 20 -185 19 0 20 7 20 185 0 178 -1 185
-20 185 -19 0 -20 -7 -20 -185z"/>
<path d="M3645 2516 c-30 -30 -45 -84 -45 -161 0 -124 35 -185 105 -185 80 0
109 49 109 185 0 134 -29 185 -107 185 -27 0 -45 -7 -62 -24z m101 -27 c16
-18 19 -37 19 -135 0 -103 -2 -115 -22 -135 -29 -30 -66 -20 -84 23 -15 35
-19 166 -6 210 16 57 59 74 93 37z"/>
<path d="M3880 2536 c0 -3 -1 -86 -1 -183 0 -152 2 -178 15 -181 13 -3 16 19
18 150 l3 152 59 -152 c53 -137 61 -152 82 -152 l24 0 0 185 c0 181 0 185 -21
185 -20 0 -21 -3 -17 -144 1 -79 1 -142 -1 -140 -3 3 -30 66 -60 142 -47 114
-60 138 -78 140 -13 2 -23 1 -23 -2z"/>
<path d="M6190 2431 l0 -40 113 -3 112 -3 -85 -28 c-148 -49 -140 -43 -140
-98 l0 -49 188 0 c104 0 191 2 193 5 3 2 3 20 1 40 l-4 35 -117 0 -116 1 120
39 120 39 -1 48 -1 48 -192 3 -191 2 0 -39z"/>
<path d="M9893 2430 c-28 -12 -43 -40 -43 -82 0 -45 10 -57 72 -93 65 -38 85
-73 66 -112 -9 -19 -22 -29 -41 -31 -30 -4 -67 21 -67 45 0 7 -9 13 -20 13
-28 0 -26 -35 5 -65 34 -35 102 -35 142 -1 23 20 28 32 28 70 0 53 -18 75 -92
115 -45 24 -48 29 -48 66 0 34 4 41 27 49 22 8 32 6 48 -9 11 -10 20 -24 20
-32 0 -7 9 -13 20 -13 25 0 26 30 2 60 -19 24 -84 35 -119 20z"/>
<path d="M10151 2403 c-5 -21 -24 -94 -41 -163 -17 -69 -33 -133 -36 -142 -4
-13 0 -18 15 -18 15 0 23 10 31 43 6 23 13 48 15 55 3 7 23 12 53 12 l49 0 12
-55 c10 -43 17 -55 32 -55 10 0 19 6 19 13 0 6 -20 86 -44 177 -41 157 -44
165 -69 168 -23 3 -27 -2 -36 -35z m64 -134 l7 -39 -36 0 c-20 0 -36 3 -36 8
0 4 7 40 17 80 l17 73 12 -42 c7 -23 16 -59 19 -80z"/>
<path d="M10350 2260 l0 -181 83 3 c65 2 82 6 82 18 0 11 -15 16 -62 18 l-62
3 -3 157 c-3 140 -5 157 -20 160 -17 3 -18 -11 -18 -178z"/>
<path d="M10560 2260 l0 -180 85 0 c78 0 85 2 85 20 0 18 -7 20 -65 20 l-65 0
0 65 0 65 60 0 c53 0 60 2 60 20 0 18 -7 20 -60 20 l-60 0 0 55 0 55 66 0 c57
0 65 2 62 18 -3 14 -16 17 -86 20 l-82 3 0 -181z"/>
<path d="M10823 2430 c-28 -11 -43 -40 -43 -82 1 -42 14 -59 75 -95 28 -16 57
-41 65 -56 13 -24 13 -30 0 -54 -19 -34 -63 -42 -91 -17 -10 9 -19 23 -19 31
0 7 -9 13 -20 13 -28 0 -26 -35 5 -65 19 -20 34 -25 72 -25 51 1 73 12 91 47
32 59 2 117 -79 158 -51 26 -67 54 -54 94 13 43 95 30 95 -16 0 -7 9 -13 20
-13 28 0 26 35 -5 65 -25 26 -70 32 -112 15z"/>
<path d="M8953 2403 c-31 -6 -63 -50 -63 -85 0 -32 32 -68 91 -103 59 -35 47
-113 -14 -89 -9 3 -19 14 -22 25 -5 13 -16 19 -37 19 -23 0 -29 -4 -24 -16 3
-9 6 -20 6 -24 0 -25 46 -50 91 -50 64 0 101 30 101 82 0 52 -16 74 -78 109
-47 27 -55 35 -52 58 4 34 41 41 60 12 8 -13 23 -21 41 -21 25 0 27 3 22 23
-15 48 -64 72 -122 60z"/>
<path d="M8540 2239 l0 -160 28 3 27 3 3 158 3 157 -31 0 -30 0 0 -161z"/>
<path d="M8652 2243 l3 -158 28 -3 27 -3 0 70 c0 68 1 71 24 71 40 0 56 -25
56 -86 0 -54 0 -54 31 -54 l32 0 -7 62 c-3 34 -12 71 -19 82 -12 17 -11 22 5
38 27 27 24 83 -7 113 -21 22 -33 25 -100 25 l-76 0 3 -157z m112 107 c38 -14
37 -66 -1 -81 -39 -15 -53 -5 -53 39 0 54 8 60 54 42z"/>
<path d="M9273 2384 c-62 -31 -84 -140 -40 -204 40 -60 85 -75 222 -75 180 0
235 32 235 137 0 24 -7 54 -16 66 -14 20 -14 23 0 28 10 4 16 18 16 35 l0 29
-135 0 -135 0 0 -75 0 -75 34 0 c32 0 35 3 38 33 3 31 4 32 51 30 57 -2 77
-16 77 -53 0 -49 -31 -65 -139 -68 -54 -2 -116 1 -139 7 -70 19 -84 84 -24
110 28 13 32 19 32 53 0 33 -3 38 -22 38 -13 0 -37 -8 -55 -16z"/>
<path d="M6750 2300 l0 -30 172 -2 172 -3 -120 -44 c-65 -24 -143 -55 -172
-67 -52 -23 -53 -24 -50 -61 l3 -38 238 -3 237 -2 0 35 0 36 -175 -3 c-96 -2
-171 0 -167 3 4 4 82 35 175 69 l167 63 0 38 0 39 -240 0 -240 0 0 -30z"/>
<path d="M1502 2238 l3 -33 127 1 c70 0 125 -2 123 -4 -3 -3 -60 -26 -127 -51
l-123 -46 0 -40 0 -40 195 0 195 0 3 33 3 32 -138 1 c-76 0 -129 4 -118 8 11
4 73 27 138 50 l117 43 0 39 0 39 -201 0 -200 0 3 -32z"/>
<path d="M4280 2100 c0 -113 1 -120 20 -120 17 0 20 7 20 45 l0 45 190 0 190
0 0 25 0 25 -190 0 -190 0 0 50 c0 43 -3 50 -20 50 -19 0 -20 -7 -20 -120z"/>
<path d="M6237 2149 c-31 -18 -47 -73 -47 -159 l0 -80 188 0 c104 0 191 2 193
4 3 3 3 23 1 45 l-4 41 -74 0 c-72 0 -74 1 -74 25 0 31 31 45 99 45 26 0 50 2
52 4 3 3 3 23 1 45 l-4 41 -57 0 c-35 0 -70 -7 -92 -18 -35 -18 -37 -18 -59 0
-25 20 -94 24 -123 7z m101 -91 c7 -7 12 -22 12 -35 0 -21 -5 -23 -45 -23 -43
0 -45 1 -45 28 0 16 3 32 7 35 11 11 58 8 71 -5z"/>
<path d="M6970 1946 l-215 -52 -3 -47 c-3 -41 -1 -47 20 -52 230 -54 448 -105
453 -105 3 0 5 16 5 35 0 30 -4 36 -27 41 -16 3 -45 10 -66 16 l-38 9 3 57 3
57 63 13 c61 14 62 14 62 48 0 29 -3 34 -22 33 -13 0 -120 -24 -238 -53z m60
-99 l0 -44 -102 21 c-57 11 -96 22 -88 24 8 1 51 11 95 21 44 10 83 19 88 20
4 0 7 -19 7 -42z"/>
<path d="M1553 1958 c-35 -17 -53 -68 -53 -147 l0 -71 200 0 200 0 0 35 0 35
-86 0 -85 0 3 31 c4 40 16 47 101 54 l67 7 0 34 0 35 -77 -7 c-43 -3 -88 -13
-101 -21 -20 -12 -25 -12 -49 7 -28 22 -83 26 -120 8z m98 -68 c13 -8 19 -21
19 -45 l0 -35 -55 0 c-54 0 -55 0 -55 29 0 51 44 76 91 51z"/>
<path d="M4344 1939 c-49 -14 -69 -44 -69 -101 0 -43 4 -53 33 -79 24 -22 42
-29 73 -29 46 0 77 27 133 115 29 46 34 50 75 53 50 4 81 -17 81 -55 0 -37
-16 -60 -50 -71 -20 -8 -30 -18 -30 -31 0 -31 43 -27 80 7 40 34 50 93 26 144
-20 42 -51 58 -110 58 -53 0 -88 -25 -117 -83 -32 -63 -58 -87 -94 -87 -76 0
-88 92 -15 115 13 4 20 15 20 31 0 13 -1 24 -2 23 -2 0 -17 -5 -34 -10z"/>
<path d="M8550 1720 l0 -211 97 3 c84 3 98 6 101 21 3 15 -6 17 -72 17 l-76 0
0 190 0 190 -25 0 -25 0 0 -210z"/>
<path d="M8790 1755 c0 -196 7 -223 60 -245 44 -18 108 -7 139 24 26 26 26 27
29 211 l3 185 -25 0 -26 0 -2 -182 -3 -182 -27 -15 c-20 -12 -34 -13 -55 -5
-44 15 -54 63 -51 236 3 148 3 148 -19 148 -23 0 -23 0 -23 -175z"/>
<path d="M9119 1828 l48 -103 -49 -100 c-26 -55 -48 -103 -48 -107 0 -5 10 -8
23 -8 18 0 28 14 56 81 19 44 38 82 41 84 4 2 24 -34 45 -80 32 -72 41 -85 61
-85 13 0 24 2 24 5 0 3 -22 53 -50 111 l-49 106 49 99 50 99 -25 0 c-23 0 -31
-10 -61 -76 -19 -41 -38 -73 -42 -70 -4 2 -21 36 -37 75 -27 63 -33 71 -57 71
l-27 0 48 -102z"/>
<path d="M9370 1755 c0 -196 7 -223 60 -245 44 -18 108 -7 139 24 26 26 26 27
29 211 l3 185 -25 0 -26 0 -2 -182 -3 -182 -26 -15 c-32 -18 -74 -8 -91 22 -9
15 -13 72 -13 189 0 167 0 168 -22 168 -23 0 -23 0 -23 -175z"/>
<path d="M9690 1720 l0 -210 25 0 c25 0 25 0 25 96 l0 95 47 -3 c60 -4 73 -25
73 -120 0 -66 1 -68 25 -68 l25 0 -6 83 c-4 55 -12 91 -24 108 -18 26 -18 27
3 48 17 17 22 33 22 77 0 49 -4 59 -28 80 -25 21 -38 24 -108 24 l-79 0 0
-210z m152 153 c18 -16 25 -77 10 -99 -12 -19 -49 -34 -81 -34 l-31 0 0 75 0
75 42 0 c24 0 49 -7 60 -17z"/>
<path d="M9950 1922 c0 -4 23 -59 50 -122 48 -108 50 -118 50 -202 0 -87 0
-88 25 -88 25 0 25 1 25 81 0 72 4 90 41 177 78 182 73 162 45 162 -21 0 -29
-11 -56 -77 -17 -43 -36 -89 -41 -102 -10 -23 -14 -16 -51 77 -36 89 -44 102
-64 102 -13 0 -24 -4 -24 -8z"/>
<path d="M6507 1864 c-4 -4 -7 -36 -7 -71 l0 -63 -45 0 -45 0 0 60 0 60 -35 0
-35 0 0 -61 0 -60 -37 3 -38 3 -3 63 -3 62 -34 0 -35 0 0 -110 0 -110 191 2
192 3 -2 105 c-1 57 -3 105 -4 106 -8 8 -54 14 -60 8z"/>
<path d="M6750 1665 c0 -40 -15 -35 194 -70 82 -13 150 -26 152 -28 1 -1 -76
-17 -172 -36 l-174 -33 0 -33 c0 -37 -17 -31 233 -78 115 -22 140 -36 68 -38
-20 0 -94 -10 -166 -22 l-130 -22 -3 -37 c-2 -21 0 -38 5 -38 9 0 417 77 451
85 17 4 22 12 22 39 0 19 -6 36 -12 38 -7 3 -78 17 -158 33 -80 15 -152 30
-160 33 -8 2 53 17 135 33 210 40 195 34 195 74 0 39 14 34 -185 75 -82 17
-180 37 -217 45 -37 8 -69 15 -72 15 -4 0 -6 -16 -6 -35z"/>
<path d="M1502 1638 l3 -33 155 -3 c144 -2 156 -4 173 -23 22 -27 21 -35 -3
-59 -18 -18 -33 -20 -175 -20 l-155 0 0 -35 0 -35 163 0 c143 0 166 2 194 20
62 37 65 153 6 199 -24 19 -39 21 -195 21 l-169 0 3 -32z"/>
<path d="M4369 1661 c-84 -26 -120 -94 -87 -166 22 -49 72 -69 183 -73 164 -6
233 24 242 108 9 98 -59 141 -221 139 -50 0 -103 -4 -117 -8z m268 -67 c38
-29 38 -69 0 -98 -23 -17 -46 -22 -125 -25 -111 -4 -165 9 -188 45 -14 20 -15
30 -5 50 19 42 63 54 183 52 90 -3 111 -6 135 -24z"/>
<path d="M6192 1563 l3 -47 135 -23 c74 -12 137 -23 140 -24 3 0 -35 -7 -85
-15 -49 -8 -114 -19 -142 -25 l-53 -10 0 -45 c0 -36 3 -44 19 -44 21 0 318 67
345 78 15 6 19 19 19 62 l0 55 -179 42 c-99 23 -185 42 -192 43 -9 0 -12 -13
-10 -47z"/>
<path d="M1505 1388 c-3 -8 -4 -63 -3 -124 l3 -109 27 -3 c25 -3 27 0 30 40
l3 43 168 3 167 2 0 35 0 35 -167 2 -168 3 -1 40 c0 36 -3 40 -27 43 -16 2
-29 -2 -32 -10z"/>
<path d="M4335 1351 c-91 -41 -86 -154 8 -200 36 -17 62 -21 150 -21 69 0 120
5 141 14 101 42 101 170 0 212 -43 18 -44 18 -44 -10 0 -18 8 -27 29 -34 36
-13 55 -45 46 -79 -9 -38 -63 -55 -175 -55 -107 0 -141 10 -166 47 -22 34 -6
72 36 87 22 7 30 16 30 34 0 29 -3 29 -55 5z"/>
<path d="M6287 1297 c-60 -17 -84 -40 -98 -90 -13 -49 5 -112 41 -139 34 -24
131 -41 194 -33 114 16 156 52 156 135 0 55 -22 94 -64 114 -48 22 -169 29
-229 13z m197 -97 c35 -13 34 -47 -1 -61 -16 -6 -67 -9 -115 -7 -68 2 -91 7
-105 21 -17 18 -17 19 6 38 19 15 39 19 106 19 46 0 95 -4 109 -10z"/>
<path d="M6845 1175 c-61 -22 -95 -65 -95 -123 0 -103 59 -144 216 -150 186
-8 264 35 264 145 0 49 -4 59 -33 88 -18 18 -51 38 -72 44 -57 16 -232 13
-280 -4z m288 -76 c15 -7 30 -24 34 -37 13 -52 -32 -81 -140 -89 -81 -6 -172
9 -199 34 -40 36 -10 89 60 104 52 11 211 3 245 -12z"/>
<path d="M1840 1060 l0 -70 -60 0 -60 0 0 65 0 65 -30 0 -30 0 0 -65 0 -65
-50 0 -50 0 0 65 0 65 -30 0 -30 0 0 -100 0 -100 200 0 200 0 0 99 c0 81 -3
100 -16 105 -39 15 -44 8 -44 -64z"/>
<path d="M6253 975 c-17 -7 -39 -25 -48 -39 -23 -35 -22 -122 3 -155 53 -72
279 -81 346 -14 30 30 36 95 11 130 -8 12 -11 23 -6 25 5 2 11 17 13 33 l3 30
-110 0 -110 0 -3 -62 -4 -63 36 0 c26 0 36 4 36 16 0 25 84 15 89 -10 6 -34
-26 -46 -125 -46 -75 0 -96 3 -115 19 -20 16 -21 21 -10 35 7 9 20 16 27 16
10 0 14 14 14 50 0 55 -1 55 -47 35z"/>
<path d="M7160 801 l0 -81 -202 -2 -203 -3 0 -35 0 -35 235 0 235 0 0 115 0
115 -32 3 -33 3 0 -80z"/>
<path d="M1547 849 c-30 -17 -47 -73 -47 -149 l0 -70 200 0 200 0 0 35 0 35
-85 0 -85 0 0 28 c0 48 14 57 92 62 l73 5 3 34 3 33 -79 -3 c-60 -3 -85 -9
-100 -22 -20 -18 -21 -18 -41 2 -23 23 -101 29 -134 10z m111 -71 c7 -7 12
-27 12 -45 l0 -33 -55 0 -55 0 0 33 c0 18 5 38 12 45 16 16 70 16 86 0z"/>
<path d="M7160 520 l0 -80 -202 -2 -203 -3 0 -35 0 -35 235 0 235 0 3 109 c3
116 -1 126 -45 126 -22 0 -23 -4 -23 -80z"/>
<path d="M7000 266 c-119 -29 -223 -55 -233 -59 -13 -5 -17 -18 -17 -52 0 -25
2 -45 5 -45 5 0 226 -51 453 -105 22 -5 23 -3 20 32 -3 35 -6 38 -43 45 -91
18 -85 13 -85 76 l0 58 65 13 65 13 0 39 c0 21 -3 39 -7 38 -5 -1 -105 -24
-223 -53z m30 -110 l0 -43 -77 18 c-43 10 -89 19 -103 19 -33 2 -14 9 80 30
105 25 100 26 100 -24z"/>
</g>
</svg>
