<?xml version="1.0" standalone="no"?>
<!DOCTYPE svg PUBLIC "-//W3C//DTD SVG 20010904//EN"
 "http://www.w3.org/TR/2001/REC-SVG-20010904/DTD/svg10.dtd">
<svg version="1.0" xmlns="http://www.w3.org/2000/svg"
 width="1280.000000pt" height="1117.000000pt" viewBox="0 0 1280.000000 1117.000000"
 preserveAspectRatio="xMidYMid meet">
<metadata>
Created by potrace 1.15, written by Peter Selinger 2001-2017
</metadata>
<g transform="translate(0.000000,1117.000000) scale(0.100000,-0.100000)"
fill="#F3983E" stroke="none">
<path d="M9959 11058 l-247 -110 -212 101 c-117 55 -217 101 -221 101 -5 0 -9
-38 -9 -83 l0 -84 155 -63 c86 -34 154 -64 153 -65 -2 -2 -72 -31 -155 -65
l-153 -62 0 -94 0 -93 73 33 c39 18 143 66 229 106 l158 73 233 -107 c127 -58
235 -106 240 -106 4 0 7 37 7 83 l0 83 -170 68 c-93 37 -170 69 -170 71 0 2
77 34 170 70 l170 67 0 94 c0 52 -1 94 -2 93 -2 0 -114 -50 -249 -111z"/>
<path d="M10068 10308 l-3 -163 -135 0 -135 0 -3 148 -3 147 -69 0 -69 0 -3
-147 -3 -148 -112 -3 -113 -3 0 156 0 155 -75 0 -75 0 0 -235 0 -235 470 0
470 0 0 239 0 238 -52 7 c-96 11 -87 26 -90 -156z"/>
<path d="M8725 10391 c-50 -22 -83 -61 -131 -152 -20 -38 -50 -81 -66 -94 -52
-44 -129 -27 -148 31 -16 48 8 90 60 105 l40 12 0 55 0 54 -37 -7 c-103 -19
-153 -81 -153 -191 0 -122 69 -194 184 -194 99 1 152 43 219 175 46 92 101
127 175 110 45 -9 65 -38 65 -90 0 -54 -20 -80 -75 -97 l-38 -11 0 -55 0 -55
42 7 c86 14 141 69 158 155 20 106 -22 205 -104 242 -53 24 -139 24 -191 0z"/>
<path d="M5724 10126 c-3 -8 -4 -23 -2 -33 3 -16 17 -18 131 -21 l128 -3 -3
-92 -3 -92 -127 -3 -128 -3 0 -29 0 -30 300 0 300 0 0 30 0 29 -142 3 -143 3
-3 93 -3 92 146 0 145 0 0 35 0 35 -295 0 c-248 0 -297 -2 -301 -14z"/>
<path d="M8070 9826 l0 -106 -110 0 -110 0 0 95 0 95 -30 0 -30 0 0 -95 0 -95
-95 0 -95 0 0 100 0 100 -30 0 -31 0 3 -132 3 -133 290 0 290 0 0 135 0 135
-27 3 -28 3 0 -105z"/>
<path d="M8436 9919 c-99 -23 -146 -85 -146 -191 0 -117 66 -183 210 -214 94
-20 299 -14 377 10 112 35 167 131 142 247 -18 83 -74 131 -176 154 l-33 7 0
-56 c0 -55 0 -55 36 -65 51 -14 84 -48 84 -85 -1 -38 -15 -57 -60 -82 -50 -27
-313 -33 -394 -10 -70 21 -100 56 -92 106 6 40 24 56 78 71 l38 10 0 54 c0 60
1 59 -64 44z"/>
<path d="M10070 9740 l0 -160 -400 0 -400 0 0 -80 0 -80 470 0 470 0 0 230 0
229 -37 6 c-21 3 -53 8 -70 11 l-33 5 0 -161z"/>
<path d="M5793 9711 c-51 -24 -73 -63 -73 -129 0 -99 72 -155 218 -172 132
-15 264 2 328 41 61 37 82 131 45 199 -20 37 -88 80 -128 80 -19 0 -23 -5 -23
-30 0 -26 5 -31 40 -40 46 -12 70 -42 70 -85 0 -69 -74 -99 -245 -99 -134 0
-190 12 -225 49 -47 50 -17 126 56 139 30 6 34 11 34 36 0 26 -4 30 -27 30
-16 0 -47 -9 -70 -19z"/>
<path d="M7634 9559 c-38 -11 -82 -53 -90 -86 -4 -13 -4 -47 -2 -75 5 -43 11
-57 41 -84 19 -18 59 -40 88 -48 71 -21 276 -22 346 -1 90 27 137 107 114 193
-12 45 -42 75 -93 97 -57 23 -70 20 -66 -17 2 -26 8 -33 35 -40 37 -10 73 -51
73 -83 0 -36 -35 -71 -87 -86 -30 -9 -93 -14 -168 -13 -143 1 -203 20 -224 73
-23 55 17 111 79 111 16 0 20 7 20 35 0 38 -8 41 -66 24z"/>
<path d="M8300 9335 l0 -55 355 0 355 0 0 55 0 55 -355 0 -355 0 0 -55z"/>
<path d="M5810 9317 c-65 -23 -96 -105 -88 -237 l3 -55 298 -3 297 -2 0 35 0
35 -135 0 -135 0 0 58 c0 32 6 66 13 76 17 23 76 35 175 36 l82 0 0 33 0 33
-92 -3 c-130 -5 -157 -11 -186 -40 l-25 -25 -16 20 c-35 46 -121 63 -191 39z
m133 -68 c32 -15 47 -49 47 -109 l0 -50 -105 0 -105 0 0 60 c0 51 4 65 25 85
27 28 94 34 138 14z"/>
<path d="M9437 9294 c-63 -20 -128 -84 -150 -149 -13 -37 -17 -86 -17 -212 l0
-163 470 0 470 0 0 80 0 80 -189 0 -189 0 -4 93 c-7 154 -61 239 -174 273 -60
18 -155 17 -217 -2z m202 -168 c37 -20 51 -55 51 -131 l0 -65 -140 0 -140 0 0
65 c0 75 11 105 48 128 34 21 142 23 181 3z"/>
<path d="M8421 9168 c-52 -15 -78 -36 -101 -82 -17 -36 -20 -62 -20 -179 l0
-137 355 0 355 0 0 55 0 55 -155 0 -155 0 0 56 c0 102 21 116 185 124 l120 5
3 55 3 55 -133 -6 c-141 -7 -187 -20 -208 -59 -10 -20 -12 -19 -43 14 -48 50
-126 67 -206 44z m159 -134 c19 -19 25 -36 28 -89 l4 -65 -111 0 -111 0 0 63
c0 40 6 70 15 85 33 46 130 49 175 6z"/>
<path d="M7540 9120 l0 -30 295 0 295 0 0 30 0 30 -295 0 -295 0 0 -30z"/>
<path d="M1650 8890 l0 -140 -145 0 -145 0 0 125 0 125 -35 0 -35 0 0 -125 0
-125 -125 0 -125 0 0 136 0 135 -32 -3 -33 -3 -3 -172 -2 -173 380 0 380 0 0
174 0 174 -31 6 c-17 3 -35 6 -40 6 -5 0 -9 -63 -9 -140z"/>
<path d="M7542 8863 l3 -158 28 -3 27 -3 0 65 0 66 266 0 265 0 -3 31 -3 30
-260 2 -260 2 -3 63 c-3 62 -3 62 -33 62 l-30 0 3 -157z"/>
<path d="M6015 8885 l-290 -73 0 -42 0 -43 290 -68 c159 -38 293 -69 297 -69
5 0 8 13 8 30 0 32 -2 33 -133 61 l-58 12 3 76 3 76 55 14 c30 7 72 18 93 23
34 8 37 12 37 43 0 19 -3 35 -7 34 -5 -1 -138 -34 -298 -74z m55 -115 c0 -42
-4 -60 -12 -60 -7 1 -69 14 -138 29 -93 22 -119 30 -100 35 58 16 226 54 238
55 8 1 12 -17 12 -59z"/>
<path d="M2043 8849 c-91 -26 -123 -164 -54 -241 23 -26 37 -32 83 -36 76 -6
107 13 154 90 43 74 59 88 94 88 58 0 69 -53 15 -76 -33 -14 -35 -17 -35 -64
0 -48 1 -50 28 -50 67 0 122 67 122 150 0 96 -50 150 -139 150 -77 0 -110 -23
-161 -109 -38 -66 -43 -71 -74 -71 -56 0 -59 50 -5 69 28 10 30 13 27 57 -3
52 -8 56 -55 43z"/>
<path d="M10420 8690 c0 -19 7 -20 178 -21 l177 0 -177 -70 c-174 -69 -178
-71 -178 -100 l0 -29 220 0 c212 0 220 1 220 20 0 19 -8 20 -182 22 l-181 3
181 70 c175 67 182 71 182 98 l0 27 -220 0 c-213 0 -220 -1 -220 -20z"/>
<path d="M8300 8490 l0 -210 45 0 45 0 0 75 0 75 310 0 310 0 0 55 0 55 -307
2 -308 3 -3 78 -3 77 -44 0 -45 0 0 -210z"/>
<path d="M7970 8636 c0 -30 4 -34 40 -45 44 -13 70 -43 70 -81 0 -70 -74 -100
-244 -100 -125 0 -174 10 -213 44 -20 17 -27 33 -27 59 0 44 16 64 65 79 33 9
39 15 39 40 0 24 -4 28 -26 28 -40 0 -94 -30 -115 -64 -26 -42 -25 -121 1
-164 34 -55 110 -83 240 -90 230 -11 334 40 334 162 0 83 -38 130 -126 154
l-38 10 0 -32z"/>
<path d="M9272 8488 l3 -123 318 -60 c174 -33 312 -62 307 -63 -6 -2 -149 -27
-318 -55 l-307 -52 -3 -122 -3 -123 471 0 470 0 0 77 0 76 -397 -6 -398 -6
390 64 c215 35 393 64 398 65 4 0 7 33 7 74 0 73 0 75 -27 80 -47 10 -460 84
-611 110 -79 13 -145 25 -147 27 -2 2 174 3 391 1 l394 -3 0 80 0 81 -470 0
-471 0 3 -122z"/>
<path d="M6265 8532 c-3 -3 -5 -52 -5 -109 l0 -103 -115 0 -115 0 0 100 0 100
-25 0 -25 0 0 -100 0 -100 -100 0 -100 0 0 106 0 105 -27 -3 -28 -3 0 -135 0
-135 298 -3 297 -2 0 139 0 139 -25 4 c-13 3 -27 3 -30 0z"/>
<path d="M2350 8455 l0 -75 -195 0 -195 0 0 -55 0 -55 240 0 240 0 0 124 0
124 -31 6 c-59 12 -59 12 -59 -69z"/>
<path d="M970 8456 l0 -63 233 -57 c127 -31 266 -64 307 -73 41 -9 71 -18 65
-19 -5 -2 -93 -21 -195 -43 -102 -22 -236 -52 -297 -67 l-113 -27 0 -63 0 -64
380 0 380 0 0 41 0 40 -340 -3 c-187 -2 -340 -2 -340 -1 0 1 26 7 58 13 31 7
182 38 335 71 153 32 280 59 283 59 2 0 4 18 4 40 0 47 27 37 -315 115 -132
30 -267 61 -300 69 -56 13 -35 14 278 15 l337 1 0 40 0 40 -380 0 -380 0 0
-64z"/>
<path d="M10536 8390 c-65 -12 -98 -37 -116 -89 -14 -39 -13 -45 5 -79 30 -55
80 -75 195 -80 118 -5 173 9 218 54 32 32 34 38 29 80 -6 55 -33 87 -90 104
-54 16 -179 21 -241 10z m195 -50 c67 -13 105 -46 95 -84 -10 -40 -58 -59
-161 -64 -95 -4 -164 8 -190 34 -21 21 -19 67 4 88 35 32 156 44 252 26z"/>
<path d="M2637 8283 c-4 -3 -7 -93 -7 -200 l0 -193 30 0 30 0 0 90 0 90 48 0
c26 0 52 -4 58 -8 23 -15 34 -52 34 -111 0 -60 1 -61 28 -61 l27 0 -5 81 c-4
69 -8 83 -28 100 l-24 19 27 23 c56 47 30 146 -42 166 -42 12 -166 15 -176 4z
m171 -49 c29 -20 30 -76 2 -104 -15 -15 -33 -20 -70 -20 l-50 0 0 70 0 70 48
0 c27 0 57 -7 70 -16z"/>
<path d="M2967 8283 c-4 -3 -7 -93 -7 -200 l0 -193 114 0 c88 0 115 3 119 14
9 23 -2 26 -90 26 l-83 0 0 75 0 75 80 0 c73 0 80 2 80 20 0 18 -7 20 -80 20
l-80 0 0 65 0 65 85 0 c78 0 85 2 85 20 0 19 -7 20 -108 20 -60 0 -112 -3
-115 -7z"/>
<path d="M3290 8263 c-65 -60 -43 -131 56 -177 100 -47 126 -90 88 -144 -22
-32 -86 -31 -119 3 -14 13 -25 29 -25 35 0 5 -12 10 -26 10 -24 0 -25 -3 -19
-27 14 -59 74 -90 153 -79 67 9 102 46 102 107 0 61 -17 80 -110 127 -75 37
-75 37 -75 77 0 34 4 42 28 53 37 18 85 0 93 -34 5 -18 13 -24 34 -24 24 0 27
3 22 25 -14 74 -141 103 -202 48z"/>
<path d="M3577 8283 c-4 -3 -7 -93 -7 -200 l0 -193 114 0 c88 0 115 3 119 14
9 23 -2 26 -90 26 l-83 0 0 75 0 75 80 0 c73 0 80 2 80 20 0 18 -7 20 -80 20
l-80 0 0 65 0 65 85 0 c78 0 85 2 85 20 0 19 -7 20 -108 20 -60 0 -112 -3
-115 -7z"/>
<path d="M3967 8282 c-3 -4 -29 -87 -57 -183 -28 -96 -53 -182 -56 -192 -5
-15 -1 -18 22 -15 25 3 30 9 43 61 l15 57 66 0 66 0 14 -57 c13 -52 18 -58 43
-61 17 -2 27 1 26 10 0 7 -26 96 -57 198 l-57 185 -32 3 c-17 2 -34 -1 -36 -6z
m58 -133 c13 -46 25 -87 25 -91 0 -5 -23 -8 -51 -8 -58 0 -56 -12 -23 117 11
39 20 70 22 69 1 -2 13 -41 27 -87z"/>
<path d="M4210 8090 l0 -200 25 0 c25 0 25 1 25 90 l0 90 48 0 c73 0 86 -15
92 -102 5 -70 6 -73 32 -76 l27 -3 -6 78 c-4 60 -10 83 -27 101 -19 21 -19 25
-5 35 42 31 51 99 19 140 -26 33 -75 47 -162 47 l-68 0 0 -200z m170 142 c17
-13 23 -29 22 -53 -1 -47 -31 -69 -93 -69 l-49 0 0 70 0 70 49 0 c32 0 56 -6
71 -18z"/>
<path d="M4594 8271 c-50 -30 -68 -81 -68 -191 0 -109 15 -149 67 -180 76 -47
197 1 197 77 0 18 -6 23 -25 23 -14 0 -25 -6 -25 -14 0 -7 -10 -25 -21 -40
-29 -37 -83 -33 -113 7 -18 25 -21 42 -21 132 0 89 3 107 21 132 36 48 108 44
126 -7 7 -22 16 -30 34 -30 27 0 30 15 12 55 -24 54 -123 73 -184 36z"/>
<path d="M4867 8284 c-4 -4 -7 -94 -7 -201 l0 -193 30 0 30 0 0 95 0 95 75 0
75 0 0 -95 0 -95 30 0 30 0 0 201 0 200 -27 -3 c-28 -3 -28 -4 -31 -85 l-3
-83 -74 0 -74 0 -3 83 c-3 74 -5 82 -23 85 -12 2 -24 0 -28 -4z"/>
<path d="M7840 8226 c-135 -34 -257 -66 -272 -69 -25 -7 -28 -12 -28 -48 0
-23 5 -41 13 -44 16 -5 502 -121 545 -130 31 -6 32 -5 32 24 0 33 -1 34 -133
62 l-58 12 3 76 3 76 90 21 c88 21 90 21 93 52 3 28 0 32 -20 31 -13 0 -133
-29 -268 -63z m50 -116 c0 -42 -4 -60 -12 -60 -7 1 -71 13 -142 29 l-130 27
120 28 c65 15 124 29 129 31 31 11 35 4 35 -55z"/>
<path d="M2350 8155 l0 -75 -195 0 -195 0 0 -55 0 -55 240 0 240 0 0 124 0
124 -31 6 c-59 12 -59 12 -59 -69z"/>
<path d="M8920 8100 l0 -130 -115 0 -115 0 0 115 0 115 -50 0 -50 0 0 -115 0
-116 -97 3 -98 3 -3 123 -3 122 -44 0 -45 0 0 -180 0 -180 355 0 355 0 0 179
0 179 -31 6 c-61 12 -59 17 -59 -124z"/>
<path d="M6083 8151 c-41 -19 -59 -41 -117 -143 -33 -59 -60 -78 -109 -78
-100 0 -120 133 -24 158 27 7 33 14 35 40 4 39 -12 41 -75 13 -57 -26 -76 -66
-71 -144 4 -53 8 -64 40 -92 41 -38 92 -50 147 -35 50 13 88 51 129 128 43 80
71 102 132 102 67 0 100 -27 100 -84 0 -52 -20 -81 -65 -96 -30 -10 -35 -16
-35 -42 0 -30 1 -30 37 -25 103 17 152 128 103 235 -34 74 -138 103 -227 63z"/>
<path d="M10420 8045 l0 -25 220 0 220 0 0 25 0 25 -220 0 -220 0 0 -25z"/>
<path d="M10420 7850 c0 -112 1 -120 19 -120 17 0 20 8 23 48 l3 47 198 3
c188 2 197 3 197 22 0 19 -9 20 -197 22 l-198 3 -3 48 c-3 39 -6 47 -23 47
-18 0 -19 -8 -19 -120z"/>
<path d="M1962 7838 l3 -53 238 -3 237 -2 0 55 0 55 -241 0 -240 0 3 -52z"/>
<path d="M7634 7859 c-68 -20 -93 -77 -94 -211 l0 -78 295 0 295 0 0 30 0 30
-135 0 -135 0 0 54 c0 43 5 61 23 82 22 25 30 27 133 33 l109 6 3 31 3 30 -93
-3 c-130 -5 -157 -11 -185 -39 l-25 -25 -19 25 c-31 40 -107 55 -175 35z m140
-81 c21 -19 26 -33 28 -83 l2 -60 -102 -3 -102 -3 0 61 c0 51 4 65 25 85 33
34 112 35 149 3z"/>
<path d="M970 7796 l0 -46 300 0 c340 0 360 -3 385 -64 19 -45 19 -70 0 -110
-29 -60 -31 -61 -370 -66 l-310 -5 -3 -43 -3 -43 318 3 c313 3 319 3 358 26
65 39 93 92 94 177 0 57 -18 116 -46 147 -10 12 -38 30 -63 42 -42 20 -65 21
-352 24 l-308 4 0 -46z"/>
<path d="M10638 7703 l-218 -55 0 -32 0 -32 208 -48 c114 -27 213 -51 220 -54
7 -2 12 5 12 21 0 21 -6 27 -32 32 -18 4 -50 11 -71 16 l-38 10 3 57 3 57 68
14 c64 13 67 15 67 43 0 15 -1 28 -2 27 -2 0 -101 -26 -220 -56z m42 -89 c0
-43 -2 -46 -22 -41 -13 3 -61 14 -108 23 l-84 18 89 22 c130 31 125 32 125
-22z"/>
<path d="M1960 7692 l0 -57 98 -50 97 -50 -97 -3 -98 -3 0 -49 0 -50 240 0
240 0 0 50 0 50 -65 0 c-64 0 -131 22 -121 38 2 4 45 21 95 37 l91 29 0 58 c0
32 -4 58 -8 58 -5 0 -68 -22 -140 -50 -72 -27 -135 -50 -141 -50 -5 0 -48 23
-96 50 -48 28 -88 50 -91 50 -2 0 -4 -26 -4 -58z"/>
<path d="M9516 7734 c-122 -27 -207 -85 -240 -166 -10 -22 -16 -67 -16 -111 0
-135 68 -223 208 -268 91 -30 371 -39 483 -16 194 41 273 121 274 277 0 127
-57 214 -170 258 -107 43 -396 56 -539 26z m434 -165 c97 -22 134 -56 132
-120 -2 -66 -68 -102 -222 -119 -119 -13 -268 -6 -349 16 -149 42 -149 179 -1
218 66 18 371 21 440 5z"/>
<path d="M8302 7648 l3 -82 55 -12 c30 -7 145 -32 255 -55 110 -22 201 -42
203 -43 1 -2 -30 -8 -70 -15 -40 -6 -157 -28 -260 -48 l-188 -37 0 -83 0 -83
355 0 355 0 0 51 0 51 -305 -4 c-168 -2 -298 0 -288 4 10 3 140 27 288 53 149
25 278 48 288 51 15 5 17 15 15 57 l-3 51 -270 53 c-148 30 -283 57 -300 61
-16 5 106 6 273 4 l302 -5 0 57 0 56 -355 0 -356 0 3 -82z"/>
<path d="M3716 7690 c-44 -14 -83 -57 -103 -114 -14 -39 -18 -82 -18 -181 0
-155 17 -217 71 -265 30 -26 42 -30 94 -30 52 0 64 4 94 30 58 51 71 102 71
275 0 140 -2 153 -25 199 -14 28 -36 58 -50 67 -31 22 -96 31 -134 19z m97
-70 c15 -12 31 -38 37 -58 29 -107 20 -302 -18 -367 -37 -63 -105 -56 -146 14
-16 28 -21 58 -24 154 -3 72 0 141 7 173 21 92 85 130 144 84z"/>
<path d="M5906 7690 c-42 -13 -83 -57 -103 -109 -14 -36 -18 -76 -18 -186 0
-163 14 -215 72 -266 34 -29 40 -31 101 -27 59 4 67 7 98 40 43 48 55 91 61
228 8 167 -22 271 -86 305 -38 19 -91 25 -125 15z m99 -74 c36 -37 47 -94 43
-240 -2 -102 -7 -139 -21 -168 -36 -72 -118 -73 -153 0 -38 81 -38 307 1 381
28 56 89 68 130 27z"/>
<path d="M2645 7677 c-3 -7 -4 -138 -3 -292 l3 -280 30 0 30 0 3 293 2 292
-30 0 c-17 0 -33 -6 -35 -13z"/>
<path d="M2825 7678 c-3 -7 -4 -139 -3 -293 l3 -280 30 0 30 0 -2 245 c-1 135
0 241 3 235 2 -5 46 -116 97 -245 l92 -235 38 -3 37 -3 0 295 0 296 -31 0 -30
0 3 -234 c2 -129 1 -232 -2 -230 -2 3 -45 107 -95 232 l-91 227 -37 3 c-24 2
-39 -1 -42 -10z"/>
<path d="M3270 7395 l0 -295 30 0 30 0 0 140 0 140 95 0 95 0 0 30 0 30 -95 0
-95 0 0 95 0 94 103 3 c101 3 102 3 102 28 l0 25 -132 3 -133 3 0 -296z"/>
<path d="M4030 7395 l0 -295 30 0 30 0 0 135 0 135 54 0 c99 0 108 -13 115
-160 l6 -105 30 0 30 0 -3 100 c-4 113 -15 159 -43 179 -19 13 -19 14 10 43
51 52 54 154 5 213 -32 37 -78 50 -181 50 l-83 0 0 -295z m209 209 c31 -39 29
-117 -4 -149 -20 -21 -34 -25 -85 -25 l-60 0 0 100 0 100 64 0 c58 0 67 -3 85
-26z"/>
<path d="M4425 7677 c-3 -7 -4 -138 -3 -292 l3 -280 28 -3 27 -3 1 258 1 258
50 -234 c60 -280 60 -281 92 -281 14 0 27 3 29 8 3 4 29 113 58 242 29 129 55
238 58 242 3 4 6 -104 6 -240 l0 -247 28 0 c15 0 27 3 27 8 0 4 0 135 0 292
l0 285 -45 0 c-52 0 -41 27 -111 -270 -25 -107 -47 -196 -48 -197 -2 -2 -13
45 -25 105 -13 59 -36 164 -53 235 l-30 127 -44 0 c-27 0 -47 -5 -49 -13z"/>
<path d="M4986 7453 c-32 -131 -64 -262 -71 -291 -11 -45 -11 -54 0 -58 38
-15 50 0 70 91 l21 90 76 3 76 3 17 -73 c24 -104 31 -118 59 -118 14 0 27 4
30 8 3 4 -28 136 -67 293 l-72 284 -41 3 -41 3 -57 -238z m154 -90 c0 -9 -19
-13 -61 -13 -53 0 -60 2 -55 18 2 9 14 62 26 117 12 55 24 107 27 115 5 13 62
-205 63 -237z"/>
<path d="M5237 7684 c-4 -4 -7 -18 -7 -31 0 -22 4 -23 65 -23 l65 0 2 -262 3
-263 30 0 30 0 3 263 2 262 66 0 65 0 -3 28 -3 27 -156 3 c-85 1 -158 -1 -162
-4z"/>
<path d="M5620 7395 l0 -295 30 0 30 0 0 295 0 295 -30 0 -30 0 0 -295z"/>
<path d="M6215 7678 c-3 -7 -4 -139 -3 -293 l3 -280 28 0 28 0 0 245 c0 135 2
241 5 235 2 -5 46 -116 97 -245 l92 -235 38 -3 37 -3 0 295 0 296 -31 0 -30 0
3 -234 c2 -129 1 -232 -2 -230 -2 3 -45 107 -95 232 l-91 227 -37 3 c-24 2
-39 -1 -42 -10z"/>
<path d="M6790 7505 l0 -155 40 0 40 0 0 55 0 55 225 0 225 0 0 45 0 45 -222
2 -223 3 -3 53 -3 52 -40 0 -39 0 0 -155z"/>
<path d="M7644 7480 c-18 -6 -46 -26 -62 -44 -34 -39 -46 -99 -40 -196 l3 -55
293 -3 292 -2 0 35 0 35 -124 0 -123 0 -7 69 c-11 112 -57 161 -156 167 -25 2
-59 -1 -76 -6z m147 -89 c25 -26 29 -37 29 -85 l0 -56 -110 0 -110 0 0 50 c0
90 27 118 113 119 41 1 53 -4 78 -28z"/>
<path d="M10768 7430 c-71 -5 -92 -9 -109 -26 l-21 -21 -23 23 c-35 34 -122
34 -162 0 -26 -23 -28 -31 -32 -110 l-3 -86 221 0 221 0 0 25 0 25 -100 0
-100 0 0 44 c0 62 22 76 118 76 54 0 74 4 78 14 14 36 2 41 -88 36z m-169 -65
c7 -7 16 -34 18 -59 l6 -46 -82 0 -81 0 0 38 c0 65 37 96 100 84 14 -2 31 -10
39 -17z"/>
<path d="M2050 7359 c-100 -22 -133 -168 -55 -246 29 -29 40 -33 84 -33 74 0
102 19 152 100 43 69 66 86 105 78 47 -9 42 -67 -7 -78 -21 -5 -24 -12 -27
-58 -3 -51 -3 -52 25 -52 15 0 43 9 61 20 80 49 83 198 7 258 -21 17 -41 22
-85 22 -75 0 -112 -25 -159 -110 -34 -59 -40 -65 -73 -68 -58 -5 -64 47 -7 67
26 9 29 14 29 55 0 25 -3 47 -7 49 -5 2 -24 0 -43 -4z"/>
<path d="M1650 7225 l0 -135 -340 0 -340 0 0 -40 0 -40 380 0 380 0 0 169 c0
183 0 181 -56 181 l-24 0 0 -135z"/>
<path d="M7240 7226 l0 -97 -77 3 -78 3 -3 83 -3 82 -39 0 -40 0 0 -85 0 -86
-62 3 -63 3 -3 88 -3 87 -39 0 -40 0 0 -135 0 -135 265 0 265 0 0 135 c0 122
-2 135 -17 135 -10 0 -28 3 -40 6 -23 6 -23 5 -23 -90z"/>
<path d="M10470 7112 c-49 -24 -69 -79 -49 -135 21 -62 75 -89 194 -95 161 -8
241 25 252 106 5 35 1 49 -16 73 -17 23 -19 29 -6 29 8 0 15 9 15 20 0 19 -7
20 -120 20 l-120 0 0 -65 c0 -58 2 -65 20 -65 17 0 20 7 20 40 l0 40 45 0 c95
0 148 -49 112 -104 -39 -58 -290 -63 -342 -6 -10 11 -15 31 -13 52 2 26 10 36
35 48 22 10 33 22 33 38 0 27 -14 28 -60 4z"/>
<path d="M9422 7051 c-106 -36 -161 -118 -162 -237 0 -110 27 -170 103 -225
91 -66 297 -99 504 -80 235 21 330 84 355 234 28 167 -67 298 -234 322 l-48 7
0 -80 0 -80 43 -11 c123 -30 142 -144 32 -192 -92 -41 -376 -47 -508 -12 -137
37 -147 172 -14 206 l49 13 1 77 2 77 -35 0 c-19 -1 -59 -9 -88 -19z"/>
<path d="M7964 6986 c-71 -32 -99 -113 -92 -260 8 -151 52 -211 155 -210 65 1
99 22 128 80 27 53 29 272 3 319 -40 74 -122 104 -194 71z m102 -77 c16 -18
20 -40 22 -133 4 -139 -10 -186 -56 -186 -51 0 -66 29 -70 135 -5 112 2 159
29 186 25 25 51 24 75 -2z"/>
<path d="M8490 6977 c-64 -43 -75 -75 -75 -227 0 -153 11 -187 68 -217 41 -21
119 -20 152 1 32 21 65 74 65 104 0 19 -5 22 -39 22 -34 0 -40 -4 -49 -29 -15
-42 -47 -57 -77 -37 -23 15 -28 31 -40 116 -8 67 10 179 34 203 27 28 69 16
83 -23 9 -26 15 -30 49 -30 34 0 39 3 39 23 0 33 -35 84 -69 102 -44 22 -102
19 -141 -8z"/>
<path d="M7510 6979 c0 -5 26 -111 57 -235 l56 -225 51 3 51 3 57 220 c32 121
58 226 58 233 0 8 -15 12 -43 12 l-42 0 -39 -182 c-22 -100 -41 -178 -42 -173
-2 6 -14 64 -28 130 -13 66 -30 144 -36 173 l-12 52 -44 0 c-24 0 -44 -5 -44
-11z"/>
<path d="M8250 6754 l0 -235 43 3 42 3 3 233 2 232 -45 0 -45 0 0 -236z"/>
<path d="M8760 6755 l0 -235 119 0 c66 0 122 3 124 8 3 4 7 20 8 35 l4 29 -85
1 -85 2 -3 68 -3 67 81 0 80 0 0 35 0 34 -77 3 -78 3 -3 57 -3 57 83 3 83 3 3
33 3 32 -125 0 -126 0 0 -235z"/>
<path d="M7115 6965 c-45 -16 -75 -48 -110 -116 -33 -63 -51 -79 -89 -79 -40
0 -59 19 -54 57 2 22 10 30 36 38 30 9 32 12 32 58 0 44 -2 48 -20 43 -11 -3
-30 -9 -42 -12 -84 -23 -114 -160 -51 -234 14 -17 42 -34 64 -40 82 -22 150
13 195 103 35 68 66 97 104 97 49 0 70 -16 70 -54 0 -35 -20 -59 -57 -70 -20
-6 -23 -14 -23 -53 l0 -46 37 6 c103 17 152 128 104 234 -31 67 -117 97 -196
68z"/>
<path d="M3440 6899 c-60 -12 -120 -55 -150 -109 -20 -37 -25 -59 -25 -125 0
-69 4 -86 27 -126 32 -54 63 -79 182 -145 141 -78 180 -140 161 -253 -14 -85
-106 -132 -189 -97 -48 20 -72 50 -87 109 l-13 47 -56 0 -57 0 8 -49 c15 -99
80 -180 161 -202 24 -6 78 -9 120 -7 105 6 160 40 202 121 25 50 30 69 30 135
-1 139 -46 200 -224 300 -133 75 -153 101 -148 190 5 77 32 110 96 119 76 10
119 -22 142 -105 l11 -42 56 0 55 0 -7 47 c-22 145 -142 223 -295 192z"/>
<path d="M5640 6901 c-115 -24 -180 -110 -180 -238 1 -120 52 -188 192 -259
150 -75 182 -117 176 -230 -4 -84 -25 -116 -89 -135 -84 -26 -162 20 -184 106
l-12 50 -58 3 -58 3 7 -43 c8 -49 39 -124 64 -152 35 -39 112 -66 192 -66 160
1 248 81 258 236 9 143 -49 231 -205 312 -131 68 -173 114 -173 193 0 82 59
135 139 126 56 -6 96 -46 106 -106 l7 -41 55 0 56 0 -5 50 c-7 70 -51 138
-108 166 -51 25 -128 36 -180 25z"/>
<path d="M6250 6899 c-60 -12 -120 -55 -150 -109 -21 -38 -25 -58 -25 -125 0
-69 4 -86 27 -126 32 -54 64 -80 173 -140 135 -74 175 -123 175 -216 0 -48
-28 -109 -58 -129 -33 -22 -119 -24 -156 -5 -33 18 -62 64 -71 114 l-7 37 -59
0 -59 0 5 -27 c20 -96 31 -119 74 -164 56 -57 105 -73 211 -67 110 7 172 47
213 138 27 59 28 168 4 232 -22 58 -100 131 -183 173 -147 73 -174 104 -174
197 0 75 32 116 99 125 75 10 130 -37 143 -122 3 -17 12 -20 61 -23 50 -3 57
-1 57 16 0 38 -31 122 -57 152 -50 60 -148 88 -243 69z"/>
<path d="M1235 6883 c-190 -22 -275 -88 -275 -213 0 -90 41 -150 131 -189 126
-56 420 -52 535 7 160 82 148 298 -20 361 -89 33 -253 48 -371 34z m288 -98
c81 -17 122 -43 137 -89 19 -57 -7 -101 -77 -134 -56 -26 -64 -27 -233 -27
-197 0 -249 12 -295 66 -43 52 -26 126 38 161 70 38 302 50 430 23z"/>
<path d="M1960 6419 l0 -471 168 4 c190 4 221 14 284 88 94 109 76 324 -32
396 l-41 27 30 19 c89 57 100 258 18 347 -47 51 -88 61 -264 61 l-163 0 0
-471z m293 367 c56 -23 71 -50 75 -131 4 -68 2 -74 -24 -104 -33 -36 -79 -50
-166 -51 l-58 0 0 150 0 150 70 0 c39 0 85 -6 103 -14z m-2 -387 c99 -34 141
-162 87 -269 -32 -62 -70 -81 -173 -88 l-85 -5 0 187 0 186 69 0 c37 0 83 -5
102 -11z"/>
<path d="M2602 6503 c3 -348 5 -392 21 -428 43 -96 111 -135 237 -135 124 0
184 32 232 123 23 41 23 49 26 435 l3 392 -55 0 -55 0 -3 -377 c-3 -339 -5
-381 -21 -410 -22 -42 -64 -63 -122 -63 -64 0 -103 23 -126 73 -17 39 -19 70
-19 410 l0 367 -61 0 -60 0 3 -387z"/>
<path d="M3890 6420 l0 -470 55 0 55 0 0 470 0 470 -55 0 -55 0 0 -470z"/>
<path d="M4180 6420 l0 -470 56 0 55 0 -3 384 c-2 212 0 379 3 373 4 -7 70
-180 149 -384 l143 -373 63 0 64 0 0 470 0 470 -50 0 -51 0 3 -370 c2 -203 0
-366 -3 -362 -3 4 -40 97 -82 207 -42 110 -105 272 -140 360 l-63 160 -72 3
-72 3 0 -471z"/>
<path d="M4900 6420 l0 -470 219 0 218 0 7 38 c3 20 6 43 6 50 0 9 -41 12
-170 12 l-170 0 0 175 0 175 155 0 155 0 0 50 0 50 -155 0 -155 0 0 145 0 145
160 0 160 0 0 50 0 50 -215 0 -215 0 0 -470z"/>
<path d="M10820 6760 l0 -80 -85 0 -85 0 0 70 c0 63 -2 70 -20 70 -18 0 -20
-7 -20 -70 l0 -70 -75 0 -75 0 0 75 c0 68 -2 75 -20 75 -19 0 -20 -7 -20 -100
l0 -100 220 0 220 0 0 99 c0 96 -5 111 -36 111 -2 0 -4 -36 -4 -80z"/>
<path d="M7089 6593 c-25 -15 -71 -78 -111 -151 -21 -39 -59 -50 -93 -28 -43
28 -24 96 26 96 16 0 19 7 19 45 0 43 -1 45 -29 45 -43 0 -94 -40 -109 -85
-38 -115 44 -218 160 -202 48 6 87 41 130 115 40 70 65 92 104 92 42 0 64 -23
64 -66 0 -32 -4 -37 -40 -52 -38 -16 -40 -19 -40 -61 l0 -44 37 6 c102 17 153
130 103 232 -11 22 -33 48 -49 58 -38 22 -136 23 -172 0z"/>
<path d="M10420 6460 c0 -113 1 -120 20 -120 17 0 20 7 20 45 l0 45 200 0 200
0 0 25 0 25 -200 0 -200 0 0 50 c0 43 -3 50 -20 50 -19 0 -20 -7 -20 -120z"/>
<path d="M970 6349 l0 -44 313 -74 c171 -41 320 -78 331 -81 12 -4 -9 -11 -55
-19 -41 -8 -188 -40 -328 -72 -139 -33 -255 -59 -257 -59 -2 0 -4 -20 -4 -45
0 -54 -52 -61 408 54 l347 87 3 50 3 51 -358 92 c-197 50 -368 94 -380 97 -21
6 -23 3 -23 -37z"/>
<path d="M7522 6123 l3 -196 33 -1 32 -1 0 198 0 197 -35 0 -35 0 2 -197z"/>
<path d="M7667 6313 c-8 -7 -10 -377 -2 -385 3 -2 18 -3 35 0 l29 4 3 132 3
131 39 -110 c57 -161 58 -162 100 -157 l36 4 0 194 0 194 -30 0 -29 0 -3 -132
-3 -133 -50 133 -49 132 -36 0 c-20 0 -40 -3 -43 -7z"/>
<path d="M7950 6314 c0 -9 78 -320 91 -359 8 -27 13 -30 49 -30 36 0 41 3 49
30 17 52 91 343 91 354 0 6 -16 11 -35 11 -28 0 -36 -5 -40 -22 -3 -13 -18
-81 -34 -153 -16 -71 -31 -123 -34 -115 -2 8 -17 76 -33 150 l-29 135 -37 3
c-21 2 -38 0 -38 -4z"/>
<path d="M8270 6125 l0 -195 105 0 105 0 0 30 0 30 -70 0 -70 0 0 55 0 55 65
0 65 0 0 30 0 30 -65 0 -65 0 0 50 0 50 71 0 70 0 -3 28 -3 27 -102 3 -103 3
0 -196z"/>
<path d="M8559 6291 c-23 -23 -29 -38 -29 -71 0 -58 12 -74 83 -116 34 -20 65
-41 69 -48 15 -23 8 -56 -17 -72 -23 -15 -27 -15 -50 0 -14 9 -25 23 -25 31 0
10 -11 15 -35 15 -39 0 -43 -11 -23 -55 15 -34 56 -55 108 -55 79 0 120 41
120 119 0 47 -27 84 -83 112 -57 29 -77 48 -77 74 0 50 56 59 78 12 10 -20 20
-27 43 -27 25 0 29 4 29 26 0 15 -12 38 -29 55 -25 25 -37 29 -81 29 -44 0
-56 -4 -81 -29z"/>
<path d="M8787 6313 c-4 -3 -7 -17 -7 -29 0 -20 6 -23 43 -26 l42 -3 5 -165 5
-164 30 0 30 0 5 164 5 165 43 3 c39 3 42 5 42 33 l0 29 -118 0 c-65 0 -122
-3 -125 -7z"/>
<path d="M9072 6123 l3 -197 30 0 30 0 3 197 2 197 -35 0 -35 0 2 -197z"/>
<path d="M9272 6308 c-43 -21 -66 -74 -70 -167 -7 -147 28 -221 105 -221 21 0
48 7 60 15 14 10 24 12 28 5 3 -5 17 -10 31 -10 24 0 24 0 24 110 l0 110 -60
0 -60 0 0 -30 c0 -25 4 -30 25 -30 22 0 25 -4 25 -36 0 -51 -15 -74 -50 -74
-43 0 -55 29 -55 135 0 71 4 97 18 119 23 34 67 33 82 -1 7 -17 18 -23 42 -23
36 0 41 12 21 55 -22 49 -108 71 -166 43z"/>
<path d="M9541 6148 c-23 -95 -44 -183 -47 -195 -6 -21 -3 -23 30 -23 31 0 36
4 42 28 14 63 13 62 64 62 l48 0 6 -45 c8 -51 10 -53 52 -46 l31 6 -43 179
c-24 99 -46 186 -48 193 -3 8 -22 13 -50 13 l-44 0 -41 -172z m99 35 c6 -32
14 -68 17 -80 4 -20 1 -23 -24 -23 -16 0 -32 2 -34 5 -5 4 22 155 27 155 2 0
8 -26 14 -57z"/>
<path d="M9740 6291 c0 -28 3 -30 43 -33 l42 -3 5 -165 5 -164 30 0 30 0 5
164 5 165 43 3 c39 3 42 5 42 33 l0 29 -125 0 -125 0 0 -29z"/>
<path d="M10030 6125 l0 -195 95 0 c52 0 98 -1 103 -2 4 -2 8 12 10 30 l3 32
-70 0 -71 0 0 55 0 55 65 0 65 0 0 30 0 30 -65 0 -65 0 0 50 0 50 65 0 65 0 0
30 0 30 -100 0 -100 0 0 -195z"/>
<path d="M11293 6296 c-52 -24 -68 -66 -68 -181 0 -119 16 -158 72 -182 68
-28 132 4 153 78 13 44 13 164 0 210 -20 70 -91 105 -157 75z m81 -68 c12 -16
16 -47 16 -113 0 -98 -14 -135 -51 -135 -33 0 -51 60 -47 155 3 85 16 115 49
115 10 0 25 -10 33 -22z"/>
<path d="M11581 6297 c-49 -25 -66 -62 -70 -153 -4 -107 3 -146 35 -183 51
-60 144 -47 179 25 27 56 27 204 1 258 -28 56 -93 80 -145 53z m86 -87 c7 -19
12 -62 12 -95 0 -117 -44 -172 -86 -109 -22 34 -25 185 -5 222 21 36 64 27 79
-18z"/>
<path d="M12093 6303 c-35 -7 -63 -50 -63 -97 0 -53 13 -71 80 -110 57 -33 72
-58 59 -93 -12 -34 -65 -32 -81 2 -15 33 -68 36 -68 5 0 -82 129 -118 194 -53
21 20 26 35 26 72 0 58 -18 85 -79 115 -60 31 -75 49 -67 81 5 20 13 25 36 25
23 0 31 -5 36 -26 5 -21 11 -25 38 -22 27 3 31 6 28 28 -7 53 -73 88 -139 73z"/>
<path d="M10980 6270 c0 -28 2 -30 40 -30 l40 0 0 -155 0 -155 35 0 35 0 0
154 0 155 38 3 c32 3 37 7 40 31 l3 27 -115 0 -116 0 0 -30z"/>
<path d="M11800 6115 l0 -185 95 0 95 0 0 30 0 30 -60 0 -60 0 0 155 0 155
-35 0 -35 0 0 -185z"/>
<path d="M10420 6270 c0 -19 7 -20 178 -21 l177 0 -177 -70 c-174 -69 -178
-71 -178 -100 l0 -29 220 0 c212 0 220 1 220 20 0 19 -8 20 -182 22 l-181 3
181 70 c175 67 182 71 182 97 l0 28 -220 0 c-213 0 -220 -1 -220 -20z"/>
<path d="M7035 6201 l-240 -56 -3 -60 -3 -60 258 -58 c142 -32 261 -58 266
-57 4 0 7 20 7 44 l0 44 -65 12 -66 12 3 62 3 61 60 10 60 10 3 48 c3 44 1 47
-20 46 -13 -1 -131 -27 -263 -58z m67 -121 c-2 -22 -5 -40 -7 -40 -2 0 -47 9
-100 20 -53 11 -100 21 -104 21 -11 2 163 37 189 38 24 1 25 -2 22 -39z"/>
<path d="M10420 5935 l0 -25 220 0 220 0 0 25 0 25 -220 0 -220 0 0 -25z"/>
<path d="M9343 5729 c-55 -16 -73 -50 -73 -140 l0 -79 190 0 190 0 0 35 0 35
-80 0 -80 0 0 45 c0 78 -67 126 -147 104z m75 -75 c14 -10 22 -25 22 -45 0
-29 0 -29 -60 -29 -57 0 -60 1 -60 25 0 29 32 65 58 65 10 0 28 -7 40 -16z"/>
<path d="M0 5515 l0 -215 40 0 40 0 0 90 0 90 33 0 c46 0 57 -15 57 -79 0 -89
6 -101 49 -101 l36 0 -3 67 c-3 86 -8 108 -28 128 -15 15 -15 18 4 38 29 32
37 86 18 131 -20 49 -63 66 -166 66 l-80 0 0 -215z m160 135 c41 -41 19 -97
-43 -107 l-37 -6 0 67 0 66 30 0 c17 0 39 -9 50 -20z"/>
<path d="M320 5515 l0 -215 109 0 c104 0 109 1 115 23 3 12 6 25 6 29 0 4 -35
8 -77 10 l-78 3 -3 63 -3 62 71 0 70 0 0 35 0 35 -70 0 -70 0 0 50 0 50 75 0
75 0 0 35 0 35 -110 0 -110 0 0 -215z"/>
<path d="M600 5515 l0 -215 40 0 40 0 0 85 0 85 28 0 c95 0 142 43 142 129 0
98 -44 131 -175 131 l-75 0 0 -215z m151 137 c26 -22 31 -75 8 -97 -8 -8 -29
-17 -47 -21 l-32 -6 0 71 c0 68 1 71 24 71 13 0 34 -8 47 -18z"/>
<path d="M950 5702 c-40 -40 -53 -99 -48 -217 3 -74 8 -108 22 -131 53 -89
185 -84 229 9 24 50 32 169 17 242 -9 44 -21 68 -45 92 -30 30 -39 33 -90 33
-49 0 -60 -4 -85 -28z m127 -59 c14 -22 18 -48 18 -133 0 -63 -5 -113 -12
-126 -17 -30 -49 -36 -76 -14 -20 16 -22 29 -25 120 -4 111 0 141 24 164 23
24 51 19 71 -11z"/>
<path d="M1240 5515 l0 -215 40 0 40 0 0 90 0 90 33 0 c46 0 57 -15 57 -79 0
-89 6 -101 49 -101 l36 0 -3 67 c-3 86 -8 108 -28 128 -15 15 -15 18 4 38 29
32 37 86 18 131 -20 49 -63 66 -166 66 l-80 0 0 -215z m160 135 c41 -41 19
-97 -43 -107 l-37 -6 0 67 0 66 30 0 c17 0 39 -9 50 -20z"/>
<path d="M1530 5695 c0 -35 0 -35 45 -35 l45 0 0 -180 0 -180 40 0 40 0 0 180
0 180 45 0 c45 0 45 0 45 35 l0 35 -130 0 -130 0 0 -35z"/>
<path d="M1830 5515 l0 -215 40 0 40 0 0 215 0 215 -40 0 -40 0 0 -215z"/>
<path d="M1990 5515 l0 -215 35 0 34 0 3 146 3 146 34 -93 c18 -52 42 -118 53
-146 l19 -53 45 0 44 0 -2 213 -3 212 -32 3 -33 3 -1 -148 c0 -94 -4 -141 -9
-128 -5 11 -30 77 -56 148 l-48 127 -43 0 -43 0 0 -215z"/>
<path d="M2375 5697 c-41 -41 -55 -89 -55 -192 0 -141 31 -202 108 -212 35 -5
49 -1 73 16 23 17 29 19 29 6 0 -10 10 -15 30 -15 l30 0 0 120 0 121 -67 -3
-67 -3 0 -30 c0 -25 4 -31 27 -33 27 -3 28 -6 25 -50 -2 -38 -8 -49 -28 -59
-30 -15 -61 1 -71 38 -15 52 -9 193 9 229 26 52 92 51 92 -1 0 -15 8 -19 40
-19 45 0 50 12 25 60 -23 44 -53 60 -113 60 -48 0 -58 -4 -87 -33z"/>
<path d="M9904 5710 c-35 -14 -64 -59 -64 -100 0 -53 31 -87 116 -126 39 -18
79 -43 88 -55 24 -35 20 -76 -10 -106 -21 -21 -32 -25 -65 -20 -45 6 -67 21
-80 54 -6 17 -16 23 -39 23 -28 0 -31 -3 -25 -22 19 -64 69 -98 145 -98 89 0
150 51 150 126 0 59 -35 98 -126 139 -74 34 -94 55 -94 98 0 34 30 57 73 57
39 0 77 -27 77 -55 0 -10 10 -15 30 -15 42 0 40 32 -4 76 -31 31 -39 34 -92
33 -33 0 -69 -4 -80 -9z"/>
<path d="M10274 5710 c-32 -13 -72 -66 -81 -108 -4 -20 -8 -77 -7 -127 1 -142
42 -203 143 -213 61 -5 113 18 141 63 37 60 44 236 12 316 -6 14 -25 38 -42
52 -26 23 -41 27 -88 26 -31 0 -66 -4 -78 -9z m116 -40 c35 -19 53 -90 48
-199 -4 -113 -21 -149 -76 -165 -71 -20 -114 49 -115 184 0 96 15 153 46 175
25 17 70 20 97 5z"/>
<path d="M10590 5495 l0 -225 30 0 30 0 0 105 0 105 90 0 c83 0 90 2 90 20 0
17 -8 19 -87 22 l-88 3 -3 72 -3 72 98 3 c93 3 98 4 101 26 3 22 3 22 -127 22
l-131 0 0 -225z"/>
<path d="M10890 5695 c0 -24 3 -25 60 -25 l60 0 0 -200 0 -200 30 0 30 0 0
200 0 200 60 0 c57 0 60 1 60 25 l0 25 -150 0 -150 0 0 -25z"/>
<path d="M11235 5708 c2 -7 25 -101 50 -208 25 -107 48 -203 51 -212 4 -12 16
-18 38 -18 l32 0 44 181 c32 131 46 174 52 157 3 -13 23 -94 44 -180 l37 -158
33 0 c22 0 34 5 38 18 17 57 106 410 106 420 0 13 -46 17 -54 4 -3 -5 -23 -86
-45 -181 -37 -158 -51 -208 -51 -170 0 8 -18 92 -41 187 -42 172 -42 172 -70
172 -32 0 -28 12 -86 -224 l-36 -150 -38 175 c-21 96 -38 180 -39 187 0 7 -14
12 -35 12 -23 0 -33 -4 -30 -12z"/>
<path d="M11870 5648 c-12 -40 -39 -134 -61 -208 -22 -74 -42 -143 -45 -152
-4 -14 1 -18 25 -18 28 0 31 4 46 58 9 31 18 63 20 70 3 8 27 12 74 12 l70 0
21 -70 c20 -66 22 -70 50 -70 17 0 30 4 30 8 0 5 -20 74 -44 153 -24 79 -53
177 -65 217 l-22 72 -39 0 -39 0 -21 -72z m90 -92 c15 -52 25 -98 22 -101 -3
-3 -30 -5 -60 -5 -39 0 -53 3 -50 13 3 6 16 53 29 104 13 51 25 90 27 88 2 -2
16 -46 32 -99z"/>
<path d="M12167 5713 c-4 -3 -7 -105 -7 -225 l0 -218 35 0 35 0 0 100 0 100
59 0 c76 0 91 -17 91 -106 0 -82 6 -94 42 -94 27 0 30 3 24 23 -3 12 -6 50 -6
85 0 56 -3 66 -27 90 l-28 27 28 25 c59 53 41 154 -34 184 -40 16 -199 23
-212 9z m171 -44 c55 -19 66 -101 19 -134 -12 -9 -44 -15 -74 -15 l-53 0 0 80
0 80 39 0 c21 0 52 -5 69 -11z"/>
<path d="M12540 5495 l0 -226 127 3 c112 3 128 5 131 21 3 15 -7 17 -97 17
l-101 0 0 85 0 85 90 0 c89 0 90 0 90 25 0 25 -1 25 -90 25 l-90 0 0 70 0 69
93 3 c87 3 92 4 95 26 3 22 2 22 -122 22 l-126 0 0 -225z"/>
<path d="M8029 5696 c-169 -60 -239 -237 -226 -566 10 -252 56 -363 175 -421
68 -33 196 -33 270 0 87 39 146 125 159 231 l6 50 -85 0 -85 0 -16 -60 c-14
-48 -24 -64 -50 -80 -48 -29 -83 -26 -122 13 -41 41 -54 83 -65 219 -20 228
15 429 81 463 73 39 150 -7 163 -97 l7 -48 85 0 84 0 0 40 c0 56 -36 146 -77
191 -63 69 -207 100 -304 65z"/>
<path d="M8685 5692 c-100 -33 -165 -132 -165 -252 0 -126 57 -205 202 -280
163 -84 198 -122 198 -212 0 -58 -18 -89 -63 -112 -75 -36 -155 7 -179 98
l-12 46 -89 0 -89 0 6 -37 c15 -79 28 -114 59 -155 66 -88 206 -127 337 -94
82 21 136 58 174 120 27 42 31 59 34 140 4 79 1 100 -18 144 -31 72 -96 127
-231 197 -127 67 -149 91 -149 168 0 66 39 107 100 107 52 0 85 -31 101 -94
l11 -46 86 0 85 0 -6 54 c-14 142 -120 227 -281 225 -34 0 -83 -8 -111 -17z"/>
<path d="M3595 5688 c-2 -7 -18 -71 -34 -143 -16 -71 -66 -286 -110 -478 -45
-191 -81 -352 -81 -357 0 -7 32 -10 87 -8 l87 3 25 123 24 122 117 0 117 0 22
-125 23 -125 95 0 c85 0 94 2 89 18 -2 9 -53 224 -112 477 -58 253 -110 470
-115 483 -8 21 -14 22 -119 22 -80 0 -112 -4 -115 -12z m160 -389 c19 -102 35
-188 35 -192 0 -4 -36 -7 -80 -7 -57 0 -80 4 -80 13 -1 39 76 405 82 390 4
-10 23 -102 43 -204z"/>
<path d="M4150 5200 l0 -500 81 0 81 0 -3 361 c-3 265 -1 353 7 332 6 -15 64
-178 130 -360 l119 -333 97 0 98 0 0 500 0 500 -81 0 -80 0 3 -346 c2 -258 0
-338 -8 -317 -6 15 -64 171 -129 346 l-117 317 -99 0 -99 0 0 -500z"/>
<path d="M5085 5688 c-3 -7 -43 -177 -89 -378 -47 -201 -96 -414 -110 -473
-14 -60 -26 -115 -26 -123 0 -12 16 -14 87 -12 l87 3 25 123 24 123 116 -3
115 -3 25 -122 24 -123 94 0 c85 0 94 2 89 18 -3 9 -55 230 -116 490 -60 261
-112 478 -116 483 -9 15 -224 11 -229 -3z m154 -369 c23 -113 41 -208 41 -212
0 -8 -154 -10 -161 -3 -3 3 12 87 33 188 20 101 37 196 37 212 1 16 3 27 5 25
3 -3 23 -97 45 -210z"/>
<path d="M5640 5200 l0 -500 250 0 c231 0 250 1 251 18 0 9 4 43 8 74 l7 58
-170 2 -171 3 -3 423 -2 422 -85 0 -85 0 0 -500z"/>
<path d="M6040 5687 c0 -7 56 -150 125 -317 l125 -303 0 -184 0 -183 90 0 90
0 0 185 0 186 125 304 c69 167 125 308 125 314 0 7 -33 11 -89 11 l-89 0 -30
-82 c-16 -46 -51 -147 -77 -226 -26 -79 -48 -142 -50 -140 -1 2 -24 66 -50
143 -26 77 -61 177 -77 223 l-30 82 -94 0 c-70 0 -94 -3 -94 -13z"/>
<path d="M6774 5686 c-3 -7 -4 -42 -2 -77 l3 -64 108 -3 107 -3 0 -419 0 -420
90 0 90 0 0 420 0 420 105 0 105 0 0 80 0 80 -300 0 c-244 0 -302 -3 -306 -14z"/>
<path d="M7480 5200 l0 -500 90 0 90 0 -2 498 -3 497 -87 3 -88 3 0 -501z"/>
<path d="M2995 5649 c-88 -21 -170 -41 -182 -44 -20 -5 -23 -12 -23 -50 0 -38
3 -45 23 -50 12 -3 99 -23 192 -45 94 -22 173 -40 178 -40 4 0 7 15 7 34 0 31
-3 35 -32 41 -68 13 -68 14 -68 60 0 41 2 44 33 50 65 13 67 15 67 51 0 42 8
42 -195 -7z m33 -124 c-2 -2 -21 0 -43 5 -22 4 -58 11 -80 16 -40 7 -40 7 40
23 l80 17 3 -29 c2 -16 2 -30 0 -32z"/>
<path d="M9455 5436 l-180 -43 -3 -44 -3 -45 183 -42 c101 -23 187 -42 191
-42 5 0 7 15 5 32 -3 31 -6 34 -50 42 l-48 8 0 44 c0 38 3 44 25 49 14 3 36 7
50 10 21 5 25 11 25 40 0 19 -3 35 -7 34 -5 0 -89 -20 -188 -43z m31 -113 c-2
-3 -37 1 -75 8 -39 7 -70 14 -68 16 2 2 35 9 73 16 l69 12 3 -23 c2 -13 1 -26
-2 -29z"/>
<path d="M2792 5323 l3 -118 33 -3 c32 -3 32 -3 32 42 l0 46 165 0 165 0 0 35
0 35 -165 0 -165 0 0 40 c0 39 -1 40 -35 40 l-36 0 3 -117z"/>
<path d="M2990 5182 l-195 -47 -3 -39 c-2 -21 0 -42 5 -47 4 -4 87 -26 183
-49 96 -22 183 -43 193 -46 14 -4 17 1 17 30 0 32 -3 36 -37 45 -21 6 -44 11
-51 11 -9 0 -12 14 -10 47 l3 48 48 9 c47 8 47 9 47 47 0 21 -1 39 -2 38 -2 0
-91 -22 -198 -47z m40 -92 c0 -35 -4 -35 -100 -16 l-65 12 60 13 c33 7 65 14
70 16 26 9 35 3 35 -25z"/>
<path d="M9590 5126 l0 -66 -160 0 -160 0 0 -30 0 -30 190 0 191 0 -3 93 -3
92 -27 3 -28 3 0 -65z"/>
<path d="M9910 5132 c-24 -12 -43 -33 -60 -67 -21 -43 -24 -62 -23 -151 0 -88
4 -108 24 -146 33 -58 88 -80 151 -58 46 16 88 67 88 106 0 21 -5 24 -35 24
-25 0 -37 -5 -41 -17 -11 -37 -22 -48 -47 -51 -45 -6 -59 32 -59 153 0 80 4
112 16 130 26 40 86 28 86 -17 0 -14 8 -18 40 -18 45 0 49 9 26 64 -14 35 -65
66 -108 66 -12 0 -39 -8 -58 -18z"/>
<path d="M10483 5143 c-38 -8 -80 -67 -93 -130 -15 -71 -6 -181 19 -238 29
-65 96 -90 164 -61 65 27 88 82 88 209 1 103 -13 155 -48 189 -28 27 -86 41
-130 31z m86 -97 c18 -39 18 -204 -1 -243 -19 -40 -61 -43 -85 -7 -14 23 -18
48 -18 129 0 81 4 106 18 129 24 37 66 33 86 -8z"/>
<path d="M10140 4925 l0 -215 109 0 c108 0 109 0 115 25 4 14 4 30 1 35 -4 6
-37 10 -76 10 l-69 0 0 180 0 180 -40 0 -40 0 0 -215z"/>
<path d="M10722 4961 c3 -164 5 -182 24 -208 45 -61 146 -68 207 -13 l32 28 3
186 3 186 -40 0 -41 0 0 -166 c0 -95 -4 -174 -10 -185 -15 -27 -64 -25 -84 3
-13 18 -16 54 -16 185 l0 163 -41 0 -41 0 4 -179z"/>
<path d="M11060 4925 l0 -217 84 3 c94 4 126 20 160 78 27 47 32 190 9 255
-27 74 -56 90 -164 94 l-89 4 0 -217z m155 132 c22 -18 27 -34 32 -84 11 -124
-20 -203 -82 -203 l-25 0 0 155 0 155 24 0 c14 0 37 -10 51 -23z"/>
<path d="M2138 5113 c-46 -29 -63 -84 -63 -203 0 -110 10 -145 54 -184 24 -22
85 -25 120 -7 40 22 61 85 61 191 0 117 -12 161 -51 194 -36 30 -81 33 -121 9z
m95 -41 c39 -42 45 -228 11 -294 -29 -57 -94 -40 -113 29 -14 49 -14 184 0
220 23 61 69 82 102 45z"/>
<path d="M602 4918 l3 -203 64 -3 c35 -2 77 2 93 9 66 27 83 144 28 194 -19
17 -19 18 0 43 33 41 23 117 -19 149 -9 7 -48 12 -94 13 l-77 0 2 -202z m151
140 c40 -48 6 -108 -63 -108 l-40 0 0 63 c0 35 3 67 7 71 13 13 77 -4 96 -26z
m1 -164 c21 -20 30 -58 22 -88 -10 -40 -33 -56 -82 -56 l-44 0 0 80 0 80 44 0
c27 0 51 -6 60 -16z"/>
<path d="M880 4915 l0 -205 100 0 c93 0 100 1 100 20 0 18 -7 20 -75 20 l-75
0 0 80 0 80 70 0 c63 0 70 2 70 20 0 18 -7 20 -70 20 l-70 0 0 65 0 65 70 0
c63 0 70 2 70 20 0 19 -7 20 -95 20 l-95 0 0 -205z"/>
<path d="M1130 4915 l0 -205 25 0 25 0 0 100 0 100 65 0 65 0 0 -100 0 -100
25 0 25 0 0 205 0 205 -25 0 c-25 0 -25 -1 -25 -85 l0 -85 -65 0 -65 0 0 85
c0 84 0 85 -25 85 l-25 0 0 -205z"/>
<path d="M1457 4928 c-26 -106 -47 -199 -47 -205 0 -26 38 -13 44 15 27 109
21 102 80 102 l53 0 14 -62 c12 -52 18 -64 37 -66 12 -2 22 0 22 5 0 4 -21 97
-47 205 l-48 198 -31 0 -30 0 -47 -192z m113 -25 c0 -20 -5 -23 -40 -23 -22 0
-40 3 -40 8 0 6 22 105 36 162 5 20 10 10 25 -50 10 -41 18 -85 19 -97z"/>
<path d="M1653 5108 c2 -7 26 -100 52 -205 47 -192 47 -193 74 -193 28 0 28 1
79 199 29 109 52 202 52 205 0 4 -10 6 -22 4 -20 -3 -26 -20 -63 -170 -36
-153 -55 -202 -55 -147 0 11 -13 77 -30 147 -16 70 -32 137 -35 150 -4 16 -13
22 -31 22 -17 0 -24 -4 -21 -12z"/>
<path d="M1960 4915 c0 -198 1 -205 20 -205 19 0 20 7 20 205 0 198 -1 205
-20 205 -19 0 -20 -7 -20 -205z"/>
<path d="M2380 4915 l0 -205 25 0 c25 0 25 0 25 95 l0 95 38 0 c54 0 72 -23
72 -91 0 -74 8 -99 32 -99 19 0 20 6 17 84 -3 64 -8 89 -23 104 -18 21 -18 22
3 48 32 40 29 113 -5 148 -24 24 -34 26 -105 26 l-79 0 0 -205z m157 139 c19
-30 10 -90 -17 -104 -10 -5 -35 -10 -54 -10 l-36 0 0 73 0 72 45 -3 c35 -3 50
-10 62 -28z"/>
<path d="M9341 4927 c-46 -16 -76 -58 -76 -107 0 -49 30 -91 76 -107 56 -19
197 -16 246 6 49 23 63 45 63 101 0 56 -14 78 -63 101 -49 22 -190 25 -246 6z
m222 -66 c26 -10 39 -33 31 -55 -9 -25 -54 -36 -142 -36 -94 0 -132 14 -132
50 0 36 38 50 132 50 47 0 98 -4 111 -9z"/>
<path d="M2885 4916 c-72 -27 -102 -87 -93 -191 l3 -40 199 -3 198 -2 -3 84
c-4 91 -16 113 -73 143 -43 22 -181 27 -231 9z m223 -82 c15 -10 22 -24 22
-44 l0 -30 -140 0 c-131 0 -140 1 -140 19 0 29 32 62 70 71 47 12 159 2 188
-16z"/>
<path d="M1163 4499 c-60 -17 -105 -100 -89 -163 10 -41 56 -86 120 -118 82
-41 106 -64 106 -103 0 -40 -27 -65 -68 -65 -35 0 -59 20 -68 56 -5 21 -12 24
-55 24 -43 0 -49 -3 -49 -21 0 -37 31 -88 68 -111 49 -30 153 -31 202 -2 45
26 72 73 72 128 0 80 -36 123 -146 171 -63 28 -91 62 -82 100 14 55 95 52 114
-4 10 -29 15 -31 56 -31 43 0 46 2 46 25 0 91 -112 147 -227 114z"/>
<path d="M4230 4488 c-34 -18 -51 -35 -70 -73 -23 -45 -25 -61 -25 -175 0
-111 3 -130 23 -172 37 -76 117 -111 200 -89 99 27 136 101 136 272 0 95 -3
112 -28 162 -21 44 -36 60 -70 76 -55 27 -111 27 -166 -1z m128 -79 c26 -27
32 -62 32 -178 0 -111 -17 -160 -63 -175 -23 -9 -31 -6 -53 15 -49 50 -58 255
-14 327 24 39 68 44 98 11z"/>
<path d="M7705 4491 c-48 -22 -69 -44 -90 -94 -33 -79 -7 -182 56 -229 19 -14
62 -40 95 -57 89 -47 117 -80 117 -136 0 -72 -52 -110 -115 -84 -29 12 -58 54
-58 84 0 12 -13 15 -65 15 l-66 0 7 -37 c22 -125 135 -192 273 -162 60 13 117
56 137 106 8 18 14 60 14 93 0 33 -6 75 -14 93 -17 43 -73 90 -149 128 -90 45
-117 73 -117 124 0 50 23 75 66 75 41 0 64 -19 73 -60 7 -35 7 -35 69 -38 69
-3 71 -1 51 71 -14 52 -60 101 -107 115 -57 17 -131 14 -177 -7z"/>
<path d="M8225 4496 c-109 -48 -165 -233 -136 -454 16 -127 56 -203 126 -240
40 -21 150 -21 191 1 48 25 92 82 111 145 26 83 26 325 0 402 -25 72 -60 118
-111 141 -48 22 -137 24 -181 5z m133 -109 c40 -32 47 -68 47 -232 0 -172 -10
-223 -48 -250 -49 -34 -101 -8 -126 65 -32 92 -22 341 15 398 26 40 76 48 112
19z"/>
<path d="M9820 4494 c-111 -48 -158 -198 -139 -444 15 -188 78 -265 219 -264
38 1 78 7 95 17 55 28 97 89 110 160 l7 37 -66 0 c-60 0 -66 -2 -66 -20 0 -29
-26 -76 -45 -84 -32 -12 -62 -6 -83 17 -34 37 -44 102 -40 264 4 164 14 198
62 218 55 23 97 -8 108 -79 3 -18 10 -20 63 -17 33 1 62 4 64 6 2 2 -2 27 -9
56 -14 59 -59 115 -107 135 -43 18 -129 17 -173 -2z"/>
<path d="M10745 4491 c-22 -10 -50 -29 -63 -43 -44 -49 -55 -144 -23 -214 21
-46 54 -73 153 -128 84 -46 108 -75 108 -131 0 -61 -26 -90 -80 -90 -47 0 -77
27 -87 77 -5 27 -7 28 -70 28 l-65 0 7 -37 c20 -110 91 -166 209 -167 85 0
140 24 183 80 23 31 28 49 31 109 6 117 -32 172 -170 241 -92 46 -108 64 -108
117 0 52 22 77 68 77 37 0 64 -26 72 -68 5 -26 8 -27 68 -30 59 -3 62 -2 62
20 -1 33 -25 96 -47 120 -49 56 -171 75 -248 39z"/>
<path d="M440 4493 c1 -5 32 -120 69 -258 l68 -250 53 -3 c29 -2 57 1 62 6 5
5 40 121 77 258 l68 249 -49 3 c-28 2 -52 2 -53 0 -2 -2 -22 -87 -45 -188 -23
-102 -44 -192 -47 -200 -3 -8 -12 16 -19 55 -8 38 -28 130 -45 202 l-31 133
-54 0 c-30 0 -54 -3 -54 -7z"/>
<path d="M890 4240 l0 -260 50 0 50 0 0 260 0 260 -50 0 -50 0 0 -260z"/>
<path d="M1470 4298 c0 -178 3 -208 19 -245 22 -47 38 -58 106 -73 101 -23
192 20 215 101 6 18 10 121 10 226 l0 193 -49 0 -50 0 -3 -206 c-3 -202 -3
-206 -27 -225 -13 -10 -33 -19 -46 -19 -13 0 -33 9 -46 19 -24 19 -24 23 -27
225 l-3 206 -50 0 -49 0 0 -202z"/>
<path d="M1981 4463 c-5 -21 -33 -130 -61 -243 -28 -113 -54 -213 -56 -222 -5
-16 2 -18 45 -18 47 0 51 2 57 28 3 15 10 44 15 65 l10 37 64 0 c62 0 65 -1
71 -27 24 -109 20 -103 74 -103 33 0 50 4 50 13 0 6 -29 122 -63 257 l-63 245
-67 3 -66 3 -10 -38z m114 -235 l7 -38 -46 0 c-25 0 -46 3 -46 8 0 4 10 54 22
112 l22 105 18 -75 c9 -41 20 -92 23 -112z"/>
<path d="M2302 4243 l3 -258 143 -3 c130 -2 142 -1 142 15 0 10 3 28 6 41 6
22 5 22 -90 22 l-96 0 0 220 0 220 -55 0 -55 0 2 -257z"/>
<path d="M2650 4240 l0 -260 50 0 50 0 0 260 0 260 -50 0 -50 0 0 -260z"/>
<path d="M2830 4460 l0 -40 100 0 c55 0 100 -2 100 -5 0 -2 -50 -88 -111 -190
-81 -137 -109 -193 -107 -213 l3 -27 165 0 165 0 6 38 6 37 -109 0 c-59 0
-108 3 -108 8 0 4 47 88 105 187 75 128 105 189 105 212 l0 33 -160 0 -160 0
0 -40z"/>
<path d="M3311 4463 c-49 -189 -121 -471 -121 -477 0 -3 22 -6 49 -6 l50 0 13
63 14 62 67 3 c74 3 67 10 85 -83 l8 -40 52 -3 c38 -2 52 1 52 10 -1 7 -29
123 -64 258 l-63 245 -66 3 -66 3 -10 -38z m114 -240 l6 -33 -46 0 c-25 0 -45
3 -45 8 0 4 10 54 22 111 l22 104 17 -79 c10 -43 20 -93 24 -111z"/>
<path d="M3550 4460 l0 -40 60 0 60 0 0 -220 0 -220 50 0 50 0 0 220 0 220 60
0 60 0 0 40 0 40 -170 0 -170 0 0 -40z"/>
<path d="M3950 4239 l0 -260 48 3 47 3 3 258 2 257 -50 0 -50 0 0 -261z"/>
<path d="M4580 4240 l0 -261 43 3 42 3 0 182 c0 100 2 180 3 178 2 -2 36 -84
75 -182 l72 -178 53 0 c28 0 52 3 52 8 0 4 0 120 0 257 l0 250 -46 0 -46 0 4
-176 c2 -96 0 -167 -4 -157 -5 10 -37 88 -71 173 l-64 155 -56 3 -57 3 0 -261z"/>
<path d="M6640 4150 l0 -350 60 0 59 0 3 148 3 147 53 0 c85 -1 95 -18 103
-168 4 -67 7 -123 8 -124 0 -2 28 -3 61 -3 l60 0 -5 113 c-8 155 -12 171 -44
206 l-28 30 28 27 c40 39 52 75 47 152 -4 81 -31 125 -92 153 -34 15 -66 19
-178 19 l-138 0 0 -350z m243 239 c54 -25 64 -114 18 -160 -26 -25 -37 -29
-85 -29 l-56 0 0 100 0 100 50 0 c27 0 60 -5 73 -11z"/>
<path d="M7150 4150 l0 -350 185 0 185 0 0 28 c0 15 3 37 6 49 6 22 5 22 -121
25 l-127 3 0 100 0 100 111 3 111 3 0 54 0 55 -110 0 -110 0 0 85 0 85 115 0
115 0 0 55 0 55 -180 0 -180 0 0 -350z"/>
<path d="M8632 4218 c3 -279 3 -284 28 -333 36 -71 88 -99 190 -99 97 0 153
28 190 94 25 45 25 47 28 333 l3 287 -65 0 -66 0 0 -270 c0 -325 -4 -340 -90
-340 -16 0 -41 11 -57 24 l-28 24 -3 281 -3 281 -65 0 -65 0 3 -282z"/>
<path d="M9180 4150 l0 -350 65 0 65 0 0 150 0 150 34 0 c50 0 92 -18 105 -46
6 -14 11 -56 11 -93 0 -38 3 -89 6 -115 l7 -46 61 0 61 0 -6 127 c-6 133 -19
181 -58 205 -18 11 -17 13 14 42 51 49 68 133 41 209 -34 94 -85 116 -268 117
l-138 0 0 -350z m271 221 c13 -15 19 -39 19 -71 0 -71 -22 -92 -99 -98 l-61
-4 0 102 0 102 61 -4 c49 -4 66 -9 80 -27z"/>
<path d="M10190 4150 l0 -350 179 0 c99 0 182 3 184 8 3 4 7 26 8 50 l4 44
-125 1 -125 2 -3 103 -3 102 116 0 115 0 0 55 0 55 -115 0 -115 0 0 85 0 85
120 0 120 0 0 55 0 55 -180 0 -180 0 0 -350z"/>
<path d="M5510 4403 l0 -88 -65 3 -64 4 -3 76 -3 77 -35 0 -35 0 -1 -79 -2
-79 -53 0 -54 0 -3 82 -3 81 -34 0 -35 0 0 -125 0 -125 230 0 230 0 0 120 c0
66 1 123 3 128 1 4 -15 8 -35 10 l-38 3 0 -88z"/>
<path d="M5760 4399 l0 -71 205 4 206 3 -133 -42 c-73 -23 -166 -52 -205 -64
l-73 -22 0 -83 0 -84 335 0 335 0 0 65 0 65 -212 1 -213 0 125 38 c69 21 164
51 213 65 l87 27 0 85 0 84 -335 0 -335 0 0 -71z"/>
<path d="M5120 4024 l0 -155 33 3 c31 3 32 4 35 56 l3 52 193 0 c106 0 195 2
197 4 3 3 3 23 1 45 l-4 41 -194 0 -194 0 0 55 0 55 -35 0 -35 0 0 -156z"/>
<path d="M5920 3934 c-122 -33 -175 -104 -168 -223 5 -89 36 -139 110 -175
101 -49 351 -52 456 -6 92 41 122 89 122 197 0 106 -49 173 -149 204 -60 19
-307 21 -371 3z m373 -167 c36 -23 36 -61 0 -84 -23 -15 -54 -18 -188 -21
-138 -2 -165 0 -195 15 -38 19 -50 53 -30 79 22 26 74 33 230 31 130 -2 160
-5 183 -20z"/>
<path d="M5120 3785 l0 -45 233 0 232 0 -1 42 -1 43 -232 3 -231 2 0 -45z"/>
<path d="M1627 3793 c-4 -3 -7 -111 -7 -240 l0 -233 25 0 25 0 0 240 c0 226
-1 240 -18 240 -10 0 -22 -3 -25 -7z"/>
<path d="M1770 3559 l0 -240 23 3 22 3 -3 195 c-1 119 1 189 7 180 4 -8 41
-97 81 -197 70 -179 72 -183 101 -183 l29 0 -2 238 c-3 229 -4 237 -23 237
-19 0 -20 -7 -20 -187 0 -103 -3 -184 -6 -180 -3 4 -39 89 -79 190 -70 177
-73 182 -101 182 l-29 0 0 -241z"/>
<path d="M2080 3775 c0 -23 3 -25 50 -25 l50 0 2 -212 c3 -212 3 -213 26 -216
l22 -3 0 215 0 216 56 0 c52 0 55 1 52 23 -3 21 -7 22 -130 25 l-128 3 0 -26z"/>
<path d="M2397 3794 c-4 -4 -7 -112 -7 -241 l0 -234 108 3 c102 3 107 4 110
26 3 21 1 22 -82 22 l-86 0 0 90 0 90 80 0 c79 0 80 0 80 25 0 25 -1 25 -80
25 l-80 0 0 75 0 75 86 0 c83 0 85 1 82 23 -3 21 -8 22 -104 25 -55 1 -103 0
-107 -4z"/>
<path d="M2675 3788 c-3 -7 -4 -115 -3 -238 l3 -225 105 0 c101 0 105 1 108
23 3 21 1 22 -77 22 l-81 0 -2 213 c-3 211 -3 212 -26 215 -12 2 -24 -3 -27
-10z"/>
<path d="M2944 3787 c-2 -7 -3 -114 -2 -237 l3 -225 105 0 c101 0 105 1 108
22 3 21 -1 22 -80 25 l-83 3 -3 213 c-2 205 -3 212 -23 212 -11 0 -22 -6 -25
-13z"/>
<path d="M3214 3787 c-2 -7 -3 -114 -2 -237 3 -225 3 -225 26 -228 l22 -3 0
240 c0 236 0 241 -20 241 -11 0 -23 -6 -26 -13z"/>
<path d="M3418 3785 c-14 -8 -37 -36 -50 -62 -20 -42 -23 -63 -23 -163 0 -127
11 -174 52 -214 34 -34 105 -37 139 -5 l22 21 7 -22 c4 -13 13 -20 23 -18 15
3 17 21 20 131 l3 127 -71 0 c-63 0 -70 -2 -70 -19 0 -16 8 -20 43 -23 l42 -3
-3 -60 c-4 -68 -21 -102 -56 -111 -33 -8 -65 12 -81 49 -32 79 -26 255 11 312
32 49 108 37 122 -19 8 -31 36 -46 54 -28 16 16 -21 91 -53 107 -35 19 -96 19
-131 0z"/>
<path d="M3695 3788 c-3 -8 -4 -115 -3 -238 l3 -225 108 -3 c63 -2 107 1 107
7 0 5 3 16 6 25 5 14 -6 16 -85 16 l-91 0 0 90 0 90 80 0 c79 0 80 0 80 25 0
25 -1 25 -80 25 l-80 0 0 75 0 75 86 0 c83 0 85 1 82 23 -3 21 -8 22 -106 25
-77 2 -104 -1 -107 -10z"/>
<path d="M3980 3559 l0 -240 23 3 22 3 -2 193 c-1 105 0 192 1 192 2 0 38 -88
81 -195 75 -191 77 -195 106 -195 l29 0 0 241 0 240 -22 -3 c-23 -3 -23 -4
-23 -190 0 -103 -3 -184 -6 -180 -3 4 -14 27 -23 52 -9 25 -42 107 -73 183
-53 131 -57 137 -84 137 l-29 0 0 -241z"/>
<path d="M4375 3767 c-43 -43 -55 -90 -55 -212 0 -119 12 -169 50 -207 24 -23
37 -28 78 -28 58 0 97 25 118 76 20 47 18 56 -13 52 -19 -2 -29 -10 -33 -27
-3 -13 -18 -34 -33 -45 -26 -19 -30 -19 -55 -5 -39 22 -55 63 -60 158 -5 96
10 181 38 206 38 35 105 12 112 -39 2 -15 11 -22 31 -24 31 -4 33 3 11 58 -19
48 -55 70 -115 70 -33 0 -47 -6 -74 -33z"/>
<path d="M4650 3560 l0 -241 108 3 c102 3 107 4 110 26 3 21 1 22 -82 22 l-86
0 0 90 0 89 78 3 c69 3 77 5 77 23 0 18 -8 20 -77 23 l-78 3 0 74 0 75 80 0
c79 0 80 0 80 25 l0 25 -105 0 -105 0 0 -240z"/>
<path d="M5370 3643 c-17 -16 -45 -57 -64 -93 -23 -46 -41 -68 -60 -75 -38
-13 -61 4 -61 46 0 27 6 36 28 47 23 11 27 19 27 53 0 33 -3 39 -20 39 -120 0
-151 -206 -40 -263 74 -38 147 -3 191 92 30 66 56 91 96 91 24 0 37 -7 50 -26
15 -24 15 -29 2 -53 -8 -14 -27 -32 -42 -39 -23 -11 -27 -20 -27 -53 0 -33 3
-39 20 -39 67 0 120 66 120 148 0 102 -46 152 -139 152 -41 0 -56 -5 -81 -27z"/>
<path d="M7005 3604 c-47 -24 -59 -39 -105 -124 -51 -95 -58 -102 -105 -102
-46 0 -65 17 -65 58 0 35 28 64 62 64 15 0 18 9 18 55 0 50 -2 55 -22 55 -12
0 -41 -9 -64 -21 -77 -37 -106 -144 -64 -236 26 -59 69 -83 145 -83 82 0 118
26 170 119 53 97 78 121 126 121 47 0 79 -28 79 -68 0 -38 -24 -69 -60 -77
-29 -6 -30 -9 -30 -61 0 -59 2 -60 60 -44 140 39 161 277 30 342 -44 22 -135
23 -175 2z"/>
<path d="M7773 3595 c-57 -25 -81 -111 -48 -175 9 -18 42 -45 83 -69 86 -50
97 -64 97 -116 0 -55 -26 -85 -72 -85 -39 0 -83 37 -83 70 0 16 -6 20 -30 20
-28 0 -30 -2 -24 -27 15 -61 39 -88 94 -103 51 -14 108 1 140 35 18 19 25 40
28 83 5 75 -20 112 -108 161 -75 42 -97 76 -83 125 17 61 102 62 124 1 10 -27
19 -35 37 -35 23 0 24 3 19 36 -7 44 -23 63 -64 81 -40 16 -69 16 -110 -2z"/>
<path d="M10071 3592 c-76 -41 -108 -185 -80 -350 20 -111 89 -163 172 -128
21 8 37 20 37 25 0 6 5 11 10 11 6 0 10 -9 10 -20 0 -13 7 -20 20 -20 19 0 20
7 20 135 l0 135 -70 0 c-68 0 -70 -1 -70 -25 0 -23 4 -25 46 -25 l47 0 -7 -62
c-7 -76 -31 -112 -74 -116 -38 -4 -67 22 -81 75 -13 46 -14 193 -2 246 23 99
122 120 151 32 9 -27 17 -35 36 -35 15 0 24 6 24 15 0 26 -26 79 -48 99 -31
27 -99 31 -141 8z"/>
<path d="M7420 3355 l0 -245 115 0 115 0 0 25 c0 25 -1 25 -90 25 l-90 0 0 95
0 95 80 0 c73 0 80 2 80 20 0 18 -7 20 -80 20 l-80 0 0 80 0 80 85 0 c84 0 85
0 85 25 l0 25 -110 0 -110 0 0 -245z"/>
<path d="M7990 3575 c0 -24 3 -25 55 -25 l55 0 0 -220 0 -220 25 0 25 0 0 220
0 220 55 0 c52 0 55 1 55 25 l0 25 -135 0 -135 0 0 -25z"/>
<path d="M8320 3355 l0 -245 25 0 25 0 0 245 0 245 -25 0 -25 0 0 -245z"/>
<path d="M8470 3355 l0 -245 26 0 26 0 -4 214 c-1 118 -2 213 0 211 2 -2 14
-56 28 -122 13 -65 33 -160 45 -211 20 -91 22 -93 47 -90 26 3 28 7 72 201 24
108 47 197 50 197 3 0 4 -90 2 -201 l-3 -200 28 3 c15 2 27 6 26 11 -2 4 -3
113 -3 242 l0 235 -38 0 -38 0 -43 -182 c-49 -211 -52 -221 -58 -193 -10 47
-73 332 -79 353 -5 18 -13 22 -45 22 l-39 0 0 -245z"/>
<path d="M8981 3563 c-6 -21 -31 -123 -56 -228 -25 -104 -48 -198 -51 -207 -4
-14 1 -18 23 -18 27 0 29 3 46 80 l18 81 62 -3 62 -3 20 -77 c18 -74 21 -78
47 -78 15 0 28 2 28 5 0 5 -90 367 -111 448 -9 34 -13 37 -44 37 -31 0 -35 -3
-44 -37z m89 -230 c0 -21 -5 -23 -44 -23 -25 0 -47 3 -49 8 -2 4 4 45 15 92
10 47 21 96 25 110 4 19 11 1 29 -70 13 -52 23 -105 24 -117z"/>
<path d="M9150 3575 c0 -24 3 -25 55 -25 l55 0 0 -220 0 -220 25 0 25 0 0 220
0 220 55 0 c52 0 55 1 55 25 l0 25 -135 0 -135 0 0 -25z"/>
<path d="M9480 3355 l0 -245 25 0 25 0 0 245 0 245 -25 0 -25 0 0 -245z"/>
<path d="M9630 3355 l0 -245 25 0 25 0 2 196 3 197 76 -194 c75 -192 76 -194
107 -197 l32 -3 0 245 0 246 -26 0 -25 0 3 -195 c2 -107 0 -191 -3 -187 -3 4
-38 91 -79 195 l-73 187 -34 0 -33 0 0 -245z"/>
<path d="M5760 3335 l0 -75 335 0 335 0 0 75 0 75 -335 0 -335 0 0 -75z"/>
<path d="M5370 3240 l0 -80 35 0 35 0 0 80 0 80 -35 0 -35 0 0 -80z"/>
<path d="M5760 2990 l0 -210 65 0 65 0 0 65 0 65 270 0 270 0 0 80 0 80 -270
0 -270 0 0 65 0 65 -65 0 -65 0 0 -210z"/>
<path d="M7026 3185 c-51 -18 -87 -54 -122 -122 -41 -82 -70 -113 -106 -113
-50 0 -68 16 -68 61 0 38 3 42 40 56 39 16 40 17 40 65 0 45 -2 48 -25 48 -42
0 -91 -26 -116 -61 -33 -46 -35 -163 -3 -205 32 -44 68 -66 117 -71 91 -11
148 30 207 148 36 70 79 103 124 94 89 -16 87 -123 -1 -150 -20 -5 -23 -13
-23 -60 l0 -53 43 9 c77 17 122 67 133 150 13 92 -38 184 -114 207 -50 15 -77
15 -126 -3z"/>
<path d="M2520 3118 c-46 -13 -78 -43 -92 -90 -23 -78 26 -155 115 -179 62
-17 254 -8 294 14 115 61 82 241 -47 259 -22 3 -25 -1 -28 -34 -3 -34 0 -38
31 -52 42 -17 51 -30 43 -60 -9 -36 -58 -51 -166 -51 -113 0 -145 7 -166 39
-20 32 -4 64 37 73 26 5 29 9 29 44 0 45 -5 49 -50 37z"/>
<path d="M3080 2915 l0 -205 40 0 39 0 3 158 3 157 20 -155 20 -155 38 -3 c24
-2 39 1 42 10 2 7 13 72 24 143 l19 130 1 -142 1 -143 45 0 45 0 0 205 0 205
-64 0 -65 0 -10 -52 c-6 -29 -13 -75 -17 -103 -11 -83 -17 -75 -34 40 l-15
110 -67 3 -68 3 0 -206z"/>
<path d="M3535 3098 c-16 -77 -75 -371 -75 -379 0 -6 21 -9 47 -7 39 2 48 7
51 23 9 64 11 66 50 63 34 -3 37 -6 45 -45 l8 -43 50 0 c43 0 50 2 45 18 -3 9
-22 101 -42 205 l-38 187 -68 0 c-62 0 -68 -2 -73 -22z m90 -167 c7 -50 7 -51
-20 -51 -23 0 -26 3 -22 23 3 12 9 47 13 77 6 47 8 51 15 28 4 -15 10 -50 14
-77z"/>
<path d="M3790 2916 l0 -206 50 0 50 0 0 85 c0 75 2 85 18 85 29 0 42 -21 42
-66 0 -23 3 -56 6 -73 6 -29 9 -31 51 -31 l45 0 -3 84 c-3 61 -9 89 -21 102
-15 18 -15 20 3 43 29 35 26 112 -5 148 -23 27 -28 28 -130 31 l-106 4 0 -206z
m164 112 c17 -28 -4 -72 -37 -76 -26 -3 -27 -2 -27 48 0 50 1 51 26 48 15 -2
32 -11 38 -20z"/>
<path d="M4102 2918 l3 -203 48 -3 47 -3 0 69 c0 49 4 73 15 82 12 10 16 10
20 -1 2 -8 15 -43 27 -79 l23 -65 53 -3 c28 -2 52 -2 52 0 0 2 -20 55 -45 118
-25 63 -45 121 -45 129 0 7 20 47 45 87 l45 74 -55 0 -55 0 -39 -77 -40 -78
-1 78 0 77 -50 0 -50 0 2 -202z"/>
<path d="M4420 2915 l0 -206 113 3 112 3 3 38 3 37 -71 0 -71 0 3 48 3 47 63
3 62 3 0 34 0 35 -65 0 -65 0 0 40 0 40 65 0 65 0 0 40 0 40 -110 0 -110 0 0
-205z"/>
<path d="M4679 3115 c0 -3 -1 -20 -2 -37 -1 -32 1 -33 41 -36 l42 -3 0 -165 0
-164 45 0 45 0 0 164 0 165 43 3 c41 3 42 4 45 41 l3 37 -130 0 c-72 0 -131
-2 -132 -5z"/>
<path d="M5120 3059 l0 -41 154 3 c85 2 152 1 149 -3 -2 -5 -10 -8 -16 -8 -7
0 -73 -25 -147 -54 l-135 -53 -3 -52 -3 -51 233 0 233 0 -1 37 -1 38 -161 0
c-88 0 -158 2 -156 5 3 3 75 32 161 65 l156 61 1 47 1 47 -232 0 -233 0 0 -41z"/>
<path d="M7459 2935 c-47 -26 -64 -77 -64 -195 0 -129 17 -166 83 -190 37 -13
47 -13 84 0 45 16 75 50 80 90 3 22 -1 25 -30 28 -28 3 -34 0 -43 -27 -17 -50
-66 -53 -88 -5 -15 34 -14 193 2 224 22 43 87 35 87 -11 0 -15 8 -19 40 -19
39 0 40 1 34 28 -11 44 -23 61 -54 77 -36 19 -97 19 -131 0z"/>
<path d="M7741 2925 c-16 -14 -35 -42 -43 -63 -17 -51 -15 -198 5 -244 27 -65
102 -93 169 -65 53 22 71 63 76 175 7 153 -33 222 -129 222 -36 0 -55 -6 -78
-25z m113 -57 c34 -55 31 -213 -6 -250 -46 -46 -88 15 -88 130 0 92 19 142 54
142 16 0 31 -9 40 -22z"/>
<path d="M8017 2944 c-4 -4 -7 -94 -7 -201 l0 -193 35 0 35 0 1 153 1 152 27
-150 26 -150 35 0 35 0 23 125 c36 200 40 202 41 28 l1 -158 35 0 35 0 -2 198
-3 197 -51 3 c-35 2 -53 -1 -56 -10 -3 -7 -16 -68 -28 -135 -13 -67 -25 -121
-27 -119 -2 2 -14 61 -26 132 l-23 129 -50 3 c-27 2 -53 0 -57 -4z"/>
<path d="M8410 2750 l0 -200 35 0 35 0 0 79 0 79 57 4 c48 4 61 10 85 37 23
25 28 41 28 80 0 87 -49 121 -177 121 l-63 0 0 -200z m154 118 c35 -49 10 -98
-50 -98 l-34 0 0 60 0 60 34 0 c25 0 39 -7 50 -22z"/>
<path d="M8707 2944 c-4 -4 -7 -94 -7 -201 l0 -193 105 0 c84 0 105 3 105 14
0 8 3 21 6 30 5 14 -4 16 -65 16 l-71 0 -2 168 -3 167 -30 3 c-17 2 -34 0 -38
-4z"/>
<path d="M8959 2946 c-2 -2 -3 -92 -1 -200 l3 -196 104 0 c84 0 105 3 105 14
0 8 3 21 6 30 5 14 -5 16 -70 16 l-76 0 0 60 0 60 65 0 65 0 0 30 0 30 -65 0
-65 0 0 45 0 44 68 3 67 3 0 30 0 30 -101 3 c-55 1 -102 1 -105 -2z"/>
<path d="M9210 2946 c0 -3 21 -48 46 -99 l47 -94 -47 -98 c-25 -54 -46 -99
-46 -101 0 -2 16 -4 35 -4 34 0 37 2 68 72 l33 72 29 -72 30 -72 42 0 42 0
-34 75 c-19 41 -41 89 -50 105 -15 29 -14 33 30 120 25 49 45 92 45 95 0 3
-16 5 -35 5 -34 0 -37 -3 -66 -67 l-31 -68 -27 65 c-27 64 -28 65 -69 68 -23
2 -42 1 -42 -2z"/>
<path d="M7160 2670 l0 -110 -85 0 -84 0 -3 98 -3 97 -45 0 -45 0 -3 -97 -3
-98 -74 0 -75 0 0 106 0 105 -42 -3 -43 -3 -3 -158 -3 -157 303 2 303 3 3 153
c2 117 0 153 -10 156 -7 3 -30 7 -50 11 l-38 6 0 -111z"/>
<path d="M2432 2728 l3 -43 233 -3 232 -2 0 45 0 45 -236 0 -235 0 3 -42z"/>
<path d="M5854 2716 c-74 -34 -99 -79 -99 -176 0 -170 89 -230 346 -232 248
-1 339 57 339 217 0 36 -6 80 -14 98 -26 62 -111 117 -183 117 -22 0 -23 -4
-23 -74 l0 -74 39 -7 c48 -8 64 -24 59 -62 -5 -42 -47 -52 -221 -52 -195 -1
-248 20 -219 84 8 18 22 26 52 31 l40 7 0 73 0 74 -32 0 c-18 0 -56 -11 -84
-24z"/>
<path d="M5258 2720 c-125 -22 -182 -124 -128 -229 32 -63 90 -86 220 -86 86
1 114 5 152 22 61 28 88 71 88 138 0 102 -64 152 -207 160 -43 2 -99 0 -125
-5z m199 -96 c60 -9 84 -62 44 -98 -29 -26 -147 -41 -222 -27 -68 12 -99 32
-99 66 0 60 112 84 277 59z"/>
<path d="M2430 2510 l0 -120 235 0 235 0 0 40 0 40 -100 0 -100 0 0 75 0 75
-40 0 -40 0 0 -75 0 -76 -57 3 -58 3 -3 78 -3 77 -34 0 -35 0 0 -120z"/>
<path d="M6735 2366 c-60 -27 -95 -85 -95 -156 0 -82 50 -148 134 -177 64 -23
296 -25 365 -5 88 27 141 112 127 206 -12 77 -88 146 -161 146 -25 0 -26 -2
-23 -52 3 -49 5 -52 35 -60 44 -11 70 -50 55 -83 -18 -39 -64 -55 -170 -61
-120 -7 -216 7 -249 37 -42 41 -25 92 37 109 40 11 40 11 40 60 0 50 0 50 -32
50 -18 -1 -46 -7 -63 -14z"/>
<path d="M2430 2220 l0 -120 235 0 235 0 0 40 0 40 -100 0 -100 0 0 76 0 75
-37 -3 -38 -3 -3 -72 -3 -73 -59 0 -60 0 0 80 0 80 -35 0 -35 0 0 -120z"/>
<path d="M6310 2140 l0 -110 -80 0 -80 0 0 100 0 100 -65 0 -65 0 0 -100 0
-100 -65 0 -65 0 0 105 0 105 -65 0 -65 0 2 -182 3 -183 333 -3 332 -2 0 184
0 184 -31 6 c-17 3 -44 6 -60 6 l-29 0 0 -110z"/>
<path d="M2648 1997 l-218 -51 0 -55 0 -56 213 -49 c116 -27 222 -51 235 -54
20 -4 22 -1 22 36 0 44 -4 47 -74 57 l-47 7 3 57 3 56 55 10 55 10 3 43 c3 35
0 42 -15 41 -10 -1 -116 -24 -235 -52z m62 -107 c0 -22 -3 -40 -7 -39 -5 0
-48 8 -98 18 -68 14 -84 20 -65 25 26 7 150 33 163 35 4 1 7 -17 7 -39z"/>
<path d="M6809 1927 c-121 -28 -179 -100 -166 -208 8 -65 41 -109 104 -140 44
-22 60 -24 208 -24 147 0 164 2 207 23 55 27 83 59 99 112 28 93 -24 192 -119
225 -63 22 -258 29 -333 12z m314 -120 c65 -28 70 -85 10 -124 -33 -22 -255
-31 -321 -14 -112 31 -107 126 9 151 66 14 257 6 302 -13z"/>
<path d="M6310 1716 l0 -106 -275 0 -276 0 3 -77 3 -78 333 -3 332 -2 0 180
c0 180 0 180 -22 180 -13 0 -40 3 -60 6 l-38 7 0 -107z"/>
<path d="M2493 1680 c-45 -18 -63 -66 -63 -167 l0 -93 235 0 235 0 0 40 0 40
-100 0 -100 0 0 34 c0 49 21 66 84 66 30 0 68 3 85 6 29 6 31 10 31 47 l0 40
-91 -5 c-69 -4 -97 -10 -118 -26 l-27 -20 -27 24 c-30 26 -99 32 -144 14z
m115 -86 c16 -11 22 -25 22 -55 l0 -39 -65 0 -65 0 0 37 c0 65 55 94 108 57z"/>
<path d="M6732 1460 c-65 -29 -82 -74 -82 -222 l0 -118 306 0 305 0 -3 53 -3
52 -127 3 -128 3 0 42 c0 72 12 79 136 88 60 4 113 8 117 8 4 1 7 24 5 52 l-3
52 -95 -2 c-111 -2 -160 -13 -185 -41 l-18 -20 -26 24 c-52 50 -126 59 -199
26z m153 -115 c19 -18 25 -35 25 -70 l0 -45 -85 0 -85 0 0 50 c0 64 23 90 80
90 30 0 47 -7 65 -25z"/>
<path d="M6310 1296 l0 -106 -275 0 -276 0 3 -77 3 -78 333 -3 332 -2 0 180
c0 180 0 180 -22 180 -13 0 -40 3 -60 6 l-38 7 0 -107z"/>
<path d="M2430 1225 l0 -145 35 0 35 0 0 50 0 50 200 0 200 0 0 45 0 45 -200
0 -200 0 0 50 0 50 -35 0 -35 0 0 -145z"/>
<path d="M6744 1031 c-23 -10 -52 -34 -65 -52 -22 -31 -24 -46 -27 -161 l-4
-128 306 0 306 0 0 55 0 55 -125 0 -125 0 0 58 c0 81 -31 140 -90 170 -54 27
-120 28 -176 3z m150 -112 c22 -17 26 -28 26 -70 l0 -49 -90 0 -90 0 0 49 c0
42 4 53 26 70 16 13 41 21 64 21 23 0 48 -8 64 -21z"/>
<path d="M5935 936 c-130 -32 -185 -98 -185 -221 0 -101 56 -168 169 -202 85
-26 275 -23 366 5 113 34 155 90 155 205 -1 120 -53 182 -180 211 -78 19 -254
20 -325 2z m359 -169 c25 -17 32 -40 20 -71 -20 -53 -377 -58 -428 -6 -16 16
-18 25 -10 47 15 43 64 53 240 50 123 -2 156 -6 178 -20z"/>
<path d="M5905 431 c-102 -25 -155 -95 -155 -204 0 -160 131 -235 390 -224
127 6 171 16 220 50 59 40 75 70 78 156 7 135 -46 201 -181 225 l-38 7 3 -77
3 -77 45 -11 c43 -10 45 -13 45 -46 0 -56 -30 -65 -215 -65 -172 0 -216 10
-226 52 -8 32 19 61 60 65 l31 3 0 75 c0 81 -3 85 -60 71z"/>
</g>
</svg>
