<?xml version="1.0" standalone="no"?>
<!DOCTYPE svg PUBLIC "-//W3C//DTD SVG 20010904//EN"
 "http://www.w3.org/TR/2001/REC-SVG-20010904/DTD/svg10.dtd">
<svg version="1.0" xmlns="http://www.w3.org/2000/svg"
 width="1280.000000pt" height="885.000000pt" viewBox="0 0 1280.000000 885.000000"
 preserveAspectRatio="xMidYMid meet">
<metadata>
Created by potrace 1.15, written by Peter Selinger 2001-2017
</metadata>
<g transform="translate(0.000000,885.000000) scale(0.100000,-0.100000)"
fill="#F3983E" stroke="none">
<path d="M6610 8701 l0 -151 -100 0 -100 0 0 134 0 133 -75 2 -75 2 0 -135 0
-136 -85 0 -85 0 0 140 0 140 -80 0 -80 0 0 -240 0 -240 420 0 420 0 0 239 0
239 -47 6 c-27 4 -63 10 -80 13 l-33 5 0 -151z"/>
<path d="M4613 8829 c-83 -31 -59 -169 29 -169 45 0 65 16 99 75 32 58 58 73
104 61 32 -8 43 -48 21 -81 -9 -14 -23 -25 -31 -25 -8 0 -15 -9 -15 -20 0 -23
9 -25 43 -9 58 26 62 124 8 166 -9 7 -35 13 -58 13 -44 0 -65 -18 -117 -100
-35 -56 -106 -52 -106 7 0 16 10 29 30 41 44 25 39 59 -7 41z"/>
<path d="M5416 8830 c-42 -13 -84 -57 -117 -121 -29 -59 -69 -99 -98 -99 -30
0 -61 30 -61 59 0 32 13 46 53 56 24 6 27 12 27 51 0 43 -1 44 -32 44 -74 0
-128 -64 -128 -152 0 -91 61 -152 150 -151 83 1 110 24 184 155 32 57 78 78
123 56 23 -11 29 -21 31 -55 2 -33 -1 -44 -20 -57 -12 -9 -30 -16 -40 -16 -15
0 -18 -9 -18 -50 0 -58 9 -61 77 -30 59 26 83 69 83 145 0 103 -47 160 -141
170 -24 2 -57 0 -73 -5z"/>
<path d="M4622 8603 c-36 -7 -55 -47 -56 -116 l-1 -62 170 0 c144 0 170 2 170
15 0 12 -17 16 -77 18 l-78 3 0 37 c0 51 14 62 80 62 57 0 73 6 78 28 3 19
-128 16 -156 -4 -20 -14 -25 -14 -40 -1 -20 17 -58 25 -90 20z m81 -53 c5 -4
11 -26 14 -49 l6 -41 -62 0 -61 0 0 39 c0 30 6 44 22 55 21 15 63 13 81 -4z"/>
<path d="M1855 8543 c-37 -10 -62 -34 -90 -86 -39 -72 -63 -97 -97 -97 -68 0
-90 78 -31 115 32 20 46 65 21 65 -25 0 -79 -41 -89 -68 -29 -74 24 -162 97
-162 54 0 87 23 118 82 44 81 63 98 111 98 50 0 75 -23 75 -68 0 -36 -30 -72
-60 -72 -15 0 -20 -7 -20 -25 0 -30 27 -34 70 -8 81 47 63 197 -27 222 -40 11
-46 12 -78 4z"/>
<path d="M5394 8436 c-36 -16 -70 -58 -108 -133 -28 -57 -49 -73 -93 -73 -36
0 -53 16 -53 50 0 29 24 56 55 62 16 2 21 12 23 52 l3 49 -38 -6 c-48 -8 -83
-34 -105 -78 -53 -103 18 -229 129 -229 75 0 117 32 169 128 34 66 66 92 110
92 41 0 64 -22 64 -64 0 -35 -20 -59 -57 -70 -19 -6 -23 -14 -23 -52 0 -41 2
-44 26 -44 37 0 86 26 109 58 14 19 21 47 23 97 3 60 0 75 -20 105 -43 64
-138 89 -214 56z"/>
<path d="M4870 8310 l0 -71 -62 3 -63 3 -3 58 c-2 41 -7 57 -17 57 -10 0 -15
-16 -17 -57 l-3 -58 -52 -3 -53 -3 0 65 c0 59 -2 66 -20 66 -18 0 -20 -7 -20
-80 l0 -80 173 0 172 0 0 77 c0 71 -6 92 -27 93 -5 0 -8 -32 -8 -70z"/>
<path d="M6610 8141 l0 -141 -340 0 -340 0 0 -100 0 -100 420 0 420 0 0 229 0
229 -27 6 c-16 3 -52 8 -80 11 l-53 7 0 -141z"/>
<path d="M1782 8201 l-213 -55 3 -35 3 -35 210 -53 c116 -29 213 -53 218 -53
4 0 7 11 7 24 0 21 -7 26 -52 36 -94 21 -88 15 -88 80 l0 59 43 11 c79 21 92
27 95 44 2 10 0 21 -5 25 -4 4 -104 -18 -221 -48z m38 -89 l0 -49 -95 21 c-52
11 -95 23 -95 26 0 4 145 43 183 49 4 0 7 -21 7 -47z"/>
<path d="M4608 8144 c-31 -16 -51 -73 -46 -132 l3 -37 170 0 c144 0 170 2 170
15 0 12 -16 16 -72 18 -73 3 -73 3 -73 31 0 95 -75 147 -152 105z m96 -37 c9
-7 20 -32 23 -55 l6 -42 -67 0 -66 0 0 37 c0 20 7 45 17 55 19 21 61 24 87 5z"/>
<path d="M5540 7975 l0 -95 -80 0 -80 0 0 85 0 85 -45 0 -45 0 0 -85 0 -85
-70 0 -70 0 0 90 0 90 -40 0 -40 0 0 -140 0 -140 275 0 275 0 0 139 c0 150 0
151 -56 151 -24 0 -24 -1 -24 -95z"/>
<path d="M1570 7880 c0 -22 1 -40 3 -40 41 -5 337 -89 327 -93 -8 -3 -67 -17
-130 -31 -210 -47 -200 -43 -200 -87 l0 -39 218 2 c217 3 217 3 220 26 l3 22
-188 1 -188 0 185 42 c179 41 185 43 185 67 0 24 -7 26 -190 71 l-190 47 193
1 193 1 -3 23 c-3 22 -3 22 -220 25 l-218 2 0 -40z"/>
<path d="M4592 7897 c-17 -18 -24 -41 -29 -90 l-6 -67 176 0 c161 0 175 1 173
18 -2 14 -15 18 -73 20 l-70 3 -6 45 c-7 65 -37 94 -97 94 -36 0 -52 -5 -68
-23z m117 -31 c7 -8 15 -30 18 -50 l6 -36 -67 0 -66 0 0 38 c0 21 5 43 12 50
17 17 83 15 97 -2z"/>
<path d="M6338 7642 l-408 -86 0 -143 c0 -79 3 -143 8 -143 4 0 191 -38 416
-85 225 -47 411 -85 413 -85 2 0 3 45 3 99 l0 100 -52 10 c-29 5 -70 12 -90
16 l-38 6 0 79 c0 89 -9 81 108 101 l72 12 0 104 c0 76 -3 103 -12 102 -7 0
-196 -39 -420 -87z m92 -233 l0 -51 -47 7 c-27 4 -98 15 -160 24 -61 9 -114
19 -117 22 -4 3 38 11 92 18 54 7 114 16 133 21 19 4 49 8 67 9 l32 1 0 -51z"/>
<path d="M4640 7669 c-105 -29 -106 -160 -2 -189 20 -5 64 -10 97 -10 117 0
175 36 175 107 0 65 -69 104 -180 102 -30 0 -71 -5 -90 -10z m183 -40 c73 -20
72 -88 -1 -109 -53 -14 -147 -12 -186 4 -60 25 -56 87 7 105 44 13 134 13 180
0z"/>
<path d="M5070 7640 l0 -40 188 -1 c121 0 180 -4 167 -9 -11 -6 -95 -37 -187
-71 l-168 -61 0 -54 0 -54 275 0 275 0 0 40 0 40 -197 2 -198 3 198 70 197 69
0 53 0 53 -275 0 -275 0 0 -40z"/>
<path d="M8264 7621 c-55 -33 -68 -122 -28 -179 9 -13 40 -37 70 -54 70 -39
91 -69 75 -104 -15 -33 -51 -29 -69 9 -12 24 -18 27 -63 27 -55 0 -55 0 -27
-73 19 -49 99 -76 168 -57 78 21 115 91 91 170 -12 40 -30 58 -116 113 -53 34
-66 69 -33 90 20 13 48 -6 48 -34 0 -16 8 -19 50 -19 38 0 50 4 50 15 0 29
-28 82 -51 99 -33 23 -125 21 -165 -3z"/>
<path d="M8540 7415 l0 -225 50 0 50 0 0 90 0 90 51 0 c45 0 55 4 85 34 31 31
34 39 34 94 0 105 -51 142 -197 142 l-73 0 0 -225z m158 133 c20 -20 15 -86
-7 -98 -42 -22 -51 -14 -51 50 0 56 2 60 23 60 13 0 28 -5 35 -12z"/>
<path d="M8860 7415 l0 -225 119 0 119 0 6 31 c3 17 6 35 6 40 0 5 -34 9 -75
9 l-75 0 0 55 0 55 65 0 65 0 0 40 0 40 -65 0 -65 0 0 45 0 45 70 0 70 0 0 45
0 45 -120 0 -120 0 0 -225z"/>
<path d="M9218 7625 c-14 -8 -36 -36 -49 -62 -20 -41 -23 -64 -23 -153 0 -117
16 -167 66 -204 35 -25 110 -26 154 -3 32 17 64 69 64 106 0 18 -6 21 -49 21
-45 0 -49 -2 -54 -29 -7 -35 -35 -48 -56 -26 -11 11 -16 42 -19 114 -5 121 8
171 44 171 19 0 26 -6 31 -30 5 -28 8 -30 54 -30 43 0 49 3 49 20 0 38 -28 89
-59 104 -37 20 -117 20 -153 1z"/>
<path d="M9480 7416 l0 -226 50 0 50 0 -2 223 -3 222 -47 3 -48 3 0 -225z"/>
<path d="M9705 7628 c-7 -19 -85 -409 -85 -425 0 -9 15 -13 49 -13 l49 0 7 50
7 50 39 0 c42 0 44 -2 54 -62 6 -38 6 -38 55 -38 40 0 50 3 50 16 0 22 -80
416 -86 426 -9 14 -134 9 -139 -4z m89 -210 c7 -47 7 -48 -20 -48 -26 0 -27 1
-20 53 4 28 10 68 13 87 l7 35 7 -40 c3 -22 10 -61 13 -87z"/>
<path d="M9970 7415 l0 -225 114 0 c124 0 126 1 126 61 l0 29 -70 0 -70 0 0
180 0 180 -50 0 -50 0 0 -225z"/>
<path d="M10284 7606 c-30 -30 -34 -40 -34 -89 0 -49 4 -59 31 -87 17 -17 48
-39 68 -49 48 -25 73 -54 69 -82 -7 -49 -69 -50 -76 0 -3 18 -10 21 -54 21
l-51 0 6 -36 c15 -90 121 -128 219 -78 41 21 61 68 56 126 -6 58 -29 86 -108
132 -50 29 -55 36 -55 67 0 27 4 34 20 34 12 0 25 -11 33 -27 11 -24 19 -28
58 -28 43 0 44 1 44 31 0 22 -10 41 -34 65 -31 31 -39 34 -96 34 -57 0 -65 -3
-96 -34z"/>
<path d="M1570 7420 c0 -123 1 -130 20 -130 17 0 20 7 20 50 l0 50 198 2 197
3 0 23 0 23 -195 2 -195 2 -3 53 c-3 44 -6 52 -23 52 -18 0 -19 -8 -19 -130z"/>
<path d="M4562 7393 c3 -15 16 -19 76 -21 l72 -3 0 -54 0 -54 -72 -3 c-60 -2
-73 -6 -76 -20 -3 -17 10 -18 171 -18 161 0 175 1 173 18 -2 14 -16 17 -84 20
l-82 3 0 54 0 54 82 3 c70 3 83 6 86 21 3 16 -10 17 -173 17 -163 0 -176 -1
-173 -17z"/>
<path d="M2275 7353 c-68 -18 -100 -86 -99 -209 2 -128 41 -184 129 -184 48 0
91 24 110 60 24 46 20 60 -17 60 -26 0 -37 -6 -50 -31 -14 -24 -23 -30 -45
-27 -39 4 -56 59 -50 155 6 113 56 162 95 93 14 -24 24 -30 51 -30 32 0 33 1
27 32 -8 40 -23 58 -63 75 -33 13 -53 15 -88 6z"/>
<path d="M2801 7343 c-53 -27 -75 -80 -75 -177 0 -93 14 -143 50 -177 21 -20
36 -24 84 -24 68 0 101 23 122 84 17 51 14 188 -5 233 -28 67 -111 96 -176 61z
m94 -63 c24 -27 32 -158 13 -215 -16 -48 -52 -59 -84 -24 -16 18 -19 36 -19
119 0 82 3 101 19 119 24 26 48 27 71 1z"/>
<path d="M4211 7342 c-56 -28 -76 -79 -76 -192 1 -102 14 -144 57 -174 28 -20
87 -20 115 -1 14 10 24 12 28 5 3 -5 17 -10 31 -10 24 0 24 0 24 105 l0 105
-66 0 -65 0 3 -27 c2 -22 9 -29 31 -31 30 -4 36 -28 17 -77 -8 -22 -15 -26
-42 -23 -48 4 -59 34 -56 145 3 79 6 96 25 114 25 26 68 20 78 -10 4 -12 17
-20 40 -23 30 -3 35 -1 35 17 0 31 -28 65 -66 81 -44 18 -72 18 -113 -4z"/>
<path d="M2490 7160 l0 -190 105 0 105 0 0 30 0 30 -70 0 -70 0 0 160 0 160
-35 0 -35 0 0 -190z"/>
<path d="M3020 7320 c0 -29 2 -30 45 -30 l45 0 0 -160 0 -160 35 0 35 0 0 160
0 160 45 0 c43 0 45 1 45 30 l0 30 -125 0 -125 0 0 -30z"/>
<path d="M3320 7160 l0 -190 40 0 40 0 0 85 0 85 50 0 50 0 0 -85 0 -85 35 0
35 0 0 190 0 190 -35 0 -35 0 0 -75 0 -75 -50 0 -50 0 0 75 0 75 -40 0 -40 0
0 -190z"/>
<path d="M3650 7160 l0 -190 40 0 40 0 0 190 0 190 -40 0 -40 0 0 -190z"/>
<path d="M3810 7160 l0 -190 36 0 37 0 -5 135 c-3 74 -5 135 -3 135 1 0 26
-61 55 -135 l53 -135 44 0 43 0 0 190 0 190 -35 0 -34 0 -3 -127 -3 -128 -50
128 -50 127 -42 0 -43 0 0 -190z"/>
<path d="M1855 7263 c-37 -10 -60 -33 -95 -95 -40 -70 -73 -95 -114 -84 -56
14 -60 94 -6 116 22 9 30 19 30 37 0 22 -3 24 -27 18 -16 -3 -39 -17 -53 -31
-21 -20 -25 -34 -25 -79 0 -70 30 -105 97 -112 37 -4 49 -1 76 22 18 15 44 48
56 74 39 75 80 100 132 81 35 -14 44 -26 44 -67 0 -36 -32 -73 -62 -73 -13 0
-18 -8 -18 -25 0 -38 43 -34 86 9 29 29 34 41 34 79 0 59 -13 92 -43 112 -28
18 -81 26 -112 18z"/>
<path d="M5070 7200 l0 -50 275 0 275 0 0 50 0 50 -275 0 -275 0 0 -50z"/>
<path d="M4773 7155 c-22 -9 -40 -29 -57 -64 -29 -56 -56 -76 -91 -67 -45 11
-44 81 1 92 15 4 24 13 24 25 0 27 -36 24 -65 -6 -36 -35 -34 -88 4 -126 50
-50 104 -34 146 42 32 60 63 82 99 73 52 -13 59 -84 11 -106 -14 -6 -25 -20
-25 -30 0 -26 37 -16 69 20 19 21 22 33 18 70 -8 73 -67 107 -134 77z"/>
<path d="M5394 7066 c-35 -16 -71 -59 -104 -126 -33 -66 -48 -80 -90 -80 -43
0 -60 14 -60 50 0 29 24 56 55 62 16 2 21 12 23 52 l3 49 -38 -6 c-48 -8 -83
-34 -105 -78 -53 -103 18 -229 129 -229 75 0 117 32 169 128 34 66 66 92 110
92 41 0 64 -22 64 -64 0 -35 -20 -59 -57 -70 -19 -6 -23 -14 -23 -52 0 -41 2
-44 28 -44 41 0 93 32 114 71 25 47 24 143 -2 187 -41 66 -137 92 -216 58z"/>
<path d="M6466 7039 c-87 -21 -135 -69 -205 -206 -52 -100 -83 -133 -125 -133
-47 0 -76 25 -76 65 0 38 22 58 78 70 l32 7 0 95 0 96 -52 -6 c-70 -9 -136
-51 -168 -107 -22 -40 -25 -56 -25 -155 0 -102 2 -113 28 -157 35 -60 96 -97
171 -105 126 -13 204 42 290 205 58 110 82 132 142 132 55 0 84 -26 84 -74 0
-39 -31 -70 -80 -81 l-30 -7 0 -100 0 -100 43 7 c95 15 163 68 193 152 18 52
18 200 -1 254 -22 61 -58 104 -107 128 -51 24 -138 34 -192 20z"/>
<path d="M9248 7029 c-15 -11 -42 -47 -59 -80 -21 -38 -40 -61 -55 -65 -60
-15 -92 57 -34 79 25 9 30 17 30 44 0 29 -3 33 -26 33 -55 0 -94 -47 -94 -115
0 -73 43 -115 116 -115 54 0 86 23 123 88 18 33 45 65 58 71 34 16 72 4 79
-25 9 -34 -2 -54 -36 -67 -25 -9 -30 -17 -30 -44 0 -30 3 -33 31 -33 22 0 41
10 66 35 34 34 35 37 31 97 -4 53 -9 65 -36 89 -27 24 -41 29 -85 29 -36 -1
-60 -7 -79 -21z"/>
<path d="M8232 7008 c3 -31 7 -33 138 -86 74 -29 138 -57 143 -61 4 -4 -58
-33 -138 -65 l-145 -58 0 -34 c0 -19 4 -34 8 -34 5 0 86 34 182 75 l174 75
123 0 123 0 0 35 0 35 -121 0 -121 0 -173 75 c-95 41 -178 75 -185 75 -7 0
-10 -13 -8 -32z"/>
<path d="M1570 6925 l0 -25 220 0 220 0 0 25 0 25 -220 0 -220 0 0 -25z"/>
<path d="M1618 6814 c-40 -21 -48 -43 -48 -138 l0 -86 220 0 220 0 0 25 c0 24
-1 24 -102 27 l-103 3 2 50 c2 62 18 75 97 75 86 0 106 7 106 37 0 23 -3 25
-31 19 -17 -3 -58 -6 -91 -6 -49 0 -63 -4 -83 -24 -23 -24 -25 -24 -35 -7 -20
38 -104 52 -152 25z m105 -45 c32 -17 37 -28 37 -81 l0 -48 -75 0 -75 0 0 48
c0 27 6 55 13 64 22 28 65 35 100 17z"/>
<path d="M4556 6788 c-52 -14 -121 -82 -135 -133 -18 -66 -13 -126 14 -182 28
-56 62 -86 145 -128 125 -63 160 -100 160 -169 0 -67 -35 -106 -95 -106 -54 0
-92 35 -105 95 -6 30 -6 30 -79 33 l-74 3 6 -46 c18 -128 101 -198 237 -199
88 -1 138 14 187 57 50 44 73 98 73 178 0 123 -53 191 -216 272 -88 44 -114
74 -114 133 0 58 25 84 80 84 48 0 76 -24 86 -74 l6 -36 70 0 71 0 -5 50 c-6
64 -45 123 -101 151 -49 26 -152 34 -211 17z"/>
<path d="M2158 6784 c-5 -4 -8 -189 -8 -411 l0 -403 139 0 c190 0 253 24 307
116 44 76 58 145 58 299 1 222 -39 321 -152 373 -51 24 -71 27 -197 30 -77 2
-143 1 -147 -4z m272 -139 c16 -9 36 -28 45 -44 23 -46 38 -168 32 -266 -12
-182 -52 -245 -153 -245 l-54 0 0 285 0 285 50 0 c28 0 64 -7 80 -15z"/>
<path d="M2777 6783 c-4 -3 -7 -188 -7 -410 l0 -403 214 0 213 0 7 46 c3 26 6
53 6 60 0 11 -29 14 -145 14 l-145 0 0 120 0 120 130 0 130 0 0 65 0 65 -130
0 -130 0 0 100 0 100 135 0 135 0 0 65 0 65 -203 0 c-112 0 -207 -3 -210 -7z"/>
<path d="M3455 6768 c-3 -13 -43 -189 -90 -393 -47 -203 -88 -378 -91 -387 -5
-16 3 -18 69 -18 l74 0 19 98 20 97 96 3 96 3 11 -53 c5 -29 14 -73 18 -98 l9
-45 78 -3 78 -3 -6 25 c-3 14 -45 191 -92 393 -47 203 -87 376 -90 386 -5 15
-18 17 -99 17 -90 0 -95 -1 -100 -22z m164 -460 c1 -5 -28 -8 -64 -8 -56 0
-65 2 -65 18 0 18 43 248 57 302 4 17 16 -27 39 -140 18 -91 33 -168 33 -172z"/>
<path d="M3917 6783 c-4 -3 -7 -188 -7 -410 l0 -403 210 0 210 0 0 23 c0 12 3
39 6 60 l7 37 -142 0 -141 0 0 350 0 350 -68 0 c-38 0 -72 -3 -75 -7z"/>
<path d="M9010 6745 c0 -20 6 -38 13 -40 6 -2 50 -17 96 -33 l85 -29 -70 -23
c-112 -37 -124 -45 -124 -85 0 -19 5 -35 10 -35 6 0 61 21 123 46 97 41 125
48 206 53 l95 6 0 35 0 35 -90 5 c-76 5 -105 12 -204 53 -63 26 -120 47 -127
47 -8 0 -13 -13 -13 -35z"/>
<path d="M8525 6635 c-159 -41 -291 -74 -292 -74 -7 -2 -2 -81 5 -85 8 -5 588
-146 599 -146 2 0 3 14 1 32 -3 30 -7 33 -58 45 -30 8 -72 19 -92 24 l-38 10
0 78 0 79 95 21 95 22 0 35 c0 21 -5 34 -12 33 -7 0 -143 -34 -303 -74z m65
-121 c0 -49 -3 -65 -12 -61 -7 2 -73 17 -146 33 l-134 29 129 31 c177 44 163
46 163 -32z"/>
<path d="M5070 6642 l0 -51 219 -3 c199 -3 221 -5 240 -22 24 -21 27 -63 8
-90 -20 -28 -80 -36 -279 -36 l-188 0 0 -45 0 -45 228 0 c255 0 279 5 314 71
24 46 24 143 0 189 -36 67 -69 75 -319 78 l-223 4 0 -50z"/>
<path d="M1570 6475 c0 -25 1 -25 90 -25 l90 0 0 -75 0 -75 -90 0 c-89 0 -90
0 -90 -25 l0 -25 220 0 220 0 0 25 0 25 -103 0 c-57 0 -106 2 -108 4 -2 2 -3
36 -1 75 l4 71 104 0 104 0 0 25 0 25 -220 0 -220 0 0 -25z"/>
<path d="M9115 6475 c-92 -24 -131 -105 -90 -185 25 -47 67 -63 180 -68 118
-5 177 8 217 48 23 24 28 37 28 80 0 45 -4 56 -33 85 -52 52 -189 71 -302 40z
m256 -91 c28 -28 18 -58 -24 -75 -40 -17 -213 -18 -244 -1 -44 24 -38 72 12
93 11 5 68 8 127 6 94 -2 110 -5 129 -23z"/>
<path d="M9634 6407 c-2 -7 -3 -107 -2 -222 l3 -210 38 -3 37 -3 1 183 c1 197
3 197 39 -7 33 -192 26 -175 70 -175 l38 0 16 73 c9 39 25 119 36 176 11 57
21 106 24 108 2 2 1 -77 -2 -177 l-5 -180 47 0 46 0 0 225 0 225 -64 0 -64 0
-20 -87 c-11 -49 -26 -117 -33 -153 -15 -77 -17 -73 -50 113 l-22 127 -64 0
c-42 0 -65 -4 -69 -13z"/>
<path d="M10186 6412 c-3 -5 -27 -98 -55 -208 -28 -111 -53 -208 -57 -217 -5
-14 1 -17 39 -17 l46 0 11 55 11 55 58 0 58 0 12 -55 12 -55 45 0 c24 0 44 3
44 6 0 4 -25 103 -55 219 -30 117 -55 216 -55 219 0 9 -108 7 -114 -2z m73
-157 c7 -33 15 -70 18 -82 5 -21 2 -23 -37 -23 -39 0 -42 2 -37 22 4 12 12 53
19 90 7 37 15 64 19 60 3 -4 11 -34 18 -67z"/>
<path d="M10460 6196 l0 -226 45 0 45 0 0 96 0 95 42 -3 c54 -4 68 -28 68
-120 l0 -68 45 0 45 0 -6 78 c-6 85 -19 128 -40 136 -10 4 -5 13 16 35 49 48
39 140 -19 178 -19 13 -53 18 -133 21 l-108 4 0 -226z m188 142 c7 -7 12 -28
12 -48 0 -47 -15 -60 -67 -60 l-43 0 0 60 0 60 43 0 c24 0 48 -5 55 -12z"/>
<path d="M10830 6195 l0 -225 40 0 40 0 0 74 c0 65 3 79 24 103 l24 28 10 -25
c6 -14 26 -60 45 -102 l36 -78 45 0 c25 0 46 2 46 4 0 3 -27 62 -60 132 -33
70 -60 131 -60 135 0 5 24 42 53 82 77 104 75 97 19 97 l-50 0 -64 -97 -63
-98 -3 98 -3 97 -39 0 -40 0 0 -225z"/>
<path d="M11187 6413 c-4 -3 -7 -105 -7 -225 l0 -218 130 0 130 0 0 35 0 35
-85 0 -85 0 0 65 0 65 80 0 80 0 0 35 0 35 -80 0 -80 0 0 55 0 55 80 0 80 0 0
35 0 35 -118 0 c-65 0 -122 -3 -125 -7z"/>
<path d="M11480 6385 l0 -35 55 0 55 0 0 -190 0 -190 45 0 45 0 0 190 0 190
50 0 50 0 0 35 0 35 -150 0 -150 0 0 -35z"/>
<path d="M11840 6195 l0 -225 40 0 40 0 0 225 0 225 -40 0 -40 0 0 -225z"/>
<path d="M12020 6195 l0 -225 41 0 41 0 -3 160 c-2 88 -4 160 -3 160 0 0 29
-72 64 -160 l63 -160 49 0 48 0 0 225 0 225 -40 0 -39 0 -3 -146 -3 -147 -59
147 -60 146 -48 0 -48 0 0 -225z"/>
<path d="M12478 6405 c-62 -34 -92 -145 -77 -282 9 -81 15 -97 54 -133 35 -32
121 -36 154 -6 19 17 21 17 21 3 0 -13 9 -17 35 -17 l35 0 0 125 0 125 -75 0
-75 0 0 -35 c0 -33 2 -35 35 -35 36 0 36 0 30 -37 -11 -62 -15 -72 -36 -78
-32 -11 -65 2 -77 30 -17 37 -15 208 2 250 25 58 84 57 107 -2 7 -19 16 -23
49 -23 45 0 49 9 26 65 -8 19 -28 41 -45 49 -37 20 -127 20 -163 1z"/>
<path d="M6321 6288 c-52 -28 -66 -62 -66 -161 0 -75 4 -99 20 -127 38 -65
127 -64 161 2 35 68 28 217 -14 267 -22 26 -70 35 -101 19z m86 -68 c26 -77
10 -210 -28 -230 -52 -28 -84 25 -84 140 0 96 20 133 68 128 26 -2 34 -9 44
-38z"/>
<path d="M6891 6288 c-52 -28 -66 -62 -66 -161 0 -75 4 -99 20 -127 38 -65
127 -64 161 2 35 68 28 217 -14 267 -22 26 -70 35 -101 19z m86 -68 c26 -77
10 -210 -28 -230 -52 -28 -84 25 -84 140 0 96 20 133 68 128 26 -2 34 -9 44
-38z"/>
<path d="M7440 6288 c-41 -21 -61 -76 -61 -166 0 -91 9 -121 47 -151 50 -40
113 -20 140 45 8 19 14 67 14 109 0 77 -15 130 -42 152 -23 20 -71 25 -98 11z
m88 -58 c8 -17 12 -56 10 -118 -3 -85 -5 -96 -27 -113 -29 -23 -33 -23 -60 -1
-38 30 -45 206 -10 248 19 23 71 14 87 -16z"/>
<path d="M7944 6286 c-35 -15 -44 -32 -44 -80 0 -36 23 -63 77 -90 66 -33 81
-104 28 -128 -19 -9 -29 -7 -50 6 -14 9 -25 23 -25 31 0 8 -9 15 -20 15 -11 0
-20 -7 -20 -16 0 -68 116 -98 166 -43 23 26 26 98 5 123 -8 10 -37 29 -63 42
-54 27 -75 62 -57 95 15 28 70 23 84 -8 11 -26 45 -31 45 -7 0 28 -19 52 -51
63 -39 13 -37 13 -75 -3z"/>
<path d="M5790 6125 c0 -158 1 -165 20 -165 18 0 20 7 20 70 l0 70 35 0 c52 0
91 24 105 64 26 79 -18 126 -116 126 l-64 0 0 -165z m136 110 c34 -52 -2 -105
-72 -105 -23 0 -24 3 -24 65 l0 65 40 0 c31 0 43 -5 56 -25z"/>
<path d="M6020 6125 c0 -158 1 -165 20 -165 18 0 20 7 20 75 l0 75 39 0 c21 0
43 -6 49 -13 6 -7 12 -40 14 -72 3 -51 6 -60 23 -63 19 -3 20 1 15 66 -3 38
-11 77 -19 86 -11 13 -11 20 -3 24 22 15 33 63 21 99 -14 44 -34 53 -113 53
l-66 0 0 -165z m135 111 c19 -29 11 -72 -15 -86 -10 -6 -32 -10 -49 -10 l-31
0 0 60 0 60 40 0 c31 0 43 -5 55 -24z"/>
<path d="M6520 6125 c0 -140 2 -165 15 -165 13 0 15 22 16 138 0 75 3 130 6
122 4 -8 18 -69 33 -135 23 -104 29 -120 47 -123 19 -3 24 9 55 135 l33 138 3
-137 c2 -130 4 -138 22 -138 19 0 20 7 20 166 l0 165 -32 -3 -32 -3 -32 -123
c-30 -118 -44 -155 -44 -117 0 9 -12 69 -27 131 -26 112 -27 114 -55 114 l-28
0 0 -165z"/>
<path d="M7050 6275 c0 -10 11 -15 35 -15 l35 0 0 -150 c0 -143 1 -150 20
-150 19 0 20 7 20 150 l0 150 40 0 c29 0 40 4 40 15 0 12 -17 15 -95 15 -78 0
-95 -3 -95 -15z"/>
<path d="M7280 6125 c0 -158 1 -165 20 -165 19 0 20 7 20 165 0 158 -1 165
-20 165 -19 0 -20 -7 -20 -165z"/>
<path d="M7640 6125 c0 -162 0 -165 21 -165 22 0 22 2 17 135 -3 75 -3 134 0
131 4 -4 60 -137 102 -243 7 -16 18 -23 35 -23 l25 0 0 165 c0 158 -1 165 -20
165 -19 0 -20 -7 -21 -132 0 -79 -4 -125 -8 -113 -89 218 -103 245 -127 245
l-24 0 0 -165z"/>
<path d="M5382 6263 c-18 -9 -37 -24 -43 -35 -10 -18 -11 -18 -40 7 -25 20
-41 25 -85 25 -114 0 -144 -42 -144 -204 l0 -106 275 0 275 0 0 114 c0 101 -2
117 -23 147 -43 64 -142 88 -215 52z m143 -108 c18 -18 25 -35 25 -65 l0 -40
-90 0 -90 0 0 45 c0 59 27 85 87 85 33 0 50 -6 68 -25z m-251 -7 c9 -12 16
-39 16 -60 l0 -38 -70 0 -70 0 0 42 c0 54 22 78 71 78 28 0 42 -6 53 -22z"/>
<path d="M8390 6267 c-119 -34 -153 -82 -158 -229 l-4 -98 306 0 306 0 0 88
c-1 132 -39 196 -140 232 -52 18 -255 23 -310 7z m272 -68 c37 -8 63 -22 85
-44 29 -29 33 -39 33 -89 l0 -56 -246 0 -246 0 4 60 c5 70 29 102 94 125 48
17 203 19 276 4z"/>
<path d="M9014 6187 c-2 -7 -3 -65 -2 -128 l3 -114 33 -3 c32 -3 32 -3 32 42
l0 46 180 0 180 0 0 40 0 40 -180 0 -180 0 0 45 c0 43 -1 45 -30 45 -17 0 -33
-6 -36 -13z"/>
<path d="M1635 6174 c-22 -7 -41 -14 -42 -14 -10 0 -33 -65 -33 -90 0 -82 66
-128 199 -137 100 -7 181 10 221 47 26 24 30 35 30 80 0 46 -4 56 -34 86 -19
19 -43 34 -55 34 -12 0 -24 0 -28 0 -4 0 -7 -10 -7 -22 0 -16 8 -24 32 -30 66
-17 69 -97 4 -125 -54 -23 -225 -23 -270 1 -65 34 -65 107 0 124 32 8 49 36
31 52 -4 5 -26 2 -48 -6z"/>
<path d="M8232 5788 l3 -33 303 -3 302 -2 0 35 0 35 -306 0 -305 0 3 -32z"/>
<path d="M6563 5766 c-178 -58 -264 -200 -294 -486 -12 -118 -5 -327 16 -435
31 -161 95 -259 203 -312 48 -23 72 -28 158 -31 118 -5 184 10 257 59 77 51
138 158 153 268 l7 51 -115 0 -114 0 -12 -60 c-22 -104 -99 -159 -186 -130
-75 25 -112 114 -129 312 -8 103 -8 171 0 270 15 167 33 231 83 280 35 35 42
38 95 38 51 0 60 -3 90 -33 32 -32 55 -88 55 -134 0 -23 2 -23 116 -23 l117 0
-7 55 c-16 136 -80 236 -183 287 -60 29 -77 33 -167 35 -65 2 -116 -2 -143
-11z"/>
<path d="M126 5760 c-44 -14 -83 -58 -103 -114 -14 -39 -18 -82 -18 -186 0
-124 2 -139 25 -185 31 -62 72 -87 142 -87 76 1 130 48 144 125 6 37 6 37 -29
37 -30 0 -35 -4 -40 -28 -15 -73 -89 -100 -133 -49 -30 36 -48 149 -40 255 10
128 35 172 97 174 38 1 79 -39 79 -78 0 -21 5 -24 35 -24 30 0 35 3 35 23 -1
34 -36 104 -62 121 -30 20 -95 28 -132 16z"/>
<path d="M899 5761 c-78 -25 -103 -65 -97 -152 5 -70 24 -95 114 -145 87 -48
106 -72 106 -130 0 -41 -5 -53 -28 -72 -48 -42 -125 -14 -139 49 -6 25 -11 29
-41 29 -40 0 -43 -14 -15 -77 24 -52 67 -76 136 -76 53 0 98 18 127 49 26 30
40 97 29 143 -13 61 -44 95 -120 135 -81 42 -101 66 -101 118 0 44 28 78 64
78 31 0 72 -33 80 -65 5 -21 12 -25 41 -25 33 0 35 1 29 28 -11 43 -33 81 -57
96 -28 19 -94 28 -128 17z"/>
<path d="M1592 5763 c-40 -8 -90 -68 -108 -130 -12 -43 -15 -86 -12 -182 3
-109 7 -133 28 -176 32 -63 74 -89 143 -87 60 1 92 22 125 79 49 89 50 318 1
419 -30 64 -97 92 -177 77z m73 -63 c17 -6 33 -26 46 -56 18 -41 20 -62 17
-183 -2 -114 -6 -141 -23 -170 -39 -66 -103 -61 -142 12 -15 26 -18 57 -18
172 0 152 13 201 58 223 28 14 31 14 62 2z"/>
<path d="M3235 5760 c-63 -19 -95 -68 -95 -144 0 -60 32 -103 108 -146 81 -45
110 -73 117 -113 14 -72 -38 -127 -103 -111 -30 7 -41 17 -57 51 -17 37 -24
42 -52 43 -37 0 -37 -1 -23 -51 21 -76 101 -117 192 -98 86 19 133 105 109
197 -16 56 -41 84 -113 122 -87 47 -108 70 -108 120 0 93 111 113 140 25 10
-31 15 -35 47 -35 33 0 35 1 28 28 -18 72 -55 108 -120 116 -22 3 -54 1 -70
-4z"/>
<path d="M397 5754 c-10 -11 -8 -358 3 -434 8 -55 14 -70 43 -96 54 -50 145
-54 214 -9 47 31 53 66 53 315 l0 230 -35 0 -35 0 0 -225 c0 -147 -4 -233 -11
-249 -15 -31 -66 -50 -100 -37 -52 19 -54 28 -59 275 l-5 231 -30 3 c-17 2
-34 0 -38 -4z"/>
<path d="M1130 5730 l0 -30 60 0 60 0 0 -255 0 -255 35 0 35 0 0 255 0 255 65
0 65 0 0 30 0 30 -160 0 -160 0 0 -30z"/>
<path d="M1900 5475 l0 -285 30 0 30 0 1 238 1 237 44 -215 c24 -118 46 -225
49 -238 5 -19 11 -23 38 -20 31 3 32 4 54 98 13 52 36 158 53 234 16 76 32
141 35 144 3 3 4 -102 3 -234 l-3 -239 33 -3 32 -3 0 285 0 286 -50 0 c-58 0
-45 28 -110 -255 -23 -99 -43 -181 -44 -183 -2 -1 -13 48 -25 110 -13 62 -34
161 -48 221 l-25 107 -49 0 -49 0 0 -285z"/>
<path d="M2410 5475 l0 -285 135 0 c110 0 135 3 135 14 0 8 3 21 6 30 5 14 -7
16 -100 16 l-106 0 0 105 0 105 95 0 95 0 0 30 0 30 -95 0 -95 0 0 90 0 90
100 0 100 0 0 30 0 30 -135 0 -135 0 0 -285z"/>
<path d="M2760 5474 l0 -285 33 3 32 3 3 128 3 127 48 0 c82 0 94 -17 102
-146 4 -60 7 -110 8 -112 1 -2 15 -2 32 0 l32 3 -2 99 c-2 105 -17 157 -47
174 -17 10 -17 12 8 32 52 40 60 149 15 206 -31 40 -76 54 -177 54 l-90 0 0
-286z m190 216 c30 -16 45 -79 30 -124 -14 -45 -34 -56 -99 -56 l-51 0 0 95 0
95 51 0 c28 0 59 -5 69 -10z"/>
<path d="M3590 5139 l0 -620 258 3 c287 5 308 9 397 76 36 27 60 56 85 106 32
62 35 78 38 165 3 80 0 106 -18 155 -24 63 -75 121 -129 148 l-34 16 29 15
c76 39 116 123 116 241 -1 124 -39 207 -120 261 -73 48 -118 55 -379 55 l-243
0 0 -621z m457 421 c45 -27 63 -68 63 -143 0 -112 -48 -147 -200 -147 l-90 0
0 155 0 155 98 0 c79 0 103 -4 129 -20z m13 -497 c58 -36 75 -75 75 -173 0
-104 -19 -144 -85 -177 -36 -19 -61 -23 -137 -23 l-93 0 0 201 0 201 103 -4
c83 -3 109 -7 137 -25z"/>
<path d="M4530 5140 l0 -620 329 0 328 0 7 53 c4 28 9 71 12 95 l6 42 -221 0
-221 0 0 525 0 525 -120 0 -120 0 0 -620z"/>
<path d="M5585 5748 c-4 -13 -230 -953 -266 -1108 -11 -47 -22 -93 -25 -102
-5 -16 5 -18 110 -18 101 0 115 2 120 18 2 9 17 79 33 155 l28 137 150 0 151
0 29 -142 c15 -79 30 -149 33 -155 3 -10 37 -13 123 -13 65 0 119 1 119 3 0 5
-290 1201 -296 1220 -5 15 -21 17 -155 17 -111 0 -151 -3 -154 -12z m205 -459
c27 -136 50 -251 50 -258 0 -7 -33 -11 -105 -11 -80 0 -105 3 -105 13 0 7 20
110 44 228 24 118 47 232 51 254 4 22 9 36 11 30 2 -5 26 -121 54 -256z"/>
<path d="M7210 5140 l0 -620 115 0 115 0 0 208 0 209 52 71 c28 40 54 72 58
72 4 0 61 -126 126 -280 l118 -280 128 0 128 0 -14 33 c-7 17 -82 185 -166
372 -85 187 -153 344 -153 350 0 5 69 111 155 235 85 124 158 231 162 238 6 9
-22 12 -126 12 l-133 0 -165 -271 -165 -270 -3 270 -2 271 -115 0 -115 0 0
-620z"/>
<path d="M9030 5420 l0 -330 65 0 65 0 0 145 0 145 115 0 115 0 0 50 0 50
-115 0 -115 0 0 85 0 85 120 0 120 0 0 50 0 50 -185 0 -185 0 0 -330z"/>
<path d="M9480 5420 l0 -330 65 0 65 0 0 140 0 140 49 0 c94 0 103 -14 110
-165 l6 -110 61 -3 62 -3 -5 113 c-5 132 -15 170 -50 198 l-25 20 30 25 c41
35 55 74 50 145 -5 72 -27 106 -88 138 -40 20 -59 22 -187 22 l-143 0 0 -330z
m272 212 c16 -16 21 -33 20 -69 -1 -66 -32 -93 -108 -93 l-54 0 0 96 0 96 60
-4 c45 -3 66 -10 82 -26z"/>
<path d="M10000 5420 l0 -330 184 0 184 0 6 31 c14 72 19 69 -119 69 l-125 0
0 98 0 97 113 0 112 0 0 50 0 50 -112 3 -113 3 0 79 0 80 120 0 120 0 0 50 0
50 -185 0 -185 0 0 -330z"/>
<path d="M10460 5420 l0 -330 185 0 c102 0 185 3 185 8 1 4 5 26 9 50 l8 42
-128 0 -129 0 0 95 0 95 100 1 c55 1 106 2 113 3 7 1 13 21 15 54 l3 52 -115
0 -116 0 0 80 0 80 120 0 120 0 0 50 0 50 -185 0 -185 0 0 -330z"/>
<path d="M11010 5695 c0 -32 1 -33 120 -80 66 -27 120 -52 120 -55 0 -4 -54
-28 -120 -55 l-120 -49 0 -34 c0 -23 4 -33 13 -29 6 3 78 35 160 71 l147 66
100 0 100 0 0 30 0 30 -107 0 -108 0 -152 69 -153 69 0 -33z"/>
<path d="M8780 5586 l0 -106 -272 -2 -273 -3 -3 -32 -3 -33 306 0 306 0 -3
138 -3 137 -27 3 -28 3 0 -105z"/>
<path d="M11073 5335 c-49 -21 -63 -59 -63 -170 l0 -95 260 0 260 0 0 30 0 30
-120 0 -120 0 0 55 c0 79 19 95 109 95 108 0 131 7 131 41 l0 28 -82 -5 c-126
-8 -145 -12 -167 -40 l-20 -25 -11 21 c-24 45 -114 63 -177 35z m120 -56 c32
-14 47 -49 47 -104 l0 -45 -96 0 -96 0 4 57 c4 46 10 61 32 80 29 25 71 30
109 12z"/>
<path d="M8410 5304 c-143 -28 -209 -106 -180 -213 26 -98 116 -136 315 -135
149 1 225 22 269 75 75 88 24 225 -95 258 -46 13 -265 23 -309 15z m311 -86
c69 -30 90 -98 45 -143 -37 -37 -98 -50 -241 -50 -115 0 -135 3 -176 23 -45
22 -69 54 -69 92 0 33 43 71 95 86 68 19 295 13 346 -8z"/>
<path d="M1520 5008 c-20 -13 -46 -45 -60 -73 -23 -45 -25 -62 -25 -170 0
-108 2 -125 25 -169 30 -59 74 -86 140 -86 65 0 111 26 138 80 35 69 31 82
-24 78 -43 -3 -47 -6 -58 -37 -23 -69 -91 -57 -114 19 -16 54 -12 233 7 268
18 34 58 46 87 28 12 -9 24 -26 26 -38 3 -20 10 -23 51 -26 53 -3 57 4 33 61
-24 58 -59 81 -129 85 -52 3 -67 0 -97 -20z"/>
<path d="M1820 4770 l0 -250 50 0 50 0 0 105 0 105 39 0 c56 0 71 -19 71 -89
0 -32 3 -73 6 -90 6 -29 9 -31 51 -31 l45 0 -4 95 c-3 79 -8 100 -27 126 l-23
31 21 22 c28 29 42 79 34 119 -16 87 -53 107 -200 107 l-113 0 0 -250z m200
160 c47 -47 11 -120 -60 -120 l-40 0 0 70 0 70 40 0 c27 0 47 -7 60 -20z"/>
<path d="M2210 4770 l0 -251 138 3 137 3 3 38 3 37 -95 0 -96 0 0 70 0 70 85
0 85 0 0 40 0 40 -85 0 -86 0 3 63 3 62 88 3 87 3 0 34 0 35 -135 0 -135 0 0
-250z"/>
<path d="M2550 4769 l0 -251 109 4 c126 4 149 14 191 89 23 40 25 54 25 164 0
109 -2 124 -25 165 -37 66 -72 80 -197 80 l-103 0 0 -251z m186 166 c37 -25
47 -67 42 -177 -2 -65 -9 -111 -18 -125 -16 -25 -51 -43 -85 -43 l-25 0 0 180
0 180 33 0 c18 0 42 -7 53 -15z"/>
<path d="M2960 4770 l0 -250 45 0 45 0 0 250 0 250 -45 0 -45 0 0 -250z"/>
<path d="M3102 4983 l3 -36 55 -1 55 -1 3 -212 2 -213 45 0 45 0 2 213 3 212
55 1 55 1 3 36 3 37 -166 0 -166 0 3 -37z"/>
<path d="M11480 4901 l0 -101 -100 0 -100 0 0 90 c0 89 0 90 -25 90 -25 0 -25
-1 -25 -90 l0 -90 -85 0 -85 0 0 95 c0 95 0 95 -25 95 l-25 0 0 -125 0 -125
260 0 261 0 -3 128 c-3 123 -4 127 -25 130 -23 3 -23 1 -23 -97z"/>
<path d="M9133 4954 c-18 -9 -42 -32 -54 -51 -41 -67 -43 -244 -3 -328 34 -72
164 -99 232 -48 56 41 67 77 67 208 0 109 -2 124 -24 162 -14 24 -38 49 -57
58 -41 19 -120 19 -161 -1z m111 -86 c12 -17 16 -49 16 -133 0 -84 -4 -116
-16 -133 -49 -70 -95 47 -78 198 9 86 45 116 78 68z"/>
<path d="M9470 4735 l0 -225 55 0 55 0 0 95 0 95 75 0 75 0 0 40 0 40 -75 0
-75 0 0 50 0 50 80 0 80 0 0 40 0 40 -135 0 -135 0 0 -225z"/>
<path d="M9810 4735 l0 -225 55 0 55 0 0 95 0 95 75 0 75 0 0 40 0 40 -75 0
-75 0 0 50 0 50 80 0 80 0 0 40 0 40 -135 0 -135 0 0 -225z"/>
<path d="M10150 4735 l0 -225 135 0 c122 0 135 2 135 18 0 9 3 27 6 40 6 22 5
22 -80 22 l-86 0 0 55 0 55 75 0 75 0 0 45 0 45 -75 0 -75 0 0 45 0 45 80 0
80 0 0 40 0 40 -135 0 -135 0 0 -225z"/>
<path d="M10500 4736 l0 -226 55 0 55 0 0 88 c0 49 2 91 5 94 3 3 20 2 38 -1
30 -6 32 -10 34 -51 2 -25 5 -64 9 -87 l5 -43 56 0 55 0 -3 84 c-3 67 -8 90
-25 113 l-22 29 24 27 c36 42 34 116 -5 159 l-29 33 -126 3 -126 4 0 -226z
m178 138 c32 -22 27 -73 -9 -93 -42 -23 -59 -9 -59 47 0 27 3 52 7 55 11 12
38 8 61 -9z"/>
<path d="M8237 4853 c-4 -3 -7 -19 -7 -35 l0 -28 130 0 130 0 0 -100 0 -100
-131 0 -130 0 3 -32 3 -33 303 -3 302 -2 0 35 0 35 -145 0 -145 0 0 100 0 100
146 0 145 0 -3 33 -3 32 -296 3 c-162 1 -298 -1 -302 -5z"/>
<path d="M11012 4649 l3 -33 225 -56 c205 -52 221 -57 185 -64 -22 -4 -124
-28 -227 -53 l-188 -45 0 -29 c0 -17 5 -29 13 -29 6 0 122 29 257 64 l245 63
3 36 c4 41 31 30 -298 118 -107 28 -201 54 -208 57 -10 3 -13 -4 -10 -29z"/>
<path d="M9909 4315 c-68 -37 -80 -226 -18 -288 26 -25 35 -28 67 -23 20 3 54
6 75 6 l37 -1 0 91 0 90 -55 0 c-54 0 -55 0 -55 -30 0 -20 5 -30 15 -30 21 0
20 -59 -1 -67 -28 -10 -44 25 -44 93 0 72 13 114 34 114 9 0 20 -9 26 -20 11
-21 64 -28 75 -10 8 13 -22 67 -44 80 -27 14 -81 12 -112 -5z"/>
<path d="M10703 4320 c-28 -11 -43 -40 -43 -82 0 -43 7 -53 66 -91 32 -21 50
-40 52 -56 6 -41 -40 -51 -51 -10 -4 14 -14 19 -42 19 -35 0 -37 -1 -30 -27
11 -49 39 -68 100 -68 72 0 100 25 100 91 0 39 -5 50 -31 72 -17 15 -45 35
-62 44 -19 10 -32 25 -32 36 0 28 28 35 42 12 18 -29 78 -28 78 0 0 35 -44 70
-87 69 -21 0 -48 -4 -60 -9z"/>
<path d="M10110 4165 l0 -155 40 0 40 0 0 155 0 155 -40 0 -40 0 0 -155z"/>
<path d="M10231 4165 l-2 -155 41 0 40 0 0 65 0 65 45 0 c43 0 45 1 45 30 0
29 -2 30 -46 30 -45 0 -45 0 -42 33 3 31 5 32 51 35 42 3 47 5 47 28 0 24 -1
24 -89 24 l-89 0 -1 -155z"/>
<path d="M10432 4293 c2 -24 8 -28 33 -28 l30 -1 3 -127 3 -127 34 0 34 0 3
128 3 127 28 -3 c24 -3 27 0 27 27 l0 31 -101 0 -100 0 3 -27z"/>
<path d="M3050 4288 c-34 -17 -51 -35 -70 -73 -23 -46 -25 -61 -25 -190 0
-131 2 -143 25 -185 31 -55 76 -80 145 -80 90 0 151 49 162 128 l6 42 -62 0
c-58 0 -61 -1 -61 -24 0 -23 -23 -56 -39 -56 -4 0 -16 6 -27 14 -17 13 -19 29
-22 153 -3 145 6 184 41 191 25 5 47 -16 47 -44 0 -23 3 -24 60 -24 l60 0 0
33 c0 38 -29 89 -64 112 -13 9 -48 19 -78 21 -43 4 -62 1 -98 -18z"/>
<path d="M5340 3770 l0 -540 125 0 125 0 0 225 0 225 160 0 160 0 0 100 0 100
-160 0 -160 0 0 115 0 115 170 0 170 0 0 100 0 100 -295 0 -295 0 0 -540z"/>
<path d="M6070 3770 l0 -541 123 3 122 3 3 218 2 217 50 0 c62 0 96 -15 109
-49 5 -14 12 -93 16 -176 3 -82 8 -165 11 -182 l6 -33 117 0 c65 0 120 2 122
4 9 9 -9 364 -21 406 -8 31 -26 59 -58 89 -33 32 -42 46 -32 49 37 12 89 80
105 137 39 133 -2 278 -97 342 -68 45 -122 53 -363 53 l-215 0 0 -540z m401
334 c46 -42 49 -159 5 -211 -20 -23 -33 -27 -90 -31 l-66 -4 0 137 0 138 65
-6 c43 -3 73 -11 86 -23z"/>
<path d="M6912 3773 l3 -538 128 -3 127 -3 0 541 0 540 -130 0 -130 0 2 -537z"/>
<path d="M7360 3770 l0 -540 168 0 c190 0 262 9 335 43 95 43 153 120 188 253
18 65 22 109 23 249 1 181 -9 250 -49 340 -29 65 -67 109 -122 142 -73 43
-139 53 -350 53 l-193 0 0 -540z m395 320 c44 -41 50 -79 50 -310 0 -182 -3
-222 -18 -261 -27 -69 -57 -93 -120 -94 l-52 0 -3 349 -2 348 60 -4 c45 -3 66
-10 85 -28z"/>
<path d="M8370 4301 c0 -5 -47 -243 -105 -529 -58 -286 -105 -525 -105 -531 0
-7 42 -11 125 -11 69 0 125 3 125 8 0 8 28 179 35 207 4 19 11 20 104 17 l99
-3 12 -72 c7 -40 15 -90 19 -112 l7 -40 133 -3 133 -3 -6 26 c-4 14 -47 223
-96 463 -49 240 -96 470 -104 510 -9 40 -16 75 -16 78 0 2 -81 4 -180 4 -99 0
-180 -4 -180 -9z m206 -368 c13 -87 26 -182 30 -210 l7 -53 -68 0 -67 0 5 28
c3 15 18 111 33 214 15 103 30 186 32 183 3 -3 16 -76 28 -162z"/>
<path d="M8899 4262 c11 -26 71 -185 135 -354 l116 -306 0 -186 0 -186 124 0
125 0 3 198 3 197 128 330 c71 182 131 336 134 343 4 9 -25 12 -125 12 l-131
0 -15 -52 c-8 -29 -36 -134 -61 -233 -26 -99 -48 -181 -50 -183 -1 -2 -10 30
-20 70 -22 91 -83 322 -96 366 l-11 32 -139 0 -139 0 19 -48z"/>
<path d="M1820 4035 l0 -265 60 0 59 0 3 103 3 102 60 5 c104 9 149 58 148
162 -1 118 -58 158 -226 158 l-107 0 0 -265z m194 159 c19 -18 22 -94 4 -112
-7 -7 -27 -12 -45 -12 l-33 0 0 63 c0 35 3 67 7 70 12 13 51 7 67 -9z"/>
<path d="M2210 4035 l0 -265 144 0 143 0 7 38 c10 64 14 62 -84 62 l-90 0 0
60 0 60 80 0 80 0 0 50 0 50 -80 0 -80 0 0 55 0 55 85 0 85 0 0 50 0 50 -145
0 -145 0 0 -265z"/>
<path d="M2568 4294 c-5 -4 -8 -124 -8 -266 l0 -258 65 0 65 0 0 110 0 110 28
-6 c47 -12 52 -21 52 -104 0 -108 1 -110 69 -110 l57 0 -3 88 c-5 110 -9 128
-34 153 l-21 21 22 20 c60 56 50 179 -18 225 -21 14 -52 18 -147 21 -66 2
-123 0 -127 -4z m196 -106 c33 -46 7 -108 -45 -108 l-29 0 0 65 0 65 29 0 c20
0 35 -8 45 -22z"/>
<path d="M3350 4035 l0 -265 144 0 143 0 7 38 c10 64 14 62 -84 62 l-90 0 0
60 0 60 80 0 80 0 0 50 0 50 -80 0 -80 0 0 55 0 55 85 0 85 0 0 50 0 50 -145
0 -145 0 0 -265z"/>
<path d="M3700 4035 l0 -265 55 0 55 0 1 168 0 167 51 -167 51 -168 69 0 68 0
0 265 0 265 -55 0 -55 0 0 -157 -1 -158 -39 120 c-22 66 -45 137 -50 158 l-11
37 -69 0 -70 0 0 -265z"/>
<path d="M4090 4251 l0 -50 53 -3 52 -3 3 -212 2 -213 60 0 60 0 0 215 0 215
50 0 50 0 0 50 0 50 -165 0 -165 0 0 -49z"/>
<path d="M4650 4281 c-61 -32 -75 -62 -75 -155 0 -74 3 -86 27 -118 15 -19 49
-46 75 -59 44 -22 61 -24 193 -24 135 0 149 2 195 25 63 31 95 78 95 137 0 48
-23 113 -39 113 -6 0 -11 5 -11 10 0 6 9 10 20 10 17 0 20 7 20 40 l0 40 -160
0 -160 0 0 -96 0 -95 43 3 42 3 -3 38 -4 37 59 0 c76 0 103 -18 103 -69 0 -48
-21 -67 -90 -82 -69 -15 -223 -7 -272 14 -49 21 -66 55 -48 97 9 22 22 33 41
37 28 5 29 8 29 59 0 49 -2 54 -23 54 -12 0 -38 -8 -57 -19z"/>
<path d="M11010 4240 l0 -30 260 0 260 0 0 30 0 30 -260 0 -260 0 0 -30z"/>
<path d="M11480 4056 l0 -96 -235 0 -235 0 0 -30 0 -30 260 0 261 0 -3 123
c-3 118 -4 122 -25 125 -22 3 -23 1 -23 -92z"/>
<path d="M9860 3755 l0 -135 25 0 c25 0 25 1 26 93 l2 92 15 -93 c15 -90 16
-93 41 -90 24 3 27 9 43 97 9 51 20 96 23 100 4 3 3 -40 -1 -97 l-7 -102 27 0
26 0 0 135 0 135 -35 0 c-38 0 -35 7 -59 -110 -15 -72 -20 -68 -36 38 l-12 72
-39 0 -39 0 0 -135z"/>
<path d="M10175 3878 c-2 -7 -16 -60 -30 -118 -14 -58 -28 -113 -31 -122 -4
-14 1 -18 21 -18 20 0 27 6 32 30 5 26 10 30 40 30 29 0 34 -4 40 -30 4 -24
10 -30 33 -30 l27 0 -24 98 c-45 183 -40 172 -74 172 -16 0 -32 -6 -34 -12z
m49 -115 c7 -30 5 -33 -16 -33 -24 0 -24 1 -14 51 11 52 16 49 30 -18z"/>
<path d="M10330 3755 l0 -136 72 3 c60 2 73 6 76 21 3 14 -4 17 -47 17 l-51 0
0 115 0 115 -25 0 -25 0 0 -135z"/>
<path d="M10507 3884 c-4 -4 -7 -65 -7 -136 l0 -128 75 0 c68 0 75 2 75 20 0
17 -7 20 -51 20 l-50 0 2 113 c1 104 0 112 -18 115 -10 2 -22 0 -26 -4z"/>
<path d="M10702 3874 c-19 -13 -22 -24 -20 -57 3 -38 8 -45 56 -76 44 -29 53
-39 50 -60 -4 -34 -42 -41 -60 -12 -15 25 -58 29 -58 6 0 -9 12 -28 26 -42 49
-49 144 -12 144 56 0 36 -24 68 -71 91 -29 16 -39 26 -39 45 0 20 5 25 25 25
16 0 25 -6 25 -15 0 -10 10 -15 29 -15 24 0 28 3 24 20 -12 46 -86 66 -131 34z"/>
<path d="M4570 3780 l0 -50 193 0 192 -1 -190 -77 -190 -77 -3 -62 -3 -63 291
0 290 0 0 50 0 50 -201 2 -201 3 198 76 199 76 3 62 3 61 -291 0 -290 0 0 -50z"/>
<path d="M11480 3731 l0 -101 -100 0 -100 0 0 90 c0 89 0 90 -25 90 -25 0 -25
-1 -25 -90 l0 -90 -85 0 -85 0 0 95 c0 95 0 95 -25 95 l-25 0 0 -125 0 -125
260 0 261 0 -3 128 c-3 123 -4 127 -25 130 -23 3 -23 1 -23 -97z"/>
<path d="M4275 3570 c-27 -11 -58 -45 -92 -105 -36 -62 -71 -82 -110 -63 -52
26 -46 89 10 116 35 17 37 52 3 52 -33 0 -74 -35 -84 -73 -20 -73 16 -139 82
-151 62 -12 104 17 147 100 43 84 106 108 154 59 39 -38 27 -93 -24 -115 -22
-9 -31 -19 -31 -36 0 -26 7 -29 43 -15 60 23 87 88 67 161 -17 65 -97 99 -165
70z"/>
<path d="M3430 3524 l0 -36 129 3 c71 2 127 2 125 -1 -3 -2 -60 -25 -127 -51
l-122 -46 -3 -42 -3 -41 200 0 201 0 0 30 0 29 -142 3 -143 3 140 51 140 52 3
41 3 41 -200 0 -201 0 0 -36z"/>
<path d="M9867 3473 c-4 -3 -7 -62 -7 -130 0 -116 1 -123 20 -123 18 0 20 7
20 60 0 56 2 60 23 60 38 0 56 -21 59 -70 2 -33 7 -46 21 -48 14 -3 17 4 17
47 0 32 -6 55 -16 65 -14 15 -14 17 0 32 17 16 21 61 8 82 -15 24 -127 43
-145 25z m97 -29 c10 -4 16 -18 16 -35 0 -30 -23 -49 -59 -49 -18 0 -21 6 -21
45 0 41 2 45 24 45 13 0 31 -3 40 -6z"/>
<path d="M10070 3350 l0 -131 72 3 c46 2 73 7 76 16 3 9 -12 12 -52 12 l-56 0
0 45 0 45 50 0 c38 0 50 4 50 15 0 11 -12 15 -50 15 l-50 0 0 40 0 40 50 0
c38 0 50 4 50 15 0 12 -14 15 -70 15 l-70 0 0 -130z"/>
<path d="M10240 3466 c0 -9 12 -16 33 -18 l32 -3 3 -112 c2 -91 5 -113 17
-113 12 0 15 21 15 115 l0 115 36 0 c24 0 34 4 32 13 -3 8 -32 13 -86 15 -67
2 -82 0 -82 -12z"/>
<path d="M10467 3473 c-3 -4 -19 -57 -36 -118 -18 -60 -34 -116 -36 -122 -3
-8 4 -13 15 -13 14 0 22 11 30 40 10 38 13 40 49 40 37 0 40 -2 48 -37 6 -27
15 -39 30 -41 20 -3 20 1 -16 125 -31 108 -40 128 -58 131 -12 2 -23 0 -26 -5z
m41 -100 l10 -43 -29 0 c-33 0 -32 -3 -18 56 13 51 22 48 37 -13z"/>
<path d="M10620 3351 c0 -125 1 -131 20 -131 20 0 20 5 18 127 -3 112 -5 128
-20 131 -16 3 -18 -8 -18 -127z"/>
<path d="M10720 3350 l0 -130 70 0 c56 0 70 3 70 15 0 12 -13 15 -55 15 l-55
0 0 115 c0 96 -3 115 -15 115 -13 0 -15 -21 -15 -130z"/>
<path d="M11140 3471 c-105 -34 -130 -72 -130 -198 l0 -93 260 0 260 0 0 78
c0 105 -25 156 -95 192 -43 22 -64 25 -160 27 -60 1 -121 -1 -135 -6z m249
-67 c62 -18 91 -56 91 -121 l0 -43 -216 0 -217 0 7 51 c10 75 34 103 101 120
54 13 180 9 234 -7z"/>
<path d="M4570 3285 l0 -55 290 0 290 0 0 55 0 55 -290 0 -290 0 0 -55z"/>
<path d="M4074 3269 c-56 -16 -69 -41 -72 -140 l-4 -89 221 0 221 0 0 25 0 25
-100 0 -100 0 0 49 c0 65 14 75 114 81 77 5 81 6 84 30 l3 25 -90 -5 c-76 -4
-93 -9 -114 -28 -21 -20 -25 -21 -31 -7 -6 16 -65 46 -88 44 -7 0 -27 -5 -44
-10z m109 -68 c6 -6 12 -33 15 -60 l5 -51 -82 0 -81 0 0 43 c0 49 21 84 53 89
26 4 77 -8 90 -21z"/>
<path d="M3515 3235 c-59 -21 -85 -56 -85 -114 0 -95 56 -131 203 -131 119 0
175 24 195 84 24 75 -14 143 -93 165 -55 15 -172 13 -220 -4z m231 -75 c50
-19 36 -73 -24 -90 -53 -14 -157 -12 -197 4 -29 12 -35 20 -35 44 0 31 21 45
80 56 32 5 148 -4 176 -14z"/>
<path d="M4660 3138 c-67 -35 -84 -77 -89 -220 l-3 -118 291 0 291 0 0 55 0
55 -114 0 -113 0 -6 66 c-4 37 -15 83 -25 103 -22 44 -89 81 -147 81 -23 0
-60 -10 -85 -22z m144 -109 c22 -17 26 -28 26 -70 l0 -49 -85 0 -85 0 0 41 c0
22 5 49 11 60 21 41 92 51 133 18z"/>
<path d="M6153 3073 c-54 -10 -82 -101 -47 -151 8 -12 33 -31 54 -42 50 -26
70 -47 70 -74 0 -52 -73 -61 -86 -11 -5 19 -13 25 -35 25 -24 0 -29 -4 -29
-26 0 -15 12 -38 29 -55 42 -41 107 -41 153 0 29 26 33 35 32 76 -1 54 -18 74
-91 114 -40 22 -48 31 -48 55 0 17 7 33 18 40 15 9 22 6 41 -16 22 -28 76 -40
76 -18 0 27 -32 69 -61 79 -33 11 -37 11 -76 4z"/>
<path d="M7155 3071 c-36 -15 -60 -51 -60 -91 0 -43 22 -73 70 -97 45 -23 75
-54 75 -78 0 -52 -61 -62 -85 -14 -13 24 -22 30 -43 27 -22 -2 -26 -7 -24 -28
2 -14 16 -37 33 -52 40 -38 104 -39 148 -2 27 22 31 32 31 74 0 58 -17 81 -85
118 -38 20 -51 33 -53 53 -6 48 53 66 65 19 4 -15 14 -20 39 -20 19 0 34 2 34
4 0 1 -5 18 -11 36 -17 47 -82 72 -134 51z"/>
<path d="M5330 2895 l0 -175 30 0 30 0 0 70 0 70 35 0 c92 0 142 80 100 160
-21 41 -43 50 -124 50 l-71 0 0 -175z m128 113 c7 -7 12 -26 12 -43 0 -38 -16
-55 -52 -55 -27 0 -28 1 -28 55 0 54 1 55 28 55 15 0 33 -5 40 -12z"/>
<path d="M5590 2895 l0 -175 30 0 30 0 0 75 c0 73 1 75 24 75 41 0 56 -25 56
-91 l0 -59 33 0 32 0 -3 67 c-3 44 -9 74 -19 86 -15 15 -14 19 3 38 13 14 19
36 19 66 0 37 -5 49 -28 69 -24 21 -38 24 -103 24 l-74 0 0 -175z m128 113 c7
-7 12 -24 12 -38 0 -34 -17 -50 -52 -50 -27 0 -28 2 -28 50 0 48 1 50 28 50
15 0 33 -5 40 -12z"/>
<path d="M5850 2895 l0 -175 95 0 c94 0 95 0 95 25 0 23 -4 24 -62 27 l-63 3
-3 48 -3 47 60 0 c61 0 61 0 61 30 0 28 -1 29 -57 32 l-58 3 0 40 0 40 63 3
c58 3 62 4 62 27 0 25 -1 25 -95 25 l-95 0 0 -175z"/>
<path d="M6350 2895 l0 -175 89 0 c72 0 90 3 95 16 12 30 5 34 -59 34 l-65 0
0 50 0 49 58 3 c54 3 57 4 60 31 3 27 3 27 -57 27 l-61 0 0 45 0 45 60 0 c57
0 60 1 60 25 0 25 -1 25 -90 25 l-90 0 0 -175z"/>
<path d="M6580 2895 l0 -175 30 0 29 0 3 123 3 122 43 -122 44 -123 39 0 39 0
0 175 0 175 -30 0 -29 0 -3 -117 -3 -118 -44 118 -43 117 -39 0 -39 0 0 -175z"/>
<path d="M6840 3045 c0 -22 4 -25 40 -25 l40 0 0 -150 0 -150 35 0 35 0 0 150
0 150 35 0 c31 0 35 3 35 25 l0 25 -110 0 -110 0 0 -25z"/>
<path d="M7533 3050 c-51 -31 -65 -70 -71 -197 l-5 -113 292 0 291 0 0 50 0
50 -120 0 -120 0 0 43 c0 66 18 76 139 84 l101 6 0 50 0 50 -61 -7 c-34 -3
-83 -6 -109 -6 -33 0 -58 -7 -83 -24 -31 -21 -37 -23 -48 -10 -38 47 -149 59
-206 24z m157 -100 c14 -14 20 -33 20 -65 l0 -45 -80 0 -80 0 0 45 c0 59 25
85 80 85 27 0 47 -7 60 -20z"/>
<path d="M9147 3046 c-78 -29 -117 -90 -117 -180 0 -105 31 -144 169 -216 106
-55 134 -86 134 -146 0 -39 -4 -51 -27 -71 -54 -46 -132 -20 -156 52 l-12 35
-64 0 c-62 0 -64 -1 -64 -25 0 -34 26 -94 53 -124 61 -66 209 -83 305 -35 74
37 106 94 106 184 -1 110 -46 164 -197 238 -98 49 -123 80 -112 138 11 63 85
85 130 39 14 -13 25 -36 25 -50 0 -24 2 -25 71 -25 l72 0 -6 34 c-9 58 -38
106 -79 134 -32 20 -54 26 -116 29 -50 2 -90 -2 -115 -11z"/>
<path d="M9717 3050 c-118 -36 -175 -181 -165 -424 8 -177 42 -253 135 -300
40 -20 161 -21 206 -2 45 19 93 73 112 125 27 78 25 82 -52 79 l-67 -3 -9 -35
c-16 -65 -58 -88 -115 -64 -50 21 -67 83 -67 249 0 164 7 204 41 245 47 55
128 32 143 -40 l7 -35 68 -3 69 -3 -7 41 c-8 49 -36 108 -63 132 -47 43 -159
61 -236 38z"/>
<path d="M10258 3050 c-106 -32 -168 -162 -168 -355 0 -170 39 -291 113 -349
33 -27 48 -31 112 -34 85 -5 133 9 180 49 120 106 128 511 12 638 -49 53 -165
77 -249 51z m135 -121 c15 -11 32 -39 39 -62 14 -48 17 -269 5 -339 -12 -67
-48 -108 -96 -108 -69 0 -100 63 -108 219 -11 199 26 311 102 311 18 0 44 -9
58 -21z"/>
<path d="M12475 3048 c-108 -38 -156 -164 -106 -274 22 -49 57 -76 170 -134
114 -59 145 -114 106 -189 -37 -73 -154 -47 -171 39 -6 30 -7 30 -75 30 -77 0
-80 -4 -58 -71 33 -97 100 -138 225 -139 66 0 89 4 125 23 60 32 99 89 106
158 12 119 -36 188 -179 260 -110 55 -128 72 -128 123 0 23 4 46 8 52 10 16
48 34 70 34 29 0 70 -37 77 -70 6 -30 8 -30 71 -30 63 0 64 0 64 28 0 34 -31
101 -56 124 -50 45 -174 62 -249 36z"/>
<path d="M8200 2685 l0 -367 143 4 c122 3 148 6 183 25 89 47 132 138 141 298
11 192 -31 317 -124 372 -46 27 -55 28 -195 31 l-148 4 0 -367z m275 222 c44
-44 59 -119 52 -252 -8 -167 -45 -225 -143 -225 l-53 0 -1 255 -1 255 57 0
c50 0 59 -3 89 -33z"/>
<path d="M8780 2685 l0 -365 65 0 65 0 0 365 0 365 -65 0 -65 0 0 -365z"/>
<path d="M10690 2768 c0 -164 4 -299 10 -320 26 -92 101 -138 225 -138 124 0
199 46 225 138 6 21 10 156 10 320 l0 282 -65 0 -65 0 0 -257 c0 -142 -5 -276
-10 -298 -12 -52 -41 -75 -95 -75 -36 0 -48 5 -69 31 l-26 31 0 284 0 284 -70
0 -70 0 0 -282z"/>
<path d="M11285 2685 l0 -365 63 0 63 0 -3 260 c-2 142 0 256 3 252 3 -4 48
-121 100 -259 l94 -253 78 0 77 0 0 365 0 365 -66 0 -66 0 4 -251 c2 -138 2
-248 1 -243 -2 5 -46 117 -97 249 l-93 240 -79 3 -79 3 0 -366z"/>
<path d="M11830 2995 l0 -55 80 0 80 0 0 -310 0 -310 70 0 70 0 0 310 0 310
80 0 80 0 0 55 0 55 -230 0 -230 0 0 -55z"/>
<path d="M4400 2895 l0 -85 -85 0 -85 0 0 80 c0 73 -2 80 -20 80 -17 0 -19 -8
-22 -77 l-3 -78 -70 0 -70 0 -3 78 c-3 69 -5 77 -22 77 -19 0 -20 -7 -20 -105
l0 -105 220 0 220 0 0 110 c0 103 -1 110 -20 110 -18 0 -20 -7 -20 -85z"/>
<path d="M3670 2933 c-19 -10 -44 -32 -55 -50 -11 -18 -29 -47 -40 -65 -22
-36 -57 -47 -81 -27 -22 18 -13 52 19 67 22 11 27 20 27 48 0 38 -6 40 -55 20
-43 -18 -55 -42 -55 -106 0 -44 5 -56 29 -81 24 -23 38 -29 73 -29 54 0 82 19
109 73 30 59 58 87 89 87 32 0 50 -17 50 -45 0 -23 -28 -55 -48 -55 -7 0 -12
-15 -12 -35 0 -31 3 -35 26 -35 34 0 79 47 88 91 19 105 -76 187 -164 142z"/>
<path d="M4650 2697 c-61 -40 -74 -76 -78 -214 l-4 -123 291 0 291 0 0 55 0
55 -114 0 -113 0 -6 71 c-10 124 -63 179 -172 179 -48 0 -70 -5 -95 -23z m160
-107 c15 -15 20 -33 20 -70 l0 -50 -85 0 -85 0 0 50 c0 66 23 90 85 90 32 0
51 -6 65 -20z"/>
<path d="M4400 2630 l0 -80 -200 0 -200 0 0 -25 0 -25 220 0 220 0 0 105 c0
98 -1 105 -20 105 -18 0 -20 -7 -20 -80z"/>
<path d="M7954 2671 c-2 -2 -4 -49 -4 -103 l0 -98 -80 0 -79 0 -3 93 -3 92
-42 3 -42 3 -3 -93 -3 -93 -70 0 -70 0 0 92 0 93 -48 0 -48 0 3 -142 3 -143
288 -3 287 -2 0 149 0 149 -41 4 c-22 2 -42 2 -45 -1z"/>
<path d="M3625 2622 l-190 -47 -3 -47 c-3 -47 -3 -47 35 -57 85 -22 341 -81
351 -81 7 0 12 15 12 35 0 32 -3 35 -37 40 -64 11 -64 11 -61 62 l3 48 48 9
c47 8 47 9 47 47 0 21 -3 39 -7 38 -5 0 -93 -22 -198 -47z m45 -97 c0 -39 7
-38 -115 -10 l-50 11 75 16 c41 9 78 16 83 17 4 0 7 -15 7 -34z"/>
<path d="M4000 2385 l0 -25 220 0 220 0 0 25 0 25 -220 0 -220 0 0 -25z"/>
<path d="M3770 2283 l0 -73 -60 0 -60 0 0 65 0 65 -30 0 -30 0 0 -65 0 -65
-50 0 -50 0 0 70 0 70 -30 0 -30 0 0 -105 0 -105 200 0 200 0 0 104 0 104 -30
4 -30 5 0 -74z"/>
<path d="M4320 2281 c-58 -16 -153 -41 -212 -56 l-108 -28 0 -32 0 -33 220
-55 220 -55 0 24 c0 24 -18 32 -108 50 l-33 7 3 60 3 61 65 16 c58 14 65 19
68 43 4 32 12 32 -118 -2z m-60 -116 c0 -52 -2 -52 -89 -31 -31 8 -69 17 -86
21 -27 7 -22 10 55 30 122 33 120 33 120 -20z"/>
<path d="M7467 2304 c-4 -4 -7 -70 -7 -146 l0 -138 290 0 290 0 0 50 0 50
-125 0 -125 0 0 90 0 90 -45 0 -45 0 0 -90 0 -91 -72 3 -73 3 -1 90 -2 90 -39
3 c-21 2 -42 0 -46 -4z"/>
<path d="M4570 2195 l0 -55 290 0 290 0 0 55 0 55 -290 0 -290 0 0 -55z"/>
<path d="M8470 2114 c-42 -18 -61 -40 -100 -116 -17 -32 -41 -65 -54 -73 -53
-35 -116 18 -83 69 9 13 27 26 39 28 20 3 23 9 23 48 0 44 -1 45 -30 42 -92
-9 -143 -127 -95 -221 25 -50 76 -75 138 -68 60 7 87 30 134 112 46 82 60 95
104 95 82 0 88 -106 8 -126 -21 -5 -24 -12 -24 -50 0 -42 1 -44 29 -44 36 0
92 38 111 75 22 47 19 133 -8 177 -37 60 -120 83 -192 52z"/>
<path d="M8844 2116 c-14 -36 0 -51 49 -54 l47 -3 0 -175 0 -174 40 0 40 0 0
175 0 175 50 0 50 0 0 35 0 35 -135 0 c-109 0 -137 -3 -141 -14z"/>
<path d="M9170 1920 l0 -210 40 0 40 0 0 95 0 95 55 0 55 0 0 -95 0 -95 40 0
40 0 0 210 0 210 -40 0 -40 0 0 -85 0 -85 -55 0 -55 0 0 85 0 85 -40 0 -40 0
0 -210z"/>
<path d="M9596 2122 c-3 -5 -26 -91 -51 -193 -25 -101 -48 -192 -51 -201 -4
-15 1 -18 35 -18 39 0 41 1 51 43 6 23 13 48 15 55 3 7 23 12 54 12 l50 0 11
-55 11 -55 40 0 c24 0 39 5 39 12 0 10 -51 218 -91 371 -10 36 -11 37 -59 37
-27 0 -51 -4 -54 -8z m69 -151 c20 -95 21 -91 -21 -91 -32 0 -36 2 -31 23 3
12 11 50 18 85 6 34 13 61 15 59 2 -2 10 -36 19 -76z"/>
<path d="M9850 1920 l0 -211 36 3 36 3 -1 145 c-1 82 2 141 7 135 4 -6 32 -72
62 -147 l53 -138 44 0 43 0 0 210 0 210 -35 0 -35 0 0 -142 -1 -143 -57 140
-57 140 -47 3 -48 3 0 -211z"/>
<path d="M10220 1920 l0 -211 37 3 37 3 -3 65 c-1 55 2 69 22 94 l23 28 41
-93 42 -94 45 -3 c25 -2 46 -1 46 1 0 2 -22 49 -48 103 -78 162 -77 138 -16
226 30 42 54 79 54 82 0 3 -19 6 -43 6 l-42 0 -54 -85 c-30 -47 -58 -88 -63
-91 -6 -4 -8 30 -7 83 l2 88 -36 3 -37 3 0 -211z"/>
<path d="M10593 2110 c-39 -23 -56 -74 -42 -125 10 -37 36 -58 112 -94 26 -13
52 -32 58 -43 27 -51 -29 -105 -77 -74 -12 9 -25 25 -29 36 -5 16 -15 20 -46
20 -43 0 -45 -5 -25 -55 21 -49 64 -68 143 -63 53 3 68 9 91 31 23 23 27 36
27 81 0 65 -22 94 -100 131 -63 29 -77 45 -73 82 3 25 7 28 38 28 27 0 37 -5
45 -22 8 -18 18 -23 48 -23 38 0 39 1 33 28 -4 15 -20 39 -37 55 -24 22 -38
27 -82 27 -34 0 -63 -7 -84 -20z"/>
<path d="M10934 2111 c-52 -32 -69 -81 -69 -201 0 -113 13 -153 57 -184 29
-20 107 -21 136 0 20 14 22 14 22 0 0 -11 10 -16 30 -16 l30 0 0 120 0 121
-67 -3 -68 -3 -3 -32 c-3 -31 -1 -33 27 -33 29 0 31 -3 31 -36 0 -51 -15 -74
-50 -74 -47 0 -64 36 -65 139 0 99 16 148 51 157 33 8 53 -1 64 -31 8 -20 16
-25 45 -25 31 0 35 3 35 26 0 16 -13 39 -34 60 -30 30 -40 34 -87 34 -35 0
-65 -7 -85 -19z"/>
<path d="M11220 1920 l0 -210 40 0 40 0 0 210 0 210 -40 0 -40 0 0 -210z"/>
<path d="M11350 2126 c0 -3 20 -79 44 -168 25 -90 50 -182 56 -205 11 -42 11
-43 55 -43 24 0 46 4 49 9 3 4 28 91 56 192 28 101 53 192 56 202 4 14 -1 17
-35 17 -22 0 -42 -4 -45 -8 -2 -4 -19 -71 -36 -147 -17 -77 -34 -147 -37 -155
-3 -8 -16 36 -29 98 -13 63 -29 135 -36 160 -13 46 -15 47 -56 50 -23 2 -42 1
-42 -2z"/>
<path d="M11720 1920 l0 -211 38 3 37 3 0 205 0 205 -37 3 -38 3 0 -211z"/>
<path d="M11885 2118 c-3 -8 -4 -101 -3 -208 l3 -195 35 0 35 0 0 148 c0 81 0
147 1 147 1 0 27 -67 59 -150 l58 -150 43 0 44 0 0 210 0 210 -35 0 -34 0 -3
-136 -3 -136 -55 134 -55 133 -43 3 c-28 2 -44 -1 -47 -10z"/>
<path d="M12308 2114 c-87 -47 -105 -298 -28 -376 23 -23 37 -28 77 -28 28 0
58 7 71 16 20 14 22 14 22 -1 0 -12 8 -16 33 -13 l32 3 0 115 0 115 -70 0 -70
0 0 -30 c0 -25 4 -30 28 -33 25 -3 27 -7 27 -46 0 -50 -16 -69 -57 -64 -39 4
-55 43 -55 137 -1 98 15 149 48 157 33 8 53 -1 64 -31 8 -20 16 -25 45 -25 31
0 35 3 35 26 0 16 -13 39 -34 60 -30 30 -40 34 -87 34 -30 -1 -66 -8 -81 -16z"/>
<path d="M3670 2073 c-19 -10 -44 -32 -55 -50 -11 -18 -29 -47 -40 -65 -22
-36 -57 -47 -81 -27 -22 18 -13 52 19 67 22 11 27 20 27 48 0 38 -6 40 -55 20
-43 -18 -55 -42 -55 -106 0 -44 5 -56 29 -81 24 -23 38 -29 73 -29 54 0 82 19
109 73 30 59 58 87 89 87 32 0 50 -17 50 -45 0 -23 -28 -55 -48 -55 -7 0 -12
-15 -12 -35 0 -31 3 -35 26 -35 34 0 79 47 88 91 19 105 -76 187 -164 142z"/>
<path d="M4000 1920 c0 -123 1 -130 20 -130 17 0 20 7 20 50 l0 50 200 0 200
0 0 30 0 30 -200 0 -200 0 0 50 c0 43 -3 50 -20 50 -19 0 -20 -7 -20 -130z"/>
<path d="M4572 1978 l3 -53 113 -3 112 -3 0 -74 0 -75 -116 0 -115 0 3 -52 3
-53 288 -3 287 -2 0 55 0 55 -130 0 -130 0 0 75 0 75 130 0 130 0 0 55 0 55
-291 0 -290 0 3 -52z"/>
<path d="M7465 1948 c-3 -8 -4 -75 -3 -149 l3 -134 288 -3 287 -2 0 50 0 50
-110 1 c-60 1 -116 2 -122 3 -9 1 -14 28 -16 91 l-3 90 -44 -3 -45 -4 0 -90 0
-90 -72 4 -73 3 -2 95 -1 95 -41 3 c-28 2 -43 -1 -46 -10z"/>
<path d="M8600 1673 l0 -93 -75 0 -74 0 -3 83 -3 82 -37 3 -38 3 0 -85 0 -86
-65 0 -65 0 0 85 0 85 -40 0 -40 0 0 -130 0 -130 260 0 261 0 -3 132 -3 133
-37 6 -38 6 0 -94z"/>
<path d="M4400 1675 l0 -85 -85 0 -85 0 0 80 c0 73 -2 80 -20 80 -18 0 -20 -7
-20 -80 l0 -81 -72 3 -73 3 -3 78 c-3 69 -5 77 -22 77 -19 0 -20 -7 -20 -105
l0 -105 220 0 220 0 0 110 c0 103 -1 110 -20 110 -18 0 -20 -7 -20 -85z"/>
<path d="M790 1465 l0 -215 109 0 109 0 4 30 c3 17 2 32 0 35 -3 3 -38 5 -79
5 l-73 0 0 60 0 60 70 0 70 0 0 35 0 35 -70 0 -70 0 0 50 0 50 76 0 75 0 -3
33 -3 32 -107 3 -108 3 0 -216z"/>
<path d="M1067 1673 c-4 -3 -7 -100 -7 -215 l0 -208 110 0 110 0 0 25 c0 14 0
28 0 31 0 4 -30 7 -68 8 l-67 1 -3 183 -2 182 -34 0 c-18 0 -36 -3 -39 -7z"/>
<path d="M1324 1667 c-2 -7 -3 -102 -2 -212 l3 -200 110 0 110 0 3 33 3 32
-75 0 -76 0 0 60 0 60 71 0 70 0 -3 33 -3 32 -67 3 -68 3 0 49 0 50 70 0 70 0
0 35 0 35 -105 0 c-77 0 -107 -4 -111 -13z"/>
<path d="M1645 1647 c-40 -40 -55 -89 -55 -185 0 -93 16 -155 47 -187 52 -52
147 -40 190 24 34 50 31 71 -11 71 -28 0 -37 -5 -48 -27 -9 -19 -22 -29 -41
-31 -43 -5 -60 46 -55 169 2 79 7 101 22 118 27 30 58 23 75 -16 12 -28 20
-33 48 -33 38 0 44 21 18 70 -22 43 -53 60 -108 60 -42 0 -54 -5 -82 -33z"/>
<path d="M1880 1645 c0 -35 0 -35 45 -35 l45 0 0 -180 0 -180 35 0 35 0 0 180
0 180 45 0 c45 0 45 0 45 35 l0 35 -125 0 -125 0 0 -35z"/>
<path d="M2180 1465 l0 -215 35 0 35 0 0 90 0 90 34 0 c50 0 66 -28 66 -112
l0 -68 39 0 39 0 -4 63 c-7 96 -13 124 -29 137 -13 11 -11 16 10 42 50 59 21
157 -52 177 -21 6 -68 11 -105 11 l-68 0 0 -215z m158 133 c7 -7 12 -27 12
-45 0 -38 -34 -67 -72 -61 -21 3 -23 9 -26 61 l-3 57 39 0 c21 0 43 -5 50 -12z"/>
<path d="M2544 1661 c-46 -28 -64 -83 -64 -194 0 -112 11 -155 49 -191 58 -55
153 -39 196 34 28 49 30 257 2 307 -33 61 -121 82 -183 44z m92 -49 c25 -16
34 -56 34 -149 0 -111 -12 -146 -51 -151 -35 -4 -48 16 -61 93 -22 130 21 245
78 207z"/>
<path d="M2817 1673 c-4 -3 -7 -100 -7 -215 l0 -208 35 0 35 0 1 153 0 152 39
-110 c77 -213 67 -195 111 -195 l39 0 0 215 0 215 -30 0 -30 0 0 -147 -1 -148
-56 148 -55 147 -38 0 c-20 0 -40 -3 -43 -7z"/>
<path d="M3150 1465 l0 -216 38 3 37 3 0 210 0 210 -37 3 -38 3 0 -216z"/>
<path d="M3359 1665 c-46 -25 -64 -77 -67 -200 -3 -99 -1 -115 20 -155 18 -36
31 -48 66 -60 37 -13 47 -13 84 0 44 16 73 48 84 93 6 26 5 27 -35 27 -33 0
-41 -3 -41 -19 0 -46 -65 -54 -87 -11 -16 32 -17 210 -2 244 22 47 70 45 88
-4 9 -26 15 -30 47 -30 36 0 36 1 30 32 -9 44 -32 77 -62 88 -36 14 -95 12
-125 -5z"/>
<path d="M3650 1667 c-36 -18 -62 -74 -55 -117 8 -44 36 -74 103 -112 59 -34
77 -58 68 -94 -14 -54 -88 -52 -102 1 -5 21 -12 25 -45 25 -38 0 -39 -1 -33
-27 17 -73 74 -110 152 -98 55 8 101 50 103 92 3 83 -11 111 -79 153 -80 49
-92 60 -92 83 0 54 64 66 83 17 9 -24 17 -30 43 -30 17 0 33 3 36 6 12 11 -12
69 -37 92 -30 25 -103 30 -145 9z"/>
<path d="M4937 1576 c-56 -20 -84 -51 -123 -133 -41 -84 -76 -117 -114 -108
-38 10 -50 24 -50 60 0 34 22 61 55 67 17 3 21 12 23 56 3 51 3 52 -25 52 -38
0 -89 -33 -113 -72 -40 -66 -20 -205 34 -244 58 -40 155 -37 202 7 13 12 42
57 64 100 46 89 69 109 122 109 43 0 68 -27 68 -73 0 -33 -40 -77 -70 -77 -18
0 -20 -6 -20 -56 l0 -57 37 6 c82 14 124 69 130 169 4 63 1 79 -19 118 -40 73
-123 105 -201 76z"/>
<path d="M7605 1571 c-44 -11 -87 -36 -115 -66 -20 -21 -25 -39 -28 -93 -3
-57 0 -72 20 -101 12 -19 46 -46 73 -60 47 -25 58 -26 200 -26 139 0 154 2
200 25 68 34 95 77 95 150 0 73 -27 116 -95 150 -45 23 -63 25 -185 27 -74 1
-148 -2 -165 -6z m321 -114 c56 -29 52 -82 -8 -113 -42 -22 -206 -30 -280 -15
-56 12 -98 44 -98 75 0 23 26 47 65 62 56 20 277 15 321 -9z"/>
<path d="M9835 1555 c-88 -32 -120 -108 -120 -290 0 -112 2 -124 29 -179 24
-49 36 -61 74 -78 56 -25 126 -21 170 10 17 12 41 43 54 70 21 43 23 60 23
192 0 136 -2 149 -25 195 -41 78 -122 110 -205 80z m90 -55 c46 -18 68 -87 68
-215 0 -60 -5 -129 -12 -152 -22 -78 -98 -108 -145 -58 -32 35 -46 97 -46 207
0 135 21 197 75 219 27 11 30 11 60 -1z"/>
<path d="M10846 1560 c-38 -12 -85 -57 -103 -99 -22 -51 -32 -171 -22 -263 14
-125 60 -191 141 -204 91 -15 164 30 195 119 13 38 17 83 17 167 0 177 -35
253 -129 279 -46 13 -59 13 -99 1z m111 -82 c28 -26 43 -97 43 -198 0 -155
-34 -230 -104 -230 -51 0 -81 41 -96 132 -16 92 -7 218 18 267 33 63 90 75
139 29z"/>
<path d="M11836 1560 c-46 -14 -95 -69 -112 -125 -9 -31 -15 -91 -15 -161 0
-194 55 -284 176 -284 124 0 179 90 179 290 0 177 -35 253 -129 279 -46 13
-59 13 -99 1z m111 -82 c29 -27 43 -90 43 -192 0 -161 -33 -236 -104 -236 -26
0 -40 7 -60 30 -33 40 -41 82 -41 215 0 89 4 118 20 150 33 66 92 80 142 33z"/>
<path d="M8890 1281 l0 -281 40 0 40 0 0 120 0 120 66 0 c118 0 178 55 179
162 0 62 -17 94 -69 132 -23 18 -45 21 -142 25 l-114 3 0 -281z m203 208 c52
-24 65 -122 22 -164 -20 -21 -34 -25 -85 -25 l-60 0 0 100 0 100 50 0 c27 0
60 -5 73 -11z"/>
<path d="M9309 1556 c-2 -2 -3 -128 -1 -280 l3 -276 34 0 35 0 0 125 0 125 59
0 c79 0 101 -24 101 -114 0 -33 3 -78 6 -98 6 -36 9 -38 43 -38 l36 0 -6 102
c-6 105 -23 160 -54 172 -13 4 -10 11 15 33 34 30 53 91 43 133 -21 91 -72
119 -214 120 -53 0 -98 -2 -100 -4z m216 -77 c22 -22 30 -83 16 -118 -15 -36
-48 -51 -111 -51 l-50 0 0 96 0 96 65 -4 c40 -2 71 -10 80 -19z"/>
<path d="M10180 1280 l0 -280 37 0 36 0 -5 248 c-3 136 -4 243 -2 237 4 -11
104 -475 104 -481 0 -11 71 -2 75 9 3 6 29 113 59 237 l55 225 0 -237 1 -238
35 0 35 0 0 280 0 280 -53 0 -54 0 -37 -142 c-20 -79 -45 -179 -55 -223 -14
-62 -20 -74 -25 -55 -13 55 -96 414 -96 417 0 2 -25 3 -55 3 l-55 0 0 -280z"/>
<path d="M11110 1530 c0 -29 0 -29 68 -32 l67 -3 3 -247 2 -248 35 0 35 0 0
250 0 250 65 0 65 0 0 30 0 30 -170 0 -170 0 0 -30z"/>
<path d="M11530 1280 l0 -280 35 0 35 0 0 280 0 280 -35 0 -35 0 0 -280z"/>
<path d="M12170 1281 l0 -281 35 0 36 0 -3 224 c-2 123 -1 222 2 219 3 -2 46
-102 96 -221 l91 -217 41 -3 42 -3 0 280 0 281 -30 0 -30 0 0 -222 -1 -223
-93 220 -94 220 -46 3 -46 3 0 -280z"/>
<path d="M4065 1461 c-47 -21 -60 -49 -63 -142 l-4 -89 221 0 221 0 0 25 0 25
-100 0 -100 0 0 48 c0 66 19 82 96 82 83 0 104 8 104 36 0 23 -2 23 -67 18
-110 -8 -132 -14 -143 -35 -10 -19 -12 -18 -33 7 -25 28 -94 42 -132 25z m114
-65 c9 -9 15 -35 15 -63 l1 -48 -77 -3 -78 -3 0 46 c0 63 35 100 88 92 19 -4
42 -13 51 -21z"/>
<path d="M8218 1392 c-46 -28 -58 -68 -58 -186 l0 -106 258 2 257 3 0 45 0 45
-107 3 -108 3 0 39 c0 56 19 70 94 70 35 0 78 3 95 6 29 6 31 9 31 50 l0 44
-67 0 c-94 -1 -150 -14 -179 -40 -13 -13 -24 -18 -24 -12 0 7 -15 21 -32 32
-41 25 -122 26 -160 2z m142 -92 c13 -13 20 -33 20 -60 l0 -40 -75 0 -75 0 0
34 c0 48 33 86 76 86 21 0 42 -8 54 -20z"/>
<path d="M3084 1060 c-58 -23 -90 -123 -81 -251 8 -125 48 -179 131 -179 69 0
105 28 126 99 9 31 8 31 -30 31 -32 0 -39 -4 -44 -25 -8 -33 -49 -53 -71 -35
-21 18 -35 75 -35 150 0 89 15 138 47 153 22 10 28 8 44 -12 11 -13 19 -29 19
-37 0 -10 12 -14 39 -14 l39 0 -9 38 c-12 54 -58 92 -112 91 -23 0 -52 -4 -63
-9z"/>
<path d="M3374 1051 c-47 -29 -67 -88 -67 -201 0 -73 5 -106 20 -140 25 -58
43 -71 98 -78 59 -6 100 12 127 57 21 32 23 49 23 161 0 112 -2 129 -22 161
-12 19 -34 41 -48 47 -38 18 -96 14 -131 -7z m102 -62 c16 -18 19 -37 19 -140
0 -108 -2 -120 -21 -140 -58 -58 -105 48 -89 198 10 93 49 128 91 82z"/>
<path d="M3640 898 c0 -238 19 -273 144 -265 51 3 63 8 87 35 l29 32 0 175 c0
96 1 178 3 183 1 4 -15 8 -35 10 l-38 3 0 -160 c0 -88 -4 -171 -9 -184 -13
-33 -46 -43 -76 -23 -24 16 -25 18 -27 189 l-3 172 -37 3 -38 3 0 -173z"/>
<path d="M3978 1064 c-5 -4 -8 -101 -8 -216 l0 -208 40 0 40 0 0 84 0 84 57 4
c47 4 61 10 84 36 35 39 44 85 27 136 -20 60 -51 77 -149 83 -46 3 -87 2 -91
-3z m154 -81 c42 -37 7 -113 -52 -113 l-30 0 0 65 0 65 32 0 c17 0 40 -7 50
-17z"/>
<path d="M4327 1040 c-46 -40 -60 -94 -55 -211 5 -143 43 -199 133 -199 96 0
139 68 139 220 0 154 -43 220 -143 220 -30 0 -49 -7 -74 -30z m103 -40 c11 -6
23 -30 29 -60 23 -106 5 -224 -35 -242 -21 -10 -28 -8 -47 10 -20 20 -22 35
-25 135 -3 103 -2 115 18 140 23 30 32 32 60 17z"/>
<path d="M4610 856 l0 -216 36 0 36 0 -7 150 c-4 83 -5 150 -3 150 3 0 29 -67
59 -150 l54 -150 43 0 42 0 -2 213 -3 212 -30 0 -30 0 -3 -140 -3 -140 -53
140 -53 140 -41 3 -42 3 0 -215z"/>
<path d="M4995 1061 c-35 -15 -57 -49 -62 -93 -5 -56 22 -100 79 -129 64 -32
88 -58 88 -94 0 -72 -78 -75 -103 -2 -8 23 -77 25 -77 2 0 -34 30 -84 59 -99
60 -32 150 -14 185 36 21 30 20 106 -2 142 -9 16 -46 45 -82 65 -55 31 -65 41
-68 67 -2 19 3 36 12 43 23 19 63 6 70 -24 5 -21 12 -25 41 -25 39 0 45 17 23
65 -21 47 -104 70 -163 46z"/>
<path d="M8287 1016 c-95 -27 -141 -85 -134 -169 9 -102 84 -149 243 -155 125
-5 202 14 250 62 38 38 51 98 34 153 -17 51 -36 72 -89 96 -58 26 -233 33
-304 13z m251 -92 c38 -8 72 -38 72 -64 0 -51 -65 -73 -212 -72 -117 1 -163
21 -163 72 0 53 42 70 171 70 56 0 115 -3 132 -6z"/>
<path d="M8160 510 l0 -160 40 0 40 0 0 55 0 55 220 0 220 0 0 45 0 45 -220 0
-220 0 0 60 0 60 -40 0 -40 0 0 -160z"/>
<path d="M8449 297 c-20 -14 -49 -50 -72 -92 -21 -39 -45 -76 -54 -82 -28 -22
-71 -16 -89 12 -22 33 -10 62 32 77 32 11 34 15 34 56 l0 45 -36 -6 c-50 -8
-83 -32 -100 -72 -52 -125 42 -248 164 -216 44 12 79 47 117 116 36 66 51 83
86 90 91 20 111 -102 22 -129 -19 -6 -23 -14 -23 -52 0 -51 10 -55 77 -25 53
25 77 68 77 141 0 102 -54 160 -150 160 -37 0 -61 -6 -85 -23z"/>
</g>
</svg>
