<?xml version="1.0" encoding="utf-8"?>
<svg id="master-artboard" viewBox="0 0 412.1855773925781 927.3633422851562" version="1.1" xmlns="http://www.w3.org/2000/svg" x="0px" y="0px" style="enable-background:new 0 0 1400 980;" width="412.1855773925781px" height="927.3633422851562px"><rect id="ee-background" x="0" y="0" width="412.1855773925781" height="927.3633422851562" style="fill: white; fill-opacity: 0; pointer-events: none;"/><g transform="matrix(0.5653177499771118, 0, 0, 0.5653177499771118, 64.91852569580078, 102.75550842285156)"><metadata>
Created by potrace 1.15, written by Peter Selinger 2001-2017
</metadata><g transform="translate(0.000000,1280.000000) scale(0.100000,-0.100000)" fill="#9e9e9e" stroke="none">
<path d="M2882 12784 c-16 -11 -34 -14 -56 -10 -39 7 -132 -18 -140 -39 -3 -8&#10;-17 -15 -31 -15 -18 0 -25 -5 -25 -20 0 -16 -7 -20 -35 -20 -37 0 -69 -24&#10;-158 -117 -146 -155 -189 -241 -238 -485 -35 -174 -35 -279 -2 -443 29 -143&#10;23 -240 -20 -363 -20 -57 -48 -125 -63 -150 -60 -102 -210 -213 -269 -198 -16&#10;4 -42 -1 -69 -12 -23 -11 -69 -22 -102 -26 -79 -10 -164 -47 -309 -135 -130&#10;-78 -144 -91 -213 -196 -25 -38 -62 -89 -83 -112 -21 -22 -47 -61 -60 -85 -12&#10;-23 -43 -72 -69 -108 -26 -36 -52 -81 -59 -100 -11 -35 -66 -109 -171 -230&#10;-31 -36 -62 -81 -69 -100 -6 -19 -16 -89 -21 -155 -8 -100 -16 -140 -49 -235&#10;-77 -222 -81 -229 -136 -256 -43 -22 -139 -138 -150 -183 -4 -14 -35 -84 -71&#10;-155 l-64 -129 0 -202 c0 -196 1 -206 31 -309 26 -90 28 -110 17 -123 -7 -9&#10;-50 -33 -94 -54 -79 -37 -82 -39 -93 -83 -16 -65 -15 -73 23 -119 l34 -42 -9&#10;-100 c-4 -55 -13 -225 -19 -378 -10 -265 -10 -282 8 -340 11 -34 25 -88 32&#10;-119 10 -51 18 -63 63 -103 85 -75 121 -92 222 -104 50 -5 109 -17 133 -25 45&#10;-16 131 -28 332 -46 69 -6 141 -15 162 -21 33 -8 37 -13 43 -52 22 -138 56&#10;-311 66 -328 5 -11 14 -46 19 -77 6 -31 23 -84 40 -117 16 -33 36 -91 45 -129&#10;8 -37 27 -98 42 -135 21 -53 28 -89 33 -187 6 -116 8 -124 44 -190 35 -62 41&#10;-87 67 -249 15 -99 42 -224 58 -278 19 -60 38 -160 51 -258 11 -88 25 -169 30&#10;-179 6 -10 10 -28 10 -40 0 -11 14 -57 32 -101 l31 -79 -22 -24 c-32 -34 -39&#10;-76 -51 -281 -13 -224 -33 -354 -66 -425 -15 -32 -28 -82 -31 -120 -3 -36 -11&#10;-87 -19 -115 -7 -27 -39 -174 -71 -325 l-58 -275 1 -235 c0 -151 5 -258 14&#10;-300 22 -111 24 -263 5 -390 -15 -100 -16 -150 -9 -381 l9 -266 27 -39 c16&#10;-22 28 -52 28 -67 0 -35 -41 -137 -80 -198 -28 -43 -30 -52 -22 -86 6 -21 13&#10;-78 16 -126 3 -49 11 -97 16 -107 5 -10 30 -31 55 -48 25 -17 41 -33 35 -37&#10;-17 -10 -11 -44 9 -54 10 -6 63 -18 118 -26 103 -17 264 -57 323 -81 60 -26&#10;495 -109 645 -124 101 -11 413 -11 483 -1 46 7 59 14 93 52 35 40 39 48 34 84&#10;-3 22 -17 65 -31 96 -29 65 -71 100 -214 179 -52 29 -107 62 -122 72 -39 27&#10;-36 56 7 74 31 13 66 13 282 0 136 -8 250 -13 253 -11 3 2 82 8 175 15 106 8&#10;182 18 202 27 18 8 58 42 88 75 l55 59 -17 31 c-46 79 -134 120 -298 142 -214&#10;29 -342 54 -381 75 -62 34 -136 89 -181 136 -33 34 -58 49 -109 65 -78 24&#10;-144 59 -144 76 0 6 -7 17 -15 24 -8 7 -15 25 -15 41 0 20 -13 43 -40 73 -47&#10;51 -49 70 -15 117 27 35 49 101 60 179 4 25 16 83 26 129 32 137 39 205 49&#10;431 15 346 33 529 106 1063 34 254 56 316 133 378 30 24 65 64 78 89 23 43 24&#10;51 17 175 -6 117 -4 145 20 265 14 74 41 216 61 315 52 270 132 653 154 742&#10;11 43 45 238 76 433 30 195 65 382 76 415 13 38 26 121 35 225 8 91 19 181 24&#10;200 5 19 14 87 20 150 16 168 17 174 43 185 41 18 60 79 72 225 6 74 17 148&#10;23 163 7 16 12 66 12 111 0 76 -2 86 -28 118 l-28 36 -2 208 c-1 173 -5 223&#10;-21 289 -12 44 -21 99 -21 122 0 23 -7 58 -17 77 -15 32 -15 37 0 60 26 40 21&#10;55 -27 76 -52 22 -57 32 -39 86 13 37 12 46 -6 91 -26 66 -30 100 -41 363 -8&#10;192 -7 232 6 275 21 71 39 334 39 576 l0 205 -38 76 c-29 60 -62 102 -155 199&#10;-170 178 -273 265 -361 305 -84 39 -80 19 -39 184 l23 95 105 6 c58 3 115 11&#10;127 17 12 7 40 43 62 80 22 37 83 117 137 177 92 105 134 167 134 198 0 8 7&#10;21 16 28 14 11 15 27 10 95 l-7 81 59 57 58 56 12 117 c13 137 35 229 62 258&#10;68 73 43 264 -55 411 -35 54 -166 167 -214 185 -13 6 -45 25 -70 43 -96 70&#10;-181 103 -326 125 -41 6 -75 17 -81 26 -14 19 -14 19 -42 -1z"/>

<path d="M1290 342 c0 -5 7 -16 16 -23 14 -12 16 -11 13 5 -4 20 -29 35 -29&#10;18z"/>
</g></g></svg>