<?xml version="1.0" encoding="utf-8"?>
<svg id="master-artboard" viewBox="0 0 545.53173828125 1006.3182983398438" version="1.1" xmlns="http://www.w3.org/2000/svg" x="0px" y="0px" style="enable-background:new 0 0 1400 980;" width="545.53173828125px" height="1006.3182983398438px"><g transform="matrix(0.765625, 0, 0, 0.765625, -267.3983154296875, 7.018219470977783)"><metadata>
Created by potrace 1.15, written by Peter Selinger 2001-2017
</metadata><g transform="translate(0.000000,1280.000000) scale(0.100000,-0.100000)" fill="#9e9e9e" stroke="none">
<path d="M6867 11609 c-101 -24 -236 -138 -257 -219 -20 -74 -32 -101 -64&#10;-144 -49 -65 -82 -134 -110 -232 -22 -76 -26 -107 -24 -191 3 -114 -1 -124&#10;-106 -241 -31 -34 -56 -71 -56 -81 0 -11 15 -31 33 -45 67 -53 67 -52 69 -123&#10;4 -112 2 -141 -12 -182 -10 -32 -10 -46 0 -70 24 -58 75 -75 273 -90 129 -10&#10;150 -20 184 -85 20 -39 14 -220 -9 -242 -8 -8 -43 -22 -78 -30 -299 -70 -550&#10;-405 -738 -984 -59 -180 -62 -202 -77 -431 -17 -265 -26 -318 -99 -573 -78&#10;-270 -91 -330 -120 -518 -28 -178 -33 -197 -68 -241 -21 -27 -23 -37 -20 -135&#10;2 -81 -1 -120 -15 -159 -17 -51 -16 -53 5 -105 27 -66 27 -80 0 -148 -20 -51&#10;-22 -72 -23 -300 0 -231 -11 -364 -36 -465 -6 -22 -14 -62 -19 -90 -5 -27 -25&#10;-88 -45 -133 -41 -94 -41 -106 6 -181 18 -31 35 -79 45 -128 8 -45 22 -85 32&#10;-94 9 -8 43 -23 75 -33 35 -10 57 -23 57 -31 0 -26 -189 -418 -236 -490 -18&#10;-27 -38 -69 -44 -93 -6 -23 -24 -57 -40 -76 -17 -18 -30 -37 -30 -41 0 -4 -9&#10;-18 -20 -32 -11 -14 -36 -75 -56 -136 -42 -131 -41 -163 13 -302 19 -49 39&#10;-108 44 -130 15 -63 31 -99 51 -115 22 -19 48 -108 48 -168 0 -28 7 -54 20&#10;-72 37 -51 84 -299 205 -1072 9 -62 15 -166 15 -287 0 -206 4 -221 56 -221&#10;l24 0 -2 -197 -3 -196 -50 -26 c-91 -48 -207 -134 -263 -198 -31 -35 -89 -86&#10;-130 -114 -69 -47 -83 -52 -198 -74 -68 -13 -136 -30 -150 -37 -60 -29 -85&#10;-148 -43 -202 48 -61 138 -79 533 -106 161 -11 356 -30 432 -41 94 -15 190&#10;-23 294 -23 l155 -2 10 -44 c5 -25 13 -50 17 -56 23 -35 299 -57 544 -44 87 5&#10;240 23 339 39 99 16 279 44 400 61 121 17 230 35 242 40 33 14 53 95 53 214 0&#10;133 -23 255 -52 277 -16 12 -24 33 -29 75 -16 128 -7 381 17 457 3 10 15 17&#10;30 17 38 0 88 25 112 55 18 23 22 41 22 104 0 42 4 146 10 231 12 201 32 726&#10;31 810 -3 112 -29 328 -78 625 -2 17 -8 39 -13 50 -5 11 -11 38 -14 60 -2 22&#10;-14 90 -25 150 -22 124 -41 327 -41 445 l0 79 48 6 c104 13 226 39 412 87 107&#10;27 238 61 290 73 225 55 418 143 646 293 155 102 234 164 329 256 49 48 55 59&#10;55 94 0 71 -30 284 -55 387 -13 55 -26 111 -28 125 -14 74 -75 281 -142 475&#10;-42 121 -80 249 -85 283 -7 54 -18 78 -70 155 -50 74 -61 96 -56 119 4 19 1&#10;28 -7 28 -24 0 -57 78 -57 134 0 44 -6 63 -39 113 -21 32 -51 69 -67 80 -27&#10;20 -27 21 -11 46 24 36 21 68 -8 112 -45 65 -73 125 -442 955 -36 80 -69 149&#10;-74 155 -5 5 -9 15 -9 23 0 8 -20 58 -43 111 -57 124 -62 145 -40 167 16 16&#10;16 20 0 82 -26 97 -37 116 -78 126 -39 10 -60 37 -95 126 -66 169 -227 527&#10;-249 556 -30 40 -90 76 -163 100 -30 9 -56 23 -59 29 -2 7 9 37 26 67 17 30&#10;31 64 31 76 0 27 17 37 35 22 13 -10 15 -8 15 12 0 13 -8 47 -17 74 -18 54&#10;-109 151 -198 213 -28 19 -65 49 -83 65 -33 31 -33 32 -26 96 8 81 30 132 81&#10;190 179 204 227 320 227 550 0 117 -4 147 -27 225 -38 125 -106 259 -167 328&#10;-59 65 -137 114 -302 191 -64 29 -128 62 -143 74 -53 42 -129 62 -228 61 -51&#10;-1 -109 -5 -130 -10z m1290 -3052 c20 -26 78 -148 116 -242 95 -235 471 -1116&#10;524 -1228 21 -42 37 -87 36 -99 -1 -11 7 -38 18 -59 10 -21 19 -51 19 -67 0&#10;-17 8 -40 18 -52 15 -18 21 -20 45 -11 32 12 29 17 46 -79 26 -145 27 -140 -6&#10;-140 -15 0 -45 9 -65 20 -68 36 -153 49 -271 40 -60 -5 -130 -14 -157 -21 -63&#10;-16 -88 -1 -126 78 -26 56 -27 63 -25 199 2 105 -1 154 -13 190 -8 27 -20 67&#10;-25 89 -6 22 -17 63 -25 90 -44 151 -61 240 -92 475 -8 63 -21 162 -29 220&#10;-12 81 -35 488 -35 603 0 24 25 21 47 -6z m-1477 -3958 c4 -57 12 -86 33 -122&#10;35 -60 152 -158 237 -199 75 -36 80 -41 80 -88 0 -19 7 -73 16 -120 10 -60 14&#10;-137 12 -265 -3 -210 3 -238 69 -307 45 -46 45 -46 39 -100 -7 -53 -6 -55 29&#10;-86 19 -18 35 -38 35 -45 0 -7 13 -34 29 -59 28 -44 30 -57 41 -200 6 -84 15&#10;-445 20 -803 6 -438 13 -659 21 -677 13 -31 -3 -172 -27 -245 -8 -22 -19 -65&#10;-24 -94 -15 -78 -32 -99 -81 -99 -34 0 -51 -9 -111 -57 -39 -32 -112 -96 -162&#10;-143 -160 -151 -214 -187 -366 -246 -52 -20 -113 -47 -136 -60 -22 -13 -46&#10;-24 -52 -24 -6 0 -13 32 -16 77 -3 43 -15 134 -26 203 -17 104 -25 131 -48&#10;160 -40 50 -42 54 -53 117 -17 107 -28 237 -30 387 l-3 150 26 10 c58 24 58&#10;27 53 175 -3 75 -10 165 -15 201 -5 36 -14 175 -20 310 -6 135 -15 313 -21&#10;396 -12 187 -55 414 -108 568 -15 41 -21 84 -21 141 0 69 -3 87 -22 110 -12&#10;15 -27 49 -34 74 -7 25 -18 60 -25 78 -11 27 -11 35 3 50 8 10 18 32 22 48 4&#10;17 11 48 16 70 4 23 20 50 37 65 38 35 78 88 144 190 97 148 407 542 424 536&#10;6 -1 12 -36 15 -77z"/>

<path d="M1290 342 c0 -5 7 -16 16 -23 14 -12 16 -11 13 5 -4 20 -29 35 -29&#10;18z"/>
</g></g><rect id="ee-background" x="0" y="0" width="545.53173828125" height="1006.3182983398438" style="fill: white; fill-opacity: 0; pointer-events: none;"/></svg>