<?xml version="1.0" standalone="no"?>
<!DOCTYPE svg PUBLIC "-//W3C//DTD SVG 20010904//EN"
 "http://www.w3.org/TR/2001/REC-SVG-20010904/DTD/svg10.dtd">
<svg version="1.0" xmlns="http://www.w3.org/2000/svg"
 width="1280.000000pt" height="1232.000000pt" viewBox="0 0 1280.000000 1232.000000"
 preserveAspectRatio="xMidYMid meet">
<metadata>
Created by potrace 1.15, written by Peter Selinger 2001-2017
</metadata>
<g transform="translate(0.000000,1232.000000) scale(0.100000,-0.100000)"
fill="#F3983E" stroke="none">
<path d="M840 12309 c-152 -23 -410 -129 -571 -235 -99 -66 -203 -169 -231
-230 -22 -48 -22 -59 -29 -619 -10 -780 -9 -6830 0 -7347 l8 -416 26 -54 c51
-103 207 -297 592 -733 370 -420 415 -476 415 -518 0 -32 -31 -70 -214 -263
-167 -176 -194 -220 -203 -331 -17 -216 130 -497 434 -825 274 -298 526 -493
845 -654 l167 -84 148 0 c448 0 807 85 1198 285 241 122 458 270 642 437 301
272 617 688 802 1055 l31 62 3613 3 3612 3 76 43 c236 135 446 410 568 740
l31 83 0 3285 0 3284 -61 123 c-106 211 -204 347 -429 593 -336 366 -813 751
-1135 916 -131 67 -173 80 -370 113 -406 67 -2688 375 -7895 1065 -833 110
-1544 205 -1580 211 -93 14 -413 20 -490 8z m1670 -1574 c739 -96 1784 -233
4670 -615 3975 -526 4646 -618 4744 -651 179 -60 276 -156 325 -324 47 -163
46 -76 44 -3225 l-1 -2965 -40 -110 c-69 -193 -160 -351 -237 -409 -29 -23
-53 -30 -123 -38 -56 -6 -1392 -12 -3702 -15 l-3616 -5 -86 -171 c-289 -573
-581 -956 -950 -1246 -222 -175 -471 -292 -678 -320 -77 -10 -349 -31 -410
-31 -58 0 -57 6 63 256 237 494 265 584 288 909 13 180 6 519 -10 539 -7 8
-49 16 -108 20 -167 12 -693 66 -793 81 -184 29 -274 72 -377 177 l-52 53 -7
3935 -7 3936 79 72 c88 82 255 198 312 217 20 8 48 11 62 9 14 -2 288 -38 610
-79z"/>
</g>
</svg>
