<?xml version="1.0" standalone="no"?>
<!DOCTYPE svg PUBLIC "-//W3C//DTD SVG 20010904//EN"
 "http://www.w3.org/TR/2001/REC-SVG-20010904/DTD/svg10.dtd">
<svg version="1.0" xmlns="http://www.w3.org/2000/svg"
 width="1280.000000pt" height="986.000000pt" viewBox="0 0 1280.000000 986.000000"
 preserveAspectRatio="xMidYMid meet">
<metadata>
Created by potrace 1.15, written by Peter Selinger 2001-2017
</metadata>
<g transform="translate(0.000000,986.000000) scale(0.100000,-0.100000)"
fill="#F3983E" stroke="none">
<path d="M6159 9719 c-96 -78 -221 -182 -278 -231 l-104 -89 -51 49 c-81 77
-146 127 -296 228 -325 216 -402 224 -650 61 -134 -89 -232 -165 -410 -321
-79 -69 -146 -124 -149 -122 -3 2 -58 33 -121 69 -206 118 -535 249 -660 264
-29 3 -68 -1 -102 -11 -47 -13 -66 -27 -118 -83 -107 -114 -225 -311 -290
-483 l-36 -95 -566 -3 -565 -2 -32 -70 c-38 -83 -46 -146 -61 -500 -13 -329
-25 -369 -120 -384 -19 -3 -163 -13 -320 -21 -370 -20 -445 -36 -504 -105 -40
-48 -49 -99 -43 -245 4 -112 10 -145 40 -241 59 -186 71 -339 31 -415 -20 -39
-80 -78 -288 -187 -302 -157 -326 -180 -347 -329 -15 -100 0 -244 32 -312 33
-70 186 -214 302 -285 53 -33 97 -62 97 -64 0 -3 -87 -93 -193 -201 -212 -215
-298 -330 -337 -446 -38 -115 -16 -201 75 -290 67 -65 123 -97 333 -194 163
-75 254 -131 330 -201 l33 -31 -100 -252 c-155 -393 -157 -399 -116 -482 50
-103 179 -181 387 -234 131 -34 236 -47 442 -57 l148 -7 -7 -41 c-28 -166 -35
-237 -35 -348 0 -111 3 -136 24 -192 55 -146 131 -227 297 -318 57 -31 120
-70 139 -86 l35 -30 -1 -108 c0 -126 -8 -158 -174 -724 -199 -682 -361 -1254
-372 -1320 -15 -87 0 -132 58 -173 86 -61 346 -74 534 -27 114 28 338 140 470
235 228 164 428 340 965 850 439 416 526 496 590 545 107 82 272 160 338 160
27 0 47 -15 143 -115 l112 -115 130 0 c71 0 154 5 183 10 110 21 248 101 479
279 184 142 199 153 209 147 5 -3 46 -60 91 -127 145 -210 206 -264 345 -299
191 -49 284 -21 593 179 200 130 259 156 348 155 102 -1 154 -32 260 -155 108
-126 152 -163 221 -184 109 -34 255 7 393 112 36 27 132 100 214 162 179 136
250 172 351 179 88 5 147 -10 293 -80 266 -125 309 -141 414 -146 109 -5 209
9 281 40 64 28 129 102 208 239 35 60 83 143 107 184 48 83 135 176 183 195
28 12 48 10 178 -20 269 -62 272 -62 371 -57 74 4 118 13 195 40 111 38 374
138 417 158 l28 12 2 336 3 336 100 12 c468 56 732 160 813 320 30 58 45 149
38 220 -6 60 -15 89 -87 288 -28 77 -33 104 -33 185 -1 120 15 156 95 215 55
41 93 60 341 179 177 84 226 138 236 262 7 89 -3 123 -57 206 -38 58 -236 316
-355 464 -19 23 -19 23 7 61 15 22 93 108 173 193 181 191 331 356 351 386 42
64 -56 154 -437 399 -193 124 -316 211 -338 237 -10 13 2 52 73 233 115 292
137 358 143 437 6 82 -6 115 -59 163 -97 87 -307 162 -669 236 -213 43 -270
58 -270 70 0 4 17 56 37 116 37 106 38 111 38 258 l0 151 -38 76 c-47 96 -128
173 -242 229 -120 59 -202 73 -350 59 -151 -14 -280 -34 -419 -66 -145 -32
-155 -31 -214 15 -76 61 -105 102 -203 294 -138 268 -174 305 -321 328 -96 15
-282 5 -378 -20 -41 -11 -138 -36 -215 -57 -118 -31 -157 -37 -251 -38 -109
-1 -112 -1 -185 37 -41 20 -157 98 -259 173 -234 172 -296 209 -395 234 -86
23 -125 20 -185 -10 -60 -31 -275 -200 -491 -389 l-46 -40 -31 42 c-54 74
-218 233 -292 282 -116 77 -221 112 -396 130 l-61 7 -174 -143z m-781 -554
c49 -21 103 -74 227 -226 110 -133 155 -178 208 -205 76 -40 285 -26 396 26
86 41 176 116 330 276 l128 133 44 -46 c113 -117 345 -325 392 -352 71 -40
162 -61 273 -61 242 0 362 72 533 322 40 59 79 112 86 118 15 12 48 -13 360
-274 110 -92 229 -187 265 -211 l65 -45 384 171 384 170 24 -28 c31 -37 112
-175 208 -353 85 -157 153 -268 177 -287 11 -10 120 -13 439 -15 l424 -3 12
-145 c31 -348 97 -495 266 -594 95 -56 299 -110 557 -147 47 -7 89 -15 93 -19
4 -4 -10 -52 -32 -106 -89 -223 -103 -462 -35 -603 50 -102 244 -264 461 -387
29 -16 53 -31 53 -34 0 -3 -41 -57 -91 -120 -132 -166 -314 -410 -333 -447
-39 -77 -11 -119 243 -376 l196 -199 -59 -54 c-58 -53 -114 -83 -397 -218 -89
-42 -171 -111 -201 -169 -15 -31 -20 -59 -20 -114 1 -82 6 -101 62 -271 42
-127 57 -216 46 -276 -5 -27 -17 -43 -44 -61 -74 -48 -351 -124 -607 -165 -71
-12 -140 -23 -152 -26 l-23 -4 0 -338 0 -337 -472 -3 c-274 -1 -487 -6 -509
-12 -21 -6 -50 -25 -66 -43 -35 -40 -107 -185 -194 -392 -61 -145 -100 -205
-133 -205 -34 0 -122 38 -376 160 -146 70 -289 136 -317 146 -49 17 -55 17
-85 2 -18 -9 -139 -100 -268 -203 -266 -213 -326 -255 -356 -255 -28 0 -135
77 -294 211 -302 254 -309 258 -451 259 l-96 0 -149 -157 c-198 -208 -318
-313 -359 -313 -66 0 -159 58 -370 230 -222 182 -267 212 -343 230 -71 17
-110 -6 -398 -235 -207 -166 -289 -225 -309 -225 -22 0 -116 54 -230 132 -157
108 -164 111 -280 115 l-100 5 -670 -538 c-882 -707 -1318 -1050 -1324 -1044
-4 3 -6 50 -5 105 0 113 5 135 153 660 49 176 119 428 156 560 36 132 72 263
80 290 50 180 67 323 44 382 -15 40 -76 101 -129 128 -67 34 -145 45 -322 45
l-158 0 0 405 0 405 -426 0 -427 0 7 67 c8 77 99 357 171 528 62 147 63 148
29 196 -72 105 -250 233 -476 344 -133 65 -158 84 -158 116 0 19 89 122 270
314 136 143 180 205 180 247 0 50 -47 124 -241 381 -165 219 -187 253 -171
261 9 6 157 83 327 172 l310 161 -1 89 c-1 117 -17 172 -124 443 -49 125 -90
232 -90 238 0 14 82 23 205 23 193 0 444 39 528 81 167 85 217 209 247 609 6
80 13 160 16 179 l5 34 77 -6 c42 -3 142 -20 222 -37 234 -50 349 -70 446 -77
83 -5 93 -4 112 15 27 27 79 118 211 373 61 119 125 238 142 264 l30 48 46 -7
c59 -8 195 -55 341 -118 304 -130 270 -121 437 -126 l150 -4 149 158 c171 183
249 259 291 285 37 23 102 24 153 4z"/>
</g>
</svg>
